<svg width="24" height="24" viewBox="0 0 24 24" fill="none" xmlns="http://www.w3.org/2000/svg">
<rect width="24" height="24" fill="#151515"/>
<path fill-rule="evenodd" clip-rule="evenodd" d="M13.2973 16.6074C13.2274 16.6391 13.0273 16.6391 12.9575 16.6074H13.2973Z" fill="#7C7B7B"/>
<path fill-rule="evenodd" clip-rule="evenodd" d="M11.1805 1.64106C8.89259 1.8477 7.48803 2.93765 6.305 4.24914H6.28638C6.24729 4.22773 6.24636 4.22866 6.26776 4.26775C6.21285 4.29568 6.17934 4.35525 6.13559 4.34315C6.15049 4.34687 6.15793 4.35897 6.15421 4.38131C6.06485 4.45484 5.98294 4.53675 5.90848 4.62704V4.64565C5.16571 5.4843 4.72172 6.62079 4.39688 7.87736C4.38198 7.88108 4.37454 7.89318 4.37826 7.91552C4.35778 8.04025 4.31497 8.1417 4.30287 8.27481C4.30193 8.29901 4.27867 8.30087 4.28425 8.33158C4.21816 8.61827 4.17069 8.92357 4.11392 9.21956V9.25772C4.04969 9.73522 3.99291 10.2202 3.98174 10.7507C3.9501 10.7898 3.9501 10.9573 3.98174 10.9964C4.01804 11.1984 3.99943 11.3669 4.05714 11.5633C4.29263 12.3694 5.20853 12.5397 5.94664 12.8292C7.09617 13.2806 7.96273 14.0038 8.17682 15.3423V15.3609C8.21032 15.561 8.23825 15.7658 8.23359 16.0032C7.63323 16.3103 8.00462 17.1341 8.1582 17.6665V18.0258C7.96646 19.0441 7.08128 19.368 6.9491 20.4449C7.07941 20.5975 7.22741 20.7334 7.4024 20.8414C7.41729 20.8833 7.46848 20.8889 7.49734 20.9168C8.7567 21.7554 10.421 22.1883 12.411 22.2962C12.5124 22.34 12.6939 22.3027 12.827 22.3148H12.9974C13.124 22.3027 13.2999 22.34 13.3939 22.2962C13.4637 22.2897 13.5614 22.3121 13.6015 22.2776H13.6396C14.4894 22.2329 15.2387 22.0877 15.8884 21.8429C15.934 21.8504 15.9294 21.8085 15.9834 21.8243V21.8057C16.0951 21.7787 16.1704 21.7154 16.2859 21.6922C16.6061 20.4067 16.149 19.2795 15.7944 18.3283C15.7116 18.1067 15.5682 17.8173 15.5673 17.6665C15.5664 17.511 15.6781 17.3342 15.7181 17.175C15.7646 16.9907 15.7758 16.825 15.8316 16.6463V16.5896C16.1118 14.4255 16.9104 12.7798 19.0438 12.4699H19.3649C19.5092 12.0408 19.6535 11.6117 19.6674 11.0523C19.7112 10.9508 19.6739 10.7693 19.686 10.6362C19.6739 10.5543 19.7102 10.4231 19.6674 10.3719C19.6227 9.84319 19.5334 9.35918 19.4217 8.8975C19.4208 8.8733 19.3975 8.87144 19.4031 8.84073C18.9135 6.85535 17.8784 5.41449 16.6442 4.17281C16.5763 4.08904 16.5009 4.01365 16.4171 3.9457C16.3063 3.85541 16.2161 3.74372 16.096 3.66181C16.0597 3.60968 16.0159 3.56594 15.9638 3.52964C15.7842 3.36861 15.5934 3.21968 15.4156 3.05679C15.4044 3.00188 15.3979 2.88832 15.397 2.92462C15.3895 2.98792 15.2899 2.86505 15.3402 2.92462C15.3458 2.96279 15.3914 2.96185 15.397 3.00002C15.3718 2.99443 15.3607 2.97302 15.3216 2.9814C14.4252 2.28982 13.4339 1.69412 11.9009 1.64013C11.7622 1.59638 11.5416 1.63362 11.3722 1.62152C11.3145 1.63362 11.2093 1.59732 11.1833 1.64013L11.1805 1.64106Z" fill="#6DDE00"/>
<path fill-rule="evenodd" clip-rule="evenodd" d="M16.6046 4.02156C16.5608 4.02715 16.5608 4.07275 16.6046 4.07834C16.7247 4.03925 16.613 4.0076 16.6046 3.9834C16.5813 3.98712 16.5934 4.00481 16.6046 4.02156Z" fill="white"/>
<path fill-rule="evenodd" clip-rule="evenodd" d="M6.15436 4.3815C6.15715 4.35917 6.15063 4.348 6.13574 4.34334C6.17949 4.35544 6.213 4.29587 6.26791 4.26795C6.24651 4.22886 6.24744 4.22792 6.28653 4.24933C6.26047 4.30518 6.19904 4.32566 6.17297 4.3815H6.15436Z" fill="white"/>
<path fill-rule="evenodd" clip-rule="evenodd" d="M5.90869 4.62692C5.98222 4.53757 6.06413 4.45566 6.15442 4.3812H6.17304C6.1991 4.32535 6.26053 4.30487 6.28659 4.24902H6.30521C6.26239 4.30766 6.21213 4.35793 6.15442 4.39981C6.06134 4.46404 6.00177 4.56177 5.90869 4.62692Z" fill="#E9E8E8"/>
<path fill-rule="evenodd" clip-rule="evenodd" d="M16.4155 3.94629C16.4993 4.01424 16.5747 4.08963 16.6426 4.1734C16.5589 4.10545 16.4835 4.03006 16.4155 3.94629Z" fill="#606161"/>
<path fill-rule="evenodd" clip-rule="evenodd" d="M15.3188 2.98375C15.3579 2.97537 15.3691 2.99678 15.3942 3.00236C15.3886 2.9642 15.343 2.96513 15.3374 2.92697C15.2872 2.8674 15.3867 2.99026 15.3942 2.92697C15.3942 2.89067 15.4026 3.00422 15.4128 3.05914C15.3793 3.04239 15.3579 3.01353 15.3179 3.00236V2.98375H15.3188Z" fill="white"/>
<path fill-rule="evenodd" clip-rule="evenodd" d="M12.7958 22.4549L12.7688 22.4438C12.7595 22.44 12.7353 22.4335 12.6739 22.4335C12.6432 22.4335 12.6115 22.4354 12.5799 22.4363C12.5445 22.4382 12.5082 22.4391 12.4738 22.4391C12.4468 22.4391 12.4207 22.4391 12.3956 22.4354C11.3531 22.3786 10.4121 22.2315 9.57621 21.9951L9.45149 22.0929V21.9588C8.678 21.728 7.99759 21.419 7.41771 21.0327L7.35907 20.9936V20.9787L7.32649 20.9592C7.14871 20.8484 6.98955 20.7097 6.84062 20.5338L6.8006 20.4872L6.80804 20.4267C6.88158 19.8292 7.17105 19.4513 7.45029 19.0855C7.69881 18.7616 7.93337 18.4544 8.019 17.9992L8.02179 17.9853L8.02738 17.9722C8.04413 17.9285 8.04413 17.7637 8.02738 17.72L8.02272 17.7051C8.00225 17.6353 7.97805 17.5599 7.95385 17.4817C7.78817 16.9633 7.56291 16.2615 8.09346 15.9226C8.0916 15.7393 8.07019 15.5717 8.03855 15.3837L8.0069 15.192C7.7863 14.1486 7.11055 13.4365 5.89587 12.959C5.77114 12.9097 5.64269 12.865 5.5068 12.8175C4.86548 12.5932 4.13854 12.3382 3.92352 11.6019C3.88629 11.4735 3.87698 11.3571 3.86954 11.2454C3.86395 11.1691 3.85837 11.0974 3.84441 11.0202L3.84254 11.0081V10.8917L3.80811 10.928L3.84254 10.754V10.7493C3.85092 10.3379 3.88722 9.95162 3.93097 9.58955L3.89374 9.62492L3.97751 9.1921C3.99706 9.09157 4.01474 8.99012 4.03336 8.88773C4.0678 8.69226 4.1041 8.49028 4.14877 8.29854L4.17298 8.19429C4.18228 8.13472 4.19625 8.08167 4.21021 8.02954C4.22231 7.983 4.23441 7.93832 4.24185 7.89178L4.26699 7.73448L4.28932 7.741C4.67188 6.30199 5.15496 5.28743 5.80558 4.55211L5.81303 4.54373L5.82141 4.53722C5.90425 4.46927 5.98057 4.39294 6.04852 4.3101L6.05969 4.29614L6.07365 4.2859C6.12019 4.25239 6.16021 4.21144 6.19372 4.16583L6.19838 4.16025L6.20303 4.15466C7.27437 2.9679 8.7022 1.72437 11.1697 1.50098H11.1818H11.8995C13.4921 1.55775 14.5252 2.19349 15.4048 2.87203L15.4588 2.91392V2.92043C15.4588 2.92043 15.4607 2.92136 15.4616 2.92229C15.4663 2.92602 15.4718 2.93067 15.4774 2.93346L15.4932 2.94184L15.5081 2.95487C15.6003 3.03957 15.699 3.12241 15.7948 3.20246C15.8823 3.27599 15.9698 3.34953 16.0554 3.42585L16.0852 3.45191L16.0964 3.49008L16.2733 3.5422L16.2397 3.59526C16.2928 3.63807 16.3393 3.68275 16.3849 3.72743C16.4259 3.76652 16.4641 3.80375 16.5041 3.83726L16.5153 3.84657L16.5246 3.85774C16.586 3.93313 16.6549 4.00294 16.7312 4.06344L16.7368 4.0681L16.7424 4.07368C18.1981 5.53688 19.0824 7.01963 19.5189 8.73229H19.5245L19.5403 8.79744L19.9136 9.02176L19.7051 9.0199L19.8298 9.16231L19.6092 9.08971C19.706 9.52811 19.7712 9.94511 19.8056 10.3574V10.3695V11.05C19.7916 11.6354 19.6409 12.0813 19.4956 12.5122L19.464 12.6072H19.2387L19.2145 12.5876C19.2052 12.5858 19.1885 12.5839 19.1661 12.5839C19.1438 12.5839 19.1261 12.5858 19.1168 12.5876L19.101 12.6007L19.0628 12.6062C17.2729 12.8659 16.3198 14.0685 15.9828 16.4997H16.0219L16.0098 16.5379L16.0648 16.5537L15.9735 16.6542C15.9735 16.6542 15.9577 16.7064 15.9549 16.7166V16.7231H15.9531C15.9307 16.8041 15.9168 16.8832 15.9019 16.967C15.8879 17.0433 15.8739 17.1224 15.8525 17.2071C15.8348 17.2779 15.8069 17.3468 15.779 17.4138C15.7427 17.5031 15.7055 17.5953 15.7055 17.6632C15.7055 17.7442 15.7827 17.9294 15.8432 18.0774C15.8721 18.1463 15.9 18.2142 15.9233 18.2766L15.967 18.3948C16.3096 19.3098 16.7359 20.4481 16.4185 21.7233L16.397 21.809L16.3105 21.8266C16.2667 21.835 16.2276 21.8536 16.183 21.8741C16.1346 21.8965 16.0796 21.9225 16.0126 21.9383V21.9421L15.9344 21.9709C15.2727 22.2194 14.502 22.3693 13.6438 22.414H13.6335C13.5916 22.4317 13.5479 22.4345 13.5116 22.4345C13.4948 22.4345 13.4781 22.4345 13.4604 22.4335C13.4474 22.4335 13.4334 22.4326 13.4204 22.4326C13.4139 22.4326 13.3971 22.4335 13.3971 22.4335H13.1439L13.1458 22.4521H12.7958V22.4549ZM12.3258 21.6275L12.3369 21.6293C12.4226 21.6433 12.5454 21.6507 12.6739 21.6507C12.8023 21.6507 12.9243 21.6433 13.0108 21.6293L13.022 21.6275H13.157C13.1728 21.6256 13.1895 21.6247 13.2072 21.6247C13.2314 21.6247 13.2566 21.6265 13.2817 21.6275C13.3012 21.6284 13.3208 21.6303 13.3385 21.6303C13.345 21.6303 13.3496 21.6303 13.3524 21.6303L13.3757 21.6107L13.4241 21.6088C14.1771 21.5809 14.8975 21.459 15.6841 21.2244C15.8097 20.2387 15.5128 19.5174 15.2252 18.8183C15.1265 18.5801 15.0251 18.3343 14.9422 18.0802C14.8752 18.0932 14.8073 18.0998 14.7365 18.0998C14.5252 18.0998 14.3307 18.0421 14.1427 17.9853C13.9807 17.9369 13.8271 17.8913 13.6661 17.881H13.6577L13.6494 17.8792C13.5795 17.8661 13.4753 17.8578 13.3636 17.8578C13.2519 17.8578 13.1477 17.8652 13.0778 17.8792L13.0648 17.882H13.0518C12.8014 17.8829 12.5622 17.9015 12.3304 17.9201C12.2467 17.9266 12.1629 17.9332 12.0782 17.9387H12.0689H11.3829H11.3773C10.9529 17.9062 10.6057 17.7963 10.3432 17.6111C10.3078 17.6372 10.2715 17.6651 10.2343 17.6949C10.0667 17.827 9.87686 17.9769 9.6181 17.9769C9.60693 17.9769 9.59669 17.9769 9.58552 17.9769C9.51106 17.9732 9.44497 17.9425 9.38633 17.9155C9.35469 17.9006 9.32118 17.8848 9.29698 17.8792C9.21134 17.8596 9.11826 17.8531 9.0196 17.8466C8.95445 17.8419 8.88743 17.8373 8.81948 17.8289C8.78225 18.043 8.7385 18.2329 8.68731 18.406V18.4097L8.69103 18.4237L8.68172 18.4265L8.64915 18.5363L8.64077 18.5335C8.46764 19.0687 8.21168 19.5164 7.96408 19.9502C7.89893 20.0637 7.83284 20.1801 7.76862 20.2974C8.71244 21.0615 10.0686 21.4906 11.9088 21.6088L11.9507 21.6116L11.9739 21.6293C11.9739 21.6293 11.986 21.6303 11.9981 21.6303C12.0177 21.6303 12.0391 21.6293 12.0596 21.6275C12.0866 21.6256 12.1126 21.6247 12.1377 21.6247C12.1564 21.6247 12.174 21.6247 12.1908 21.6275H12.3258ZM13.8718 17.3589C13.9975 17.4305 14.1138 17.4845 14.2832 17.4882L14.4117 17.491V17.4957L14.4936 17.4882C14.8882 17.4519 15.0939 17.2555 15.1349 16.873C14.9208 16.8032 14.676 16.7566 14.4377 16.711L14.3344 16.6915L14.3111 16.6896L14.058 16.8553L14.1362 16.6626C14.0766 16.6505 14.0179 16.6366 13.963 16.6235C13.9193 16.6133 13.8755 16.6031 13.8355 16.5947C13.8355 16.6226 13.8346 16.6477 13.8327 16.671C13.8327 16.6831 13.8309 16.6999 13.8299 16.7129L13.8597 16.7399L13.8504 16.8125C13.8448 16.8544 13.8504 16.8851 13.8579 16.927C13.8644 16.9651 13.8718 17.0079 13.8709 17.0619V17.3579L13.8718 17.3589ZM12.5129 17.4212C12.5343 17.4287 12.5901 17.437 12.6646 17.437C12.739 17.437 12.7949 17.4287 12.8163 17.4212L12.8331 17.4156L12.8507 17.4138C12.8638 17.4128 12.8787 17.4119 12.8926 17.4119C12.9094 17.4119 12.9271 17.4119 12.9438 17.4138C12.9568 17.4138 12.9708 17.4147 12.9838 17.4147C12.9885 17.4147 12.9922 17.4147 12.9959 17.4147L13.291 17.1606C13.291 17.1485 13.291 17.1364 13.291 17.1234L13.2891 17.0768L13.3096 17.048C13.3161 17.0191 13.3161 16.953 13.3096 16.9242L13.2845 16.8879L13.2929 16.832C13.2984 16.7985 13.2929 16.7808 13.2817 16.7473H12.9578C12.8898 16.7464 12.8293 16.7408 12.7707 16.7362C12.7093 16.7306 12.6515 16.7259 12.5892 16.7259C12.565 16.7259 12.5399 16.7259 12.5138 16.7287L12.4514 16.7334L12.4254 16.7082C12.417 16.7073 12.4058 16.7064 12.39 16.7064C12.3742 16.7064 12.363 16.7073 12.3546 16.7082L12.3323 16.7296H12.2271C12.2271 16.7296 12.2271 16.7362 12.2271 16.7399V16.8646L12.2085 16.8674C12.2104 17.0573 12.2085 17.222 12.1778 17.3644C12.2569 17.3961 12.3369 17.4147 12.4356 17.4147H12.4868L12.5119 17.4221L12.5129 17.4212ZM10.7053 16.7064C10.7295 16.8209 10.7118 16.926 10.6969 17.0154C10.6811 17.1113 10.6727 17.1727 10.6987 17.223C10.7295 17.2797 10.9193 17.3775 11.0655 17.3961C11.0925 17.3998 11.1195 17.4007 11.1455 17.4007C11.4108 17.4007 11.6212 17.236 11.6454 17.0089L11.6509 16.9614L11.6668 16.9456C11.6696 16.926 11.6696 16.8953 11.6668 16.8758L11.6491 16.8572L11.6454 16.8069C11.6379 16.6943 11.5914 16.6161 11.5374 16.5267C11.5318 16.5174 11.5262 16.5081 11.5206 16.4988C11.5123 16.4988 11.503 16.4979 11.4918 16.4979C11.4685 16.4979 11.4527 16.4997 11.4434 16.5016L11.4192 16.5211H11.3708C11.2023 16.523 11.0636 16.5509 10.9435 16.5937L10.9063 16.6207V16.6077C10.8328 16.6366 10.7667 16.671 10.7043 16.7073L10.7053 16.7064ZM8.60075 17.1094C8.75991 17.2137 8.97772 17.276 9.26533 17.3002L9.28208 17.3021L9.29791 17.3077C9.32304 17.316 9.38261 17.3244 9.46173 17.3244C9.54084 17.3244 9.60135 17.316 9.62555 17.3077L9.63858 17.303L9.65254 17.3011C10.0565 17.2527 10.1328 17.0861 10.1542 16.9298L10.1617 16.8767L10.1756 16.8646C10.1766 16.8525 10.1766 16.8376 10.1756 16.8246L10.1654 16.8153L10.1561 16.7678C10.1403 16.6905 10.0937 16.6394 10.0342 16.5742C9.99972 16.536 9.96156 16.4951 9.92898 16.4457H9.67674L9.66464 16.4439C9.58831 16.4299 9.47662 16.4225 9.35841 16.4225C9.2402 16.4225 9.1285 16.4299 9.05218 16.4439L9.04008 16.4457H8.75805C8.75805 16.4457 8.75433 16.4504 8.75246 16.4532C8.72547 16.4858 8.71523 16.4997 8.71244 16.5184L8.69662 16.6152L8.65939 16.6217L8.65659 16.6254C8.63798 16.6682 8.6296 16.7389 8.62215 16.8078L8.6175 16.8497L8.61098 16.8655C8.59516 16.9074 8.59237 17.0377 8.60261 17.1085L8.60075 17.1094ZM13.2891 17.1839L13.2659 17.2909C13.277 17.2583 13.2854 17.2239 13.2891 17.1839ZM14.0775 16.0511C14.3921 16.1563 14.7635 16.2186 15.1852 16.2382C15.2391 16.0399 15.2215 15.7486 15.1368 15.5624C15.106 15.4945 15.0679 15.4479 15.0353 15.4386C15.0176 15.434 14.999 15.4312 14.9767 15.4312C14.9013 15.4312 14.811 15.461 14.716 15.4926C14.6444 15.5168 14.5699 15.541 14.4945 15.555L14.474 15.5699C14.2823 15.7048 14.1538 15.8603 14.0775 16.0511ZM12.4198 16.1293C12.4998 16.1311 12.5799 16.1321 12.6581 16.1321C12.8619 16.1321 13.1039 16.1237 13.3059 16.0725L13.2808 16.039L13.4539 16.0222C13.4632 16.0185 13.4725 16.0139 13.4809 16.0101L13.5311 15.9859C13.533 15.9105 13.5432 15.8463 13.5535 15.7877C13.5628 15.7328 13.5712 15.6806 13.5721 15.6239V15.5913L13.587 15.5624C13.5944 15.5429 13.5991 15.4787 13.5954 15.4433C13.5302 15.3958 13.4706 15.3725 13.4129 15.3725C13.3012 15.3725 13.1821 15.4591 13.0564 15.5503C12.901 15.663 12.7251 15.7914 12.5063 15.7914C12.4793 15.7914 12.4533 15.7895 12.4263 15.7858C12.3937 15.8724 12.3379 15.9394 12.2923 15.9934C12.2373 16.0595 12.2141 16.093 12.2113 16.1237L12.2206 16.1311C12.2206 16.1311 12.229 16.1311 12.2355 16.1311C12.2532 16.1311 12.2727 16.1302 12.2923 16.1283C12.3174 16.1265 12.3435 16.1256 12.3667 16.1256C12.3853 16.1256 12.403 16.1256 12.4188 16.1283L12.4198 16.1293ZM10.4949 15.9133C10.6503 15.945 10.8095 15.9608 10.9603 15.9608C11.3214 15.9608 11.6119 15.8687 11.7785 15.702C11.8762 15.6043 11.932 15.4787 11.9451 15.3279C11.8641 15.2804 11.798 15.2432 11.7012 15.2367L11.6761 15.2348L11.6528 15.2246C11.6435 15.2208 11.6025 15.2134 11.5402 15.2134C11.4778 15.2134 11.4369 15.2208 11.4266 15.2255L11.4108 15.2311L11.3875 15.2357C11.1399 15.2674 10.9547 15.3642 10.7583 15.4675C10.6978 15.4991 10.6355 15.5317 10.5703 15.5634C10.5684 15.6676 10.5442 15.7467 10.5228 15.8137C10.5117 15.8491 10.5014 15.8808 10.4958 15.9143L10.4949 15.9133ZM9.53061 15.0226C9.48965 15.0226 9.45242 15.0244 9.42077 15.0282C9.21693 15.0524 8.98516 15.1715 8.90511 15.2646C8.8232 15.3586 8.73106 15.5727 8.76456 15.7058C8.80273 15.8547 9.07545 15.8761 9.23461 15.8761C9.4822 15.8761 9.74376 15.8277 9.89548 15.7933C9.90199 15.7709 9.90851 15.7495 9.91502 15.7272C9.95505 15.5931 9.99321 15.4666 9.98297 15.2953L9.97925 15.2413L10.0025 15.2125C10.0072 15.1892 10.0072 15.1445 10.0025 15.1184C9.9476 15.0756 9.75586 15.0226 9.52967 15.0226H9.53061ZM13.385 14.7415C13.425 14.7415 13.4669 14.7452 13.5079 14.7517C13.6605 14.7759 13.7815 14.8746 13.8886 14.9621C13.9816 15.0375 14.0691 15.1091 14.1483 15.1091C14.26 15.1091 14.3744 15.043 14.4954 14.9723C14.6416 14.8876 14.8082 14.7908 15.0064 14.7908C15.0837 14.7908 15.161 14.8057 15.2373 14.8346C15.2438 14.8373 15.2503 14.8401 15.2559 14.8429C15.8404 13.3406 17.0607 12.2777 18.9781 11.5963V11.0034C18.9735 10.9541 18.9763 10.902 18.9781 10.8526C18.98 10.8117 18.9837 10.7437 18.9763 10.7232L18.9595 10.6953V10.6655C18.8171 8.43257 18.0883 6.66221 16.7303 5.25485C16.6363 5.14688 16.5395 5.04822 16.438 4.957H16.411L16.3701 4.91325C15.8916 4.40132 15.2829 3.94337 14.5103 3.51335L14.4135 3.47146C14.3428 3.44074 14.2758 3.41003 14.2097 3.38024C14.0896 3.32533 13.9751 3.2732 13.8532 3.22852C13.7722 3.19874 13.6819 3.17733 13.587 3.15499C13.4585 3.12427 13.3254 3.09263 13.2007 3.03585C13.089 2.98466 13.0006 2.90647 12.9159 2.83108C12.8545 2.77616 12.7958 2.72497 12.7353 2.6896C12.3946 2.49227 11.811 2.35079 11.2507 2.33031L11.1967 2.32845L11.1762 2.3089H11.1716C11.1548 2.3089 11.1371 2.30983 11.1195 2.3117C11.0953 2.31356 11.0711 2.31449 11.0487 2.31449C11.0357 2.31449 11.0227 2.31449 11.0106 2.31263C10.9994 2.31356 10.9882 2.31449 10.9771 2.31449C10.9566 2.31449 10.9352 2.31263 10.9138 2.3117C10.9054 2.3117 10.897 2.31076 10.8886 2.30983L10.8709 2.3331L10.7983 2.33031C10.7807 2.33031 10.7639 2.33031 10.7471 2.33031C10.5591 2.33031 10.4055 2.36568 10.2427 2.40384C10.1961 2.41501 10.1486 2.42525 10.1002 2.43549L10.1021 2.44107L9.94667 2.47831C9.69722 2.53788 9.4822 2.62909 9.25788 2.72683V2.73241L9.18342 2.76964C9.05218 2.83573 8.9228 2.90647 8.79621 2.98L8.85206 3.04516L8.69941 3.03771C7.7137 3.63342 6.8732 4.45903 6.19558 5.49872C5.51238 6.54586 5.08236 7.88713 4.7994 9.84551L4.78544 9.94418L4.77427 9.94604C4.68584 10.5306 4.68863 11.2119 4.94925 11.4511L4.97904 11.4558C5.24338 11.4995 5.51611 11.5442 5.7609 11.6187L5.89959 11.6606L5.89587 11.6699C6.8369 12.0003 7.47635 12.6425 7.96222 13.3704L8.02459 13.3797L8.00132 13.4291C8.24239 13.7995 8.44623 14.1895 8.63146 14.5721C8.83344 14.4632 9.08662 14.4055 9.37423 14.4055C9.83125 14.4055 10.3236 14.5507 10.6392 14.7731C10.8365 14.6549 11.0785 14.5925 11.3456 14.5925C11.8194 14.5925 12.3407 14.7861 12.6581 15.0728C12.6999 15.0458 12.7418 15.0161 12.7856 14.9853C12.9475 14.8699 13.1318 14.7396 13.385 14.7396V14.7415Z" fill="#010101"/>
<path d="M11.244 1.64113C11.2859 1.64113 11.3278 1.64113 11.3697 1.64113H11.8984C13.4314 1.69605 14.4227 2.29175 15.319 2.9824V3.00102C15.3581 3.01218 15.3805 3.04104 15.414 3.05779C15.5917 3.21975 15.7826 3.36961 15.9622 3.53063C15.9762 3.57904 16.0078 3.61068 16.0571 3.62558C16.0432 3.64791 16.0404 3.6777 16.0246 3.6777C16.019 3.6777 16.0115 3.67398 16.0004 3.66281C16.005 3.68701 16.0143 3.69445 16.0255 3.69445C16.045 3.69445 16.0711 3.67025 16.0944 3.66281C16.2154 3.74379 16.3047 3.85548 16.4155 3.9467C16.4834 4.03047 16.5588 4.10586 16.6426 4.17381C17.8768 5.41455 18.9119 6.85635 19.4015 8.84173C19.3838 8.84545 19.3819 8.86499 19.3903 8.8743C19.3856 8.87244 19.3819 8.87244 19.3782 8.87244C19.3475 8.87244 19.3335 8.9134 19.3829 8.95528C19.4071 8.9376 19.3363 8.91712 19.421 8.8985C19.5327 9.36018 19.6221 9.84419 19.6667 10.3729V11.0533C19.6528 11.6127 19.5085 12.0418 19.3642 12.4709H19.2888C19.2693 12.4551 19.2181 12.4476 19.166 12.4476C19.1139 12.4476 19.0627 12.4551 19.0431 12.4709C16.9088 12.7808 16.1111 14.4265 15.831 16.5906C15.8049 16.5906 15.7816 16.5338 15.7584 16.5338C15.7509 16.5338 15.7444 16.5394 15.7369 16.5524C15.79 16.5608 15.7183 16.5999 15.8123 16.6278C15.7565 16.6874 15.7425 16.6222 15.7369 16.7032C15.7472 16.7116 15.7537 16.7144 15.7584 16.7144C15.7788 16.7144 15.7593 16.6483 15.8319 16.6464C15.776 16.826 15.7649 16.9908 15.7183 17.1751C15.6783 17.3343 15.5657 17.5111 15.5675 17.6666C15.5685 17.8164 15.7118 18.1068 15.7947 18.3283C16.1493 19.2796 16.6063 20.4068 16.2861 21.6922C16.1707 21.7155 16.0953 21.7788 15.9836 21.8058C15.9715 21.7918 15.9678 21.7844 15.9687 21.7797C15.9734 21.7769 15.9771 21.7741 15.9817 21.7704C15.9892 21.7667 15.9976 21.7611 16.0022 21.749C15.9948 21.7583 15.9883 21.7648 15.9817 21.7704C15.9752 21.7741 15.9696 21.7751 15.9687 21.7797C15.9585 21.7853 15.9501 21.7872 15.9417 21.7872C15.9315 21.7872 15.9231 21.7844 15.9166 21.7844C15.9045 21.7844 15.8961 21.7937 15.8887 21.843C15.239 22.0878 14.4897 22.233 13.6399 22.2777C13.6483 22.2526 13.6594 22.2479 13.6697 22.2479C13.6762 22.2479 13.6818 22.2498 13.6855 22.2498C13.692 22.2498 13.6929 22.2432 13.6808 22.2107C13.6864 22.2079 13.692 22.2042 13.6976 22.2014C13.7423 22.2032 13.7236 22.2349 13.8102 22.2591C13.7534 22.193 13.7972 22.22 13.8288 22.2023C13.8186 22.1827 13.8028 22.1744 13.7823 22.1744C13.7581 22.1744 13.7283 22.1855 13.6976 22.2014C13.6967 22.2014 13.6948 22.2014 13.6939 22.2014C13.6892 22.2014 13.6836 22.2014 13.678 22.2014C13.679 22.2042 13.6799 22.2069 13.6808 22.2097C13.6538 22.2246 13.6268 22.2423 13.6026 22.2581C13.6445 22.2302 13.6389 22.2172 13.6241 22.2172C13.6064 22.2172 13.5757 22.2377 13.6026 22.2768C13.5831 22.2935 13.5515 22.2972 13.5161 22.2972C13.4863 22.2972 13.4547 22.2944 13.4249 22.2944C13.4146 22.2944 13.4044 22.2944 13.3951 22.2954H13.1112C13.1252 22.2311 13.1466 22.2209 13.1642 22.2209C13.1736 22.2209 13.181 22.2237 13.1866 22.2237C13.195 22.2237 13.1968 22.2172 13.1866 22.1818C13.181 22.1762 13.1754 22.1744 13.1708 22.1744C13.1428 22.1744 13.1205 22.2414 13.0926 22.2954C13.0889 22.2972 13.0833 22.2972 13.0777 22.2972C13.0609 22.2972 13.0404 22.2926 13.0237 22.2926C13.0069 22.2926 12.9967 22.2972 12.9976 22.314H12.8273C12.7873 22.2963 12.7342 22.2916 12.6765 22.2916C12.6123 22.2916 12.5415 22.2972 12.4773 22.2972C12.455 22.2972 12.4326 22.2972 12.4112 22.2944C10.4221 22.1865 8.75695 21.7537 7.49759 20.915C7.49387 20.8489 7.45384 20.8201 7.40265 20.8015C7.32819 20.8117 7.47711 20.8294 7.40265 20.8396C7.22766 20.7307 7.07967 20.5957 6.94936 20.4431C7.08153 19.3662 7.96764 19.0423 8.15845 18.024C8.1901 17.9476 8.1901 17.741 8.15845 17.6647C8.00487 17.1323 7.63349 16.3085 8.23385 16.0014C8.2385 15.764 8.21058 15.5583 8.17707 15.3591C8.17893 15.3591 8.18079 15.3591 8.18265 15.3591C8.19382 15.3591 8.19475 15.3498 8.19568 15.3396C8.19848 15.3722 8.20406 15.3852 8.21058 15.3852C8.22547 15.3852 8.24688 15.3284 8.27108 15.2828C8.16404 15.2893 8.26642 15.2986 8.17614 15.3396C7.96299 14.0011 7.09642 13.2779 5.94596 12.8264C5.20785 12.536 4.29195 12.3666 4.05646 11.5606C3.99875 11.3642 4.01737 11.1957 3.98107 10.9937V10.748C3.99224 10.2174 4.04901 9.73249 4.11324 9.255C4.13185 9.255 4.12813 9.23173 4.13185 9.21683C4.14023 9.20194 4.14954 9.19729 4.15885 9.19729C4.18119 9.19729 4.20259 9.22893 4.21562 9.22893C4.22028 9.22893 4.224 9.22521 4.22586 9.21683C4.22679 9.18705 4.21376 9.17309 4.19329 9.17309C4.17188 9.17309 4.14209 9.18891 4.11231 9.21683C4.16909 8.92084 4.21562 8.61461 4.28264 8.32886C4.3329 8.35771 4.37665 8.39495 4.32453 8.43869C4.42598 8.35585 4.32546 8.36888 4.30126 8.27208C4.31336 8.13898 4.3571 8.03752 4.37665 7.9128C4.38875 7.91652 4.40085 7.91838 4.41388 7.91838C4.47159 7.91838 4.52744 7.88301 4.52837 7.8374C4.49672 7.85043 4.49393 7.87836 4.43529 7.87836C4.42412 7.87836 4.41202 7.87836 4.3962 7.87556C4.72104 6.61993 5.16596 5.4825 5.9078 4.64386C5.99716 4.57033 6.07907 4.48842 6.15353 4.39813C6.21217 4.35531 6.26243 4.30505 6.30432 4.24734C7.48735 2.93586 8.89192 1.8459 11.1798 1.63927C11.2012 1.63927 11.2217 1.63927 11.2431 1.63927M11.0486 2.17075C11.0346 2.17075 11.0216 2.17075 11.0095 2.16796C10.9992 2.16982 10.9881 2.17075 10.9769 2.17075C10.9434 2.17075 10.9043 2.16517 10.8708 2.16517C10.8401 2.16517 10.8149 2.16982 10.8019 2.1875C10.7833 2.1875 10.7647 2.18657 10.7461 2.18657C10.4305 2.18657 10.2062 2.27872 9.93254 2.31968C9.92323 2.31968 9.91765 2.23311 9.89345 2.23311C9.88879 2.23311 9.88321 2.23684 9.87669 2.24428C9.90834 2.26662 9.90275 2.27128 9.88786 2.27128C9.87669 2.27128 9.85901 2.26848 9.8497 2.26848C9.84039 2.26848 9.83946 2.27128 9.85715 2.28244C9.88414 2.29268 9.90369 2.31223 9.91392 2.33922C9.63003 2.4081 9.38523 2.51607 9.13951 2.62311C9.12275 2.58961 9.07621 2.56447 9.13951 2.54772C9.14416 2.56261 9.13951 2.58495 9.15812 2.58588C9.16278 2.57099 9.15812 2.54865 9.17674 2.54772C9.1786 2.56168 9.18325 2.56727 9.18698 2.56727C9.19908 2.56727 9.21397 2.5291 9.20932 2.5291C9.20745 2.5291 9.20373 2.53469 9.19535 2.54865H9.19349C9.16278 2.54865 9.13671 2.52445 9.11624 2.52445C9.11065 2.52445 9.106 2.52631 9.10134 2.53003C9.15626 2.54027 9.07249 2.55982 9.08273 2.58681C9.10693 2.59426 9.12182 2.61101 9.12089 2.64359C7.84571 3.28863 6.83673 4.25851 6.07814 5.42107C5.29813 6.61714 4.91093 8.09058 4.66054 9.82371C4.58701 9.83767 4.63727 9.8265 4.60376 9.88049C4.59911 9.86839 4.58701 9.86373 4.57398 9.86373C4.54512 9.86373 4.51162 9.88793 4.54699 9.90003C4.54699 9.88979 4.55629 9.88421 4.5656 9.88421C4.57398 9.88421 4.58236 9.88886 4.58515 9.90003C4.57491 9.90003 4.56374 9.91493 4.58515 9.91865C4.5898 9.89166 4.62703 9.89724 4.64193 9.88049C4.54978 10.4557 4.51813 11.2981 4.88766 11.581C5.17434 11.6285 5.46288 11.6732 5.71885 11.7514C5.70582 11.7886 5.66114 11.7942 5.64346 11.8268C5.64997 11.81 5.63787 11.8044 5.62391 11.8044C5.59692 11.8044 5.56062 11.823 5.60623 11.8268C5.67883 11.8342 5.68069 11.8379 5.7384 11.8835C5.74119 11.8696 5.75515 11.8528 5.76539 11.8528C5.77004 11.8528 5.77377 11.8566 5.77563 11.864C5.77656 11.8742 5.77842 11.8835 5.78866 11.8835C5.79052 11.8835 5.79238 11.8835 5.79425 11.8835C5.77284 11.824 5.78494 11.8333 5.81286 11.7895C7.24162 12.2754 7.95461 13.4771 8.57172 14.7755C8.78208 14.6136 9.07156 14.5456 9.3722 14.5456C9.85063 14.5456 10.3588 14.7159 10.6316 14.9449C10.8345 14.7941 11.0858 14.7327 11.3436 14.7327C11.8462 14.7327 12.3768 14.9682 12.6346 15.2474C12.8887 15.1162 13.0768 14.8798 13.3839 14.8798C13.4165 14.8798 13.45 14.8826 13.4854 14.8881C13.7302 14.9272 13.9024 15.2465 14.1472 15.2474C14.1472 15.2474 14.1481 15.2474 14.149 15.2474C14.4497 15.2474 14.6889 14.9291 15.0063 14.9291C15.064 14.9291 15.1236 14.9393 15.1869 14.9635C15.2222 14.9775 15.2576 15.0352 15.3004 15.0352C15.3125 15.0352 15.3246 15.0306 15.3376 15.0203C15.9631 13.2779 17.3556 12.3015 19.1166 11.6946V10.9956C19.1045 10.8885 19.1418 10.7312 19.098 10.6558C18.9435 8.22182 18.1012 6.47472 16.8306 5.15673C16.7254 5.03572 16.6119 4.92217 16.4909 4.81699H16.4723C15.924 4.23152 15.2576 3.76426 14.526 3.36216C14.5279 3.35099 14.5306 3.3482 14.5353 3.3482C14.5409 3.3482 14.5483 3.35378 14.5548 3.35378C14.5586 3.35378 14.5623 3.35099 14.5642 3.34355C14.553 3.34262 14.5418 3.34075 14.5455 3.32493C14.5493 3.32586 14.5521 3.32679 14.5539 3.32679C14.5716 3.32679 14.4981 3.27839 14.4962 3.27839C14.4962 3.27839 14.499 3.28118 14.5074 3.28677C14.5074 3.31283 14.5167 3.32865 14.526 3.34355C14.5232 3.34355 14.5204 3.34355 14.5176 3.34355C14.4888 3.34355 14.4869 3.31655 14.4692 3.30538V3.34355C14.2691 3.25698 14.0969 3.16949 13.9024 3.09782C13.6994 3.02242 13.4593 3.00008 13.2601 2.90887C13.0907 2.83161 12.9678 2.66221 12.8068 2.56913C12.4224 2.34667 11.8044 2.2117 11.2571 2.19123C11.2394 2.17354 11.2087 2.16889 11.1733 2.16889C11.1342 2.16889 11.0895 2.17447 11.0504 2.17447M8.53635 2.89025C8.53635 2.89025 8.53542 2.89025 8.53449 2.89025C8.50843 2.89025 8.46468 2.91445 8.46748 2.91445C8.46748 2.91445 8.47213 2.91259 8.47958 2.90887C8.48144 2.90887 8.48237 2.90887 8.48423 2.90887C8.50285 2.90887 8.51681 2.94703 8.52705 2.94703C8.53077 2.94703 8.53356 2.94238 8.53635 2.92841C8.5075 2.90607 8.52146 2.90235 8.54194 2.90235C8.55311 2.90235 8.56707 2.90328 8.57638 2.90328C8.58941 2.90328 8.59406 2.90142 8.57452 2.89025C8.53915 2.8856 8.58569 2.85953 8.5559 2.85209C8.54845 2.86419 8.5438 2.86884 8.54194 2.86884C8.53449 2.86884 8.55218 2.813 8.54845 2.813C8.54752 2.813 8.5438 2.81858 8.53728 2.83254C8.5075 2.8372 8.52425 2.87443 8.53728 2.88932M18.1002 6.73442C18.1095 6.73442 18.1123 6.72697 18.0993 6.70649C18.0974 6.7158 18.0946 6.71952 18.09 6.71952C18.0807 6.71952 18.0667 6.70277 18.0621 6.68788C18.0639 6.68788 18.0658 6.68788 18.0676 6.68788C18.1039 6.68788 18.0844 6.63296 18.1188 6.6311C18.1188 6.63761 18.1235 6.6432 18.1291 6.6432C18.1328 6.6432 18.1365 6.63948 18.1375 6.6311C18.1291 6.62272 18.1188 6.61993 18.1086 6.61993C18.0751 6.61993 18.0379 6.65716 18.0239 6.68788C18.0407 6.70835 18.0835 6.73442 18.1002 6.73442ZM18.5535 7.79459C18.5535 7.79459 18.5535 7.79924 18.5526 7.80203C18.5526 7.79924 18.5526 7.79738 18.5535 7.79459C18.5545 7.78807 18.5582 7.78249 18.5656 7.78249C18.5675 7.78249 18.5693 7.78249 18.5712 7.78249C18.5712 7.789 18.5759 7.79459 18.5814 7.79459C18.5852 7.79459 18.5889 7.79086 18.5898 7.78249C18.5787 7.78155 18.5675 7.77969 18.5712 7.76387C18.5954 7.71919 18.5684 7.7285 18.5898 7.66893C18.5777 7.66427 18.5628 7.65683 18.56 7.65683C18.5582 7.65683 18.56 7.65962 18.5712 7.66893C18.533 7.70244 18.5591 7.73688 18.5535 7.79365M18.9873 9.19915C18.9873 9.18891 18.9966 9.18333 19.0059 9.18333C19.0143 9.18333 19.0226 9.18798 19.0254 9.19915C18.9984 9.2038 19.004 9.24103 18.9873 9.25593C19.004 9.2643 19.0133 9.26989 19.0171 9.26989C19.0226 9.26989 19.018 9.25965 19.0059 9.23731C19.0329 9.23266 19.0273 9.19543 19.044 9.18053C19.0329 9.1796 19.0217 9.17774 19.0254 9.16192C19.0357 9.16192 19.0468 9.14702 19.0254 9.1433C19.0254 9.15354 19.0226 9.16285 19.0124 9.16285C19.0105 9.16285 19.0087 9.16285 19.0068 9.16285C19.0068 9.15261 19.004 9.1433 18.9938 9.1433C18.9919 9.1433 18.9901 9.1433 18.9882 9.1433C18.9956 9.17588 18.9603 9.1917 18.9882 9.20008M4.04622 10.3915C4.04622 10.3915 4.0425 10.3915 4.04064 10.3915C4.04064 10.385 4.03598 10.3794 4.0304 10.3794C4.02667 10.3794 4.02295 10.3831 4.02202 10.3915C4.06763 10.4297 3.99689 10.5097 4.04064 10.5237C4.04064 10.5134 4.04343 10.5041 4.05367 10.5041C4.05553 10.5041 4.05739 10.5041 4.05925 10.5041C4.05925 10.5106 4.06391 10.5162 4.06949 10.5162C4.07321 10.5162 4.07694 10.5125 4.07787 10.5041C4.0667 10.5032 4.05553 10.5013 4.05925 10.4855C4.07694 10.4808 4.07414 10.4734 4.06391 10.4734C4.05739 10.4734 4.04808 10.4762 4.03971 10.4855C4.05181 10.4231 4.09462 10.4036 4.05832 10.3719C4.05739 10.3822 4.05553 10.3915 4.04529 10.3915M7.76287 13.4715C7.76566 13.4575 7.77962 13.4408 7.78986 13.4408C7.79451 13.4408 7.79824 13.4445 7.8001 13.4519C7.79172 13.4892 7.69399 13.5329 7.7247 13.5469C7.76659 13.5413 7.76101 13.4892 7.80755 13.4892C7.81127 13.4892 7.81499 13.4892 7.81871 13.4892C7.80196 13.5236 7.84012 13.5413 7.85129 13.5413C7.85688 13.5413 7.85595 13.5366 7.83733 13.5273C7.80103 13.465 7.83081 13.4454 7.78055 13.4138C7.79079 13.4408 7.70702 13.4603 7.76194 13.4705M16.7757 13.5646H16.7776C16.7915 13.5646 16.7832 13.6334 16.799 13.6334C16.8027 13.6334 16.8074 13.6297 16.8129 13.6213C16.8129 13.6027 16.7981 13.599 16.7943 13.5832C16.8232 13.5757 16.8437 13.5748 16.8595 13.5748C16.8707 13.5748 16.88 13.5748 16.8883 13.5748C16.9014 13.5748 16.9125 13.5729 16.9265 13.5636C16.907 13.5543 16.8958 13.5515 16.8846 13.5515C16.8641 13.5515 16.8483 13.5618 16.7934 13.5636C16.7934 13.5571 16.7878 13.5515 16.7832 13.5515C16.7794 13.5515 16.7757 13.5552 16.7748 13.5636M9.23538 16.0125C9.50903 16.0125 9.81247 15.9558 10.0098 15.9064C10.0582 15.7091 10.1392 15.5443 10.1234 15.2828C10.155 15.2437 10.155 15.0762 10.1234 15.0371C10.0396 14.9319 9.75383 14.8788 9.53137 14.8788C9.48576 14.8788 9.44294 14.8807 9.40478 14.8853C9.17395 14.9123 8.90681 15.0454 8.79977 15.1692C8.69831 15.2865 8.58103 15.5453 8.62943 15.7361C8.68342 15.9464 8.94125 16.0116 9.23445 16.0116M10.9601 16.0963C11.5549 16.0963 12.091 15.859 12.0883 15.2437C11.9738 15.1823 11.876 15.1032 11.7103 15.0929C11.675 15.0771 11.608 15.0696 11.54 15.0696C11.4721 15.0696 11.405 15.0771 11.3697 15.0929C10.9787 15.1432 10.733 15.3386 10.4249 15.4708C10.4575 15.711 10.3356 15.7975 10.3495 16.019C10.5469 16.0684 10.7572 16.0963 10.9601 16.0963ZM12.508 15.6477C12.4466 15.6477 12.3833 15.6346 12.3154 15.603C12.3405 15.8878 11.9598 15.9641 12.1078 16.2452H12.146C12.1664 16.2629 12.199 16.2676 12.2372 16.2676C12.2791 16.2676 12.3265 16.262 12.3684 16.262C12.3833 16.262 12.3973 16.262 12.4103 16.2648C12.4941 16.2666 12.5778 16.2685 12.6588 16.2685C12.9986 16.2685 13.315 16.2443 13.544 16.1326C13.5077 16.1773 13.4779 16.2127 13.4844 16.2127C13.4891 16.2127 13.5058 16.2006 13.544 16.1708C13.5449 16.195 13.5682 16.1968 13.5626 16.2275C13.5626 16.2275 13.5617 16.2275 13.5608 16.2275C13.5347 16.2275 13.491 16.2517 13.4937 16.2517C13.4937 16.2517 13.4984 16.2499 13.5058 16.2462C13.5152 16.2527 13.5235 16.2555 13.5319 16.2555C13.5598 16.2555 13.5822 16.2275 13.6008 16.2275C13.5757 16.2089 13.5626 16.1773 13.544 16.1522C13.5552 16.1512 13.5663 16.1494 13.5626 16.1335C13.5878 16.1019 13.6464 16.1038 13.6762 16.0768C13.6585 15.8953 13.7115 15.7845 13.7143 15.6235C13.7413 15.5713 13.7599 15.3647 13.6957 15.3396C13.5943 15.2614 13.5021 15.2307 13.4156 15.2307C13.0954 15.2307 12.8506 15.6495 12.509 15.6495M14.2914 15.4457C14.3296 15.4457 14.3594 15.4299 14.338 15.3973C14.3342 15.4252 14.3138 15.4364 14.2831 15.4364C14.2765 15.4364 14.27 15.4364 14.2626 15.4354C14.3175 15.361 14.1816 15.361 14.3007 15.2847C14.3007 15.2949 14.31 15.3005 14.3194 15.3005C14.3277 15.3005 14.3361 15.2958 14.3389 15.2847C14.3361 15.2847 14.3333 15.2847 14.3305 15.2847C14.3017 15.2847 14.2998 15.2577 14.2821 15.2465C14.2328 15.3117 14.243 15.3749 14.2067 15.4168C14.2263 15.4364 14.2616 15.4466 14.2924 15.4466M14.472 15.4168C14.4748 15.3945 14.5055 15.374 14.472 15.3601C14.4618 15.414 14.3128 15.4261 14.3584 15.4736C14.3612 15.4596 14.3752 15.4429 14.3854 15.4429C14.3901 15.4429 14.3938 15.4466 14.3957 15.4541C14.1667 15.6151 13.9871 15.8273 13.9042 16.1345C14.2942 16.2862 14.7578 16.3644 15.2837 16.3802C15.4354 16.0516 15.3442 15.3815 15.0761 15.3033C15.0444 15.294 15.0119 15.2902 14.9793 15.2902C14.8155 15.2902 14.6368 15.3861 14.472 15.4168ZM11.0513 16.343C11.0513 16.3365 11.0467 16.3309 11.0411 16.3309C11.0374 16.3309 11.0337 16.3346 11.0327 16.343C11.0486 16.3644 11.0904 16.3765 11.1146 16.3765C11.1295 16.3765 11.137 16.3718 11.1277 16.3616C11.1035 16.3541 11.0886 16.3374 11.0895 16.3048C11.1165 16.3095 11.1212 16.3355 11.1463 16.343C11.1519 16.3057 11.1212 16.3057 11.1081 16.2862C11.1184 16.2862 11.1295 16.2713 11.1081 16.2676C11.0895 16.2927 11.0774 16.3244 11.0513 16.343ZM9.46435 17.4627C9.5444 17.4627 9.62445 17.4553 9.67192 17.4394C10.0042 17.4003 10.2509 17.2747 10.2955 16.948C10.3272 16.9219 10.3272 16.7665 10.2955 16.7404C10.2555 16.5412 10.0871 16.4696 10.0117 16.3057H9.69053C9.60211 16.2899 9.48111 16.2825 9.3601 16.2825C9.2391 16.2825 9.1181 16.2899 9.02967 16.3057H8.68993C8.65177 16.369 8.59127 16.4081 8.57638 16.4947C8.54939 16.4993 8.55497 16.5366 8.53822 16.5515C8.50098 16.6222 8.49261 16.7199 8.48144 16.8158C8.44979 16.8977 8.44979 17.1118 8.48144 17.1937C8.67597 17.3389 8.94311 17.4124 9.25585 17.4394C9.30333 17.4553 9.38337 17.4627 9.46342 17.4627M11.1491 17.54C11.4823 17.54 11.755 17.3212 11.7885 17.0234C11.8202 16.9908 11.8202 16.8288 11.7885 16.7963C11.7755 16.6138 11.688 16.5068 11.6182 16.3802C11.5987 16.3644 11.5475 16.3569 11.4953 16.3569C11.4432 16.3569 11.392 16.3644 11.3725 16.3802C11.0104 16.383 10.7619 16.5003 10.5413 16.6445C10.6539 16.881 10.4761 17.0941 10.5794 17.2868C10.6437 17.4069 10.8968 17.513 11.0523 17.5325C11.0858 17.5362 11.1184 17.539 11.15 17.539M14.2589 16.437C14.2589 16.437 14.2616 16.437 14.2654 16.437C14.3175 16.4575 14.3724 16.4891 14.3417 16.531C14.337 16.5375 14.3305 16.544 14.3231 16.5496C14.1137 16.531 13.8772 16.4435 13.7181 16.436C13.7274 16.4956 13.6836 16.5031 13.6994 16.5682C13.7115 16.638 13.6752 16.7562 13.7181 16.7953C13.7041 16.9033 13.7385 16.9638 13.7367 17.0597V17.4376C13.8912 17.5288 14.0448 17.6209 14.2849 17.6265C14.2858 17.6433 14.2998 17.6479 14.3175 17.6479C14.337 17.6479 14.3612 17.6433 14.3799 17.6433C14.3864 17.6433 14.3929 17.6433 14.3975 17.6451V17.6638C14.4413 17.6693 14.4199 17.7345 14.4255 17.7345C14.4264 17.7345 14.4301 17.7308 14.4357 17.7205C14.4385 17.7205 14.4404 17.7205 14.4431 17.7205C14.486 17.7205 14.391 17.6656 14.4553 17.6638C14.4515 17.688 14.4999 17.715 14.5074 17.715C14.5102 17.715 14.5074 17.7112 14.4934 17.701C14.4888 17.674 14.4627 17.6693 14.4553 17.6442C14.4776 17.6414 14.5092 17.647 14.512 17.6256C15.0081 17.58 15.2706 17.3007 15.2864 16.7749C15.0035 16.6669 14.6684 16.612 14.3417 16.5477V16.5301C14.3417 16.5301 14.3417 16.5301 14.3417 16.5291C14.365 16.5207 14.4329 16.464 14.4292 16.464C14.4292 16.464 14.4245 16.4668 14.4162 16.4723C14.4152 16.4723 14.4143 16.4723 14.4134 16.4723C14.3892 16.4723 14.3743 16.4817 14.3594 16.491C14.3799 16.4407 14.3249 16.4323 14.2877 16.4323C14.2691 16.4323 14.2561 16.4342 14.2579 16.4342M12.0529 16.8112C12.0389 16.7972 12.0287 16.7199 12.0101 16.7199C12.0054 16.7199 12.0008 16.7246 11.9961 16.7348C12.0343 16.7683 11.9905 16.786 11.9579 16.8288C11.97 16.8335 11.9849 16.8409 11.9877 16.8409C11.9896 16.8409 11.9877 16.8381 11.9766 16.8288C11.9812 16.8018 12.0184 16.8074 12.0333 16.7907C12.0371 16.8121 12.0547 16.8205 12.0715 16.8288C12.0743 17.0522 12.0743 17.2728 12.0147 17.4339C12.1329 17.4953 12.2595 17.5474 12.4392 17.5474C12.4485 17.5474 12.4587 17.5474 12.4689 17.5474C12.5136 17.5632 12.5899 17.5707 12.6672 17.5707C12.7445 17.5707 12.8217 17.5632 12.8655 17.5474C12.8748 17.5474 12.885 17.5465 12.8952 17.5465C12.925 17.5465 12.9567 17.5493 12.9865 17.5493C13.0218 17.5493 13.0544 17.5455 13.073 17.5288C13.0628 17.5781 13.1093 17.6135 13.1298 17.6135C13.14 17.6135 13.1428 17.6051 13.1298 17.5846C13.1289 17.5949 13.127 17.6042 13.1168 17.6042C13.1149 17.6042 13.1131 17.6042 13.1112 17.6042C13.1196 17.5735 13.1289 17.5623 13.1391 17.5623C13.1615 17.5623 13.1838 17.6154 13.1875 17.6154C13.1884 17.6154 13.1884 17.6116 13.1875 17.6042C13.194 17.5828 13.181 17.5409 13.1875 17.5288C13.2099 17.4944 13.2862 17.5139 13.3197 17.4906C13.383 17.3901 13.4388 17.2831 13.4332 17.1127C13.4649 17.0681 13.4649 16.8931 13.4332 16.8484C13.4509 16.7367 13.4007 16.692 13.3951 16.6027H12.9604C12.832 16.6008 12.7221 16.5803 12.5927 16.5803C12.5648 16.5803 12.5369 16.5803 12.5071 16.5831C12.4904 16.5673 12.442 16.5598 12.3936 16.5598C12.3451 16.5598 12.2967 16.5673 12.28 16.5831H12.1478C12.1199 16.625 12.0901 16.6641 12.091 16.7339C12.0631 16.7376 12.0734 16.7795 12.0724 16.8093H12.0538M11.9589 17.4515C11.9756 17.418 12.0045 17.3966 12.0156 17.3566C11.9775 17.351 11.9654 17.3184 11.9403 17.2998C11.9403 17.3743 11.9803 17.3585 11.997 17.3752C11.9859 17.392 11.9188 17.445 11.9589 17.4506M9.62259 17.8294C9.61421 17.8294 9.60583 17.8294 9.59652 17.8294C9.51275 17.8257 9.4206 17.755 9.33218 17.7345C9.13485 17.6898 8.92077 17.7075 8.70855 17.6591C8.67039 17.9048 8.62199 18.1394 8.55776 18.3581C8.51867 18.3479 8.51774 18.3283 8.53915 18.3013C8.53822 18.3013 8.53729 18.3013 8.53635 18.3013C8.51122 18.3013 8.49168 18.2483 8.47585 18.2483C8.4712 18.2483 8.46748 18.2529 8.46375 18.2632C8.49912 18.2678 8.45258 18.2939 8.48237 18.3013C8.48423 18.292 8.48702 18.2883 8.49168 18.2883C8.50098 18.2883 8.51495 18.3051 8.5196 18.32C8.50471 18.3246 8.48237 18.32 8.48144 18.3386C8.49912 18.3591 8.55125 18.3442 8.53822 18.3954C8.31762 19.1325 7.92855 19.7003 7.59346 20.323C8.62292 21.2026 10.1094 21.6252 11.9021 21.7406C11.9244 21.7583 11.9607 21.763 12.0008 21.763C12.0454 21.763 12.0957 21.7574 12.1413 21.7574C12.1571 21.7574 12.172 21.7574 12.186 21.7602H12.3182C12.4159 21.776 12.5462 21.7834 12.6774 21.7834C12.8087 21.7834 12.939 21.776 13.0367 21.7602H13.1689C13.1819 21.7583 13.1959 21.7574 13.2108 21.7574C13.2527 21.7574 13.3001 21.763 13.342 21.763C13.3793 21.763 13.4128 21.7583 13.4332 21.7406C14.3324 21.708 15.1003 21.5433 15.8142 21.3246C16.0367 19.8483 15.3563 18.965 15.0398 17.9039C14.9365 17.9383 14.8378 17.9523 14.741 17.9523C14.3789 17.9523 14.0522 17.7578 13.679 17.7336C13.5971 17.7177 13.4816 17.7103 13.3672 17.7103C13.2527 17.7103 13.1373 17.7177 13.0553 17.7336C12.7109 17.7354 12.3973 17.768 12.0724 17.7903H11.392C10.9592 17.7568 10.6083 17.6423 10.3523 17.4311C10.1252 17.5679 9.92137 17.8285 9.62166 17.8285M13.3374 17.5632C13.3439 17.5614 13.3485 17.5604 13.3532 17.5604C13.3867 17.5604 13.3802 17.6005 13.4128 17.6005C13.4025 17.5735 13.4863 17.5539 13.4314 17.5437C13.4267 17.5567 13.423 17.5623 13.4193 17.5623C13.4062 17.5623 13.3951 17.5065 13.3755 17.5065C13.3755 17.5065 13.3755 17.5065 13.3746 17.5065V17.5446C13.3597 17.5493 13.3374 17.5446 13.3364 17.5632M9.61328 21.8151C9.61328 21.79 9.64679 21.7974 9.65144 21.7769C9.61607 21.7723 9.66261 21.7462 9.63283 21.7388C9.62352 21.7611 9.61235 21.7816 9.59466 21.7955C9.59466 21.7769 9.57977 21.7732 9.57605 21.7574C9.57884 21.7583 9.58163 21.7592 9.58442 21.7592C9.61142 21.7592 9.617 21.7025 9.60676 21.7025C9.60397 21.7025 9.60025 21.7071 9.59466 21.7192C9.53323 21.7611 9.53602 21.7546 9.61328 21.8142M13.3923 22.1921C13.3923 22.1855 13.3876 22.18 13.382 22.18C13.3783 22.18 13.3746 22.1837 13.3737 22.1921C13.4174 22.1976 13.4174 22.2432 13.3737 22.2488C13.369 22.2339 13.3737 22.2116 13.3551 22.2107C13.3541 22.2432 13.3699 22.2591 13.3932 22.2674C13.4202 22.1855 13.5031 22.2553 13.4314 22.1734C13.4416 22.1734 13.4528 22.1585 13.4314 22.1548C13.4277 22.1762 13.41 22.1846 13.3932 22.193M19.3912 8.865C19.3912 8.865 19.3987 8.86779 19.4024 8.87058C19.3977 8.87058 19.394 8.86872 19.3912 8.865ZM11.245 1.35352H11.1817H11.1696H11.1575C8.64246 1.58156 7.1895 2.8465 6.09954 4.05374L6.08931 4.06491L6.08093 4.07701C6.0558 4.11238 6.02601 4.14123 5.99157 4.16636L5.96272 4.18684L5.94038 4.21384C5.87802 4.28923 5.80821 4.35904 5.73281 4.4214L5.71606 4.43536L5.70117 4.45212C5.05613 5.18 4.57398 6.17222 4.19236 7.5591L4.15419 7.54793L4.10393 7.8616C4.10207 7.87184 4.10021 7.88208 4.09835 7.89232L4.08625 7.94351C4.08252 7.95747 4.0788 7.97144 4.07508 7.98633C4.06111 8.03845 4.04622 8.0943 4.03598 8.15946L4.01271 8.25905C3.9671 8.45452 3.9308 8.65929 3.89543 8.85662C3.88799 8.89664 3.88147 8.93667 3.87402 8.97669H3.86937L3.85634 9.0707C3.85075 9.09955 3.84517 9.12934 3.83959 9.15819L3.67297 10.0248L3.75023 9.9503C3.72603 10.2007 3.70927 10.4613 3.70276 10.7322L3.57617 11.3642L3.72696 11.2069C3.72789 11.2199 3.72882 11.2329 3.72975 11.246C3.73813 11.3595 3.74744 11.488 3.78932 11.6313C4.02481 12.4364 4.78806 12.7036 5.46102 12.9391C5.59506 12.9865 5.72257 13.0303 5.84544 13.0787C7.01079 13.5366 7.65862 14.2161 7.87084 15.2093L7.90249 15.3973C7.92855 15.5537 7.94716 15.6942 7.95368 15.8422C7.41847 16.2545 7.66886 17.0345 7.82244 17.5158C7.84757 17.5939 7.87084 17.6675 7.89039 17.7354L7.89504 17.7503L7.89783 17.7568C7.90528 17.7931 7.90528 17.8825 7.89783 17.9188L7.89039 17.9374L7.8848 17.9653C7.80568 18.3879 7.58043 18.682 7.34308 18.9929C7.06571 19.355 6.7511 19.7664 6.67291 20.4021L6.65802 20.5241L6.73714 20.6172C6.88792 20.794 7.04802 20.9364 7.22487 21.0509V21.063L7.34215 21.1412C7.90807 21.5182 8.56707 21.8235 9.3145 22.0543V22.3726L9.60956 22.1399C10.437 22.368 11.366 22.5104 12.3908 22.5662C12.4168 22.5681 12.4447 22.57 12.4764 22.57C12.5127 22.57 12.5499 22.5681 12.5881 22.5672C12.6179 22.5662 12.6477 22.5644 12.6756 22.5644C12.7035 22.5644 12.7165 22.5662 12.723 22.5672L12.7687 22.5867H13.1112V22.6472L13.2313 22.5867H13.2983L13.2964 22.5681H13.4174L13.4221 22.5672C13.4332 22.5672 13.4444 22.5672 13.4565 22.5681C13.4761 22.5681 13.4947 22.57 13.5133 22.57C13.5394 22.57 13.5971 22.57 13.6622 22.5485C14.5316 22.502 15.3125 22.3503 15.9845 22.0971L16.0897 22.058C16.1512 22.0394 16.2014 22.0161 16.2433 21.9966C16.2815 21.9789 16.3112 21.9649 16.3392 21.9594L16.5123 21.924L16.5551 21.7527C16.8828 20.4357 16.4481 19.275 16.0981 18.3414L16.0543 18.2241C16.0301 18.158 16.0004 18.0882 15.9724 18.0202C15.9259 17.9076 15.8477 17.7187 15.8449 17.6582C15.8449 17.6191 15.8803 17.5325 15.9082 17.4636C15.9371 17.392 15.9678 17.3175 15.9873 17.2384C16.0097 17.149 16.0246 17.0671 16.0385 16.988C16.046 16.9443 16.0543 16.9005 16.0627 16.8586H16.0758L16.0907 16.7413C16.0916 16.7367 16.0934 16.732 16.0953 16.7274L16.3261 16.4826L16.1837 16.4407L16.2117 16.3495L16.1437 16.3513C16.49 14.1016 17.4031 12.9837 19.0813 12.7399L19.1567 12.7287L19.1632 12.7231L19.1874 12.7427H19.5625L19.6267 12.5528C19.7756 12.1125 19.9292 11.6564 19.9432 11.0533V11.0496V11.0458V10.3422C19.9134 9.9987 19.8641 9.65244 19.7924 9.29316L20.268 9.4486L20.0139 9.15819L20.4235 9.16192L19.6602 8.70304L19.6258 8.56063L19.6174 8.56249C19.1632 6.87869 18.2752 5.41455 16.8381 3.96997L16.8278 3.95973L16.8167 3.95042C16.7487 3.8955 16.6864 3.83314 16.6314 3.76426L16.6138 3.74192L16.5914 3.72424C16.5551 3.69445 16.5188 3.66001 16.4806 3.62278C16.4611 3.60417 16.4416 3.58462 16.4201 3.56507L16.4881 3.4571L16.207 3.37426V3.37054L16.1474 3.31748C16.0599 3.2393 15.9706 3.1639 15.8831 3.09037C15.7844 3.00753 15.6913 2.92934 15.6011 2.8465L15.5973 2.84371V2.83999L15.5731 2.82137L15.4884 2.75622C14.5902 2.06371 13.5347 1.41495 11.9077 1.35631H11.903H11.8984H11.3064H11.2431L11.245 1.35352ZM11.0504 2.44347C11.0737 2.44347 11.0988 2.44254 11.124 2.44068L11.1398 2.45557L11.2468 2.4593C11.7867 2.47884 12.3442 2.61288 12.6672 2.79996C12.7156 2.82789 12.7687 2.87536 12.8245 2.92469C12.9129 3.00381 13.0135 3.09223 13.1447 3.1518C13.2815 3.21417 13.4211 3.24767 13.5561 3.27932C13.6473 3.30073 13.733 3.32121 13.8065 3.3482C13.9238 3.39195 14.0355 3.44221 14.1537 3.4962C14.2207 3.52691 14.2886 3.55763 14.3603 3.58834L14.4497 3.62744C15.2064 4.04908 15.8021 4.49773 16.2694 4.99663L16.3522 5.08505H16.3848C16.4676 5.16231 16.5467 5.24422 16.6212 5.32892L16.6259 5.33451L16.6305 5.34009C17.6134 6.35931 18.2613 7.57306 18.5898 9.02044L18.5777 9.0223L18.6001 9.06325C18.7118 9.56774 18.7853 10.0992 18.8207 10.6624L18.8244 10.7275L18.8421 10.7573C18.8421 10.7778 18.8411 10.8103 18.8393 10.8336C18.8365 10.8839 18.8337 10.9407 18.8393 10.9984V11.487C16.9861 12.1646 15.7835 13.2053 15.1757 14.6582C15.1198 14.6452 15.064 14.6396 15.0072 14.6396C14.7708 14.6396 14.58 14.7504 14.4264 14.8397C14.3221 14.9002 14.2226 14.9579 14.15 14.9579C14.1192 14.9579 14.0271 14.8826 13.9778 14.8425C13.8633 14.7495 13.7209 14.6331 13.531 14.6024C13.4826 14.5949 13.4332 14.5903 13.3858 14.5903C13.0879 14.5903 12.8757 14.7401 12.7054 14.8611C12.6923 14.8705 12.6802 14.8788 12.6672 14.8881C12.3219 14.6191 11.8118 14.4423 11.3455 14.4423C11.0867 14.4423 10.8484 14.4963 10.6446 14.5996C10.3067 14.3892 9.82271 14.2552 9.37313 14.2552C9.12089 14.2552 8.89192 14.2962 8.69552 14.3762C8.53542 14.0514 8.36137 13.7237 8.16031 13.4073L8.23106 13.2583L8.04304 13.2304C7.57019 12.536 6.95587 11.9208 6.07069 11.5745L6.07721 11.5568L5.80076 11.4731C5.76725 11.4628 5.73374 11.4535 5.6993 11.4442L5.69465 11.4424C5.47592 11.3846 5.24415 11.3456 5.01797 11.3083C4.87835 11.138 4.82902 10.7005 4.88486 10.1672H4.92303L4.90069 10.0508L4.90906 10.049L4.93792 9.85163C5.21716 7.91373 5.6416 6.59107 6.3127 5.56162C6.97076 4.55264 7.78428 3.74844 8.73647 3.16576L9.16929 3.18531L9.01385 3.00474C9.09111 2.96192 9.16929 2.92097 9.24748 2.88094L9.38989 2.80927C9.58163 2.72643 9.77058 2.65197 9.98094 2.60077L10.2918 2.52631V2.52259C10.4398 2.48815 10.5813 2.4565 10.7479 2.4565C10.7628 2.4565 10.7786 2.4565 10.7945 2.4565L10.9406 2.46116L10.9564 2.43975C10.9639 2.43975 10.9713 2.43975 10.9787 2.43975C10.9908 2.43975 11.002 2.43975 11.0132 2.43882C11.0253 2.43882 11.0374 2.43975 11.0504 2.43975V2.44347ZM9.23538 15.7268C8.96079 15.7268 8.90122 15.6626 8.90029 15.6616C8.88354 15.5937 8.94218 15.4261 9.01106 15.3461C9.06411 15.2847 9.26144 15.1776 9.43736 15.1571C9.46435 15.1543 9.496 15.1525 9.53137 15.1525C9.65516 15.1525 9.765 15.1711 9.83853 15.1906L9.84505 15.294C9.85342 15.4364 9.82457 15.5388 9.78734 15.6644C9.64213 15.6933 9.43271 15.7268 9.23631 15.7268H9.23538ZM11.473 15.348C11.4842 15.3461 11.5074 15.3433 11.5409 15.3433C11.5745 15.3433 11.5977 15.3461 11.6089 15.348L11.6424 15.3628L11.6927 15.3666C11.729 15.3694 11.7588 15.3777 11.7923 15.3936C11.7727 15.4727 11.7355 15.5388 11.6796 15.5946C11.5419 15.7333 11.2794 15.8124 10.9601 15.8124C10.8661 15.8124 10.7693 15.8059 10.6725 15.7929C10.6846 15.7501 10.6967 15.7007 10.7042 15.6439C10.7451 15.6235 10.7842 15.603 10.8233 15.5825C11.016 15.482 11.1826 15.3945 11.406 15.3656L11.4469 15.3601L11.4721 15.3489L11.473 15.348ZM12.5127 15.9222C12.7752 15.9204 12.9781 15.7733 13.141 15.6551C13.2434 15.5806 13.3485 15.5043 13.4156 15.5043C13.4277 15.5043 13.4407 15.5071 13.4547 15.5127L13.436 15.549V15.6142C13.4342 15.6607 13.4267 15.7054 13.4183 15.7566C13.4118 15.7938 13.4053 15.8348 13.4007 15.8794L13.0209 15.9148L13.06 15.966C12.926 15.9809 12.7854 15.9837 12.6598 15.9837C12.5983 15.9837 12.5369 15.9837 12.4745 15.9818C12.4876 15.9632 12.5006 15.9437 12.5127 15.9222ZM14.5521 15.6775C14.6256 15.6616 14.6945 15.6384 14.7615 15.616C14.8415 15.589 14.9253 15.562 14.9774 15.562C14.9793 15.562 14.9811 15.562 14.983 15.562C15.0454 15.6337 15.0928 15.8813 15.0714 16.0833C14.7792 16.0637 14.5139 16.0209 14.2784 15.9567C14.3445 15.8524 14.4348 15.7603 14.5521 15.6775ZM8.84258 16.5766H9.05294L9.07714 16.5719C9.14509 16.5598 9.25027 16.5524 9.35917 16.5524C9.46808 16.5524 9.57325 16.5598 9.6412 16.5719L9.6654 16.5766H9.85994C9.88507 16.6073 9.9102 16.6352 9.93254 16.6594C9.99025 16.7227 10.0135 16.7507 10.021 16.786L10.0284 16.8242L10.0182 16.9014C10.007 16.9852 9.98932 17.1118 9.63841 17.1537L9.61049 17.1574L9.58349 17.1667C9.57605 17.1686 9.53416 17.176 9.46342 17.176C9.39268 17.176 9.3508 17.1686 9.34149 17.1658L9.30984 17.1555L9.27819 17.1537C9.05201 17.1341 8.87051 17.0885 8.73554 17.0178C8.73461 16.974 8.73647 16.9266 8.74206 16.9024L8.7523 16.8744L8.75602 16.84L8.75881 16.8149C8.76161 16.7907 8.76533 16.7609 8.76905 16.7339L8.81652 16.7255L8.84072 16.5766H8.84258ZM11.0076 16.7116C11.1119 16.6762 11.231 16.6538 11.3734 16.6529H11.4562C11.4879 16.7088 11.5046 16.7516 11.5084 16.8084L11.5158 16.9098L11.5177 16.9117L11.5093 16.9852C11.4925 17.1379 11.3371 17.2533 11.1482 17.2533C11.1277 17.2533 11.1063 17.2523 11.0849 17.2496C10.9918 17.2375 10.8652 17.1788 10.8224 17.1434C10.8205 17.1211 10.8298 17.0681 10.8354 17.0308C10.8447 16.9731 10.8568 16.9014 10.8568 16.8214L11.0067 16.7125L11.0076 16.7116ZM14.0122 17.0476L14.3445 16.8288C14.3678 16.8335 14.391 16.8381 14.4143 16.8419C14.6135 16.88 14.8052 16.9163 14.9793 16.9647C14.9234 17.203 14.7689 17.3156 14.4822 17.3426L14.4515 17.3454L14.2877 17.3417C14.1779 17.3389 14.0969 17.3119 14.0122 17.2691V17.0541C14.0122 17.0541 14.0122 17.0494 14.0122 17.0476ZM12.401 16.8689L12.5248 16.8596C12.5471 16.8577 12.5695 16.8577 12.5899 16.8577C12.6458 16.8577 12.7007 16.8623 12.7594 16.8679C12.8199 16.8735 12.8831 16.8791 12.9539 16.88H13.1438L13.1382 16.9154L13.1745 16.9675C13.1745 16.975 13.1745 16.9824 13.1745 16.9899L13.1475 17.028L13.1494 17.0904L12.9446 17.2672C12.9269 17.2672 12.9092 17.2663 12.8925 17.2663C12.8738 17.2663 12.8552 17.2663 12.8385 17.2682L12.8031 17.271L12.7696 17.2831C12.7696 17.2831 12.7268 17.2905 12.6644 17.2905C12.602 17.2905 12.5639 17.284 12.5555 17.2821L12.5062 17.2644L12.4578 17.2672C12.4503 17.2672 12.4438 17.2672 12.4373 17.2672C12.401 17.2672 12.3675 17.2644 12.3358 17.2579C12.3451 17.1714 12.3489 17.0802 12.3498 16.9824L12.3703 16.9796V16.8614H12.3898H12.3908L12.4001 16.8698L12.401 16.8689ZM9.62072 18.1087C9.92695 18.1087 10.1466 17.9355 10.3235 17.7969C10.3328 17.7894 10.343 17.782 10.3523 17.7745C10.6232 17.9393 10.9639 18.0389 11.3697 18.0696H11.3799H11.3911H12.0901C12.1748 18.0631 12.2595 18.0566 12.3433 18.05C12.5834 18.0314 12.8096 18.0137 13.0544 18.0128H13.0805L13.1056 18.0082C13.1661 17.9961 13.2629 17.9895 13.3644 17.9895C13.4658 17.9895 13.5626 17.9961 13.6231 18.0082L13.6408 18.0119H13.6585C13.8037 18.0221 13.9498 18.0659 14.1043 18.1115C14.3026 18.1701 14.5064 18.2315 14.7382 18.2315C14.7754 18.2315 14.8127 18.2297 14.849 18.2269C14.9253 18.4456 15.0128 18.6578 15.0984 18.8635C15.3832 19.5533 15.6522 20.2067 15.5592 21.1086C14.8183 21.3227 14.1351 21.4353 13.4221 21.4614L13.3253 21.4651L13.3057 21.4819C13.3057 21.4819 13.2973 21.4819 13.2936 21.4819C13.2648 21.48 13.2368 21.4781 13.2099 21.4781C13.1894 21.4781 13.1698 21.4781 13.1521 21.4809H13.0135L12.9911 21.4847C12.912 21.4977 12.7975 21.5051 12.6765 21.5051C12.5555 21.5051 12.441 21.4977 12.3619 21.4847L12.3396 21.4809H12.1999C12.1813 21.4791 12.1609 21.4781 12.1394 21.4781C12.1115 21.4781 12.0817 21.48 12.0529 21.4819C12.0426 21.4819 12.0333 21.4828 12.0231 21.4837L12.0026 21.4688L11.9188 21.4632C10.168 21.3506 8.86678 20.9541 7.94996 20.2541C7.99556 20.1732 8.0421 20.0922 8.08678 20.0131C8.31948 19.6063 8.55869 19.1865 8.73275 18.696L8.74671 18.6997L8.79604 18.5322L8.86865 18.5117L8.83514 18.4009C8.8733 18.2688 8.90681 18.1273 8.93659 17.9728C8.96266 17.9746 8.98872 17.9765 9.01292 17.9784C9.106 17.9849 9.19349 17.9905 9.26982 18.0082C9.28099 18.0109 9.31077 18.0249 9.33125 18.0342C9.39827 18.0649 9.48111 18.104 9.58256 18.1087C9.59559 18.1087 9.60862 18.1096 9.62166 18.1096L9.62072 18.1087Z" fill="#6DDE00"/>
<path fill-rule="evenodd" clip-rule="evenodd" d="M16.0945 3.6624C16.0573 3.67543 16.0135 3.72756 15.9996 3.6624C16.0387 3.70056 16.0377 3.65495 16.0564 3.62424C16.008 3.61028 15.9763 3.57863 15.9614 3.5293C16.0136 3.5656 16.0573 3.60934 16.0936 3.66147L16.0945 3.6624Z" fill="#020202"/>
<path fill-rule="evenodd" clip-rule="evenodd" d="M19.4199 8.8976C19.3362 8.91528 19.406 8.93576 19.3818 8.95438C19.3203 8.90225 19.3566 8.85199 19.4004 8.87898C19.3818 8.87898 19.3762 8.84547 19.4004 8.84082C19.3948 8.87154 19.4181 8.8734 19.419 8.8976H19.4199Z" fill="#020202"/>
<path fill-rule="evenodd" clip-rule="evenodd" d="M16.9256 13.5659C16.8893 13.5892 16.8745 13.565 16.7935 13.5845C16.7972 13.5994 16.8121 13.6032 16.8121 13.6227C16.7767 13.6702 16.7944 13.5566 16.7739 13.5659C16.7776 13.5445 16.7925 13.5557 16.7925 13.5659C16.8754 13.5641 16.8698 13.5399 16.9247 13.5659H16.9256Z" fill="#020202"/>
<path fill-rule="evenodd" clip-rule="evenodd" d="M15.8288 16.645C15.7404 16.6478 15.7888 16.7455 15.7339 16.7018C15.7395 16.6208 15.7534 16.6859 15.8093 16.6264C15.7153 16.5984 15.7869 16.5594 15.7339 16.551C15.7646 16.4923 15.7935 16.5901 15.8288 16.5891V16.6459V16.645Z" fill="#020202"/>
<path fill-rule="evenodd" clip-rule="evenodd" d="M15.8857 21.8421C15.9025 21.722 15.9258 21.8383 15.9993 21.748C15.9853 21.7834 15.9425 21.7611 15.9807 21.8048V21.8234C15.9276 21.8076 15.9314 21.8504 15.8857 21.8421Z" fill="#020202"/>
<path fill-rule="evenodd" clip-rule="evenodd" d="M13.5998 22.2765C13.5514 22.2039 13.6928 22.1964 13.5998 22.2579C13.6835 22.203 13.7934 22.135 13.8269 22.2011C13.7952 22.2188 13.7515 22.1918 13.8083 22.2579C13.7115 22.2309 13.7468 22.1946 13.6761 22.2011C13.7115 22.297 13.6621 22.2048 13.6379 22.2765H13.5998Z" fill="#020202"/>
<path fill-rule="evenodd" clip-rule="evenodd" d="M13.0889 22.2958C13.1224 22.2315 13.1484 22.1496 13.1838 22.1822C13.2127 22.2837 13.1401 22.1478 13.1084 22.2958H13.0898H13.0889Z" fill="#020202"/>
<path fill-rule="evenodd" clip-rule="evenodd" d="M7.40089 20.8409C7.47535 20.8307 7.32643 20.813 7.40089 20.8027C7.45208 20.8214 7.49211 20.8502 7.49583 20.9163C7.46698 20.8884 7.41671 20.8828 7.40089 20.8409Z" fill="#020202"/>
<path fill-rule="evenodd" clip-rule="evenodd" d="M8.17627 15.341C8.26563 15.3 8.16324 15.2907 8.27121 15.2842C8.23584 15.3503 8.20419 15.4424 8.19582 15.341C8.19489 15.3521 8.19302 15.3633 8.1772 15.3596V15.341H8.17627Z" fill="#020202"/>
<path fill-rule="evenodd" clip-rule="evenodd" d="M4.11328 9.21847C4.17006 9.16355 4.2287 9.15704 4.22684 9.21847C4.21288 9.26501 4.17006 9.15611 4.1319 9.21847C4.12724 9.23336 4.1319 9.2557 4.11328 9.25663V9.21847Z" fill="#020202"/>
<path fill-rule="evenodd" clip-rule="evenodd" d="M4.28365 8.33022C4.27806 8.2995 4.30133 8.29764 4.30226 8.27344C4.32739 8.37117 4.42978 8.35628 4.32088 8.44377C4.37952 8.39816 4.33484 8.36 4.28271 8.33022H4.28365Z" fill="#020202"/>
<path fill-rule="evenodd" clip-rule="evenodd" d="M4.37758 7.91421C4.37479 7.89188 4.38131 7.88071 4.3962 7.87605C4.49393 7.89002 4.49114 7.85371 4.52837 7.83789C4.52744 7.89374 4.4446 7.93376 4.37758 7.91328V7.91421Z" fill="#020202"/>
<path fill-rule="evenodd" clip-rule="evenodd" d="M5.90869 4.6275C6.00177 4.56328 6.06134 4.46555 6.15442 4.40039C6.08089 4.48975 5.99898 4.57166 5.90869 4.64612V4.6275Z" fill="#313131"/>
<path fill-rule="evenodd" clip-rule="evenodd" d="M9.91486 2.34055C9.90462 2.31356 9.88507 2.29401 9.85808 2.28377C9.79665 2.24747 9.95767 2.30239 9.87669 2.24561C9.91672 2.19628 9.9223 2.32566 9.93347 2.321C9.93254 2.33217 9.93068 2.34334 9.91486 2.33962V2.34055Z" fill="#020202"/>
<path fill-rule="evenodd" clip-rule="evenodd" d="M9.12107 2.64274C9.12107 2.61016 9.10711 2.59341 9.08291 2.58596C9.07267 2.55897 9.15644 2.53942 9.10153 2.52919C9.1248 2.50871 9.15644 2.54966 9.19647 2.5478C9.23463 2.48078 9.18809 2.61482 9.17785 2.5478C9.15923 2.5478 9.16296 2.57107 9.15923 2.58596C9.14062 2.58596 9.14434 2.56269 9.14062 2.5478C9.07733 2.56456 9.12386 2.58969 9.14062 2.6232C9.13969 2.63437 9.13783 2.64553 9.122 2.64181L9.12107 2.64274Z" fill="#020202"/>
<path fill-rule="evenodd" clip-rule="evenodd" d="M8.53518 2.88809C8.52214 2.8732 8.50539 2.83597 8.53518 2.83131C8.57055 2.75778 8.51284 2.91788 8.55379 2.84993C8.58358 2.85644 8.53704 2.88344 8.57241 2.88809C8.63105 2.92067 8.46723 2.87506 8.53424 2.92625C8.52401 2.98117 8.50446 2.8974 8.47747 2.90764C8.43744 2.92811 8.5026 2.88716 8.53424 2.88902L8.53518 2.88809Z" fill="#020202"/>
<path fill-rule="evenodd" clip-rule="evenodd" d="M4.64162 9.88007C4.62672 9.89589 4.58949 9.89124 4.58484 9.91823C4.56343 9.9145 4.5746 9.89961 4.58484 9.89961C4.58018 9.87541 4.54761 9.881 4.54668 9.89961C4.49548 9.88286 4.5867 9.84004 4.60345 9.881C4.63696 9.82701 4.5867 9.83818 4.66023 9.82422C4.66023 9.85028 4.65092 9.8661 4.64162 9.881V9.88007Z" fill="#020202"/>
<path fill-rule="evenodd" clip-rule="evenodd" d="M5.81371 11.7882C5.78579 11.8328 5.77369 11.8235 5.7951 11.8822C5.77928 11.8859 5.77741 11.8747 5.77648 11.8636C5.76997 11.8375 5.74297 11.8617 5.73832 11.8822C5.68061 11.8366 5.67875 11.8328 5.60615 11.8254C5.53541 11.8198 5.662 11.7779 5.64431 11.8254C5.662 11.7928 5.70667 11.7872 5.7197 11.75C5.73087 11.7509 5.74204 11.7528 5.73832 11.7686C5.71319 11.7751 5.70853 11.8021 5.68154 11.8068C5.70574 11.8943 5.78672 11.8449 5.7951 11.7686C5.80627 11.7695 5.81744 11.7714 5.81371 11.7872V11.7882Z" fill="#020202"/>
<path fill-rule="evenodd" clip-rule="evenodd" d="M7.7981 13.4522C7.79158 13.4262 7.76459 13.4504 7.75994 13.4708C7.70502 13.4606 7.78879 13.4411 7.77855 13.4141C7.82881 13.4457 7.79903 13.4653 7.83533 13.5276C7.89118 13.5546 7.79158 13.5425 7.81671 13.4895C7.75714 13.4801 7.76645 13.5406 7.72177 13.5462C7.69106 13.5323 7.78879 13.4885 7.79717 13.4513L7.7981 13.4522Z" fill="#020202"/>
<path fill-rule="evenodd" clip-rule="evenodd" d="M16.8118 5.15614C16.716 5.03142 16.5866 4.9402 16.4907 4.81641C16.6117 4.92159 16.7253 5.03514 16.8305 5.15614H16.8118Z" fill="#313131"/>
<path fill-rule="evenodd" clip-rule="evenodd" d="M14.4692 3.34157V3.30341C14.4888 3.31551 14.4888 3.34715 14.526 3.34157C14.5158 3.32667 14.5065 3.31085 14.5074 3.28479C14.4562 3.24942 14.5958 3.33784 14.5456 3.32295C14.5418 3.33878 14.553 3.34064 14.5642 3.34157C14.5577 3.37135 14.5307 3.32481 14.526 3.36018C14.5 3.36018 14.4841 3.35088 14.4692 3.34157Z" fill="#020202"/>
<path fill-rule="evenodd" clip-rule="evenodd" d="M16.8119 5.15614C16.6909 5.05096 16.5773 4.93741 16.4722 4.81641H16.4908C16.5867 4.94113 16.716 5.03235 16.8119 5.15614Z" fill="#E9E8E8"/>
<path fill-rule="evenodd" clip-rule="evenodd" d="M9.12061 2.77455C9.13271 2.75501 9.16435 2.75501 9.15877 2.71777C9.19693 2.77827 9.25557 2.75128 9.14015 2.81271C9.14015 2.7941 9.16342 2.79782 9.17831 2.7941C9.17552 2.77176 9.14388 2.77827 9.12154 2.77548L9.12061 2.77455Z" fill="white"/>
<path fill-rule="evenodd" clip-rule="evenodd" d="M16.6046 3.98438C16.613 4.00858 16.7247 4.04022 16.6046 4.07932C16.5608 4.07373 16.5608 4.02812 16.6046 4.02254C16.5934 4.00578 16.5813 3.98903 16.6046 3.98438Z" fill="white"/>
<path fill-rule="evenodd" clip-rule="evenodd" d="M6.94208 8.38333C7.22969 7.54375 7.73232 6.55525 9.07731 6.37003L9.09034 6.36816H9.30442L9.31652 6.37003C9.76423 6.42867 10.2231 6.69208 10.4865 7.04113C10.6904 7.31199 10.7723 7.6238 10.7239 7.94306L10.696 8.12457L10.5145 8.09943C10.2054 8.05662 9.96529 7.92352 9.754 7.80624C9.51851 7.67499 9.31466 7.56237 9.0345 7.56237C8.99075 7.56237 8.94514 7.56516 8.89953 7.57075C8.58678 7.60891 8.39783 7.80903 8.18003 8.03986C7.92592 8.30793 7.63831 8.6123 7.12637 8.63092L6.85645 8.64022L6.94394 8.38426L6.94208 8.38333Z" fill="#151515"/>
<path fill-rule="evenodd" clip-rule="evenodd" d="M18.1346 6.63049C18.1309 6.6519 18.116 6.64073 18.116 6.63049C18.0806 6.63235 18.103 6.69285 18.0592 6.68727C18.0657 6.70868 18.0927 6.73474 18.0974 6.70589C18.1337 6.7636 18.048 6.71892 18.022 6.68727C18.0406 6.64725 18.0983 6.59605 18.1355 6.63049H18.1346Z" fill="#020202"/>
<path fill-rule="evenodd" clip-rule="evenodd" d="M16.3208 8.27344C16.4446 8.41399 16.5926 8.53127 16.7173 8.66996C16.5544 8.5685 16.4399 8.41771 16.3208 8.27344Z" fill="#E9E8E8"/>
<path fill-rule="evenodd" clip-rule="evenodd" d="M16.3203 7.38556C16.3166 7.40417 16.2375 7.43675 16.2821 7.44234C16.3101 7.48887 16.1946 7.40603 16.1872 7.4805C16.1314 7.46374 16.2309 7.45257 16.2058 7.4051C16.2337 7.46933 16.2673 7.40045 16.3008 7.36694C16.3166 7.36322 16.3184 7.37439 16.3194 7.38556H16.3203Z" fill="#020202"/>
<path fill-rule="evenodd" clip-rule="evenodd" d="M16.7597 8.92574C16.6945 8.9062 16.6545 8.8671 16.6312 8.84011L16.6145 8.83546L16.5791 8.79636C16.5233 8.734 16.4609 8.67536 16.3957 8.61393C16.3269 8.54877 16.2552 8.48176 16.1882 8.40636L16.1267 8.35052C15.9266 8.16715 15.7544 8.00799 15.4398 7.98844L15.3607 7.98378L15.3477 7.96796L15.3356 7.98192L15.2583 7.98844C15.034 8.00705 14.8916 8.10665 14.7259 8.22207C14.5519 8.34307 14.3545 8.48083 14.0557 8.51713L13.8323 8.54412L13.8454 8.35424C13.8351 8.32911 13.8258 8.29374 13.8286 8.24906V8.01357L13.8314 7.99775C13.9394 7.39273 14.3592 7.03438 15.1168 6.90221L15.1327 6.89941H15.5245C15.7768 6.92361 15.9992 6.98319 16.1882 7.07813L16.1919 7.05765L16.3148 7.15073C16.3501 7.17307 16.3836 7.19727 16.4153 7.2224L16.4283 7.23264L16.4386 7.22612L16.4646 7.25218C16.4981 7.27173 16.5242 7.295 16.5428 7.32292L16.58 7.35178L16.5726 7.35922C16.8462 7.64032 16.9933 7.95028 17.0333 8.3319V8.34121L17.0343 8.52737C17.0454 8.62231 17.0194 8.68746 17.0036 8.72749C17.0008 8.734 16.998 8.73959 16.9961 8.7461L17.0026 9.00021L16.7588 8.92574H16.7597Z" fill="#151515"/>
<path fill-rule="evenodd" clip-rule="evenodd" d="M16.4155 7.46096C16.3968 7.47306 16.4238 7.56242 16.3587 7.57452C16.4359 7.46468 16.3345 7.49168 16.3401 7.42373C16.3671 7.41349 16.3866 7.49726 16.3968 7.44235C16.4127 7.43862 16.4145 7.44979 16.4155 7.46096Z" fill="#020202"/>
<path fill-rule="evenodd" clip-rule="evenodd" d="M18.5691 7.66902C18.543 7.64669 18.5672 7.66158 18.5877 7.66902C18.5663 7.7286 18.5933 7.71929 18.5691 7.76397C18.5653 7.77979 18.5765 7.78165 18.5877 7.78258C18.5839 7.80399 18.5691 7.79282 18.5691 7.78258C18.5532 7.77886 18.5514 7.79003 18.5504 7.8012C18.5597 7.73976 18.529 7.70346 18.5691 7.66902Z" fill="#020202"/>
<path fill-rule="evenodd" clip-rule="evenodd" d="M19.0227 9.16188C19.019 9.1777 19.0302 9.17956 19.0413 9.18049C19.0255 9.19539 19.0302 9.23262 19.0032 9.23727C19.0246 9.27637 19.0236 9.2773 18.9845 9.25589C19.0004 9.241 18.9957 9.20376 19.0227 9.19911C19.0181 9.17491 18.9855 9.18049 18.9845 9.19911C18.9566 9.19073 18.992 9.17491 18.9845 9.14233C19.0004 9.13861 19.0022 9.14978 19.0032 9.16095C19.019 9.16467 19.0208 9.1535 19.0218 9.14233C19.0432 9.14606 19.032 9.16095 19.0218 9.16095L19.0227 9.16188Z" fill="#020202"/>
<path fill-rule="evenodd" clip-rule="evenodd" d="M4.01807 10.3907C4.02179 10.3693 4.03668 10.3804 4.03668 10.3907C4.05251 10.3944 4.05437 10.3832 4.0553 10.3721C4.09067 10.4037 4.04878 10.4223 4.03668 10.4856C4.05809 10.4633 4.08415 10.4782 4.0553 10.4856C4.05157 10.5015 4.06274 10.5033 4.07391 10.5042C4.07019 10.5257 4.0553 10.5145 4.0553 10.5042C4.03947 10.5005 4.03761 10.5117 4.03668 10.5229C3.99293 10.5089 4.06368 10.4288 4.01807 10.3907Z" fill="#020202"/>
<path fill-rule="evenodd" clip-rule="evenodd" d="M7.06106 10.9757C6.84698 10.985 6.74832 10.6741 6.87211 10.5224C7.01918 10.501 7.03966 10.6071 7.156 10.6164C7.1197 10.7318 7.1225 10.8854 7.06106 10.9757Z" fill="#010101"/>
<path fill-rule="evenodd" clip-rule="evenodd" d="M13.2973 11.3538C13.2712 11.3538 13.2554 11.3445 13.2405 11.3352C13.2098 11.3697 13.2582 11.3994 13.2024 11.4302C13.194 11.3957 13.1214 11.4413 13.1074 11.4115C13.14 11.3343 13.1772 11.4553 13.221 11.3734C13.1661 11.3631 13.2498 11.3436 13.2396 11.3166C13.1837 11.3157 13.1698 11.2738 13.1447 11.2412C13.1912 11.2514 13.1847 11.3147 13.2582 11.298C13.2759 11.312 13.2871 11.3324 13.2964 11.3548L13.2973 11.3538Z" fill="#020202"/>
<path fill-rule="evenodd" clip-rule="evenodd" d="M13.6 12.129C13.5581 12.2016 13.533 12.1868 13.4492 12.1104C13.5088 12.1011 13.4995 12.1616 13.5442 12.1672C13.5497 12.1114 13.4688 12.0974 13.5442 12.0723C13.5228 12.0993 13.5237 12.1188 13.5628 12.129C13.5674 12.1142 13.5628 12.0918 13.5814 12.0909C13.6 12.0909 13.5963 12.1142 13.6 12.129Z" fill="#020202"/>
<path fill-rule="evenodd" clip-rule="evenodd" d="M11.9747 12.3184C12.0204 12.2579 11.945 12.2831 11.9366 12.2617C11.9533 12.2561 12.0194 12.2105 11.9747 12.2049C11.9803 12.2282 11.9198 12.27 11.918 12.2235C11.9775 12.2328 11.9682 12.1583 12.0129 12.2049C11.945 12.2542 12.0297 12.2682 11.9943 12.3184H11.9757H11.9747Z" fill="#020202"/>
<path fill-rule="evenodd" clip-rule="evenodd" d="M11.7856 12.3372C11.7894 12.3223 11.8015 12.3148 11.8238 12.3186C11.8015 12.2534 11.7959 12.3204 11.7856 12.2432C11.8285 12.272 11.8592 12.2925 11.8992 12.2618C11.8806 12.2618 11.875 12.2283 11.8992 12.2236C11.9206 12.2832 11.9076 12.2739 11.8806 12.3186H11.956C11.9355 12.3614 11.8368 12.326 11.7856 12.3372Z" fill="#020202"/>
<path fill-rule="evenodd" clip-rule="evenodd" d="M7.47698 11.0141C7.46023 10.922 7.50304 10.8885 7.51514 10.8252H7.70409C7.74226 11.1314 7.92562 11.6387 7.59054 11.7513C7.53841 11.5838 7.48536 11.4153 7.47698 11.2031V11.0141Z" fill="#010101"/>
<path fill-rule="evenodd" clip-rule="evenodd" d="M16.5282 11.3163C16.4788 11.7268 16.2368 11.9446 15.9427 12.1103C15.8915 11.6123 16.3215 11.4308 16.3392 10.9384C16.4332 10.9198 16.4314 10.9971 16.5096 10.9952C16.4956 11.0529 16.5421 11.0511 16.5282 11.1088V11.3163Z" fill="#010101"/>
<path fill-rule="evenodd" clip-rule="evenodd" d="M17.454 11.5622C17.4196 11.7614 17.3079 11.8815 17.1143 11.9215C17.1645 11.6693 17.1059 11.3081 17.454 11.3547V11.5622Z" fill="#010101"/>
<path fill-rule="evenodd" clip-rule="evenodd" d="M9.23449 16.2004C8.67322 16.2004 8.4973 15.9743 8.4489 15.7844C8.37816 15.507 8.54012 15.1868 8.65833 15.05C8.80167 14.8834 9.11349 14.7345 9.38248 14.7037C9.42716 14.6982 9.47743 14.6963 9.53048 14.6963C9.62356 14.6963 10.0964 14.7075 10.2686 14.9243L10.3086 14.9755V15.2808C10.3217 15.507 10.2714 15.6736 10.2276 15.8207C10.2146 15.8644 10.2016 15.9091 10.1895 15.9547L10.1625 16.0636L10.0536 16.0906C9.91862 16.1241 9.56957 16.2023 9.23449 16.2023V16.2004Z" fill="white"/>
<path d="M9.53045 14.8812C9.75291 14.8812 10.0387 14.9333 10.1224 15.0394V15.2851C10.1383 15.5467 10.0582 15.7114 10.0089 15.9087C9.81155 15.9581 9.50811 16.0149 9.23446 16.0149C8.94126 16.0149 8.68343 15.9497 8.62944 15.7393C8.58104 15.5485 8.69739 15.2898 8.79978 15.1725C8.90682 15.0496 9.17302 14.9156 9.40479 14.8886C9.44295 14.8839 9.48577 14.8821 9.53138 14.8821M9.53138 14.5098C9.47088 14.5098 9.4141 14.5126 9.36197 14.5191C9.04737 14.5563 8.69274 14.7285 8.51868 14.9286C8.36975 15.1008 8.1808 15.4834 8.26923 15.8315C8.39302 16.3155 8.92729 16.3872 9.23539 16.3872C9.59095 16.3872 9.95861 16.3053 10.0992 16.2708L10.317 16.2168L10.371 15.999C10.3812 15.959 10.3933 15.9171 10.4063 15.8734C10.4519 15.7207 10.5087 15.5318 10.4947 15.2749V14.91L10.4147 14.8085C10.195 14.5312 9.6831 14.5098 9.53045 14.5098H9.53138Z" fill="#0B0907"/>
<path fill-rule="evenodd" clip-rule="evenodd" d="M10.9598 16.2858C10.7466 16.2858 10.5195 16.257 10.3035 16.203L10.1714 16.1695L10.163 16.0336C10.1546 15.8958 10.1863 15.7953 10.2114 15.7143C10.2347 15.6399 10.2514 15.5849 10.2403 15.4984L10.2216 15.3588L10.3519 15.3029C10.4385 15.2657 10.5204 15.2229 10.6079 15.1772C10.8211 15.0656 11.0417 14.9501 11.347 14.911L11.3591 14.9092H11.723C11.8999 14.9213 12.0199 14.9911 12.1158 15.0479C12.1363 15.06 12.1558 15.0711 12.1772 15.0832L12.274 15.1354V15.2461C12.2759 15.5226 12.1865 15.7525 12.0097 15.9303C11.7816 16.1592 11.4093 16.2849 10.9607 16.2849L10.9598 16.2858Z" fill="white"/>
<path d="M11.7092 15.0959C11.8749 15.1071 11.9726 15.1853 12.0871 15.2467C12.0899 15.8611 11.5547 16.0993 10.959 16.0993C10.7561 16.0993 10.5457 16.0714 10.3484 16.0221C10.3344 15.8006 10.4564 15.714 10.4238 15.4738C10.7319 15.3417 10.9776 15.1462 11.3685 15.0959H11.7083M11.7204 14.7236H11.3443L11.3211 14.7264C10.9823 14.7702 10.7365 14.8986 10.5197 15.0122C10.4359 15.0559 10.3568 15.0969 10.2767 15.1313L10.017 15.243L10.0543 15.5232C10.0598 15.5669 10.0543 15.5874 10.0319 15.6591C10.004 15.7494 9.96491 15.8732 9.97608 16.0454L9.99283 16.3171L10.2572 16.3832C10.488 16.4409 10.73 16.4717 10.959 16.4717C11.4653 16.4717 11.873 16.3302 12.1402 16.0621C12.3505 15.8508 12.4604 15.5688 12.4594 15.2458V15.0252L12.264 14.92C12.2453 14.9098 12.2267 14.8996 12.2081 14.8884C12.1011 14.8251 11.954 14.7395 11.7334 14.7246H11.7213L11.7204 14.7236Z" fill="#0B0907"/>
<path fill-rule="evenodd" clip-rule="evenodd" d="M13.5614 16.1357C13.5651 16.1515 13.554 16.1534 13.5428 16.1543C13.5614 16.1794 13.5735 16.2111 13.5996 16.2297C13.5763 16.2297 13.5447 16.2772 13.5046 16.2483C13.4646 16.2688 13.5298 16.2278 13.5614 16.2297C13.567 16.199 13.5437 16.1971 13.5428 16.1729C13.4423 16.253 13.4851 16.2074 13.5428 16.1348H13.5614V16.1357Z" fill="#020202"/>
<path fill-rule="evenodd" clip-rule="evenodd" d="M13.6938 15.3418C13.7581 15.366 13.7395 15.5726 13.7125 15.6257C13.7041 15.5335 13.732 15.4042 13.6938 15.3418Z" fill="#BABABA"/>
<path fill-rule="evenodd" clip-rule="evenodd" d="M12.6579 16.4579C12.5741 16.4579 12.4894 16.456 12.4047 16.4542L12.3386 16.4523L12.3144 16.4318C12.2977 16.4318 12.2809 16.4328 12.2632 16.4346C12.2372 16.4365 12.2102 16.4374 12.186 16.4374C12.1674 16.4374 12.1497 16.4374 12.1329 16.4346H11.9942L11.9421 16.335C11.8034 16.0716 11.9533 15.892 12.0426 15.784C12.1069 15.7068 12.1329 15.6705 12.1292 15.6221L12.1013 15.3019L12.3935 15.4368C12.4336 15.4554 12.4708 15.4648 12.508 15.4648C12.6207 15.4648 12.7407 15.3782 12.8673 15.286C13.0218 15.1734 13.1968 15.0459 13.4146 15.0459C13.5496 15.0459 13.6818 15.0962 13.8084 15.1939L13.8344 15.2144L13.8521 15.2423C13.907 15.3317 13.9033 15.434 13.8986 15.5243C13.8977 15.555 13.8958 15.5867 13.8986 15.6072V15.6174V15.6276C13.8977 15.7096 13.8856 15.7794 13.8754 15.8417C13.8633 15.9162 13.8521 15.9804 13.8595 16.0614L13.8689 16.1526L13.8018 16.215C13.7609 16.2531 13.7153 16.269 13.6846 16.2792L13.651 16.322H13.5831C13.3094 16.4412 12.9632 16.4579 12.6579 16.4579Z" fill="white"/>
<path d="M13.4136 15.2326C13.5002 15.2326 13.5923 15.2633 13.6938 15.3415C13.7329 15.4039 13.704 15.5333 13.7124 15.6254C13.7105 15.7874 13.6565 15.8972 13.6742 16.0787C13.6444 16.1057 13.5858 16.1038 13.5607 16.1355H13.542C13.3131 16.2472 12.9975 16.2714 12.6569 16.2714C12.575 16.2714 12.4921 16.2695 12.4083 16.2677C12.3879 16.25 12.3553 16.2453 12.3171 16.2453C12.2752 16.2453 12.2278 16.2509 12.1859 16.2509C12.171 16.2509 12.157 16.2509 12.144 16.2481H12.1058C11.9588 15.967 12.3385 15.8898 12.3134 15.6059C12.3814 15.6375 12.4456 15.6505 12.5061 15.6505C12.8477 15.6505 13.0925 15.2317 13.4127 15.2317M13.4127 14.8594C13.1344 14.8594 12.924 15.012 12.7555 15.1349C12.668 15.1991 12.5582 15.2782 12.5061 15.2782C12.4968 15.2782 12.4847 15.2745 12.4698 15.268L11.8862 14.9981L11.9402 15.6133C11.929 15.6282 11.9113 15.6496 11.8983 15.6654C11.8033 15.7799 11.579 16.048 11.7754 16.4222L11.8797 16.6214H12.1226C12.1421 16.6232 12.1626 16.6242 12.185 16.6242C12.2054 16.6242 12.2268 16.6242 12.2492 16.6223L12.2669 16.6372L12.399 16.64C12.4856 16.6418 12.5722 16.6437 12.6569 16.6437C12.9687 16.6437 13.3224 16.6269 13.6193 16.5078H13.7394L13.7971 16.4361C13.8362 16.4194 13.8827 16.3933 13.9274 16.3514L14.0624 16.2258L14.0447 16.0424C14.0391 15.9866 14.0465 15.941 14.0586 15.8721C14.0698 15.8069 14.0828 15.7259 14.0847 15.6301V15.6105L14.0828 15.591C14.0828 15.5817 14.0828 15.5528 14.0847 15.5342C14.0894 15.4346 14.0959 15.2838 14.0093 15.1461L13.9739 15.0893L13.9209 15.0483C13.7608 14.9245 13.5895 14.8612 13.4127 14.8612V14.8594Z" fill="#0B0907"/>
<path fill-rule="evenodd" clip-rule="evenodd" d="M14.299 15.2842C14.1808 15.3605 14.3158 15.3615 14.2609 15.435C14.3037 15.4406 14.3316 15.4303 14.3363 15.3968C14.3735 15.4555 14.2478 15.4601 14.2041 15.4155C14.2404 15.3736 14.2311 15.3103 14.2795 15.2451C14.299 15.2572 14.299 15.2889 14.3363 15.2833C14.3316 15.3075 14.299 15.3019 14.2981 15.2833L14.299 15.2842Z" fill="#020202"/>
<path fill-rule="evenodd" clip-rule="evenodd" d="M14.3928 15.4553C14.3863 15.4292 14.3593 15.4534 14.3546 15.4739C14.3081 15.4264 14.458 15.4143 14.4682 15.3604C14.5017 15.3743 14.471 15.3948 14.4682 15.4171C14.4561 15.4423 14.4282 15.4525 14.3928 15.4553Z" fill="#020202"/>
<path fill-rule="evenodd" clip-rule="evenodd" d="M15.2759 16.5669C14.7165 16.5501 14.2316 16.4635 13.8342 16.309L13.6787 16.2485L13.7225 16.0875C13.809 15.7664 13.9933 15.5095 14.2865 15.3038L14.3284 15.274H14.3321L14.3424 15.2526L14.4345 15.2358C14.4876 15.2256 14.5481 15.206 14.6123 15.1846C14.7221 15.1483 14.8469 15.1064 14.9753 15.1064C15.0274 15.1064 15.0777 15.1139 15.1242 15.1269C15.2136 15.153 15.3392 15.2265 15.4314 15.4285C15.5691 15.731 15.5766 16.1843 15.4491 16.4607L15.3979 16.5724L15.275 16.5687L15.2759 16.5669Z" fill="white"/>
<path d="M14.9764 15.2902C15.0099 15.2902 15.0425 15.294 15.0732 15.3033C15.3413 15.3815 15.4325 16.0516 15.2808 16.3802C14.7549 16.3644 14.2913 16.2862 13.9013 16.1345C13.9842 15.8273 14.1638 15.616 14.3928 15.4541C14.4282 15.4513 14.4561 15.442 14.4682 15.4159C14.6329 15.3852 14.8116 15.2893 14.9755 15.2893M14.9755 14.917C14.8172 14.917 14.6767 14.9635 14.5529 15.0045C14.4952 15.024 14.4403 15.0417 14.4002 15.0492L14.2159 15.0836L14.1871 15.1422L14.1778 15.1488C13.8483 15.3815 13.6398 15.6709 13.5411 16.0367L13.4536 16.3597L13.7654 16.4807C14.1824 16.6436 14.6888 16.7348 15.2696 16.7516L15.5153 16.759L15.6186 16.5356C15.7685 16.2099 15.761 15.6998 15.6009 15.3479C15.479 15.0808 15.3031 14.9812 15.1765 14.9449C15.1123 14.9263 15.0453 14.917 14.9755 14.917Z" fill="#0B0907"/>
<path fill-rule="evenodd" clip-rule="evenodd" d="M11.1052 16.2676C11.1266 16.2713 11.1154 16.2862 11.1052 16.2862C11.1173 16.3057 11.1489 16.3057 11.1433 16.343C11.1182 16.3365 11.1136 16.3095 11.0866 16.3048C11.0866 16.3374 11.1005 16.3541 11.1247 16.3616C11.1508 16.3876 11.0558 16.3774 11.0298 16.343C11.0335 16.3216 11.0484 16.3327 11.0484 16.343C11.0735 16.3244 11.0866 16.2927 11.1052 16.2676Z" fill="#020202"/>
<path fill-rule="evenodd" clip-rule="evenodd" d="M9.24561 17.6261H9.23816C8.86492 17.5936 8.58009 17.5014 8.36787 17.3441L8.29248 17.2883V16.8061L8.2962 16.7707C8.30737 16.6721 8.3204 16.5604 8.36974 16.4654L8.4079 16.3919C8.43303 16.3249 8.47119 16.2784 8.49912 16.2448C8.50842 16.2337 8.51866 16.2225 8.52611 16.2104L8.5801 16.1201H10.128L10.1783 16.229C10.1978 16.2718 10.2332 16.31 10.2741 16.3547C10.3486 16.4366 10.4417 16.538 10.4752 16.7047L10.4789 16.7223V16.9616L10.477 16.9746C10.4259 17.3506 10.1615 17.5694 9.69053 17.6252H9.67936L9.24468 17.6261H9.24561Z" fill="white"/>
<path d="M10.009 16.3059C10.0844 16.4697 10.2529 16.5414 10.2929 16.7405V16.9481C10.2482 17.2748 10.0016 17.3995 9.66929 17.4396H9.25322C8.93955 17.4126 8.67334 17.339 8.47881 17.1938V16.8159C8.48998 16.7201 8.49835 16.6214 8.53559 16.5516C8.64914 16.5227 8.59981 16.5144 8.68637 16.438C8.68265 16.4297 8.678 16.4269 8.67334 16.4269C8.64821 16.4269 8.61098 16.506 8.58678 16.506C8.58213 16.506 8.57747 16.5023 8.57375 16.4948C8.58771 16.4083 8.64914 16.3692 8.6873 16.3059H10.01M10.2492 15.9335H8.47695L8.37084 16.1104C8.36711 16.116 8.36246 16.1206 8.3578 16.1262C8.32616 16.1644 8.27589 16.2249 8.24052 16.3152L8.20702 16.3794C8.14093 16.5051 8.12604 16.6409 8.11301 16.7499L8.11021 16.7731L8.10742 16.7945V17.3809L8.25728 17.4926C8.49742 17.6723 8.81389 17.7756 9.22251 17.811H9.23833L9.25416 17.8119H9.69163L9.71397 17.8091C10.4176 17.7253 10.6178 17.3223 10.6624 16.9984L10.6662 16.9732V16.7033L10.6587 16.667C10.615 16.4492 10.493 16.3161 10.4121 16.2277C10.3851 16.1988 10.3553 16.1653 10.3478 16.1495L10.2482 15.9326L10.2492 15.9335Z" fill="#0B0907"/>
<path fill-rule="evenodd" clip-rule="evenodd" d="M8.57239 16.4948C8.59845 16.5497 8.65988 16.3831 8.68594 16.438C8.59845 16.5134 8.64778 16.5218 8.53516 16.5516C8.55098 16.5367 8.54633 16.4995 8.57332 16.4948H8.57239Z" fill="white"/>
<path fill-rule="evenodd" clip-rule="evenodd" d="M14.3931 17.6475H14.4498C14.4564 17.6726 14.4834 17.6772 14.488 17.7042C14.5392 17.7396 14.4452 17.6996 14.4498 17.6661C14.3828 17.6679 14.4899 17.7284 14.4312 17.7229C14.4005 17.7731 14.4489 17.6735 14.3931 17.6661V17.6475Z" fill="#020202"/>
<path fill-rule="evenodd" clip-rule="evenodd" d="M14.3176 16.5517C14.3846 16.5005 14.3204 16.4614 14.2608 16.4381C14.2199 16.4428 14.3893 16.413 14.3558 16.4949C14.3707 16.4847 14.3865 16.4754 14.4125 16.4763C14.4609 16.4409 14.3641 16.5247 14.3371 16.5331V16.5517H14.3185H14.3176Z" fill="#020202"/>
<path fill-rule="evenodd" clip-rule="evenodd" d="M14.2792 17.8142C13.9907 17.8077 13.8064 17.6998 13.6444 17.6039L13.5523 17.5499L13.5448 17.4391V17.2921L13.5644 17.2604C13.57 17.2325 13.57 17.1739 13.5644 17.1459L13.5439 17.1134V17.0594C13.5448 17.0352 13.5411 17.0128 13.5365 16.9831C13.5281 16.9346 13.5188 16.8751 13.5253 16.7988C13.5225 16.7606 13.5253 16.7243 13.5272 16.6908C13.5272 16.6852 13.5272 16.6787 13.5281 16.6722L13.5253 16.6694L13.5123 16.6117C13.4937 16.5325 13.5113 16.4739 13.5244 16.4404L13.4937 16.2412L13.7208 16.2514C13.8176 16.2561 13.9246 16.2812 14.0382 16.3082C14.1359 16.3315 14.2364 16.3557 14.3258 16.3641H14.3537L14.498 16.392C14.7865 16.4469 15.0853 16.5037 15.3469 16.6033L15.4707 16.6508L15.4669 16.7829C15.4474 17.4019 15.1216 17.7575 14.5231 17.8133H14.5147H14.2792V17.8142Z" fill="white"/>
<path d="M13.7123 16.4377C13.8705 16.4452 14.1079 16.5327 14.3173 16.5513H14.3359C14.6626 16.6146 14.9977 16.6704 15.2807 16.7784C15.2648 17.3043 15.0014 17.5826 14.5062 17.6291H14.2791C14.039 17.6235 13.8863 17.5314 13.7309 17.4402V17.3452C13.7625 17.294 13.7625 17.1125 13.7309 17.0613C13.7318 16.9655 13.6983 16.905 13.7123 16.797C13.7002 16.7272 13.7365 16.609 13.6937 16.5699C13.6788 16.5047 13.7216 16.4973 13.7123 16.4377ZM13.2748 16.0459L13.3335 16.4256C13.3186 16.4815 13.3092 16.5606 13.3307 16.6537L13.34 16.6937C13.3381 16.7235 13.3362 16.7588 13.3381 16.797C13.3316 16.8901 13.3446 16.9627 13.353 17.0129C13.3558 17.0316 13.3586 17.0483 13.3586 17.0558L13.3567 17.1637L13.3809 17.2028L13.3586 17.2391V17.6515L13.5419 17.7594L13.5494 17.7641C13.7225 17.8655 13.9366 17.9921 14.2698 17.9996H14.2745H14.2791H14.523L14.5398 17.9977C15.2248 17.9344 15.6306 17.4932 15.652 16.7877L15.6604 16.5224L15.4128 16.4284C15.1364 16.3232 14.8302 16.2646 14.5332 16.2087C14.4904 16.2004 14.4485 16.1929 14.4057 16.1845L14.3704 16.178H14.334C14.2587 16.1696 14.1674 16.1482 14.0799 16.1268C13.958 16.098 13.8417 16.0701 13.7272 16.0654L13.2729 16.0449L13.2748 16.0459Z" fill="#0B0907"/>
<path fill-rule="evenodd" clip-rule="evenodd" d="M11.1464 17.7255C11.1064 17.7255 11.0654 17.7227 11.0254 17.7181C10.8392 17.6948 10.5153 17.5692 10.412 17.3756C10.3319 17.2266 10.3561 17.0796 10.3757 16.9623C10.3924 16.858 10.4017 16.791 10.3701 16.7259L10.3003 16.5797L10.4362 16.4904C10.6549 16.3461 10.937 16.199 11.3688 16.1953H11.7263L11.7793 16.2912C11.7924 16.3145 11.8054 16.3368 11.8184 16.3591C11.8808 16.4634 11.959 16.5928 11.972 16.7845V16.7975V17.0349V17.0451C11.9282 17.4342 11.5736 17.7274 11.1464 17.7274V17.7255Z" fill="white"/>
<path d="M11.6155 16.3811C11.6854 16.5068 11.7729 16.6138 11.7859 16.7972V17.0243C11.7533 17.3221 11.4797 17.5409 11.1464 17.5409C11.1139 17.5409 11.0813 17.539 11.0487 17.5344C10.8942 17.5148 10.6401 17.4087 10.5759 17.2886C10.4725 17.096 10.6503 16.8828 10.5377 16.6464C10.7583 16.5012 11.0068 16.3848 11.3689 16.382H11.6146M10.6699 16.6464C10.6512 16.6464 10.6475 16.6613 10.6326 16.665C10.6671 16.6994 10.6196 16.7497 10.6215 16.7497C10.6215 16.7497 10.6252 16.7469 10.6326 16.7404C10.6512 16.7404 10.655 16.7255 10.6699 16.7218C10.7052 16.7553 10.6438 16.7804 10.708 16.7972C10.7136 16.7683 10.6885 16.7013 10.6848 16.6836C10.6857 16.6836 10.6875 16.6836 10.6885 16.6836L10.6848 16.6799C10.6848 16.6799 10.6848 16.6818 10.6848 16.6845C10.6689 16.6864 10.6652 16.7004 10.6512 16.7032C10.6438 16.6752 10.6857 16.6333 10.6857 16.6333C10.6857 16.6333 10.681 16.6371 10.6708 16.6464M11.8352 16.0097H11.3698C10.8849 16.0134 10.5619 16.1856 10.3338 16.3355L10.2985 16.3588L10.2426 16.3662L10.2482 16.3923L10.063 16.5133L10.2026 16.8065C10.2101 16.8232 10.2007 16.8837 10.1924 16.9331C10.171 17.0634 10.1384 17.2598 10.2482 17.4645C10.4102 17.7671 10.8476 17.8843 11.0022 17.9039C11.0506 17.9104 11.099 17.9132 11.1464 17.9132C11.6686 17.9132 12.1024 17.5483 12.1554 17.0652L12.1573 17.0448V16.772C12.1405 16.5365 12.0456 16.3792 11.9767 16.2638C11.9646 16.2433 11.9525 16.2229 11.9404 16.2015L11.8343 16.0088L11.8352 16.0097Z" fill="#0B0907"/>
<path fill-rule="evenodd" clip-rule="evenodd" d="M12.0686 16.8348C12.0519 16.8264 12.0351 16.8181 12.0305 16.7967C12.0156 16.8125 11.9783 16.8078 11.9737 16.8348C11.9998 16.8572 11.9756 16.8423 11.9551 16.8348C11.9867 16.7911 12.0314 16.7743 11.9932 16.7408C12.0202 16.685 12.0333 16.7995 12.05 16.8162H12.0686V16.8348Z" fill="#020202"/>
<path fill-rule="evenodd" clip-rule="evenodd" d="M13.0704 17.5332H13.184C13.1774 17.5453 13.1905 17.5872 13.184 17.6086C13.1942 17.6644 13.1383 17.4922 13.1086 17.6086C13.1244 17.6123 13.1262 17.6011 13.1272 17.59C13.1663 17.6505 13.0546 17.6067 13.0704 17.5332Z" fill="#020202"/>
<path fill-rule="evenodd" clip-rule="evenodd" d="M12.9833 17.7407C12.9657 17.7407 12.948 17.7407 12.9303 17.7398C12.9173 17.7398 12.9052 17.7389 12.8921 17.7389C12.8875 17.7389 12.8707 17.7398 12.8707 17.7398H12.4658C12.4602 17.7398 12.4481 17.7398 12.437 17.7398C12.2182 17.7398 12.0628 17.6746 11.9269 17.6048L11.7808 17.5294L11.8385 17.3749C11.8887 17.2409 11.8859 17.0175 11.8831 16.8369V16.6806L11.9073 16.6731C11.9213 16.5884 11.9595 16.5307 11.9846 16.4935L12.0395 16.4106L12.1438 16.4032H12.4965C12.5282 16.4013 12.5589 16.4004 12.5878 16.4004C12.6641 16.4004 12.732 16.406 12.7981 16.4125C12.853 16.4171 12.9052 16.4218 12.9591 16.4227H12.9973L13.0327 16.4395C13.0373 16.4404 13.0736 16.4469 13.1267 16.4469C13.1797 16.4469 13.216 16.4404 13.2253 16.4376L13.2616 16.4209L13.297 16.4227H13.5669L13.5772 16.5977C13.5772 16.6089 13.5818 16.621 13.5893 16.6443C13.6051 16.6927 13.6284 16.7653 13.6153 16.8676V17.1199C13.6228 17.3275 13.5521 17.4717 13.4739 17.5965L13.4534 17.63L13.4208 17.6523C13.3799 17.6802 13.337 17.6895 13.3026 17.6942L13.2849 17.7221H13.1146C13.0671 17.7398 13.0196 17.7426 12.9833 17.7426V17.7407Z" fill="white"/>
<path d="M12.5889 16.5862C12.7192 16.5862 12.8291 16.6057 12.9566 16.6085C12.9919 16.6243 13.059 16.6318 13.1269 16.6318C13.1949 16.6318 13.2619 16.6243 13.2972 16.6085H13.3922C13.3978 16.6979 13.4471 16.7426 13.4304 16.8543V17.1186C13.4369 17.2889 13.3801 17.396 13.3168 17.4965C13.2833 17.5198 13.207 17.5002 13.1846 17.5347H13.0711C13.0515 17.5514 13.0199 17.5551 12.9845 17.5551C12.9547 17.5551 12.9231 17.5523 12.8933 17.5523C12.883 17.5523 12.8728 17.5523 12.8635 17.5533H12.467C12.4567 17.5533 12.4474 17.5533 12.4372 17.5533C12.2576 17.5533 12.1319 17.5002 12.0128 17.4397C12.0723 17.2787 12.0723 17.0581 12.0695 16.8347V16.8161C12.1384 16.7937 12.1738 16.7025 12.2166 16.7025C12.2175 16.7025 12.2194 16.7025 12.2203 16.7025C12.2213 16.6793 12.2175 16.67 12.211 16.67C12.1896 16.67 12.1347 16.764 12.1049 16.764C12.0975 16.764 12.0909 16.7574 12.0872 16.7407C12.0872 16.6709 12.1161 16.6309 12.144 16.5899H12.5033C12.5331 16.588 12.561 16.5871 12.5889 16.5871M12.4083 16.6579C12.3972 16.6579 12.3869 16.6541 12.3767 16.6541C12.3683 16.6541 12.3599 16.6569 12.3525 16.6653C12.3637 16.6662 12.3748 16.6681 12.3711 16.6839C12.3609 16.6839 12.3497 16.6988 12.3711 16.7025C12.373 16.6783 12.3795 16.67 12.3879 16.67C12.4074 16.67 12.4363 16.7184 12.4363 16.7184C12.4363 16.7184 12.4335 16.7137 12.427 16.7025C12.4223 16.6746 12.4642 16.6141 12.4595 16.6141C12.4586 16.6141 12.454 16.6178 12.4456 16.6271C12.4335 16.6513 12.4204 16.6569 12.4074 16.6569M12.588 16.2139C12.5545 16.2139 12.5228 16.2148 12.4903 16.2167H11.9439L11.8331 16.3833L11.8285 16.3898C11.8089 16.4186 11.7782 16.4642 11.754 16.5266L11.6954 16.5462V16.8356C11.6972 16.9957 11.7 17.2089 11.6619 17.3103L11.5474 17.6194L11.8406 17.7711C11.9895 17.8474 12.1766 17.9265 12.4353 17.9265C12.4465 17.9265 12.4586 17.9265 12.4707 17.9265H12.8914C12.9026 17.9256 12.9119 17.9265 12.9221 17.9265C12.9426 17.9265 12.9631 17.9284 12.9836 17.9284C13.0115 17.9284 13.0729 17.9284 13.1446 17.9079H13.3866L13.4192 17.8586C13.4536 17.8474 13.4899 17.8307 13.5262 17.8064L13.5914 17.7627L13.6333 17.6966C13.7217 17.5551 13.811 17.3755 13.8036 17.1149V16.8794C13.8176 16.7426 13.7859 16.643 13.7682 16.588C13.7673 16.5843 13.7654 16.5797 13.7645 16.5759L13.744 16.2381H13.22L13.1716 16.2595C13.1623 16.2604 13.1474 16.2613 13.1297 16.2613C13.112 16.2613 13.0971 16.2604 13.0878 16.2595L13.0422 16.239H12.965C12.9175 16.2371 12.8691 16.2325 12.8179 16.2288C12.7518 16.2232 12.6764 16.2167 12.5917 16.2167L12.588 16.2139Z" fill="#0B0907"/>
<path fill-rule="evenodd" clip-rule="evenodd" d="M12.0872 16.7404C12.1067 16.8391 12.2259 16.5831 12.2193 16.7022C12.1747 16.6967 12.1393 16.7925 12.0686 16.8158C12.0704 16.786 12.0593 16.7441 12.0872 16.7404Z" fill="white"/>
<path fill-rule="evenodd" clip-rule="evenodd" d="M12.4465 16.6272C12.4884 16.5816 12.4223 16.6682 12.4279 16.7026C12.4633 16.7669 12.3795 16.604 12.3712 16.7026C12.3497 16.6989 12.3609 16.684 12.3712 16.684C12.3749 16.6682 12.3637 16.6663 12.3525 16.6654C12.3786 16.6319 12.4177 16.6877 12.4475 16.6272H12.4465Z" fill="white"/>
<path fill-rule="evenodd" clip-rule="evenodd" d="M10.6705 16.6451C10.7171 16.6051 10.6426 16.6647 10.6519 16.7019C10.6668 16.6982 10.6705 16.6833 10.6901 16.6833C10.6715 16.6582 10.7171 16.7587 10.7087 16.7969C10.6454 16.7801 10.7068 16.755 10.6705 16.7215C10.6556 16.7252 10.6519 16.7401 10.6324 16.7401C10.5923 16.7745 10.6752 16.7075 10.6324 16.6647C10.6473 16.661 10.651 16.6461 10.6705 16.6461V16.6451Z" fill="white"/>
<path fill-rule="evenodd" clip-rule="evenodd" d="M11.9933 17.383C11.9766 17.3663 11.9356 17.3811 11.9365 17.3076C11.9617 17.3262 11.9738 17.3588 12.0119 17.3644C12.0008 17.4035 11.9719 17.4258 11.9552 17.4593C11.9151 17.4537 11.9821 17.4007 11.9933 17.3839V17.383Z" fill="#020202"/>
<path fill-rule="evenodd" clip-rule="evenodd" d="M8.53535 18.4024C8.54839 18.3512 8.49626 18.3661 8.47858 18.3456C8.47858 18.327 8.50185 18.3307 8.51674 18.327C8.51022 18.3056 8.48323 18.2795 8.47858 18.3084C8.44879 18.3018 8.49533 18.2748 8.45996 18.2702C8.47672 18.219 8.50185 18.313 8.53535 18.3084C8.51395 18.3353 8.51488 18.3549 8.55397 18.3651C8.54932 18.38 8.55397 18.4024 8.53535 18.4033V18.4024Z" fill="#020202"/>
<path fill-rule="evenodd" clip-rule="evenodd" d="M8.55414 18.3656C8.61837 18.1469 8.66677 17.9114 8.70493 17.6666C8.91715 17.715 9.13123 17.6973 9.32856 17.742C9.41699 17.7625 9.50913 17.8323 9.59291 17.8369C9.90658 17.8528 10.1151 17.581 10.3487 17.4404C10.6037 17.6508 10.9556 17.7662 11.3884 17.7997C11.421 17.8425 11.5327 17.8062 11.596 17.8183H11.8799C11.9376 17.8062 12.0427 17.8425 12.0688 17.7997C12.3937 17.7774 12.7064 17.7448 13.0517 17.7429H13.6754C14.1482 17.7727 14.5447 18.0771 15.0362 17.9133C15.3526 18.9744 16.034 19.8577 15.8106 21.3339C15.0967 21.5527 14.3288 21.7165 13.4296 21.75C13.3477 21.7621 13.2155 21.7249 13.1653 21.7686H12.1824C12.1256 21.7249 11.9878 21.7621 11.8985 21.75C10.1058 21.6346 8.6193 21.212 7.58984 20.3324C7.92493 19.7097 8.314 19.1419 8.5346 18.4047C8.55321 18.4047 8.54949 18.3815 8.55321 18.3666L8.55414 18.3656ZM13.7889 19.1214C13.8959 19.1028 13.9909 19.0712 14.0728 19.0274C14.0495 18.6514 13.3459 18.6951 13.3738 19.0842C13.4333 19.0749 13.4408 19.1186 13.5059 19.1028C13.5246 19.1028 13.5283 19.1177 13.5441 19.1214H13.5823C13.6083 19.1531 13.7638 19.1531 13.7898 19.1214H13.7889ZM14.3744 19.7451C14.366 19.5831 13.9974 19.5133 13.8457 19.6315C13.7694 20.001 14.3874 19.9927 14.3744 19.7451Z" fill="#6DDE00"/>
<path fill-rule="evenodd" clip-rule="evenodd" d="M13.3727 17.5529V17.5147C13.3978 17.5119 13.4108 17.6106 13.4295 17.5529C13.4844 17.5631 13.4006 17.5827 13.4108 17.6096C13.3736 17.6096 13.3866 17.5585 13.3354 17.5715C13.3354 17.5529 13.3587 17.5566 13.3736 17.5529H13.3727Z" fill="#020202"/>
<path fill-rule="evenodd" clip-rule="evenodd" d="M13.505 19.1018C13.4398 19.1167 13.4324 19.0738 13.3728 19.0831C13.3458 18.6941 14.0486 18.6503 14.0719 19.0264C13.9899 19.0701 13.895 19.1018 13.788 19.1204H13.5422C13.5627 19.0859 13.4957 19.0589 13.599 19.0822C13.5878 19.0655 13.5757 19.0487 13.599 19.044C13.5767 19.0152 13.519 19.0357 13.5041 19.1008L13.505 19.1018Z" fill="#010101"/>
<path fill-rule="evenodd" clip-rule="evenodd" d="M13.5049 19.1018C13.5188 19.0366 13.5766 19.0161 13.5998 19.045C13.5766 19.0487 13.5887 19.0664 13.5998 19.0832C13.4965 19.0599 13.5635 19.0869 13.543 19.1213C13.5282 19.1176 13.5244 19.1027 13.5049 19.1027V19.1018Z" fill="#020202"/>
<path fill-rule="evenodd" clip-rule="evenodd" d="M13.8455 19.6314C13.9973 19.5132 14.3659 19.583 14.3742 19.745C14.3873 19.9926 13.7683 20.0009 13.8455 19.6314Z" fill="#010101"/>
<path fill-rule="evenodd" clip-rule="evenodd" d="M9.59379 21.729C9.61799 21.6703 9.61892 21.783 9.57518 21.7671C9.5789 21.782 9.59379 21.7858 9.59379 21.8053C9.61148 21.7913 9.62265 21.7709 9.63195 21.7485C9.66174 21.755 9.6152 21.782 9.65057 21.7867C9.64592 21.8072 9.61334 21.7997 9.61241 21.8248C9.53515 21.7662 9.53236 21.7727 9.59379 21.7299V21.729Z" fill="#020202"/>
<path fill-rule="evenodd" clip-rule="evenodd" d="M13.4294 22.163C13.4508 22.1668 13.4396 22.1817 13.4294 22.1817C13.5011 22.2636 13.4182 22.1938 13.3912 22.2757C13.368 22.2673 13.3521 22.2515 13.3531 22.2189C13.3717 22.2189 13.368 22.2422 13.3717 22.2571C13.4154 22.2515 13.4154 22.2059 13.3717 22.2003C13.3754 22.1789 13.3903 22.19 13.3903 22.2003C13.4071 22.1919 13.4238 22.1835 13.4285 22.1621L13.4294 22.163Z" fill="#020202"/>
<path fill-rule="evenodd" clip-rule="evenodd" d="M10.8027 2.18953C10.8353 2.14672 10.947 2.18302 11.0103 2.17092V2.18953H10.8027Z" fill="#454545"/>
<path fill-rule="evenodd" clip-rule="evenodd" d="M11.0103 2.17092C11.0866 2.18302 11.2113 2.14672 11.256 2.18953H11.0103V2.17092Z" fill="#606161"/>
<path fill-rule="evenodd" clip-rule="evenodd" d="M9.10205 6.55499C9.12253 6.52334 9.27052 6.52334 9.291 6.55499H9.10205Z" fill="#454545"/>
<path fill-rule="evenodd" clip-rule="evenodd" d="M19.6655 10.6364V10.3721C19.7093 10.4233 19.672 10.5545 19.6841 10.6364H19.6655Z" fill="#9A9A9A"/>
<path fill-rule="evenodd" clip-rule="evenodd" d="M7.51416 10.8255C7.53464 10.7938 7.68263 10.7938 7.70311 10.8255H7.51416Z" fill="#212121"/>
<path fill-rule="evenodd" clip-rule="evenodd" d="M19.1177 10.996C19.0739 10.9197 19.1112 10.7633 19.0991 10.6562C19.1428 10.7326 19.1056 10.8889 19.1177 10.996Z" fill="#7C7B7B"/>
<path fill-rule="evenodd" clip-rule="evenodd" d="M3.98125 10.75V10.9957C3.94961 10.9566 3.94961 10.7891 3.98125 10.75Z" fill="#BABABA"/>
<path fill-rule="evenodd" clip-rule="evenodd" d="M19.6841 10.6367C19.672 10.7689 19.7093 10.9513 19.6655 11.0528V10.6367H19.6841Z" fill="#454545"/>
<path fill-rule="evenodd" clip-rule="evenodd" d="M16.5278 11.3169V11.1094C16.5595 11.1354 16.5595 11.2909 16.5278 11.3169Z" fill="#454545"/>
<path fill-rule="evenodd" clip-rule="evenodd" d="M7.47686 11.2036C7.44521 11.1831 7.44521 11.0351 7.47686 11.0146V11.2036Z" fill="#212121"/>
<path fill-rule="evenodd" clip-rule="evenodd" d="M17.4541 11.5621V11.3545C17.4857 11.3806 17.4857 11.536 17.4541 11.5621Z" fill="#7C7B7B"/>
<path fill-rule="evenodd" clip-rule="evenodd" d="M5.73842 11.7695H5.7952C5.78682 11.8459 5.70584 11.8943 5.68164 11.8077C5.70863 11.803 5.71329 11.777 5.73842 11.7695Z" fill="#010101"/>
<path fill-rule="evenodd" clip-rule="evenodd" d="M12.1821 12.2994V12.0723C12.2138 12.1048 12.2138 12.2668 12.1821 12.2994Z" fill="#313131"/>
<path fill-rule="evenodd" clip-rule="evenodd" d="M11.3882 12.3184C11.4515 12.3305 11.5641 12.2942 11.5957 12.337C11.5325 12.3249 11.4198 12.3612 11.3882 12.3184Z" fill="#212121"/>
<path fill-rule="evenodd" clip-rule="evenodd" d="M19.042 12.469C19.0811 12.4374 19.2486 12.4374 19.2877 12.469H19.042Z" fill="#606161"/>
<path fill-rule="evenodd" clip-rule="evenodd" d="M12.8057 12.4692C12.976 12.4813 13.1957 12.444 13.3344 12.4878C13.164 12.4757 12.9444 12.5129 12.8057 12.4692Z" fill="#7C7B7B"/>
<path fill-rule="evenodd" clip-rule="evenodd" d="M11.3696 15.096C11.4394 15.0644 11.6396 15.0644 11.7094 15.096H11.3696Z" fill="#BABABA"/>
<path fill-rule="evenodd" clip-rule="evenodd" d="M12.144 16.249C12.226 16.2611 12.3572 16.2248 12.4084 16.2677C12.3265 16.2556 12.1952 16.2919 12.144 16.249Z" fill="#454545"/>
<path fill-rule="evenodd" clip-rule="evenodd" d="M11.3696 16.3812C11.4087 16.3495 11.5763 16.3495 11.6154 16.3812H11.3696Z" fill="#7C7B7B"/>
<path fill-rule="evenodd" clip-rule="evenodd" d="M12.2764 16.5892C12.3089 16.5575 12.4709 16.5575 12.5035 16.5892H12.2764Z" fill="#454545"/>
<path fill-rule="evenodd" clip-rule="evenodd" d="M10.2925 16.9478V16.7402C10.3241 16.7663 10.3241 16.9217 10.2925 16.9478Z" fill="#7C7B7B"/>
<path fill-rule="evenodd" clip-rule="evenodd" d="M13.7124 16.7964C13.6686 16.7583 13.7059 16.6391 13.6938 16.5693C13.7375 16.6075 13.7003 16.7266 13.7124 16.7964Z" fill="#454545"/>
<path fill-rule="evenodd" clip-rule="evenodd" d="M11.7856 17.023V16.7959C11.8173 16.8285 11.8173 16.9904 11.7856 17.023Z" fill="#7C7B7B"/>
<path fill-rule="evenodd" clip-rule="evenodd" d="M13.4297 16.8535C13.4613 16.8982 13.4613 17.0732 13.4297 17.1179V16.8535Z" fill="#7C7B7B"/>
<path fill-rule="evenodd" clip-rule="evenodd" d="M13.7319 17.0615C13.7636 17.1127 13.7636 17.2942 13.7319 17.3445V17.0615Z" fill="#454545"/>
<path fill-rule="evenodd" clip-rule="evenodd" d="M8.47881 17.1933C8.44717 17.1114 8.44717 16.8973 8.47881 16.8154V17.1933Z" fill="#9A9A9A"/>
<path fill-rule="evenodd" clip-rule="evenodd" d="M12.4653 17.5527H12.8618C12.7734 17.5844 12.5538 17.5844 12.4653 17.5527Z" fill="#7C7B7B"/>
<path fill-rule="evenodd" clip-rule="evenodd" d="M14.2793 17.6279H14.5064C14.5036 17.6503 14.472 17.6438 14.4496 17.6465H14.3929C14.3593 17.6354 14.2821 17.6698 14.2793 17.6279Z" fill="#454545"/>
<path fill-rule="evenodd" clip-rule="evenodd" d="M13.0518 17.7415C13.2156 17.7099 13.5116 17.7099 13.6754 17.7415H13.0518Z" fill="#7C7B7B"/>
<path fill-rule="evenodd" clip-rule="evenodd" d="M11.3882 17.7979H11.5957V17.8165C11.5325 17.8044 11.4198 17.8407 11.3882 17.7979Z" fill="#9A9A9A"/>
<path fill-rule="evenodd" clip-rule="evenodd" d="M11.5967 17.7979H11.8806V17.8165H11.5967V17.7979Z" fill="#7C7B7B"/>
<path fill-rule="evenodd" clip-rule="evenodd" d="M11.8799 17.7979H12.0688C12.0428 17.8407 11.9376 17.8053 11.8799 17.8165V17.7979Z" fill="#BABABA"/>
<path fill-rule="evenodd" clip-rule="evenodd" d="M8.15771 17.666C8.18936 17.7423 8.18936 17.949 8.15771 18.0253V17.666Z" fill="#7C7B7B"/>
<path fill-rule="evenodd" clip-rule="evenodd" d="M13.5801 19.1211H13.7876C13.7616 19.1527 13.6061 19.1527 13.5801 19.1211Z" fill="#7C7B7B"/>
<path fill-rule="evenodd" clip-rule="evenodd" d="M11.8984 21.7485C11.9869 21.7606 12.1246 21.7233 12.1823 21.7671C12.0939 21.755 11.9561 21.7922 11.8984 21.7485Z" fill="#7C7B7B"/>
<path fill-rule="evenodd" clip-rule="evenodd" d="M13.165 21.7671C13.2162 21.7233 13.3475 21.7606 13.4294 21.7485C13.3782 21.7922 13.2469 21.755 13.165 21.7671Z" fill="#7C7B7B"/>
<path fill-rule="evenodd" clip-rule="evenodd" d="M12.3145 21.7666H13.0321C12.8366 21.7982 12.509 21.7982 12.3145 21.7666Z" fill="#454545"/>
<path fill-rule="evenodd" clip-rule="evenodd" d="M12.4092 22.2953C12.5414 22.3074 12.7238 22.2702 12.8252 22.314C12.6931 22.3019 12.5106 22.3391 12.4092 22.2953Z" fill="#454545"/>
<path fill-rule="evenodd" clip-rule="evenodd" d="M12.5604 11.165V11.4294C12.5287 11.3847 12.5287 11.2097 12.5604 11.165Z" fill="#BABABA"/>
<path fill-rule="evenodd" clip-rule="evenodd" d="M12.5601 11.5244C12.5917 11.6631 12.5917 11.934 12.5601 12.0726V11.5244Z" fill="#BABABA"/>
<path fill-rule="evenodd" clip-rule="evenodd" d="M9.25293 17.4395H9.66899C9.57405 17.4711 9.34787 17.4711 9.25293 17.4395Z" fill="#BABABA"/>
<path fill-rule="evenodd" clip-rule="evenodd" d="M9.02588 16.306C9.20273 16.2743 9.51082 16.2743 9.68767 16.306H9.02588Z" fill="#454545"/>
<path fill-rule="evenodd" clip-rule="evenodd" d="M12.9947 22.3153C12.9919 22.2743 13.0617 22.3069 13.0897 22.2966H13.3922C13.2972 22.3404 13.1213 22.3032 12.9956 22.3153H12.9947Z" fill="#454545"/>
<path fill-rule="evenodd" clip-rule="evenodd" d="M11.7758 12.2277C11.6939 12.197 11.5766 12.1821 11.4062 12.1821C11.3774 12.1821 11.3476 12.1821 11.3169 12.1831L11.0981 12.1886L11.1279 11.9718C11.1614 11.726 11.2657 11.552 11.3578 11.3975C11.4044 11.3202 11.4481 11.2467 11.4816 11.1685L11.5868 10.9209L11.7813 11.1061C11.9712 11.2876 11.9926 11.5799 12.0131 11.8629C12.0168 11.9206 12.0215 11.9783 12.0271 12.0341L12.0578 12.3338L11.7758 12.2268V12.2277Z" fill="#151515"/>
<path d="M11.6527 11.241C11.8239 11.4039 11.8109 11.7501 11.8416 12.0535C11.7225 12.0079 11.5698 11.9958 11.406 11.9958C11.3753 11.9958 11.3446 11.9958 11.3129 11.9968C11.3576 11.6756 11.5438 11.4969 11.6527 11.241ZM11.5205 10.6006L11.3101 11.0948C11.2813 11.1619 11.2413 11.2298 11.1984 11.3015C11.1026 11.4625 10.9834 11.6626 10.9443 11.9456L10.8848 12.3793L11.3222 12.3691C11.3511 12.3691 11.379 12.3682 11.4069 12.3682C11.5494 12.3682 11.6517 12.3793 11.7104 12.4017L12.2735 12.6157L12.213 12.0163C12.2074 11.9623 12.2037 11.9056 12.199 11.8497C12.1776 11.5463 12.1525 11.2028 11.9105 10.971L11.5214 10.6006H11.5205Z" fill="#151515"/>
<path fill-rule="evenodd" clip-rule="evenodd" d="M13.0653 12.3558C12.9043 12.3558 12.747 12.2943 12.7163 12.2822L12.5571 12.2171L12.6083 12.0533C12.6483 11.9267 12.6623 11.7657 12.6781 11.5953C12.6874 11.4864 12.6977 11.3738 12.7154 11.2668L12.7675 10.9521L13.016 11.1523C13.1873 11.2891 13.2562 11.5274 13.3167 11.7377C13.3436 11.8317 13.3725 11.9295 13.4014 11.9797L13.4395 12.0458L13.42 12.1203C13.4051 12.1752 13.3362 12.3558 13.0644 12.3558H13.0653Z" fill="#151515"/>
<path d="M12.8996 11.2981C13.0988 11.4582 13.1314 11.8845 13.2394 12.0725C13.2198 12.146 13.1472 12.1702 13.0644 12.1702C12.9639 12.1702 12.8466 12.1358 12.7861 12.1106C12.8605 11.8761 12.8559 11.5633 12.8996 11.2981ZM12.6353 10.6084L12.532 11.2376C12.5134 11.3511 12.5031 11.4675 12.4929 11.5801C12.4789 11.7337 12.465 11.8919 12.4314 11.999L12.3281 12.3257L12.6455 12.455C12.6958 12.4755 12.8736 12.5425 13.0644 12.5425C13.3855 12.5425 13.5512 12.3499 13.5996 12.1684L13.6387 12.0204L13.5624 11.8873C13.5447 11.8565 13.5158 11.7579 13.4953 11.6862C13.4302 11.4619 13.3492 11.1817 13.1323 11.0077L12.6353 10.6074V10.6084Z" fill="#0B0907"/>
</svg>
