<svg width="719" height="344" viewBox="0 0 719 344" fill="none" xmlns="http://www.w3.org/2000/svg">
<path d="M341.83 40.77C448.67 12.58 509.59 196.33 405.82 254.32C390.49 336.11 465.34 249.86 479.78 221.43C481.3 218.44 485.34 209 485.71 208.02C485.56 219.68 483.93 248.91 483.94 254.61C481.86 284.58 470.26 340.11 470.26 340.11L615.61 342.18C615.61 342.18 617.46 328.08 615.61 321.46C615.61 321.49 615.61 321.49 615.61 321.46C613.49 302.8 597.66 286.82 587.37 286.82C577.08 286.82 578.3 296.03 578.7 297.86C578.76 299.52 578.86 301.18 578.87 302.84C577.21 306.18 536.02 304.43 535.18 304.37C536.06 304.34 536.95 304.32 537.83 304.32C535.62 303.58 521.86 307.31 521.86 287.69C521.86 268.07 521.89 60.24 521.69 51.83C526.24 38.33 536.22 33.63 556.22 46.2C593.49 62.52 575.48 124.24 581.55 154.61C581.57 160.28 591.7 171.22 604.75 171.22C617.8 171.22 611.49 39.98 615.19 38.47C617.62 38.45 644.67 35.07 657.29 46.34C688.91 73.92 678.69 307.64 690.41 326.14C702.13 344.64 717.79 349.81 717.79 327.3C717.79 304.79 719.39 140.63 717.85 115.55C718.04 111.54 717.65 107.53 716.9 103.53C711.11 44.51 688.58 -6.36999 612.79 1.33001C612.78 1.33001 612.76 1.33001 612.75 1.33001H612.79C612.46 1.27001 595.81 -0.649989 591.49 0.260011C588.15 0.180011 585.21 18.28 570.76 11.55C558.11 4.99001 504.69 -0.449989 491.14 0.770011C489.45 0.730011 485.73 0.420011 484.77 1.49001C483.81 2.56001 483.29 48.19 483.53 69.14C483.48 78.07 483.47 87 483.47 95.95C467.46 56.2 435.88 22.8 393.65 8.59001C369.74 3.78001 307.54 5.96001 307.48 6.02001C307.53 6.21001 306.55 48.12 306.86 69.24C304.45 113.61 302.56 162.68 319.67 157.16C342.68 143.65 343.49 116.64 342.02 89.34" fill="#DDDDDD"/>
<path d="M0.58 114.8C0.58 114.8 0.61 114.8 0.63 114.8C0.63 114.71 0.61 114.7 0.58 114.8Z" fill="#DDDDDD"/>
<path d="M0 261.82C0 328.91 62.59 341.38 131.89 341.38C139.24 308.06 182.33 340.2 182.33 340.2C182.33 340.2 226.64 349.31 232.08 336.96C232.08 338.39 232.08 339.82 232.08 341.24C232.12 339.74 232.16 338.23 232.2 336.72C232.37 336.3 232.51 335.86 232.62 335.38C232.93 322.56 233.04 309.44 233.03 296.12C233.14 289.05 233.23 281.93 233.31 274.79C259.65 315.67 304.14 344.09 361.9 340.54C379.44 345.38 387.97 340.7 391.85 331.15C391.85 334.26 393.84 222.69 393.84 222.69C393.84 222.69 395.19 181.48 376 181.48C356.81 181.48 358.93 250.19 358.93 250.19C358.93 250.19 358.87 276.96 358.93 290.34C357.68 297.43 360.68 306.37 347.58 306.37C334.48 306.37 327.35 305.97 307.75 295.67C245.39 266.12 217.15 183.5 256.36 124.72C267.8 106.74 288.89 95.2 294.91 76.77C294.9 78.91 304.57 38.19 287.53 50.6C270.49 63.01 246.19 77.24 233.15 95.36C234.78 62.49 238.04 31.27 244.16 3.24001C234.32 2.37001 140.75 -0.899989 101.29 1.64001C101.28 1.64001 101.27 1.64001 101.26 1.64001C99.9 24.7 104.71 50.51 130.08 55.25C142.77 59.21 133.28 37.84 142.25 38.39C199.87 31.86 196.12 57.75 196.12 58.44V190.35C196.12 190.35 211.43 303.63 181.54 303.63C157.93 303.63 137.05 267.38 136.85 236.27C136.86 232.2 136.94 229.7 136.95 226.01C137.31 209.4 137.8 170.68 117.13 170.68C96.46 170.68 96.61 220.08 99.13 249.89C99.08 268.01 99.18 286.14 99.13 304.26C99.13 304.26 99.13 304.28 99.13 304.29C27.78 307.89 34.14 236.53 36.65 177.53C37.39 172.29 36.2 185.45 36.2 185.45C37.19 148.68 34.34 112.13 0.63 114.79" fill="#DDDDDD"/>
</svg>
