<svg width="384" height="135" viewBox="0 0 384 135" fill="none" xmlns="http://www.w3.org/2000/svg">
<g clip-path="url(#clip0_25_183)">
<mask id="mask0_25_183" style="mask-type:luminance" maskUnits="userSpaceOnUse" x="0" y="0" width="135" height="135">
<path d="M135 0H0V135H135V0Z" fill="white"/>
</mask>
<g mask="url(#mask0_25_183)">
<path d="M132.821 67.3304C132.821 103.5 103.5 132.821 67.3304 132.821C31.1609 132.821 1.83984 103.5 1.83984 67.3304C1.83984 31.161 31.1609 1.83984 67.3304 1.83984C103.5 1.83984 132.821 31.161 132.821 67.3304Z" fill="#6DDE00" stroke="black" stroke-width="3"/>
<path fill-rule="evenodd" clip-rule="evenodd" d="M81.4666 99.8999C78.2178 100.055 75.3558 98.0435 72.1844 98.7396C67.5433 98.817 61.5872 99.9773 57.5649 97.502C56.5593 98.2755 55.399 99.2811 53.6973 99.2811C52.305 99.1264 51.4541 98.4302 50.0618 98.5849C49.9071 99.4358 49.7524 100.132 49.5203 100.828L49.675 101.447L49.2882 101.525L49.0562 102.453H48.9788C47.8959 105.624 46.3489 108.022 44.8018 110.729C49.675 114.52 57.1008 116.685 66.383 117.227L66.4604 117.304C67.698 117.227 68.6262 117.382 69.9412 117.382C71.2562 117.382 72.107 117.15 73.2673 117.227L73.3447 117.15C77.367 117.072 81.0799 116.453 85.2569 115.216C85.953 108.95 83.3231 105.005 81.4666 99.8999Z" fill="white"/>
<path fill-rule="evenodd" clip-rule="evenodd" d="M102.738 60.1413C102.274 56.9698 102.274 53.7211 101.346 50.9364H101.423C99.5668 42.5824 95.5446 35.6981 89.6658 29.974H89.5111C85.4888 25.4876 78.9139 21.2333 72.4164 19.6862C69.3996 17.211 66.3056 15.9733 61.7418 15.9733L61.6644 15.896C61.5097 15.896 61.4324 15.896 61.2777 15.896C61.123 15.896 60.9683 15.896 60.8136 15.896L60.6589 15.9733C59.4986 15.896 58.261 16.0507 57.178 16.2828C54.7801 16.7469 52.4596 17.5977 50.3711 18.8354L51.2219 19.7636L48.9014 19.6862C35.9836 28.1176 30.8784 38.9468 28.5578 56.351H28.4805L28.6352 56.9698H28.4031C28.0937 59.8319 28.4031 62.1524 29.0993 63.0806C30.9558 63.39 32.8895 63.7768 34.746 64.3956V64.473C39.4645 66.3294 42.7132 69.5782 45.2658 73.2911L46.2714 73.4458L45.8847 74.2193C46.9676 75.921 47.8958 77.6228 48.7467 79.4019C51.8408 78.0869 56.4045 78.8604 59.1118 80.5622C62.3606 78.8604 67.0791 79.9433 69.8637 82.1092C72.4164 79.7886 75.2784 80.2528 77.7536 82.496C79.378 82.1092 81.1571 80.2528 83.2456 80.8716C86.4944 73.1364 92.9146 67.567 102.738 64.0089C102.738 63.0806 102.738 60.9921 102.738 60.1413Z" fill="white"/>
<path fill-rule="evenodd" clip-rule="evenodd" d="M76.439 86.4411C77.0578 79.9435 71.1017 84.8167 68.4717 85.0488C67.2341 84.8167 68.3944 83.2697 67.002 82.9603C64.0626 80.7171 59.5762 83.6564 57.4104 84.1979C57.1783 76.6948 42.1721 83.8885 49.1337 88.6843C47.5093 88.4522 46.8132 91.0049 46.6585 92.3198C45.2661 97.5798 55.6313 97.9665 57.7198 94.7951C58.8027 97.8118 63.8306 97.9665 65.5323 95.4913C64.7588 97.8892 74.1957 98.2759 74.6599 95.878C77.1351 100.983 88.9699 95.1819 83.6327 91.0822C88.8926 87.1373 81.6989 78.7059 76.439 86.4411ZM58.0292 90.6181C57.0236 90.5407 56.8689 88.4522 55.6313 88.607C56.0181 88.5296 56.3275 88.4522 56.6369 88.2975C56.7142 89.6125 59.2668 89.2258 60.2724 89.5352C59.3442 89.8446 58.648 90.2313 58.0292 90.6181ZM63.9853 89.0711C66.0738 87.7561 65.8417 88.9937 66.2285 90.6181C65.6097 91.9331 65.455 88.3749 63.9853 89.0711ZM73.2675 90.2313C72.9581 90.2313 72.4167 90.4634 71.9525 90.3087C73.1902 89.9993 75.8201 90.0766 73.2675 90.2313Z" fill="white"/>
<path fill-rule="evenodd" clip-rule="evenodd" d="M83.1351 98.6353L83.3465 99.2167C83.7075 100.21 84.1268 101.204 84.5557 102.221C86.1361 105.969 87.8463 110.025 87.245 115.437L87.0983 116.756L85.8254 117.134C81.7774 118.333 78.1106 118.981 74.1966 119.127L74.0401 119.283L73.1346 119.223C72.7225 119.195 72.3526 119.22 71.847 119.267C71.7958 119.272 71.7431 119.277 71.6887 119.282C71.219 119.326 70.6311 119.382 69.9415 119.382C69.3363 119.382 68.7949 119.352 68.3325 119.326C68.2408 119.321 68.1523 119.316 68.067 119.311C67.5376 119.284 67.0876 119.269 66.5854 119.301L65.6846 119.357L65.5031 119.175C56.371 118.55 48.759 116.341 43.5743 112.308L42.2051 111.243L43.0657 109.737C43.3359 109.264 43.6006 108.809 43.8587 108.366C45.1353 106.171 46.2513 104.253 47.0865 101.807L47.3481 101.041L47.6553 99.8116L47.7474 99.7932C47.8755 99.3422 47.9812 98.8499 48.0944 98.2274L48.1254 98.0565C47.4138 97.7647 46.7419 97.3737 46.1693 96.8592C44.8449 95.6695 44.2107 93.945 44.6894 91.9497C44.795 91.1571 45.0521 90.0108 45.5652 89.0096C45.674 88.7974 45.8179 88.5508 45.9995 88.2988C45.8532 88.0583 45.7272 87.8078 45.6233 87.5471C45.1706 86.411 45.2121 85.265 45.57 84.2435C45.9488 83.1623 46.6677 82.2354 47.5244 81.4808L46.9428 80.2648C46.123 78.5505 45.2331 76.9201 44.1978 75.2931L43.9762 74.9449L43.6182 74.4242C41.2098 70.921 38.247 67.9995 34.0142 66.3341L33.1609 65.9984C31.7382 65.5908 30.2574 65.3012 28.7709 65.0534L27.9805 64.9217L27.4997 64.2807C26.8281 63.3851 26.5261 62.1396 26.3886 60.9873C26.2417 59.7549 26.2476 58.3047 26.4152 56.7549L26.4469 56.4612L25.9194 54.351H26.8196C28.0108 46.2967 29.8754 39.5279 32.9932 33.7092C36.2553 27.6213 40.834 22.6759 47.2447 18.3842L47.2324 18.3708L47.5301 18.1944C47.6226 18.1333 47.7154 18.0723 47.8087 18.0114L48.3374 17.6663L48.4167 17.669L49.3519 17.1148C51.6464 15.7551 54.179 14.8284 56.779 14.323C57.8051 14.1042 59.0111 13.9358 60.2244 13.9547L60.3419 13.896H62.4933L62.5842 13.9869C67.0015 14.131 70.2531 15.4279 73.3256 17.8506C79.783 19.5007 86.1834 23.5676 90.3856 27.9741H90.4791L91.0615 28.5411C97.2054 34.5234 101.431 41.75 103.376 50.5026L103.917 52.9364H103.892C104.025 53.689 104.122 54.4394 104.204 55.1716C104.271 55.7726 104.327 56.346 104.382 56.9062C104.479 57.9035 104.572 58.8587 104.717 59.8517L104.738 59.9957V65.4116L103.419 65.8893C93.9862 69.3062 88.0726 74.5446 85.09 81.6461L84.7564 82.4403C84.9559 82.5837 85.146 82.7378 85.3258 82.9012C86.606 84.0644 87.4422 85.7607 87.4673 87.5772C87.4844 88.8171 87.1218 90.0482 86.3558 91.1321C86.5276 91.4171 86.6694 91.7182 86.7764 92.0357C87.1243 93.068 87.0432 94.0914 86.6988 94.9927C86.072 96.633 84.6002 97.8589 83.1351 98.6353ZM79.6427 97.7564C82.6587 97.2104 85.6606 94.9108 84.8732 92.6515C84.6874 92.1182 84.2905 91.5872 83.6328 91.082C84.2328 90.632 84.6708 90.1237 84.968 89.5876C86.5807 86.6792 84.0526 82.9549 80.7935 83.3093C80.0165 83.3937 79.1981 83.71 78.3843 84.3243C78.3363 84.3605 78.2884 84.3977 78.2404 84.436C77.6293 84.9243 77.0223 85.5833 76.4391 86.4409C76.5673 85.0946 76.4132 84.2365 76.065 83.7241C76.04 83.6873 76.014 83.6523 75.987 83.6191C75.8129 83.4042 75.5983 83.2614 75.3522 83.1766C74.3057 82.8158 72.6879 83.502 71.1733 84.1444C70.8128 84.2973 70.4582 84.4477 70.1185 84.5809C70.0432 84.6104 69.9686 84.6392 69.8949 84.6668C69.3654 84.8657 68.8788 85.0127 68.4718 85.0486C67.8708 84.9359 67.8353 84.513 67.7983 84.0724C67.7591 83.6058 67.7183 83.1192 67.0022 82.9601C64.7816 81.2655 61.6781 82.5286 59.3592 83.4811C59.3487 83.4855 59.3381 83.4898 59.3276 83.4942C58.5898 83.7972 57.9327 84.0672 57.4105 84.1977C57.3883 83.478 57.2301 82.8936 56.9684 82.4292C54.8154 78.6088 45.656 82.9202 47.5484 86.9617C47.8239 87.5502 48.3339 88.133 49.1339 88.6841C48.3432 88.5712 47.7724 89.118 47.377 89.8607C46.96 90.6438 46.738 91.6448 46.6586 92.3197C46.0336 94.6807 47.7776 96.0599 50.0787 96.5761C50.7359 96.7235 51.4387 96.8006 52.1447 96.81C53.5623 96.8289 54.993 96.575 56.0946 96.0708C56.1395 96.0502 56.1839 96.0292 56.2277 96.0078C56.2735 95.9855 56.3186 95.9627 56.3631 95.9395C56.8107 95.7056 57.1926 95.4261 57.482 95.1027C57.5701 95.0041 57.6497 94.9015 57.7199 94.7949C57.804 95.0293 57.912 95.2463 58.0403 95.4462C58.1702 95.6486 58.321 95.8334 58.4892 96.0008C58.6429 96.1537 58.8111 96.292 58.9911 96.4158C60.1452 97.2095 61.7844 97.4068 63.1977 97.0306C63.3738 96.9837 63.5464 96.9279 63.7141 96.8633C64.4551 96.5776 65.1008 96.119 65.5325 95.4911C65.3151 96.1649 65.904 96.6799 66.8734 97.019C66.8755 97.0197 66.8775 97.0204 66.8795 97.0211C68.2025 97.482 70.2302 97.6162 71.8863 97.3804C71.9792 97.3672 72.071 97.3528 72.1614 97.3372C72.481 97.2821 72.7837 97.2124 73.061 97.1276C73.5 96.9934 73.8754 96.8216 74.1535 96.6108C74.426 96.4043 74.6053 96.1604 74.66 95.8779C74.8191 96.2059 75.0168 96.489 75.2461 96.7303C75.5074 97.0052 75.8096 97.226 76.1424 97.3977C77.1303 97.9071 78.3877 97.9836 79.6427 97.7564ZM74.6155 98.6612C75.5042 98.773 76.3821 99.0061 77.2663 99.2409C78.046 99.448 78.8306 99.6564 79.6318 99.784C80.2325 99.8796 80.8426 99.9299 81.4669 99.9002C81.8878 101.058 82.3483 102.155 82.8009 103.234C84.3448 106.913 85.7955 110.371 85.2572 115.216C81.0802 116.454 77.3673 117.072 73.345 117.15L73.2677 117.227C72.6282 117.185 72.0827 117.236 71.5018 117.291C71.0286 117.335 70.5318 117.382 69.9415 117.382C69.397 117.382 68.9188 117.355 68.4574 117.33C67.8047 117.294 67.1858 117.259 66.4607 117.305L66.3833 117.227C57.1011 116.686 49.6753 114.52 44.8022 110.73C45.0568 110.284 45.3114 109.847 45.564 109.413C46.8459 107.212 48.0745 105.102 48.9792 102.453H49.0565L49.2886 101.525L49.6753 101.447L49.5206 100.829C49.5271 100.809 49.5335 100.79 49.5399 100.77C49.7589 100.101 49.9084 99.4272 50.0571 98.6124C50.0588 98.6033 50.0604 98.5943 50.0621 98.5852C50.739 98.51 51.2879 98.6359 51.8333 98.8029C51.9485 98.8381 52.0635 98.8752 52.1795 98.9127C52.6442 99.0626 53.1251 99.2177 53.6976 99.2813C55.2551 99.2813 56.3591 98.439 57.306 97.7032C57.3185 97.6935 57.3309 97.6838 57.3434 97.6741L57.346 97.672C57.42 97.6146 57.493 97.5578 57.5652 97.5022C57.5813 97.5122 57.5975 97.522 57.6137 97.5318C59.2804 98.5416 61.2744 98.9351 63.3671 99.0442C64.4324 99.0998 65.5233 99.0817 66.6096 99.0336C67.3939 98.9989 68.1758 98.9487 68.9441 98.8993C70.0652 98.8272 71.1572 98.757 72.1847 98.7399C72.9287 98.5766 73.6555 98.5622 74.3744 98.634C74.4549 98.642 74.5352 98.6511 74.6155 98.6612ZM76.2102 81.3614C76.6047 81.586 76.9936 81.8562 77.3744 82.1684C77.4655 82.2431 77.5562 82.3202 77.6464 82.3998C77.6824 82.4315 77.7183 82.4635 77.7541 82.496C78.3136 82.3628 78.8916 82.0551 79.4942 81.7343C79.7196 81.6143 79.9485 81.4925 80.1812 81.3773C81.1321 80.9063 82.1461 80.5457 83.246 80.8716C86.4948 73.1364 92.915 67.5671 102.738 64.0089V60.1413C102.587 59.1063 102.485 58.063 102.384 57.0304C102.247 55.6307 102.112 54.2504 101.858 52.9364C101.742 52.3343 101.601 51.7461 101.423 51.1763C101.4 51.1014 101.376 51.0267 101.351 50.9524C101.35 50.9471 101.348 50.9418 101.346 50.9364H101.423C101.422 50.9284 101.42 50.9204 101.418 50.9124C101.394 50.8063 101.37 50.7003 101.346 50.5946C101.217 50.0353 101.078 49.4826 100.93 48.9364C98.9039 41.4755 95.0691 35.2348 89.6662 29.9741H89.5115C85.4892 25.4877 78.9143 21.2333 72.4168 19.6863C69.4001 17.211 66.306 15.9734 61.7422 15.9734L61.6649 15.896H60.814L60.6593 15.9734C59.499 15.896 58.2614 16.0507 57.1785 16.2828C55.4616 16.6151 53.7845 17.1456 52.2037 17.8744C51.8885 18.0197 51.5771 18.173 51.27 18.3341C50.9662 18.4935 50.6665 18.6606 50.3715 18.8354L51.2224 19.7636L48.9018 19.6863C48.805 19.7495 48.7085 19.8128 48.6125 19.8763C36.048 28.1875 30.9739 38.8391 28.6356 55.7809C28.6104 55.9635 28.5855 56.1469 28.5609 56.331C28.56 56.3377 28.5592 56.3444 28.5583 56.351H28.4809L28.6356 56.9699H28.4036C28.4014 56.9898 28.3993 57.0096 28.3972 57.0295C28.0985 59.8641 28.4084 62.1589 29.0997 63.0807C30.9562 63.3901 32.89 63.7768 34.7464 64.3956V64.473C39.2364 66.2395 42.3956 69.2669 44.8905 72.7551C45.0174 72.9326 45.1427 73.1113 45.2663 73.2911L46.2718 73.4458L45.8851 74.2193C45.9575 74.3331 46.0292 74.447 46.1003 74.5608C47.0918 76.149 47.9531 77.7418 48.7471 79.4019C51.8412 78.0869 56.4049 78.8604 59.1123 80.5622C62.361 78.8604 67.0795 79.9434 69.8642 82.1092C71.9004 80.2581 74.1336 80.179 76.2102 81.3614ZM73.7217 90.2005C73.8878 90.1879 74.0166 90.176 74.1129 90.1651C74.4668 90.1251 74.3797 90.0985 74.0793 90.096C73.9852 90.0952 73.87 90.0968 73.741 90.1011C73.5972 90.1059 73.4362 90.114 73.2677 90.1259C73.2655 90.1261 73.2634 90.1262 73.2613 90.1264C72.9617 90.1477 72.6387 90.1811 72.3464 90.2291C72.2061 90.2521 72.0728 90.2785 71.9527 90.3085C72.0839 90.3523 72.2214 90.3651 72.358 90.361C72.5435 90.3554 72.7274 90.3186 72.8923 90.2856C73.0356 90.257 73.1645 90.2312 73.2677 90.2312C73.4427 90.2206 73.5933 90.2103 73.7217 90.2005ZM65.749 90.7321C65.8991 90.9683 66.043 91.0124 66.2286 90.6179C66.2192 90.5782 66.2101 90.5388 66.2014 90.4996C66.1512 90.2751 66.1118 90.0592 66.075 89.8579C66.0666 89.812 66.0584 89.7669 66.0502 89.7226L66.0493 89.7176C66.013 89.5216 65.9774 89.3419 65.9344 89.1846C65.9073 89.0858 65.8773 88.9958 65.8423 88.9161C65.6551 88.4903 65.3246 88.3595 64.5374 88.7547C64.374 88.8368 64.191 88.9415 63.9854 89.0709C64.3725 88.8876 64.6683 88.9993 64.9054 89.2393C65.0773 89.4133 65.2183 89.6546 65.3408 89.8999C65.3485 89.9153 65.3561 89.9307 65.3637 89.9461C65.4149 90.0508 65.463 90.1554 65.5088 90.2551C65.5112 90.2605 65.5137 90.2659 65.5162 90.2712C65.5184 90.2761 65.5206 90.281 65.5229 90.2858C65.6032 90.4607 65.6768 90.6186 65.749 90.7321ZM56.9723 88.9201C56.9587 88.9098 56.9454 88.8992 56.9325 88.8884C56.7603 88.7438 56.652 88.5527 56.637 88.2974C56.3276 88.4521 56.0182 88.5294 55.6314 88.6068C56.3012 88.5231 56.6538 89.0963 56.9958 89.6522C57.1091 89.8365 57.2213 90.0189 57.3435 90.1748C57.5338 90.4177 57.7484 90.5963 58.0293 90.6179C58.0555 90.6016 58.0818 90.5852 58.1082 90.5689C58.1675 90.5323 58.2275 90.4957 58.2885 90.4592C58.8433 90.1266 59.4715 89.802 60.2725 89.535C59.9708 89.4422 59.5299 89.412 59.0583 89.3797C58.7522 89.3588 58.4332 89.337 58.131 89.2966C57.6708 89.235 57.2496 89.1304 56.9723 88.9201Z" fill="black"/>
<path fill-rule="evenodd" clip-rule="evenodd" d="M105.832 50.2404C105.368 50.3177 105.755 50.4724 105.6 50.5498C105.291 50.3177 105.446 50.0857 105.678 50.0857C105.6 50.0083 105.678 49.931 105.755 49.931C102.738 37.8641 96.3184 29.7421 88.1191 22.3937C87.9644 22.471 87.655 22.7805 87.655 22.3937C87.8097 22.6257 87.887 22.3937 87.9644 22.1616C87.7323 22.0843 87.5003 21.9296 87.4229 21.6202C86.2626 20.692 85.2572 19.609 84.0195 18.8355V18.7582C78.9143 14.4265 70.8696 10.9456 62.3609 11.6418C42.6362 13.9623 30.5693 27.1122 25.9282 44.8257C26.2376 44.9031 26.4697 44.7484 26.6244 44.5937C26.6244 44.9031 26.1603 45.1351 25.8508 44.9804C25.7735 45.6766 25.5414 46.2181 25.4641 46.9142C25.6188 47.4557 26.1603 47.3783 25.6188 47.7651C25.9282 47.5331 25.6961 47.301 25.3867 47.1463C25 48.6933 24.7679 50.3177 24.4585 51.8648C24.6906 51.5554 25.232 51.5553 25 51.9421C24.6132 51.6327 24.6906 51.7874 24.4585 52.0968C18.8892 78.7832 41.8627 63.2355 46.117 84.5072C46.5811 84.2752 46.0397 84.2752 46.6585 84.1978C46.5038 84.5072 46.3491 85.0487 46.2717 84.5072C46.2717 84.5846 46.2717 84.5846 46.1944 84.5846C46.3491 85.6675 46.5038 86.7504 46.5038 87.9881C42.4041 90.1539 46.7358 95.3365 46.117 98.74C45.1115 104.155 40.393 105.856 39.6968 111.58C40.393 112.431 41.1665 113.127 42.0947 113.669C42.4815 113.592 41.708 113.514 42.0947 113.437C42.4041 113.514 42.5588 113.669 42.6362 114.056C49.7526 119.006 61.0459 121.404 71.8752 121.481C71.8752 121.249 72.262 121.481 72.4167 121.404C72.5714 121.017 73.0355 120.399 72.8808 121.017C72.6487 121.017 72.5714 121.017 72.494 121.404C73.1902 121.327 74.5053 121.559 75.1241 121.327C74.892 120.94 75.5882 120.863 75.1241 121.249C75.2788 121.172 75.4334 121.095 75.5107 121.017C75.5107 121.017 75.5107 121.017 75.5107 120.94C75.8201 120.94 76.1297 120.631 76.2844 120.94C76.1297 121.017 75.8976 120.863 76.207 121.249C75.7429 121.095 75.8201 120.863 75.5107 121.017C75.6654 121.404 75.3561 121.017 75.2788 121.404C79.7652 121.172 83.7874 120.399 87.2682 119.084C87.3456 118.619 87.4229 118.851 87.7323 118.774C87.7323 118.774 87.7323 118.851 87.8097 118.929C88.4285 118.774 88.8153 118.465 89.4341 118.31C91.5226 110.265 87.5776 103.381 85.6438 96.8835C86.0306 95.1044 86.7269 93.248 87.0363 91.4689C86.5722 91.4689 86.8041 92.0104 86.4947 91.7783C86.4947 91.3142 86.5721 91.701 86.8815 91.3916C86.4174 91.2369 86.7268 91.0048 86.4947 91.0048C86.6494 90.6954 86.8042 91.2369 86.9589 91.2369C88.4286 79.7114 92.6829 70.9707 104.053 69.3463C104.285 69.1916 105.136 69.1916 105.368 69.3463H105.755C107.844 63.6996 107.38 55.9644 105.832 50.2404ZM24.1491 58.8264C24.0718 58.8264 24.0718 58.8264 24.1491 58.8264C23.9944 58.7491 23.9944 58.8264 23.9944 58.9038C23.7623 58.8264 24.1491 58.4397 23.917 58.2076C23.917 58.1303 23.9944 58.1303 23.9944 58.2076C24.0718 58.2076 24.0718 58.2076 24.0718 58.1303C24.2265 58.285 24.0718 58.4397 23.9944 58.7491C24.0718 58.6717 24.3038 58.6717 24.0718 58.7491C24.0718 58.7491 24.0718 58.7491 24.1491 58.8264ZM87.655 118.619C87.655 118.697 87.5776 118.697 87.5776 118.697C87.5776 118.697 87.5776 118.697 87.655 118.619ZM103.512 51.5553C103.589 51.5553 103.589 51.5553 103.589 51.6327C103.667 51.6327 103.667 51.6327 103.667 51.5553C103.744 51.5553 103.744 51.6327 103.667 51.6327C103.667 51.71 103.744 51.7101 103.744 51.7101C103.667 51.7874 103.667 52.0195 103.512 52.0195C103.667 52.2515 103.589 52.1742 103.435 52.0968C103.512 52.0195 103.512 51.7874 103.667 51.7874C103.667 51.7101 103.435 51.7101 103.435 51.7874C103.357 51.7874 103.589 51.7101 103.512 51.5553ZM101.269 43.5881C101.269 43.5881 101.346 43.6655 101.423 43.6655C101.423 43.8975 101.269 44.2843 101.423 44.2843C101.423 44.3616 101.346 44.3616 101.346 44.2843C101.269 44.2843 101.269 44.2843 101.269 44.3616C101.269 44.0522 101.114 43.8202 101.269 43.5881ZM98.871 38.0961C98.9484 38.0961 98.9484 38.0961 99.0257 38.1735C99.0257 38.2508 98.871 38.2508 98.871 38.0961C98.7163 38.1735 98.871 38.4829 98.6389 38.4829C98.6389 38.5602 98.7937 38.7149 98.871 38.5602C99.0257 38.8696 98.5616 38.5602 98.4842 38.4829C98.4842 38.2508 98.6389 38.0961 98.871 38.0961ZM47.8961 17.9073C48.0508 17.5205 47.7414 18.3714 47.9735 17.9846C48.1282 18.062 47.8961 18.1393 48.0508 18.2167C48.3602 18.3714 47.5094 18.1393 47.8188 18.4487C47.7414 18.7582 47.6641 18.294 47.5094 18.3714C47.2773 18.4487 47.6641 18.2167 47.8188 18.294C47.8188 18.1393 47.7414 17.9846 47.8961 17.9073ZM44.2606 74.9156C44.1832 74.9156 44.0285 74.8383 44.1059 74.6062C43.7965 74.5289 43.7965 74.8383 43.6418 74.9156C43.4871 74.8383 44.0285 74.6062 44.0285 74.3741C43.9512 74.2194 43.8738 74.3741 43.7965 74.4515C43.4871 74.3741 43.9512 74.2968 43.8738 74.1421C44.1059 74.4515 43.9512 74.5288 44.2606 74.9156ZM63.9853 95.5686C63.3665 96.0327 62.593 96.2647 61.8195 96.2647C60.8139 96.2647 59.1895 95.7233 58.8027 94.8724C59.2669 93.9442 59.2668 92.8612 59.2668 91.933C59.4216 92.0877 59.1121 92.2424 59.4989 92.3198C59.4989 92.1651 59.4215 91.7783 59.3442 91.701C59.2668 91.701 59.2668 91.701 59.2668 91.7783V91.6236C59.3442 91.5463 59.4216 91.3916 59.4216 91.3916C59.4216 91.3916 59.4215 91.3916 59.3442 91.4689C59.2668 91.4689 59.2668 91.4689 59.2668 91.4689C59.2668 91.3142 59.1895 91.2368 59.1895 91.0821C60.6592 90.0766 62.8251 90.5407 64.3722 89.9992C64.5269 90.3086 64.6815 90.5407 64.8362 90.8501H64.7588C64.5268 92.3198 65.2229 94.7177 63.9853 95.5686ZM54.7031 95.5686C52.4599 95.9553 49.2111 95.6459 47.5867 94.4083C47.5867 93.4801 47.5094 91.7783 47.8961 91.0048C48.4376 90.8501 48.2055 90.7727 48.6696 90.386C48.5149 90.0766 48.2829 90.9274 48.0508 90.6954C48.1282 90.2313 48.4376 89.9992 48.6696 89.6898C50.9902 90.4633 53.6202 89.9992 55.6313 89.6898V89.7672H55.786C55.9407 90.0766 56.1728 90.3086 56.4048 90.5407L56.0181 90.7727L56.7916 92.3198C56.7916 92.9386 56.5595 93.7121 56.6369 94.563C56.1728 95.0271 55.4766 95.3365 54.7031 95.5686ZM48.3602 85.9769C48.5149 83.4243 50.7581 82.1867 53.2334 82.1093C54.3937 82.1093 55.9407 82.4187 56.4048 82.9602V83.8111L55.8634 84.0431C56.1728 85.2808 55.9407 86.2863 55.6313 87.6013C55.8634 87.756 49.4432 87.6787 49.3658 87.6787C48.6696 87.3693 48.2829 86.6731 48.3602 85.9769ZM64.14 87.9107C61.8968 88.0654 59.8083 88.7616 57.6425 88.1428C57.8745 87.0599 58.2613 86.3637 58.3386 85.0487C60.3498 83.8884 63.2891 82.4961 65.8418 83.5017L66.0738 85.9769C65.6871 86.441 65.3776 86.7504 65.0682 87.524C64.6815 87.6787 64.4494 87.8334 64.14 87.9107ZM72.6487 96.1874H72.0299C70.4055 96.4194 67.853 96.4968 66.4607 95.7233C67.1568 94.7177 67.2341 93.248 67.1567 92.0877C67.3114 91.933 67.3888 91.8557 67.5435 91.8557C67.5435 91.4689 67.3114 91.7783 67.1567 92.0104C67.1567 91.7783 67.0794 91.6236 67.0794 91.4689C67.3114 91.4689 67.4661 91.4689 67.6982 91.4689L67.7756 91.5463C67.9303 91.5463 68.5491 91.5463 68.7038 91.5463C68.6264 91.6236 68.6264 91.6236 68.5491 91.6236C68.4717 91.6236 68.317 91.5463 68.2397 91.701C68.317 91.701 68.3945 91.701 68.3171 91.7783C68.2398 91.7783 68.2398 91.8557 68.3171 91.8557C68.3171 91.4689 68.6264 91.8557 68.6264 91.933C68.5491 91.8557 68.6264 91.6236 68.7038 91.5463C70.1735 91.5463 71.8753 91.6236 73.345 91.3916C73.4223 92.3971 73.4996 93.4801 73.4996 94.3309L73.6543 94.563L73.4996 94.7177C73.5769 95.7233 73.6543 95.878 72.6487 96.1874ZM79.6877 96.6515C79.6877 96.6515 78.5275 96.6515 78.4501 96.6515C77.2125 96.6515 76.439 96.1874 75.5881 95.7233C76.0522 94.2536 75.8201 91.933 75.5881 90.618C77.7539 91.6236 80.7707 91.701 83.71 92.2424C83.71 94.9497 82.2404 96.4194 79.6877 96.6515ZM77.4445 86.7504C77.9086 86.1316 78.4502 85.5902 79.069 85.1261C79.2237 85.1261 79.3783 85.0487 79.4557 84.894C83.478 82.8828 84.9477 86.0543 83.7874 89.9992C81.6215 89.3804 79.4558 89.071 77.2126 88.6069C77.1352 88.0654 77.2125 87.3693 77.4445 86.7504ZM73.2676 84.0431C73.4997 83.9658 73.6543 83.9658 73.8864 83.9658C76.5937 83.9658 75.124 86.8278 74.5052 88.3748L73.1129 88.2975L73.2676 89.1484C72.03 89.5351 70.8696 89.1484 69.4773 89.1484C69.0905 89.1484 67.2341 89.1484 66.8473 89.1484C66.77 88.9936 66.6926 88.8389 66.77 88.6069C67.6209 87.9107 68.1623 87.0598 68.4717 86.0543C70.3282 86.5957 71.6432 84.5072 73.2676 84.0431ZM53.6202 119.006C53.2334 118.697 53.1561 118.697 53.5428 118.465C53.6975 118.155 53.6975 118.774 53.4655 118.697C53.4655 118.774 53.5428 118.774 53.5428 118.929C53.6202 118.851 53.6975 118.774 53.7749 118.619C53.9296 118.697 53.6975 118.774 53.8522 118.851C53.7749 118.851 53.6202 118.851 53.6202 119.006ZM73.7316 121.404C73.5769 121.327 73.4996 121.249 73.4996 121.095C73.5769 121.095 73.5769 121.249 73.5769 121.327C73.809 121.327 73.809 121.017 73.5769 121.017C73.5769 120.94 73.6543 120.94 73.6543 121.017C73.7316 120.94 73.809 120.94 73.8864 120.785C73.9637 120.785 73.9637 120.863 73.8864 120.863C74.3505 121.327 73.8864 120.94 73.7316 121.404ZM86.6494 116.376C82.8592 117.536 78.7595 118.387 73.9637 118.619C71.4111 118.929 68.3944 118.929 65.8418 118.619C56.3275 118.001 48.3602 115.757 42.9456 111.039C44.3379 107.79 47.8961 104 47.6641 100.442C47.6641 100.364 47.8188 100.364 47.8961 100.364C47.8961 100.287 47.7414 100.132 47.6641 100.287C47.5094 100.21 47.7414 100.132 47.5867 100.055C47.6641 99.8229 47.8188 100.287 47.9735 100.287C47.8961 100.442 47.8961 100.519 48.0508 100.596C48.3602 99.5135 48.5923 98.3532 48.8243 97.1929C50.2167 97.7344 52.2278 97.6571 53.7749 97.8118C55.0898 97.6571 56.7916 97.1929 57.5651 96.4968C60.3498 99.2814 62.825 97.8891 65.8418 97.5797C68.0076 98.74 71.3337 98.1985 73.8864 98.1985L74.0411 97.9665C74.2731 97.8891 74.5825 97.7344 74.8146 97.5024C76.671 98.8947 80.2292 98.972 82.6271 98.1985C84.1742 103.768 87.8097 108.486 86.6494 116.376ZM92.3734 75.0703C92.2187 75.0703 92.064 75.0703 91.9093 75.1477C91.9093 75.225 91.9867 75.225 91.9867 75.3797C91.832 75.6118 91.9093 75.0703 91.7546 75.0703C91.7546 74.993 91.832 74.993 91.832 75.0703C92.2961 75.0703 92.2187 74.9156 92.5281 75.0703C92.4508 75.0703 92.4508 75.0703 92.3734 75.0703ZM104.208 61.379V65.0919C94.8487 68.3407 87.423 73.5233 84.0969 82.8055C82.1631 81.4905 80.0746 82.8829 78.1408 83.1149C78.0635 83.5017 77.5992 83.6564 77.3672 83.8884H77.2898C76.8257 82.5734 75.124 81.9546 73.8864 81.9546C72.0299 81.9546 70.947 83.1149 69.632 83.9658C69.3999 83.7337 69.0905 83.5017 68.7811 83.2696V82.8829C67.3888 82.264 66.6926 81.4132 64.8362 81.2585C62.9024 81.2585 60.5818 81.2585 59.0348 82.4187C55.786 79.4794 51.377 79.4794 48.0508 81.4905C44.8021 74.6062 40.9345 68.186 33.354 65.6334C33.0446 66.3295 33.0446 65.9428 32.271 65.8654C31.9616 65.7107 32.8125 65.8654 32.8899 65.4787C26.6244 65.0919 26.2376 61.6111 27.1658 55.5003C27.0885 55.5776 26.8564 55.5776 26.8564 55.7323C26.7791 55.7323 26.7791 55.655 26.8564 55.655C26.8564 55.5776 26.6244 55.5776 26.6244 55.655C26.315 55.5776 26.8564 55.3456 26.9338 55.5776C27.0885 55.2682 26.8564 55.3456 27.2432 55.2682C29.3317 38.1735 36.0613 24.7916 50.9902 17.0564C50.9902 16.9017 50.9128 16.8244 50.7581 16.747C50.6808 16.5923 51.1449 16.515 50.8355 16.4376C50.9902 16.3602 51.1449 16.515 51.2996 16.515C51.5317 16.1282 51.2223 16.9017 51.2223 16.515C51.1449 16.515 51.1449 16.6697 51.1449 16.747C51.0676 16.747 51.0676 16.5923 51.0676 16.515C50.7581 16.5923 50.9902 16.747 51.0676 16.9017C52.3825 16.3602 53.6975 15.7414 55.1672 15.3547C55.1672 15.2 54.7804 15.0453 54.8578 14.9679C54.9351 14.9679 55.3219 15.0453 55.0125 14.8132C55.2446 14.5812 55.2446 15.2 55.3219 15.2C56.8689 14.9679 58.1839 14.4265 59.963 14.5038C60.2724 14.2717 60.8912 14.5038 61.278 14.4264C61.5874 14.4264 62.1289 14.2717 62.3609 14.5038C66.6153 14.6585 70.0961 15.8188 73.0355 18.294C75.2013 18.9902 77.3672 19.4543 79.4557 20.6146V20.3825C79.533 20.4599 79.6104 20.6146 79.7651 20.6146C79.6877 20.5372 79.6877 20.4599 79.6877 20.3052C79.6104 20.3052 79.6104 20.2278 79.6104 20.2278C79.6104 20.2278 80.0745 20.5372 79.8424 20.4599C79.8424 20.5372 79.9198 20.5372 79.9198 20.5372C79.8424 20.692 79.7651 20.4599 79.6877 20.6146C83.5553 22.7805 87.1135 25.2557 90.0529 28.3498H90.1302C98.6389 36.2397 103.744 47.1463 104.208 61.379Z" fill="#010101"/>
<path fill-rule="evenodd" clip-rule="evenodd" d="M94.3072 52.5608C94.0752 48.6932 95.3902 45.6765 92.4508 42.1183C87.0362 35.6981 76.2843 37.4772 74.7372 45.2124C74.6599 46.5274 74.8146 48.5385 74.5825 49.8535C83.478 49.6988 82.3951 42.1183 90.1302 51.0911C90.517 51.2458 90.7491 51.5552 91.2132 51.6326L94.3072 52.5608Z" fill="#010101"/>
<path fill-rule="evenodd" clip-rule="evenodd" d="M39.0006 58.8264C38.3044 59.5999 38.8459 61.3017 40.0061 61.2243C40.3155 60.7602 40.3155 59.9093 40.5476 59.2905C39.9288 59.2905 39.8514 58.7491 39.0006 58.8264Z" fill="#010101"/>
<path fill-rule="evenodd" clip-rule="evenodd" d="M42.4817 60.4507C41.9402 61.9204 42.4043 64.0089 42.8685 65.4012C44.6475 64.7824 43.642 62.0751 43.4873 60.4507H42.4817Z" fill="#010101"/>
<path fill-rule="evenodd" clip-rule="evenodd" d="M90.3625 61.3792C89.9757 61.3792 89.9757 60.9925 89.4343 61.0698C89.3569 63.6998 87.0364 64.628 87.3458 67.3353C89.3569 66.3298 90.9813 63.8545 90.3625 61.3792Z" fill="#010101"/>
<path fill-rule="evenodd" clip-rule="evenodd" d="M93.5337 66.3296C95.0034 66.0975 95.4675 64.6278 95.3128 63.3128C93.5337 63.0808 93.8431 64.9372 93.5337 66.3296Z" fill="#010101"/>
<path fill-rule="evenodd" clip-rule="evenodd" d="M60.8141 45.3671C61.7423 39.7978 55.8636 35.0793 50.5263 35.4661C42.0176 36.781 39.465 42.8918 37.6859 48.1518L36.9897 50.2403C47.819 51.4779 46.3493 41.1127 53.6977 45.5992C55.1674 46.6047 58.2615 47.4556 60.4273 47.6103L60.8141 45.3671Z" fill="#010101"/>
<path fill-rule="evenodd" clip-rule="evenodd" d="M67.3886 65.9428C67.6206 63.2355 65.8416 60.9149 63.7531 59.2905C62.5928 62.3846 60.4269 65.1693 60.3496 68.7275C61.4325 68.7275 63.8304 68.4954 64.7586 68.8822L67.7754 70.0424C67.698 69.3463 67.4659 66.5616 67.3886 65.9428Z" fill="#010101"/>
<path fill-rule="evenodd" clip-rule="evenodd" d="M74.2731 65.0917C74.0411 62.7712 71.5658 60.6827 69.7093 59.3677C69.0905 62.2297 69.0905 65.7879 68.085 68.4952C70.4055 69.8102 74.6599 70.5837 75.0466 66.8708C74.7372 66.252 74.5052 65.7879 74.2731 65.0917Z" fill="#010101"/>
<path fill-rule="evenodd" clip-rule="evenodd" d="M73.6541 104.464C73.9635 104.387 74.0409 104.619 74.3503 104.541C74.4276 104.232 74.737 104.077 74.8917 104.232C74.737 104.232 74.8144 104.309 74.8917 104.464C74.3503 104.309 74.737 104.464 74.5823 104.696C75.4332 104.773 76.6708 104.619 77.367 104.232C77.2123 102.143 73.4994 102.376 73.6541 104.464Z" fill="#010101"/>
<path fill-rule="evenodd" clip-rule="evenodd" d="M76.1297 107.326C75.7429 109.26 78.9917 109.26 78.9143 107.945C78.9143 107.094 76.9805 106.707 76.1297 107.326Z" fill="#010101"/>
</g>
<path d="M191.498 62.4932C190.915 62.4932 190.37 62.3777 189.87 62.1468C189.37 61.916 188.837 61.6273 188.28 61.2874L178.733 55.1752C177.784 54.5659 177.303 53.7962 177.303 52.8727C177.303 52.3596 177.418 51.8593 177.649 51.3719C177.88 50.8844 178.104 50.1533 178.329 49.1784C178.547 48.2035 178.656 46.7156 178.656 44.7145V25.6531C178.656 23.5558 178.495 22.0037 178.181 20.9903C177.867 19.977 177.54 19.1945 177.213 18.6301C176.886 18.0721 176.719 17.45 176.719 16.7637C176.719 15.7183 177.136 14.9807 177.963 14.5703L190.325 8.27845C190.838 8.00907 191.332 7.81025 191.806 7.67556C192.281 7.54088 192.826 7.47674 193.435 7.47674C194.044 7.47674 194.57 7.5986 195.082 7.84232C195.595 8.08604 196.121 8.38107 196.653 8.72099L206.2 14.8332C207.149 15.4425 207.624 16.2122 207.624 17.1357C207.624 17.6232 207.515 18.1106 207.297 18.598C207.079 19.0855 206.854 19.8166 206.617 20.7915C206.386 21.7664 206.271 23.2544 206.271 25.2554V44.3553C206.271 46.4526 206.438 48.0111 206.765 49.0181C207.092 50.0314 207.419 50.8139 207.733 51.3783C208.047 51.9427 208.207 52.5712 208.207 53.2832C208.207 54.2837 207.79 55.002 206.963 55.4446L194.602 61.7364C193.576 62.2495 192.543 62.506 191.492 62.506L191.498 62.4932ZM194.935 55.5472C196.031 55.5472 196.968 55.1816 197.75 54.4504C198.532 53.7193 198.923 52.7316 198.923 51.4873V21.4842C198.923 19.9257 198.34 18.7776 197.166 18.0465L192.595 15.1924C191.813 14.6793 190.947 14.4227 189.998 14.4227C188.927 14.4227 187.991 14.7947 187.202 15.5387C186.407 16.2827 186.016 17.2768 186.016 18.5211V48.5242C186.016 50.1084 186.6 51.2693 187.773 52.0004L192.306 54.816C192.742 55.0854 193.191 55.2714 193.64 55.3804C194.089 55.4895 194.525 55.5472 194.941 55.5472H194.935Z" fill="white"/>
<path d="M228.879 7.47033C230.905 7.47033 232.597 7.5986 233.963 7.85515C235.329 8.11169 236.72 8.36824 238.131 8.62479C239.548 8.88133 241.324 9.00961 243.472 9.00961C244.421 9.00961 244.895 9.44574 244.895 10.3244C244.895 10.8888 244.645 11.6392 244.145 12.5948C243.645 13.5441 243.145 14.8204 242.644 16.4174C242.144 18.0144 241.894 20.0924 241.894 22.6579C241.894 23.4853 241.67 24.0946 241.215 24.4858C240.766 24.877 240.259 25.0694 239.695 25.0694C239.035 25.0694 238.496 24.8642 238.067 24.4473C237.637 24.0304 237.425 23.4339 237.425 22.6579V19.2907C237.425 16.6804 236.746 14.814 235.393 13.6916C234.04 12.5692 231.866 12.0112 228.866 12.0112C226.352 12.0112 224.499 12.5115 223.307 13.512C222.114 14.5125 221.512 15.9492 221.512 17.8284C221.512 19.7076 222.069 21.2212 223.191 22.5873C224.313 23.9535 225.756 25.2362 227.526 26.4291C229.295 27.6221 231.174 28.8535 233.174 30.1234C235.175 31.3933 237.06 32.8236 238.823 34.4206C240.593 36.0176 242.035 37.9032 243.157 40.071C244.279 42.2388 244.837 44.8299 244.837 47.8251C244.837 52.3596 243.504 55.9448 240.83 58.5616C238.163 61.1848 234.534 62.4932 229.949 62.4932C227.904 62.4932 226.211 62.4162 224.884 62.2559C223.557 62.0955 222.422 61.9224 221.479 61.7235C220.543 61.5311 219.665 61.3515 218.844 61.1912C218.03 61.0309 217.107 60.9539 216.081 60.9539C214.959 60.9539 214.401 60.3831 214.401 59.235C214.401 57.4777 214.709 55.9128 215.331 54.5338C215.953 53.1549 216.568 51.8657 217.177 50.6535C217.786 49.4478 218.094 48.2484 218.094 47.0491C218.094 45.8497 217.927 45.1314 217.6 44.7466C217.273 44.3553 216.69 44.1629 215.863 44.1629C215.036 44.1629 214.414 43.9256 213.926 43.451C213.439 42.9764 213.196 42.3222 213.196 41.4948C213.196 40.6675 213.465 40.0133 213.997 39.4617C214.536 38.9101 215.35 38.6407 216.446 38.6407C218.248 38.6407 219.684 39.3847 220.742 40.8727C221.8 42.3607 222.332 44.4836 222.332 47.2415C222.332 47.7802 222.319 48.3318 222.294 48.909C222.268 49.4798 222.255 50.0507 222.255 50.6087C222.255 53.0458 222.832 54.9186 223.993 56.227C225.153 57.5354 227.135 58.1832 229.936 58.1832C232.476 58.1832 234.418 57.4456 235.771 55.9705C237.124 54.4953 237.804 52.4622 237.804 49.8775C237.804 47.8059 237.239 45.978 236.124 44.3874C235.002 42.8032 233.566 41.3473 231.809 40.0133C230.052 38.6856 228.18 37.3708 226.192 36.0817C224.204 34.7861 222.332 33.4008 220.575 31.9128C218.819 30.4248 217.382 28.7316 216.26 26.8268C215.138 24.9219 214.58 22.7028 214.58 20.1694C214.58 16.2699 215.818 13.1721 218.293 10.8952C220.768 8.61196 224.288 7.47674 228.847 7.47674L228.879 7.47033Z" fill="white"/>
<path d="M253.051 18.04C253.051 17.3345 252.987 16.8279 252.865 16.52C252.743 16.2186 252.525 15.93 252.204 15.6606L251.909 15.404C251.448 14.9871 251.063 14.7434 250.755 14.6729C250.448 14.6023 250.191 14.4548 249.967 14.2367C249.306 13.5761 249.345 12.7616 250.076 11.7867L252.198 9.04167C252.711 8.38107 253.134 7.95776 253.48 7.75894C253.82 7.56653 254.186 7.46391 254.577 7.46391C254.916 7.46391 255.224 7.53446 255.494 7.66274C255.763 7.79101 256.167 8.08604 256.699 8.52217L259.956 11.1582C260.591 11.6713 261.059 12.101 261.367 12.4602C261.674 12.8129 261.822 13.3452 261.822 14.0507C261.822 14.6857 261.7 15.295 261.456 15.8786C261.213 16.4623 260.976 17.1934 260.745 18.0721C260.514 18.9508 260.398 20.1437 260.398 21.6574V29.45C260.398 29.9117 260.482 30.2196 260.655 30.3671C260.828 30.5146 261.155 30.5852 261.642 30.5852H272.068C272.555 30.5852 272.882 30.5146 273.055 30.3671C273.228 30.2196 273.312 29.9182 273.312 29.45V19.791C273.312 18.8418 273.241 18.1747 273.113 17.7963C272.978 17.4179 272.632 17.0716 272.068 16.7509L270.715 15.9813C269.958 15.5451 269.317 15.295 268.798 15.2309C268.272 15.1731 267.842 14.9679 267.496 14.628C267.201 14.3329 267.06 13.8583 267.06 13.2041C267.06 12.6911 267.246 12.1908 267.612 11.7033L269.657 8.88775C270.093 8.27845 270.471 7.88721 270.792 7.71405C271.106 7.54088 271.497 7.4575 271.965 7.4575C272.382 7.4575 272.728 7.52805 273.004 7.65632C273.28 7.7846 273.671 8.02832 274.158 8.36824L280.268 12.2806C280.903 12.6975 281.365 13.1015 281.66 13.5056C281.955 13.9096 282.096 14.4612 282.096 15.1731C282.096 15.8081 281.98 16.4238 281.749 17.0203C281.519 17.6167 281.288 18.3479 281.057 19.2138C280.826 20.0796 280.711 21.279 280.711 22.8182V51.9812C280.711 52.6867 280.768 53.1934 280.897 53.5012C281.019 53.8091 281.237 54.0913 281.557 54.3606L281.852 54.6172C282.314 55.0084 282.692 55.2329 282.987 55.297C283.282 55.3612 283.538 55.5087 283.756 55.7524C284.417 56.3617 284.378 57.1698 283.647 58.1704L281.564 60.9475C281.076 61.6081 280.659 62.025 280.32 62.211C279.98 62.397 279.602 62.4868 279.185 62.4868C278.871 62.4868 278.576 62.4226 278.306 62.3008C278.037 62.1789 277.627 61.8967 277.063 61.4606L273.773 58.8246C273.164 58.3371 272.703 57.9074 272.382 57.5418C272.068 57.1762 271.908 56.6375 271.908 55.932C271.908 55.297 272.029 54.6877 272.273 54.1041C272.517 53.5205 272.754 52.7893 272.985 51.9106C273.215 51.032 273.331 49.839 273.331 48.3254V39.0705C273.331 38.6087 273.267 38.2752 273.145 38.0828C273.023 37.8903 272.715 37.7877 272.228 37.7877H261.514C261.052 37.7877 260.751 37.8839 260.616 38.0828C260.482 38.2816 260.418 38.6087 260.418 39.0705V50.1918C260.418 51.141 260.488 51.8144 260.636 52.2057C260.783 52.5969 261.123 52.9496 261.662 53.2639L263.014 54.0336C263.797 54.4697 264.444 54.7134 264.97 54.7647C265.496 54.816 265.925 55.0084 266.272 55.3484C266.586 55.6626 266.746 56.1436 266.746 56.7722C266.746 57.234 266.554 57.7214 266.163 58.2345L264.117 61.0886C263.681 61.6979 263.297 62.0827 262.963 62.243C262.636 62.4034 262.239 62.4804 261.777 62.4804C261.36 62.4804 261.02 62.4098 260.751 62.2815C260.482 62.1468 260.104 61.9224 259.616 61.6081L253.544 57.6573C252.884 57.2404 252.41 56.8363 252.121 56.4323C251.826 56.0282 251.685 55.4895 251.685 54.8032C251.685 54.1169 251.8 53.5205 252.031 52.9368C252.262 52.3532 252.493 51.622 252.724 50.7433C252.954 49.8647 253.07 48.6717 253.07 47.1581V39.0705C253.07 38.6087 253.006 38.2752 252.884 38.0828C252.762 37.8903 252.454 37.7877 251.967 37.7877H249.588C248.902 37.7877 248.505 37.5761 248.383 37.1464C248.261 36.7166 248.287 36.2036 248.453 35.5943L249.55 31.4574C249.723 30.8738 250.242 30.5788 251.121 30.5788H251.852C252.339 30.5788 252.66 30.5082 252.82 30.3607C252.98 30.2132 253.057 29.9117 253.057 29.4435V18.0272L253.051 18.04Z" fill="white"/>
<path d="M306.71 62.4611C302.421 62.4611 298.958 61.8326 296.323 60.5755C293.688 59.3184 291.777 57.6637 290.578 55.6177C289.386 53.5653 288.79 51.3591 288.79 48.9924C288.79 46.7476 289.149 44.6504 289.867 42.7006C290.585 40.7508 291.47 38.8781 292.521 37.0822C293.566 35.2928 294.624 33.5291 295.682 31.7974C296.74 30.0657 297.631 28.3019 298.356 26.5125C299.074 24.7167 299.433 22.8375 299.433 20.8621C299.433 18.8867 299.17 17.5462 298.644 16.7637C298.119 15.9813 297.343 15.59 296.323 15.59C295.74 15.59 295.297 15.7824 295.009 16.1737C294.714 16.5649 294.374 16.9626 293.983 17.3602C293.592 17.7643 292.925 17.9631 291.97 17.9631C290.63 17.9631 289.61 17.5398 288.918 16.6996C288.225 15.8594 287.873 14.8396 287.873 13.6467C287.873 12.1331 288.45 10.8824 289.61 9.89469C290.771 8.90699 292.444 8.41314 294.637 8.41314C298.151 8.41314 300.824 9.54835 302.664 11.8188C304.505 14.0892 305.428 17.4051 305.428 21.7728C305.428 24.5756 305.12 27.1795 304.511 29.5847C303.902 31.9898 303.203 34.2666 302.427 36.428C301.645 38.5894 300.952 40.7188 300.343 42.8289C299.734 44.939 299.427 47.1132 299.427 49.358C299.427 52.5071 300.093 54.7198 301.421 55.9961C302.748 57.2789 304.594 57.9202 306.96 57.9202C309.57 57.9202 311.532 57.1634 312.846 55.6498C314.161 54.1362 314.821 51.7118 314.821 48.3703V21.7728C314.821 19.4831 314.718 17.6616 314.507 16.3212C314.302 14.9807 314.064 13.9545 313.795 13.249C313.526 12.5435 313.289 12.0048 313.083 11.6392C312.878 11.2736 312.776 10.9081 312.776 10.5425C312.776 9.51629 313.212 9.00319 314.09 9.00319H323.381C324.015 9.00319 324.451 9.10581 324.695 9.31105C324.939 9.51629 325.06 9.88828 325.06 10.427C325.06 10.9658 324.932 11.6264 324.676 12.4217C324.419 13.217 324.163 14.442 323.906 16.0967C323.65 17.7514 323.522 20.1694 323.522 23.3377V43.6819C323.522 46.536 323.644 48.8641 323.887 50.6728C324.131 52.4814 324.419 53.9117 324.746 54.9699C325.073 56.0282 325.362 56.8812 325.606 57.5098C325.849 58.1447 325.971 58.7284 325.971 59.2671C325.971 60.3895 325.471 60.9475 324.471 60.9475C321.957 60.9475 319.803 61.0693 317.995 61.3131C316.187 61.5568 314.423 61.8069 312.692 62.0635C310.961 62.32 308.961 62.4483 306.691 62.4483L306.71 62.4611Z" fill="white"/>
<path d="M334.396 47.1645V39.0769C334.396 38.6151 334.332 38.2816 334.21 38.0892C334.088 37.8968 333.78 37.7941 333.293 37.7941H330.914C330.228 37.7941 329.824 37.5825 329.69 37.1528C329.555 36.7231 329.574 36.21 329.741 35.6007L330.837 31.4639C331.011 30.8802 331.543 30.5852 332.447 30.5852H333.139C333.627 30.5852 333.954 30.5146 334.127 30.3671C334.3 30.2196 334.383 29.9182 334.383 29.45V25.6467C334.383 23.5494 334.216 21.9973 333.889 20.9839C333.562 19.9706 333.235 19.1881 332.921 18.6237C332.607 18.0657 332.447 17.4436 332.447 16.7573C332.447 15.6862 332.851 14.9551 333.652 14.5638L346.052 8.27203C346.565 8.00266 347.059 7.80384 347.534 7.66915C348.008 7.53446 348.553 7.47033 349.162 7.47033C349.771 7.47033 350.297 7.59219 350.81 7.8359C351.323 8.07962 351.849 8.37465 352.381 8.71458L361.928 14.8268C362.857 15.4104 363.319 16.1801 363.319 17.1293C363.319 17.6167 363.21 18.1042 362.992 18.5916C362.774 19.0791 362.556 19.8102 362.332 20.7851C362.114 21.76 362.005 23.2479 362.005 25.249V57.1442C362.005 57.8497 362.062 58.3564 362.171 58.6642C362.28 58.9721 362.492 59.2543 362.813 59.5237L363.14 59.7802C363.723 60.242 364.268 60.5627 364.768 60.7294C365.268 60.9026 365.518 61.2938 365.518 61.9031C365.518 62.3649 365.326 62.8395 364.935 63.3334L362.813 66.1105C362.325 66.7711 361.915 67.188 361.588 67.374C361.261 67.56 360.889 67.6498 360.472 67.6498C360.158 67.6498 359.863 67.592 359.594 67.483C359.325 67.374 358.914 67.0854 358.35 66.6236L355.093 63.9876C354.484 63.4745 354.022 63.0448 353.702 62.6856C353.381 62.3328 353.227 61.8005 353.227 61.095C353.227 60.46 353.343 59.8508 353.573 59.2671C353.804 58.6835 354.035 57.9523 354.266 57.0736C354.497 56.195 354.612 55.002 354.612 53.4884V39.0769C354.612 38.6151 354.548 38.2816 354.426 38.0892C354.304 37.8968 353.997 37.7941 353.509 37.7941H342.827C342.34 37.7941 342.032 37.8904 341.91 38.0892C341.789 38.288 341.725 38.6151 341.725 39.0769V50.1982C341.725 51.1474 341.789 51.8208 341.923 52.2121C342.058 52.6033 342.391 52.9561 342.93 53.2703L344.283 54.04C345.065 54.4761 345.719 54.7198 346.258 54.7711C346.796 54.8224 347.232 55.0148 347.572 55.3548C347.867 55.669 348.008 56.1501 348.008 56.7786C348.008 57.2404 347.816 57.7278 347.425 58.2409L345.379 61.095C344.943 61.7043 344.558 62.0891 344.225 62.2495C343.898 62.4098 343.513 62.4868 343.071 62.4868C342.654 62.4868 342.308 62.4162 342.026 62.2879C341.744 62.1533 341.359 61.9288 340.872 61.6145L334.8 57.6637C334.165 57.2468 333.697 56.8427 333.389 56.4387C333.082 56.0346 332.934 55.4959 332.934 54.8096C332.934 54.1233 333.056 53.5269 333.3 52.9432C333.543 52.3596 333.78 51.6284 334.011 50.7498C334.242 49.8711 334.357 48.6781 334.357 47.1645H334.396ZM354.625 29.4564V21.4778C354.625 20.6953 354.497 20.0283 354.24 19.4639C353.984 18.8995 353.541 18.4249 352.907 18.0401L348.335 15.186C347.899 14.9166 347.457 14.7242 347.021 14.6023C346.585 14.4805 346.155 14.4163 345.738 14.4163C344.642 14.4163 343.699 14.7883 342.923 15.5323C342.141 16.2763 341.75 17.2704 341.75 18.5147V29.4564C341.75 29.9182 341.834 30.226 342.007 30.3735C342.18 30.521 342.494 30.5916 342.956 30.5916H353.419C353.907 30.5916 354.227 30.521 354.388 30.3735C354.548 30.226 354.625 29.9246 354.625 29.4564Z" fill="white"/>
<path d="M163.543 11.4147C163.543 10.7349 163.191 10.3885 162.485 10.3885H150.412C149.726 10.3885 149.303 10.1833 149.13 9.76642C148.957 9.34953 148.995 8.83002 149.239 8.19507L150.778 4.20577C151.092 3.40406 151.643 3 152.425 3H173.417C174.097 3 174.527 3.19882 174.7 3.60288C174.873 4.00695 174.822 4.52645 174.552 5.15499L173.013 9.14429C172.77 9.8049 172.481 10.1769 172.154 10.2603C171.827 10.3436 171.539 10.4399 171.295 10.5361C171.051 10.6323 170.93 11.0363 170.93 11.7418V60.5178C170.93 62.7112 171.096 64.3403 171.423 65.405C171.75 66.4632 172.077 67.2585 172.391 67.7845C172.706 68.3104 172.866 68.8876 172.866 69.5226C172.866 70.4525 171.622 71.5685 171.622 71.5685C171.622 71.5685 162.992 78.6685 151.367 78.6685C150.688 78.6685 150.027 78.5466 149.393 78.3029C148.758 78.0592 148.213 77.7064 147.745 77.2446L142.917 72.1201C142.648 71.8251 142.43 71.5108 142.256 71.1709C142.083 70.8309 142 70.3884 142 69.8561C142 68.7593 142.295 67.6241 142.878 66.4568C143.462 65.2895 144.135 64.0645 144.892 62.7946C145.648 61.5247 146.321 60.1971 146.905 58.8053C147.488 57.4136 147.783 55.9641 147.783 54.4504C147.783 53.8924 147.681 53.514 147.476 53.3152C147.27 53.1228 146.931 53.0202 146.469 53.0202C145.783 53.0202 145.219 52.7957 144.77 52.3403C144.321 51.8914 144.09 51.2372 144.09 50.3842C144.09 49.6017 144.353 48.9603 144.879 48.4472C145.405 47.9342 146.238 47.6776 147.386 47.6776C148.7 47.6776 149.739 48.1843 150.496 49.1976C151.252 50.211 151.63 51.8401 151.63 54.0849C151.63 55.9128 151.464 57.4841 151.137 58.7861C150.81 60.0881 150.47 61.3259 150.13 62.4996C149.79 63.6733 149.617 64.9624 149.617 66.3799C149.617 68.1116 150.085 69.4135 151.028 70.2794C151.964 71.1452 153.105 71.5813 154.445 71.5813C157.298 71.5813 163.543 70.0805 163.543 67.0789V11.4147Z" fill="white"/>
<path d="M242.38 81.9255V84.0515C242.38 85.1498 242.437 85.9526 242.546 86.4536C242.655 86.9546 242.713 87.5326 242.713 88.1942C242.713 89.3439 242.174 90.1852 241.103 90.7248L234.99 93.7306C234.598 93.9233 234.387 94.2059 234.348 94.572C234.31 94.9381 234.528 95.2593 234.99 95.5226L241.501 99.0038C242.136 99.3442 242.604 99.7553 242.912 100.231C243.22 100.706 243.367 101.374 243.367 102.228C243.367 103.012 243.29 103.692 243.13 104.277C242.97 104.861 242.809 105.587 242.636 106.441C242.463 107.296 242.38 108.529 242.38 110.141V114.245C242.38 114.952 242.437 115.459 242.566 115.767C242.687 116.076 242.906 116.358 243.226 116.628L243.553 116.885C244.015 117.251 244.387 117.469 244.67 117.546C244.952 117.617 245.215 117.778 245.459 118.022C246.094 118.658 246.042 119.467 245.311 120.443L243.226 123.224C242.739 123.886 242.322 124.303 241.982 124.49C241.642 124.676 241.263 124.766 240.846 124.766C240.526 124.766 240.237 124.701 239.968 124.579C239.698 124.457 239.281 124.175 238.723 123.738L235.432 121.098C234.823 120.61 234.361 120.18 234.04 119.814C233.726 119.448 233.566 118.908 233.566 118.202C233.566 117.566 233.687 116.956 233.931 116.371C234.175 115.787 234.412 115.054 234.643 114.174C234.874 113.295 234.99 112.1 234.99 110.584V105.42C234.99 104.759 234.861 104.2 234.605 103.737C234.348 103.275 233.79 102.832 232.937 102.421L226.971 99.4534C225.996 98.9652 225.335 98.5092 224.995 98.0789C224.655 97.6486 224.482 97.1219 224.482 96.486C224.482 95.8502 224.655 95.3685 224.995 94.9638C225.335 94.5592 226.022 94.1032 227.042 93.5893L232.86 90.7312C233.642 90.3394 234.188 89.8898 234.508 89.376C234.823 88.8621 234.983 88.1043 234.983 87.1023V84.0643C234.983 81.5979 234.374 79.7417 233.155 78.4957C231.936 77.2497 230.352 76.6267 228.395 76.6267C226.439 76.6267 224.938 77.2754 223.802 78.5664C222.667 79.8638 222.102 81.6943 222.102 84.0643V112.46C222.102 113.41 222.166 114.085 222.301 114.476C222.436 114.868 222.769 115.221 223.308 115.536L224.662 116.307C225.444 116.744 226.092 116.988 226.618 117.039C227.144 117.09 227.587 117.283 227.952 117.624C228.248 117.938 228.389 118.42 228.389 119.049C228.389 119.512 228.196 120 227.805 120.514L225.759 123.372C225.322 123.982 224.938 124.367 224.604 124.528C224.277 124.689 223.892 124.766 223.449 124.766C223.032 124.766 222.686 124.695 222.404 124.567C222.121 124.432 221.736 124.207 221.249 123.892L215.174 119.936C214.539 119.518 214.071 119.114 213.763 118.709C213.455 118.304 213.307 117.765 213.307 117.078C213.307 116.39 213.423 115.793 213.654 115.209C213.885 114.624 214.116 113.892 214.347 113.012C214.578 112.132 214.693 110.937 214.693 109.422V80.84C214.693 79.9601 214.648 79.3114 214.565 78.9003C214.481 78.4829 214.257 78.1425 213.885 77.8727L213.558 77.6158C213.07 77.224 212.679 76.9863 212.384 76.9028C212.089 76.8193 211.832 76.6652 211.614 76.4468C210.979 75.766 211.03 74.9439 211.761 73.9933L213.885 71.2443C214.398 70.5828 214.815 70.1589 215.148 69.9598C215.476 69.7671 215.848 69.6643 216.265 69.6643C216.579 69.6643 216.88 69.7286 217.163 69.8506C217.445 69.9726 217.849 70.2681 218.388 70.7305L220.838 72.7794C221.422 73.2932 222.044 73.5501 222.705 73.5501C223.167 73.5501 223.789 73.3575 224.572 72.9657L229.293 70.5828C229.928 70.2681 230.493 70.0304 230.993 69.8891C231.494 69.7414 232.045 69.6708 232.661 69.6708C233.219 69.6708 233.726 69.7928 234.181 70.0369C234.63 70.2809 235.092 70.5764 235.554 70.9168L242.104 75.9394C242.373 76.1321 242.591 76.434 242.764 76.8386C242.938 77.2433 243.021 77.6029 243.021 77.9177C243.021 78.6049 242.912 79.2472 242.694 79.8573C242.476 80.4675 242.367 81.1676 242.367 81.9448L242.38 81.9255Z" fill="white"/>
<path d="M253.176 109.402V101.303C253.176 100.841 253.112 100.507 252.99 100.314C252.868 100.121 252.56 100.019 252.072 100.019H249.692C249.012 100.019 248.602 99.8066 248.467 99.3763C248.333 98.946 248.352 98.4321 248.525 97.822L249.622 93.6793C249.795 93.0948 250.328 92.7993 251.232 92.7993H251.925C252.412 92.7993 252.74 92.7287 252.913 92.581C253.086 92.4332 253.169 92.1314 253.169 91.6625V87.8538C253.169 85.7535 253.003 84.1992 252.675 83.1844C252.348 82.1696 252.021 81.386 251.707 80.8208C251.392 80.262 251.232 79.639 251.232 78.9517C251.232 77.8791 251.636 77.1469 252.438 76.7551L264.844 70.4543C265.358 70.1846 265.852 69.9855 266.326 69.8506C266.801 69.7157 267.346 69.6515 267.956 69.6515C268.565 69.6515 269.091 69.7735 269.604 70.0176C270.117 70.2617 270.643 70.5571 271.176 70.8975L280.728 77.0185C281.658 77.6029 282.12 78.3737 282.12 79.3243C282.12 79.8124 282.011 80.3005 281.792 80.7887C281.574 81.2768 281.356 82.009 281.132 82.9853C280.914 83.9615 280.805 85.4516 280.805 87.4556V114.239C280.805 114.945 280.862 115.453 280.971 115.761C281.08 116.069 281.292 116.352 281.613 116.622L281.94 116.878C282.524 117.341 283.069 117.662 283.569 117.829C284.07 118.002 284.32 118.394 284.32 119.004C284.32 119.467 284.127 119.942 283.736 120.437L281.613 123.218C281.125 123.879 280.715 124.297 280.388 124.483C280.06 124.669 279.688 124.759 279.271 124.759C278.957 124.759 278.662 124.701 278.393 124.592C278.123 124.483 277.706 124.194 277.148 123.732L273.889 121.092C273.28 120.578 272.818 120.148 272.497 119.788C272.183 119.435 272.023 118.902 272.023 118.195C272.023 117.559 272.138 116.949 272.369 116.365C272.6 115.78 272.831 115.048 273.062 114.168C273.293 113.288 273.408 112.093 273.408 110.578V101.31C273.408 100.847 273.344 100.513 273.222 100.32C273.1 100.128 272.792 100.025 272.305 100.025H261.618C261.13 100.025 260.822 100.121 260.7 100.32C260.578 100.52 260.514 100.847 260.514 101.31V112.447C260.514 113.397 260.578 114.072 260.713 114.464C260.848 114.855 261.181 115.209 261.72 115.523L263.074 116.294C263.856 116.731 264.511 116.975 265.05 117.026C265.588 117.078 266.025 117.27 266.365 117.611C266.66 117.925 266.801 118.407 266.801 119.037C266.801 119.499 266.608 119.987 266.217 120.501L264.171 123.359C263.735 123.969 263.35 124.355 263.016 124.515C262.689 124.676 262.304 124.753 261.861 124.753C261.444 124.753 261.098 124.682 260.816 124.554C260.534 124.419 260.149 124.194 259.661 123.879L253.586 119.923C252.951 119.505 252.483 119.101 252.175 118.696C251.867 118.292 251.72 117.752 251.72 117.065C251.72 116.377 251.841 115.78 252.085 115.196C252.329 114.611 252.566 113.879 252.797 112.999C253.028 112.119 253.144 110.925 253.144 109.409L253.176 109.402ZM273.415 91.6689V83.6789C273.415 82.8953 273.286 82.2274 273.03 81.6622C272.773 81.097 272.331 80.6217 271.695 80.2363L267.122 77.3781C266.685 77.1084 266.243 76.9157 265.807 76.7937C265.37 76.6716 264.941 76.6074 264.524 76.6074C263.427 76.6074 262.484 76.9799 261.708 77.725C260.925 78.47 260.534 79.4656 260.534 80.7116V91.6689C260.534 92.1314 260.617 92.4397 260.79 92.5874C260.963 92.7351 261.278 92.8058 261.74 92.8058H272.202C272.69 92.8058 273.01 92.7351 273.171 92.5874C273.331 92.4397 273.408 92.1378 273.408 91.6689H273.415Z" fill="white"/>
<path d="M298.259 79.472L304.918 115.671C305.11 116.699 305.553 117.212 306.233 117.212C306.573 117.212 306.868 117.123 307.112 116.936C307.356 116.75 307.503 116.39 307.548 115.857C307.766 113.295 308.267 110.867 309.049 108.587C309.832 106.3 310.679 104.065 311.589 101.881C312.507 99.6974 313.302 97.4816 313.989 95.2464C314.675 93.0113 315.015 90.6734 315.015 88.2327C315.015 86.5242 314.701 85.1305 314.078 84.0579C313.456 82.9853 312.731 82.0347 311.904 81.219C311.076 80.4033 310.351 79.5491 309.729 78.6755C309.107 77.802 308.793 76.6973 308.793 75.3806C308.793 73.7942 309.261 72.5418 310.204 71.6233C311.14 70.7048 312.513 70.2488 314.322 70.2488C317.106 70.2488 319.223 71.2636 320.692 73.2932C322.155 75.3228 322.886 78.181 322.886 81.8677C322.886 84.8222 322.552 87.629 321.879 90.2752C321.205 92.9278 320.371 95.4455 319.371 97.8413C318.37 100.237 317.369 102.498 316.369 104.637C315.368 106.775 314.534 108.792 313.86 110.7C313.187 112.607 312.853 114.399 312.853 116.088C312.853 117.508 313.001 118.625 313.289 119.441C313.584 120.257 313.726 120.803 313.726 121.073C313.726 121.708 313.546 122.229 313.193 122.627C312.84 123.032 312.372 123.231 311.782 123.231H297.765C297.252 123.231 296.829 123.07 296.502 122.755C296.175 122.441 296.008 121.863 296.008 121.034C296.008 120.495 296.072 119.987 296.207 119.493C296.341 118.998 296.438 118.375 296.502 117.604C296.559 116.834 296.457 115.806 296.187 114.508L289.381 80.3969C289.016 78.515 288.592 77.1662 288.117 76.3505C287.643 75.5348 287.232 74.9118 286.892 74.4815C286.552 74.0511 286.379 73.5244 286.379 72.8886C286.379 72.4005 286.546 71.9958 286.873 71.6811C287.2 71.3664 287.598 71.2058 288.06 71.2058H302.917C304.065 71.2058 304.636 71.6361 304.636 72.4904C304.636 73.4923 304.052 74.064 302.878 74.2117C300.607 74.4301 299.19 74.9182 298.612 75.6761C298.041 76.434 297.913 77.7057 298.227 79.4848L298.259 79.472Z" fill="white"/>
<path d="M337.159 78.2581V92.1057C337.159 92.5681 337.39 92.7993 337.852 92.7993H348.321C349.739 92.7993 350.091 93.6407 349.379 95.3299L347.365 100.205C347.096 100.815 346.583 101.123 345.826 101.123C345.53 101.123 345.21 101.033 344.857 100.847C344.504 100.661 343.972 100.481 343.266 100.295C342.56 100.108 341.521 100.019 340.155 100.019H337.852C337.39 100.019 337.159 100.398 337.159 101.155V114.823C337.159 115.51 337.525 115.851 338.256 115.851H350.624C351.259 115.851 351.67 116.076 351.849 116.525C352.035 116.975 351.99 117.521 351.721 118.157L349.488 123.141C349.245 123.706 348.744 123.982 347.987 123.982C347.596 123.982 346.967 123.854 346.101 123.597C345.235 123.34 343.645 123.211 341.329 123.211H328.044C327.357 123.211 326.934 123.006 326.761 122.588C326.587 122.171 326.626 121.651 326.87 121.015L328.409 117.058C328.582 116.622 328.775 116.352 328.993 116.255C329.211 116.159 329.404 116.011 329.557 115.819C329.718 115.626 329.795 115.183 329.795 114.502V86.4729C329.795 84.1028 329.634 82.3494 329.32 81.2126C328.999 80.0757 328.679 79.2472 328.351 78.7205C328.024 78.1938 327.858 77.6864 327.858 77.1983C327.858 76.3955 328.262 75.7917 329.064 75.4063L338.429 70.57C339.648 69.9598 340.783 69.6515 341.836 69.6515C342.419 69.6515 342.932 69.6965 343.375 69.7799C343.811 69.8634 344.305 70.0433 344.838 70.313L350.656 73.351C351.291 73.6722 351.714 73.9805 351.939 74.2888C352.157 74.5971 352.266 74.9439 352.266 75.3357C352.266 75.7275 352.157 76.0743 351.939 76.3826C351.721 76.6909 351.291 76.9607 350.656 77.2047L347.506 78.3801C346.871 78.6242 346.287 78.7462 345.749 78.7462C345.043 78.7462 344.248 78.5021 343.369 78.014L340.989 76.6588C340.328 76.2927 339.808 76.1064 339.417 76.1064C338.711 76.1064 338.153 76.2606 337.749 76.5624C337.345 76.8707 337.146 77.4359 337.146 78.2645L337.159 78.2581Z" fill="white"/>
<path d="M356.885 117.945C356.885 116.898 357.109 115.896 357.565 114.939C358.014 113.988 358.463 113.076 358.899 112.209C359.335 111.342 359.56 110.533 359.56 109.775C359.56 109.094 359.464 108.619 359.265 108.362C359.072 108.105 358.681 107.976 358.091 107.976C357.501 107.976 357.045 107.79 356.647 107.411C356.243 107.032 356.044 106.474 356.044 105.741C356.044 105.105 356.275 104.572 356.737 104.148C357.199 103.718 357.918 103.506 358.899 103.506C360.362 103.506 361.516 103.924 362.357 104.752C363.197 105.581 363.62 106.827 363.62 108.49C363.62 109.396 363.601 110.141 363.569 110.725C363.531 111.31 363.511 112.068 363.511 112.999C363.511 113.879 363.851 114.688 364.538 115.433C365.218 116.178 366.077 116.776 367.097 117.225C368.124 117.675 369.124 117.906 370.099 117.906C372.832 117.906 374.199 116.634 374.199 114.097V98.0468C374.199 95.8502 373.576 94.2573 372.332 93.2618C371.087 92.2727 369.317 91.7781 367.027 91.7781C366.122 91.7781 365.295 91.8616 364.538 92.035C363.781 92.2084 362.754 92.5745 361.465 93.1333C360.926 93.3774 360.471 93.5701 360.092 93.6985C359.714 93.8334 359.29 93.8976 358.828 93.8976C357.757 93.8976 357.218 93.3967 357.218 92.3947C357.218 91.7588 357.353 91.1423 357.622 90.5449C357.892 89.9476 358.027 88.9778 358.027 87.629V80.6731C358.027 79.6454 357.924 78.8875 357.712 78.3994C357.501 77.9112 357.295 77.5323 357.09 77.2625C356.885 76.9928 356.782 76.7037 356.782 76.3826C356.782 75.3806 357.199 74.6741 358.027 74.2567L369.811 68.3926C370.42 68.0972 370.985 67.8788 371.491 67.7311C371.998 67.5833 372.563 67.5127 373.172 67.5127C374.295 67.5127 375.308 67.7182 376.206 68.1357L382.39 70.9168C383.025 71.2122 383.449 71.4948 383.673 71.7774C383.891 72.0601 384 72.3683 384 72.7152C384 73.107 383.891 73.4602 383.673 73.7749C383.455 74.0897 383 74.4236 382.32 74.7641L379.029 76.4468C377.932 77.012 376.861 77.0442 375.809 76.556L371.491 74.5778C370.69 74.186 369.843 73.9933 368.964 73.9933C367.938 73.9933 367.084 74.2824 366.404 74.854C365.718 75.4256 365.378 76.267 365.378 77.3653V86.9225C365.378 87.5583 365.66 87.873 366.218 87.873C366.533 87.873 366.809 87.7831 367.04 87.5968C367.27 87.4106 367.617 87.1023 368.085 86.6655C368.573 86.1774 369.041 85.8498 369.496 85.6764C369.945 85.503 370.478 85.4195 371.087 85.4195C371.889 85.4195 372.755 85.6122 373.685 86.004L381.152 89.2282C382.005 89.5943 382.435 90.3009 382.435 91.3542C382.435 92.1378 382.3 92.825 382.031 93.4223C381.762 94.0197 381.627 95.0409 381.627 96.4796V111.098C381.627 112.517 381.787 113.564 382.102 114.252C382.416 114.939 382.737 115.44 383.051 115.774C383.365 116.108 383.526 116.474 383.526 116.891C383.526 117.842 383.122 118.529 382.32 118.94L372.697 123.847C372.062 124.162 371.498 124.393 370.997 124.522C370.497 124.65 369.939 124.721 369.33 124.721C368.72 124.721 368.194 124.657 367.681 124.534C367.168 124.412 366.706 124.265 366.289 124.098L358.418 120.578C358.001 120.385 357.642 120.071 357.34 119.64C357.032 119.21 356.885 118.632 356.885 117.9V117.945Z" fill="white"/>
<path d="M192.889 67.776C194.473 67.776 195.801 67.8531 196.879 68.0137C197.95 68.1742 198.938 68.3477 199.843 68.5468C200.747 68.7395 201.709 68.9193 202.736 69.0799C203.762 69.2404 205.019 69.3175 206.508 69.3175C207.361 69.3175 207.791 69.7221 207.791 70.525C207.791 71.0131 207.707 71.527 207.534 72.0665C207.361 72.606 206.937 73.7428 206.251 75.477C205.077 78.3095 204.237 80.5831 203.724 82.2916C203.21 84.0001 202.954 85.3938 202.954 86.4664C202.954 87.2693 203.14 87.7959 203.505 88.04C203.871 88.2841 204.397 88.4061 205.077 88.4061C206.713 88.4061 207.528 89.2026 207.528 90.789C207.528 92.3754 206.501 93.2425 204.455 93.2425C202.409 93.2425 200.952 92.6645 200.029 91.5019C199.098 90.3394 198.637 88.6373 198.637 86.3894C198.637 84.3854 198.733 82.6705 198.932 81.2447C199.124 79.8188 199.227 78.3544 199.227 76.8643C199.227 75.3742 198.72 74.2374 197.706 73.4602C196.693 72.6766 194.967 72.2848 192.53 72.2848C189.335 72.2848 186.769 73.184 184.845 74.976C182.92 76.768 181.952 79.427 181.952 82.9467V116.108C181.952 119.698 182.683 122.331 184.145 124.001C185.608 125.678 187.674 126.513 190.329 126.513C192.401 126.513 194.101 125.954 195.416 124.843C196.731 123.732 197.392 122.139 197.392 120.064V117.277C197.392 115.054 197.322 107.938 197.193 106.91C197.059 105.883 196.84 105.221 196.533 104.913C196.225 104.611 195.833 104.457 195.346 104.457C194.781 104.457 194.319 104.637 193.954 104.99C193.588 105.343 193.19 105.703 192.767 106.069C192.337 106.435 191.747 106.621 190.99 106.621C190.06 106.621 189.354 106.332 188.867 105.761C188.379 105.189 188.135 104.482 188.135 103.654C188.135 102.556 188.54 101.682 189.341 101.033C190.143 100.385 191.439 100.064 193.222 100.064H206.764C207.887 100.064 208.445 100.468 208.445 101.271C208.445 101.811 208.329 102.286 208.099 102.697C207.868 103.114 207.605 103.705 207.309 104.476C207.014 105.247 206.751 106.403 206.52 107.938C206.29 109.479 206.174 117.116 206.174 119.878V120.539C206.174 122.466 206.36 123.937 206.739 124.939C207.117 125.941 207.496 126.718 207.874 127.264C208.252 127.817 208.438 128.382 208.438 128.966C208.438 130.013 207.874 130.54 206.758 130.54C205.565 130.54 204.622 130.354 203.942 129.987C203.255 129.621 202.415 129.435 201.414 129.435C200.709 129.435 199.92 129.564 199.054 129.82C198.188 130.077 197.065 130.334 195.686 130.591C194.307 130.848 192.472 130.977 190.175 130.977C186.371 130.977 183.113 130.174 180.406 128.562C177.698 126.949 175.62 124.156 174.164 120.173C172.714 116.191 171.989 102.575 171.989 95.5162C171.989 88.4575 172.823 82.8054 174.497 78.7912C176.165 74.7769 178.564 71.9316 181.689 70.2745C184.813 68.611 188.546 67.7825 192.889 67.7825V67.776Z" fill="white"/>
</g>
<defs>
<clipPath id="clip0_25_183">
<rect width="384" height="135" fill="white"/>
</clipPath>
</defs>
</svg>
