<svg width="102" height="129" viewBox="0 0 102 129" fill="none" xmlns="http://www.w3.org/2000/svg">
<path fill-rule="evenodd" clip-rule="evenodd" d="M58.7318 92.1582C58.31 92.3494 57.101 92.3494 56.6792 92.1582H58.7318Z" fill="#7C7B7B"/>
<path fill-rule="evenodd" clip-rule="evenodd" d="M45.9439 1.73795C32.1212 2.98638 23.6353 9.57152 16.4878 17.4951H16.3754C16.1392 17.3657 16.1335 17.3714 16.2629 17.6075C15.9311 17.7763 15.7287 18.1362 15.4643 18.063C15.5543 18.0855 15.5993 18.1586 15.5768 18.2936C15.037 18.7379 14.5421 19.2327 14.0922 19.7782V19.8907C9.60463 24.9575 6.92221 31.8238 4.9596 39.4156C4.86962 39.4381 4.82463 39.5112 4.84713 39.6461C4.72341 40.3997 4.46473 41.0127 4.39162 41.8168C4.386 41.963 4.24541 41.9743 4.27915 42.1599C3.87988 43.8919 3.59308 45.7364 3.25005 47.5247V47.7553C2.86202 50.6401 2.51899 53.57 2.45151 56.7754C2.26031 57.0116 2.26031 58.0238 2.45151 58.26C2.67082 59.4803 2.55835 60.4982 2.90701 61.6847C4.32976 66.5547 9.86331 67.5838 14.3228 69.3327C21.2678 72.0601 26.5033 76.4296 27.7967 84.5163V84.6287C27.9992 85.8378 28.1679 87.075 28.1398 88.509C24.5126 90.3647 26.7564 95.3415 27.6843 98.5582V100.729C26.5258 106.881 21.1778 108.838 20.3793 115.344C21.1666 116.267 22.0607 117.088 23.118 117.74C23.2079 117.993 23.5172 118.027 23.6916 118.196C31.3002 123.262 41.3551 125.877 53.3782 126.53C53.9911 126.794 55.0877 126.569 55.8919 126.642H56.921C57.6858 126.569 58.7486 126.794 59.3166 126.53C59.7384 126.49 60.3288 126.625 60.5706 126.417H60.8012C65.9355 126.147 70.4624 125.27 74.3876 123.791C74.6632 123.836 74.6351 123.583 74.9612 123.679V123.566C75.6361 123.403 76.0916 123.021 76.7889 122.88C78.7234 115.114 75.9622 108.304 73.8197 102.557C73.3192 101.218 72.4532 99.4692 72.4475 98.5582C72.4419 97.6191 73.1167 96.5506 73.3585 95.589C73.6397 94.4755 73.7072 93.4745 74.0446 92.3948V92.0518C75.7373 78.9771 80.5623 69.0347 93.4514 67.1621H95.3915C96.2632 64.5696 97.1348 61.9772 97.2192 58.5974C97.4835 57.9845 97.2585 56.8879 97.3316 56.0837C97.2585 55.5888 97.4778 54.7959 97.2192 54.4866C96.9492 51.2925 96.4094 48.3682 95.7346 45.579C95.7289 45.4327 95.5883 45.4215 95.6221 45.2359C92.6641 33.2409 86.4107 24.5357 78.954 17.0339C78.5434 16.5278 78.0879 16.0723 77.5818 15.6618C76.9126 15.1163 76.3671 14.4415 75.6417 13.9466C75.4224 13.6317 75.1581 13.3674 74.8432 13.1481C73.7578 12.1752 72.605 11.2755 71.5309 10.2913C71.4634 9.95955 71.424 9.27348 71.4184 9.4928C71.3734 9.8752 70.7717 9.13289 71.0754 9.4928C71.1091 9.72336 71.3847 9.71774 71.4184 9.9483C71.2666 9.91456 71.1991 9.78522 70.9629 9.83583C65.5475 5.65755 59.5584 2.05849 50.2965 1.73233C49.4586 1.46802 48.1258 1.69297 47.1023 1.61986C46.7536 1.69297 46.1182 1.47365 45.9607 1.73233L45.9439 1.73795Z" fill="#6DDE00"/>
<path fill-rule="evenodd" clip-rule="evenodd" d="M78.7124 16.1222C78.4481 16.1559 78.4481 16.4315 78.7124 16.4652C79.4378 16.229 78.763 16.0378 78.7124 15.8916C78.5718 15.9141 78.6449 16.0209 78.7124 16.1222Z" fill="white"/>
<path fill-rule="evenodd" clip-rule="evenodd" d="M15.5773 18.2932C15.5942 18.1582 15.5548 18.0907 15.4648 18.0626C15.7291 18.1357 15.9316 17.7758 16.2634 17.6071C16.134 17.3709 16.1397 17.3653 16.3759 17.4946C16.2184 17.832 15.8472 17.9558 15.6898 18.2932H15.5773Z" fill="white"/>
<path fill-rule="evenodd" clip-rule="evenodd" d="M14.0923 19.7773C14.5365 19.2374 15.0314 18.7426 15.5769 18.2927H15.6894C15.8468 17.9553 16.218 17.8316 16.3754 17.4941H16.4879C16.2292 17.8484 15.9256 18.1521 15.5769 18.4052C15.0145 18.7932 14.6546 19.3836 14.0923 19.7773Z" fill="#E9E8E8"/>
<path fill-rule="evenodd" clip-rule="evenodd" d="M77.5708 15.667C78.0769 16.0775 78.5324 16.533 78.9429 17.0391C78.4368 16.6286 77.9813 16.1731 77.5708 15.667Z" fill="#606161"/>
<path fill-rule="evenodd" clip-rule="evenodd" d="M70.9461 9.84695C71.1822 9.79634 71.2497 9.92568 71.4016 9.95942C71.3678 9.72885 71.0923 9.73448 71.0585 9.50391C70.7548 9.14401 71.3566 9.88631 71.4016 9.50391C71.4016 9.2846 71.4522 9.97066 71.514 10.3025C71.3116 10.2012 71.1822 10.0269 70.9404 9.95942V9.84695H70.9461Z" fill="white"/>
<path fill-rule="evenodd" clip-rule="evenodd" d="M55.7012 127.485L55.5381 127.418C55.4818 127.396 55.3356 127.356 54.9645 127.356C54.7789 127.356 54.5877 127.367 54.3965 127.373C54.1828 127.384 53.9635 127.39 53.7554 127.39C53.5923 127.39 53.4349 127.39 53.283 127.367C46.9847 127.024 41.2993 126.136 36.2494 124.707L35.4958 125.298V124.488C30.8227 123.094 26.7119 121.227 23.2084 118.893L22.8541 118.657V118.567L22.6573 118.448C21.5832 117.779 20.6216 116.941 19.7218 115.879L19.48 115.597L19.525 115.232C19.9693 111.622 21.7182 109.338 23.4052 107.128C24.9067 105.171 26.3239 103.316 26.8412 100.566L26.8581 100.481L26.8918 100.403C26.9931 100.138 26.9931 99.1429 26.8918 98.8786L26.8637 98.7886C26.74 98.3669 26.5938 97.9114 26.4476 97.439C25.4466 94.3067 24.0857 90.0665 27.2911 88.0196C27.2799 86.9118 27.1505 85.8995 26.9593 84.7636L26.7681 83.6051C25.4353 77.3011 21.3527 72.9991 14.014 70.1143C13.2604 69.8162 12.4844 69.5463 11.6633 69.2595C7.78872 67.9042 3.39674 66.3634 2.09771 61.9152C1.87277 61.1391 1.81653 60.4362 1.77154 59.7614C1.7378 59.3002 1.70406 58.8672 1.61971 58.4005L1.60846 58.3274V57.6244L1.40039 57.8437L1.60846 56.7921V56.764C1.65907 54.2784 1.87839 51.9447 2.1427 49.7571L1.91776 49.9708L2.42387 47.3559C2.54197 46.7485 2.64881 46.1356 2.76128 45.517C2.96936 44.336 3.18867 43.1157 3.4586 41.9573L3.60481 41.3274C3.66105 40.9675 3.7454 40.647 3.82975 40.3321C3.90286 40.0509 3.97597 39.781 4.02095 39.4998L4.17279 38.5494L4.30775 38.5888C6.61902 29.8948 9.53763 23.7652 13.4685 19.3226L13.5135 19.272L13.5641 19.2326C14.0646 18.8221 14.5257 18.361 14.9362 17.8605L15.0037 17.7761L15.0881 17.7143C15.3692 17.5118 15.611 17.2644 15.8135 16.9888L15.8416 16.9551L15.8697 16.9213C22.3424 9.75135 30.9689 2.23832 45.8769 0.888672H45.95H50.2857C59.9076 1.23171 66.1497 5.07258 71.4639 9.17213L71.7901 9.42518V9.46455C71.7901 9.46455 71.8013 9.47017 71.8069 9.47579C71.835 9.49829 71.8688 9.52641 71.9025 9.54328L71.9981 9.59389L72.0881 9.67262C72.6448 10.1844 73.2409 10.6849 73.8201 11.1685C74.3488 11.6127 74.8774 12.057 75.3947 12.5181L75.5747 12.6756L75.6422 12.9061L76.7106 13.2211L76.5082 13.5416C76.8287 13.8003 77.1099 14.0702 77.3855 14.3401C77.6329 14.5763 77.8635 14.8013 78.1053 15.0037L78.1728 15.06L78.229 15.1274C78.6001 15.5829 79.0163 16.0047 79.4774 16.3702L79.5112 16.3984L79.5449 16.4321C88.3401 25.2723 93.6824 34.2306 96.3199 44.5778H96.3536L96.4492 44.9715L98.7042 46.3268L97.4446 46.3155L98.1981 47.1759L96.8654 46.7373C97.4502 49.386 97.8438 51.9053 98.0519 54.3965V54.4696V58.5804C97.9676 62.1176 97.0566 64.8113 96.1793 67.415L95.9881 67.9886H94.6272L94.481 67.8705C94.4247 67.8592 94.3235 67.848 94.1886 67.848C94.0536 67.848 93.9467 67.8592 93.8905 67.8705L93.7949 67.9492L93.5643 67.983C82.7503 69.5519 76.9918 76.8175 74.9561 91.5062H75.1923L75.1192 91.7367L75.451 91.8323L74.8999 92.4397C74.8999 92.4397 74.8043 92.7546 74.7874 92.8165V92.8558H74.7761C74.6412 93.3451 74.5568 93.8231 74.4669 94.3292C74.3825 94.7903 74.2981 95.2683 74.1688 95.78C74.062 96.2074 73.8933 96.6236 73.7246 97.0285C73.5052 97.5683 73.2803 98.1251 73.2803 98.5356C73.2803 99.0248 73.747 100.144 74.1126 101.038C74.2869 101.454 74.4556 101.865 74.5962 102.241L74.8605 102.956C76.93 108.484 79.5055 115.361 77.5879 123.065L77.4586 123.583L76.9356 123.69C76.6713 123.74 76.4351 123.853 76.1652 123.976C75.8727 124.111 75.5409 124.269 75.1361 124.364V124.387L74.6637 124.561C70.6654 126.063 66.0091 126.968 60.8242 127.238H60.7623C60.5093 127.345 60.245 127.362 60.0256 127.362C59.9244 127.362 59.8232 127.362 59.7163 127.356C59.6376 127.356 59.5533 127.351 59.4745 127.351C59.4352 127.351 59.334 127.356 59.334 127.356H57.8044L57.8156 127.469H55.7012V127.485ZM52.8613 122.486L52.9288 122.497C53.4461 122.582 54.1884 122.627 54.9645 122.627C55.7405 122.627 56.4772 122.582 57.0002 122.497L57.0677 122.486H57.8831C57.9787 122.475 58.0799 122.469 58.1867 122.469C58.333 122.469 58.4848 122.481 58.6366 122.486C58.7547 122.492 58.8728 122.503 58.9797 122.503C59.019 122.503 59.0471 122.503 59.064 122.503L59.2046 122.385L59.497 122.374C64.0465 122.205 68.3991 121.468 73.1509 120.051C73.9101 114.096 72.1162 109.738 70.3786 105.514C69.7825 104.075 69.1695 102.59 68.669 101.055C68.2641 101.134 67.8536 101.173 67.4262 101.173C66.1497 101.173 64.9743 100.824 63.8384 100.481C62.8599 100.189 61.932 99.9133 60.9591 99.8515H60.9085L60.8579 99.8402C60.4362 99.7615 59.8063 99.7109 59.1315 99.7109C58.4567 99.7109 57.8268 99.7559 57.4051 99.8402L57.3263 99.8571H57.2476C55.7349 99.8627 54.2896 99.9752 52.8894 100.088C52.3833 100.127 51.8772 100.166 51.3654 100.2H51.3092H47.1646H47.1309C44.5666 100.003 42.469 99.3397 40.8832 98.2207C40.6695 98.3781 40.4502 98.5468 40.2252 98.7268C39.213 99.5253 38.0658 100.431 36.5024 100.431C36.435 100.431 36.3731 100.431 36.3056 100.431C35.8557 100.408 35.4565 100.223 35.1022 100.06C34.911 99.9696 34.7085 99.874 34.5623 99.8402C34.045 99.7221 33.4826 99.6828 32.8865 99.6434C32.4929 99.6153 32.088 99.5872 31.6775 99.5366C31.4525 100.83 31.1882 101.977 30.8789 103.023V103.046L30.9014 103.13L30.8452 103.147L30.6483 103.81L30.5977 103.794C29.5518 107.027 28.0053 109.732 26.5094 112.353C26.1158 113.039 25.7165 113.742 25.3285 114.45C31.0307 119.067 39.2242 121.66 50.3419 122.374L50.595 122.391L50.7356 122.497C50.7356 122.497 50.8087 122.503 50.8818 122.503C50.9999 122.503 51.1292 122.497 51.2529 122.486C51.416 122.475 51.5735 122.469 51.7253 122.469C51.8378 122.469 51.9446 122.469 52.0459 122.486H52.8613ZM62.2019 96.6967C62.9611 97.1297 63.6641 97.4558 64.6875 97.4783L65.4636 97.4952V97.5233L65.9585 97.4783C68.3428 97.259 69.5856 96.0725 69.8331 93.7612C68.5397 93.3394 67.0607 93.0583 65.621 92.7827L64.9968 92.6646L64.8562 92.6534L63.3266 93.6544L63.799 92.4903C63.4391 92.4172 63.0848 92.3328 62.7531 92.2541C62.4888 92.1922 62.2244 92.1304 61.9826 92.0798C61.9826 92.2485 61.977 92.4003 61.9658 92.5409C61.9658 92.614 61.9545 92.7152 61.9489 92.794L62.1288 92.957L62.0726 93.3957C62.0389 93.6487 62.0726 93.8343 62.1176 94.0874C62.157 94.3179 62.2019 94.5766 62.1963 94.9028V96.6911L62.2019 96.6967ZM53.9916 97.0734C54.1209 97.1184 54.4583 97.1691 54.9082 97.1691C55.3581 97.1691 55.6955 97.1184 55.8249 97.0734L55.9261 97.0397L56.0329 97.0285C56.1117 97.0228 56.2016 97.0172 56.286 97.0172C56.3872 97.0172 56.4941 97.0172 56.5953 97.0285C56.674 97.0285 56.7584 97.0341 56.8371 97.0341C56.8652 97.0341 56.8877 97.0341 56.9102 97.0341L58.6929 95.4989C58.6929 95.4258 58.6929 95.3527 58.6929 95.2739L58.6816 94.9928L58.8053 94.8184C58.8447 94.6441 58.8447 94.2448 58.8053 94.0705L58.6535 93.8512L58.7041 93.5138C58.7379 93.3113 58.7041 93.2045 58.6366 93.002H56.6796C56.2691 92.9964 55.9036 92.9627 55.5493 92.9345C55.1782 92.9008 54.8295 92.8727 54.4527 92.8727C54.3065 92.8727 54.1547 92.8727 53.9972 92.8896L53.6204 92.9177L53.463 92.7658C53.4124 92.7602 53.3449 92.7546 53.2493 92.7546C53.1537 92.7546 53.0862 92.7602 53.0356 92.7658L52.9006 92.8952H52.2652C52.2652 92.8952 52.2652 92.9345 52.2652 92.957V93.7106L52.1527 93.7275C52.164 94.8747 52.1527 95.87 51.9671 96.7304C52.4451 96.9216 52.9288 97.0341 53.5248 97.0341H53.8341L53.986 97.0791L53.9916 97.0734ZM43.0707 92.7546C43.2169 93.4463 43.1101 94.0817 43.0201 94.6216C42.9245 95.2008 42.8739 95.572 43.0313 95.8757C43.2169 96.2187 44.3641 96.8091 45.247 96.9216C45.4101 96.9441 45.5732 96.9497 45.7306 96.9497C47.3333 96.9497 48.6043 95.9544 48.7505 94.5822L48.7842 94.2954L48.8798 94.1998C48.8967 94.0817 48.8967 93.8962 48.8798 93.7781L48.773 93.6656L48.7505 93.3619C48.7055 92.6815 48.4243 92.2091 48.0981 91.6692C48.0644 91.613 48.0307 91.5568 47.9969 91.5005C47.9463 91.5005 47.8901 91.4949 47.8226 91.4949C47.682 91.4949 47.5864 91.5062 47.5302 91.5174L47.384 91.6355H47.0915C46.0737 91.6468 45.2358 91.8155 44.5103 92.0741L44.2854 92.2372V92.1585C43.8411 92.3328 43.4419 92.5409 43.0651 92.7602L43.0707 92.7546ZM30.3559 95.1896C31.3175 95.8194 32.6334 96.1962 34.3711 96.3424L34.4723 96.3536L34.5679 96.3874C34.7198 96.438 35.0797 96.4886 35.5577 96.4886C36.0357 96.4886 36.4012 96.438 36.5474 96.3874L36.6262 96.3593L36.7105 96.348C39.1511 96.0556 39.6122 95.049 39.7416 94.1042L39.7866 93.7837L39.8709 93.7106C39.8766 93.6375 39.8766 93.5475 39.8709 93.4688L39.8091 93.4125L39.7528 93.1257C39.6572 92.659 39.3761 92.3497 39.0162 91.9561C38.8081 91.7255 38.5775 91.4781 38.3807 91.18H36.8567L36.7836 91.1688C36.3225 91.0844 35.6477 91.0394 34.9335 91.0394C34.2193 91.0394 33.5445 91.0844 33.0833 91.1688L33.0102 91.18H31.3063C31.3063 91.18 31.2838 91.2081 31.2726 91.225C31.1095 91.4218 31.0476 91.5062 31.0307 91.6186L30.9351 92.2035L30.7102 92.2429L30.6933 92.2653C30.5809 92.524 30.5303 92.9514 30.4853 93.3676L30.4571 93.6206L30.4178 93.7162C30.3222 93.9693 30.3053 94.7566 30.3672 95.184L30.3559 95.1896ZM58.6816 95.6395L58.541 96.2862C58.6085 96.0893 58.6591 95.8813 58.6816 95.6395ZM63.4447 88.7956C65.3455 89.4311 67.5893 89.8079 70.1367 89.926C70.4629 88.7281 70.3561 86.968 69.8443 85.8433C69.6587 85.4328 69.4282 85.1516 69.2314 85.0953C69.1245 85.0672 69.012 85.0504 68.8771 85.0504C68.4216 85.0504 67.8761 85.2303 67.3025 85.4215C66.8695 85.5677 66.4196 85.7139 65.9641 85.7983L65.8404 85.8883C64.6819 86.7037 63.9059 87.6428 63.4447 88.7956ZM53.4292 89.268C53.9129 89.2793 54.3965 89.2849 54.8689 89.2849C56.1004 89.2849 57.5625 89.2343 58.7828 88.925L58.631 88.7225L59.677 88.6213C59.7332 88.5988 59.7895 88.5707 59.8401 88.5482L60.1437 88.402C60.155 87.9465 60.2168 87.5584 60.2787 87.2042C60.3349 86.8724 60.3855 86.5575 60.3912 86.2144V86.0176L60.4811 85.8433C60.5261 85.7252 60.5543 85.3372 60.5318 85.1235C60.1381 84.8367 59.7782 84.6961 59.4296 84.6961C58.7547 84.6961 58.0349 85.2191 57.2757 85.7702C56.3366 86.4506 55.2738 87.2267 53.9522 87.2267C53.7892 87.2267 53.6317 87.2154 53.4686 87.1929C53.2718 87.7159 52.9344 88.1208 52.6588 88.447C52.327 88.8462 52.1864 89.0487 52.1696 89.2343L52.2258 89.2792C52.2258 89.2792 52.2764 89.2792 52.3158 89.2792C52.4226 89.2792 52.5407 89.2736 52.6588 89.2624C52.8107 89.2511 52.9681 89.2455 53.1087 89.2455C53.2212 89.2455 53.328 89.2455 53.4236 89.2624L53.4292 89.268ZM41.7998 87.9633C42.7389 88.1545 43.7006 88.2502 44.6116 88.2502C46.7935 88.2502 48.548 87.6934 49.5546 86.6868C50.1451 86.0963 50.4825 85.3372 50.5612 84.4261C50.072 84.1393 49.6727 83.9144 49.0879 83.875L48.936 83.8638L48.7955 83.8019C48.7392 83.7794 48.4918 83.7345 48.115 83.7345C47.7382 83.7345 47.4908 83.7795 47.4289 83.8076L47.3333 83.8413L47.1928 83.8694C45.6969 84.0606 44.5778 84.6455 43.3913 85.2697C43.0257 85.4609 42.649 85.6577 42.2553 85.8489C42.2441 86.4787 42.0978 86.9567 41.9685 87.3616C41.901 87.5753 41.8392 87.7665 41.8054 87.969L41.7998 87.9633ZM35.9738 82.5816C35.7264 82.5816 35.5015 82.5929 35.3103 82.6154C34.0787 82.7616 32.6784 83.4814 32.1948 84.0437C31.6999 84.6117 31.1432 85.9051 31.3457 86.7093C31.5762 87.6091 33.2239 87.7384 34.1855 87.7384C35.6814 87.7384 37.2616 87.446 38.1782 87.2379C38.2176 87.1029 38.257 86.9736 38.2963 86.8386C38.5382 86.0289 38.7687 85.2641 38.7069 84.2293L38.6844 83.9032L38.825 83.7288C38.8531 83.5882 38.8531 83.3183 38.825 83.1609C38.4932 82.9022 37.3347 82.5816 35.9682 82.5816H35.9738ZM59.2608 80.8833C59.5027 80.8833 59.7557 80.9058 60.0032 80.9452C60.9254 81.0914 61.6565 81.6875 62.3032 82.2161C62.8655 82.6716 63.3941 83.1046 63.8721 83.1046C64.547 83.1046 65.2387 82.7054 65.9697 82.278C66.8526 81.7662 67.8592 81.1814 69.057 81.1814C69.5238 81.1814 69.9905 81.2714 70.4517 81.4457C70.491 81.4626 70.5304 81.4794 70.5641 81.4963C74.0957 72.4199 81.4681 65.9979 93.0526 61.8814V58.2993C93.0245 58.0012 93.0414 57.6863 93.0526 57.3882C93.0639 57.1408 93.0864 56.7303 93.0414 56.6066L92.9401 56.4379V56.2579C92.0797 42.7671 87.6765 32.0711 79.4718 23.5684C78.9038 22.916 78.319 22.3199 77.706 21.7688H77.5429L77.2955 21.5045C74.405 18.4116 70.7272 15.6448 66.0597 13.0467L65.4748 12.7937C65.0475 12.6081 64.6426 12.4225 64.2433 12.2426C63.5179 11.9108 62.8262 11.5959 62.0895 11.3259C61.6002 11.146 61.0547 11.0166 60.4811 10.8817C59.7051 10.6961 58.9009 10.5049 58.1474 10.1619C57.4726 9.85257 56.9383 9.3802 56.4266 8.92469C56.0554 8.5929 55.7012 8.28361 55.3356 8.06991C53.2774 6.87773 49.7515 6.02295 46.3661 5.89924L46.0399 5.88799L45.9162 5.76989H45.8881C45.7869 5.76989 45.68 5.77552 45.5732 5.78676C45.427 5.79801 45.2808 5.80363 45.1458 5.80363C45.0671 5.80363 44.9883 5.80363 44.9152 5.79239C44.8477 5.79801 44.7803 5.80363 44.7128 5.80363C44.5891 5.80363 44.4597 5.79239 44.3304 5.78676C44.2798 5.78676 44.2292 5.78114 44.1785 5.77552L44.0717 5.91611L43.6331 5.89924C43.5262 5.89924 43.425 5.89924 43.3238 5.89924C42.1878 5.89924 41.2599 6.11293 40.2758 6.34349C39.9946 6.41097 39.7078 6.47283 39.4154 6.53469L39.4267 6.56843L38.4875 6.79337C36.9804 7.15328 35.6814 7.70438 34.3261 8.29485V8.3286L33.8762 8.55354C33.0833 8.95281 32.3017 9.3802 31.5369 9.82445L31.8743 10.2181L30.952 10.1731C24.9967 13.7722 19.9187 18.7602 15.8247 25.0417C11.6971 31.3682 9.099 39.4717 7.38945 51.3036L7.30509 51.8997L7.23761 51.9109C6.70338 55.4425 6.72025 59.5589 8.29483 61.0042L8.47479 61.0323C10.0719 61.2966 11.7196 61.5665 13.1985 62.0164L14.0365 62.2695L14.014 62.3257C19.6993 64.322 23.5627 68.2023 26.4982 72.5999L26.875 72.6561L26.7344 72.9542C28.1909 75.1923 29.4224 77.5486 30.5415 79.8598C31.7618 79.2019 33.2914 78.8532 35.0291 78.8532C37.7902 78.8532 40.7651 79.7305 42.6714 81.0745C43.8636 80.3603 45.3257 79.9836 46.9397 79.9836C49.8021 79.9836 52.9512 81.1533 54.8689 82.8853C55.1219 82.7222 55.375 82.5423 55.6393 82.3567C56.6178 81.6594 57.7312 80.8721 59.2608 80.8721V80.8833Z" fill="#010101"/>
<path d="M46.3266 1.73767C46.5797 1.73767 46.8327 1.73767 47.0858 1.73767H50.2799C59.5419 2.06946 65.5309 5.66851 70.9464 9.84117V9.95364C71.1826 10.0211 71.3175 10.1955 71.52 10.2967C72.5941 11.2752 73.7469 12.1806 74.8323 13.1534C74.9166 13.4459 75.1078 13.6371 75.4058 13.727C75.3215 13.862 75.3046 14.0419 75.209 14.0419C75.1753 14.0419 75.1303 14.0195 75.0628 13.952C75.0909 14.0982 75.1472 14.1432 75.2147 14.1432C75.3327 14.1432 75.4902 13.997 75.6308 13.952C76.3618 14.4412 76.9017 15.116 77.5709 15.6671C77.9814 16.1733 78.4369 16.6288 78.9431 17.0393C86.3998 24.5354 92.6532 33.2463 95.6112 45.2413C95.5043 45.2638 95.4931 45.3819 95.5437 45.4381C95.5156 45.4268 95.4931 45.4268 95.4706 45.4268C95.285 45.4268 95.2007 45.6743 95.4987 45.9273C95.6449 45.8205 95.2175 45.6968 95.7293 45.5843C96.4041 48.3736 96.944 51.2978 97.2139 54.492V58.6028C97.1295 61.9825 96.2579 64.5749 95.3862 67.1674H94.9307C94.8126 67.0718 94.5033 67.0268 94.1884 67.0268C93.8735 67.0268 93.5642 67.0718 93.4461 67.1674C80.5514 69.04 75.732 78.9824 74.0393 92.0571C73.8819 92.0571 73.7413 91.7141 73.6007 91.7141C73.5557 91.7141 73.5163 91.7478 73.4714 91.8266C73.7919 91.8772 73.3589 92.1134 73.9269 92.2821C73.5894 92.642 73.5051 92.2483 73.4714 92.7376C73.5332 92.7882 73.5726 92.805 73.6007 92.805C73.7244 92.805 73.6063 92.4058 74.045 92.3945C73.7076 93.4799 73.6401 94.4752 73.3589 95.5887C73.1171 96.5503 72.4366 97.6188 72.4479 98.5579C72.4535 99.4633 73.3195 101.218 73.82 102.556C75.9626 108.303 78.7237 115.114 76.7892 122.88C76.0919 123.02 75.6364 123.403 74.9616 123.566C74.8885 123.481 74.866 123.436 74.8716 123.408C74.8997 123.391 74.9222 123.375 74.9503 123.352C74.9953 123.33 75.0459 123.296 75.0741 123.223C75.0291 123.279 74.9897 123.318 74.9503 123.352C74.911 123.375 74.8772 123.38 74.8716 123.408C74.8097 123.442 74.7591 123.453 74.7085 123.453C74.6467 123.453 74.5961 123.436 74.5567 123.436C74.4836 123.436 74.433 123.493 74.388 123.791C70.4628 125.27 65.9358 126.147 60.8016 126.417C60.8522 126.265 60.9196 126.237 60.9815 126.237C61.0209 126.237 61.0546 126.248 61.0771 126.248C61.1165 126.248 61.1221 126.209 61.049 126.012C61.0827 125.995 61.1165 125.973 61.1502 125.956C61.4201 125.967 61.3077 126.158 61.8307 126.304C61.4876 125.905 61.7519 126.068 61.9431 125.961C61.8813 125.843 61.7857 125.793 61.662 125.793C61.5157 125.793 61.3358 125.86 61.1502 125.956C61.1446 125.956 61.1333 125.956 61.1277 125.956C61.0996 125.956 61.0659 125.956 61.0321 125.956C61.0377 125.973 61.0434 125.989 61.049 126.006C60.8859 126.096 60.7228 126.203 60.5766 126.299C60.8297 126.13 60.7959 126.051 60.706 126.051C60.5991 126.051 60.4135 126.175 60.5766 126.411C60.4585 126.512 60.2673 126.535 60.0536 126.535C59.8737 126.535 59.6825 126.518 59.5025 126.518C59.4407 126.518 59.3788 126.518 59.3226 126.524H57.6074C57.6917 126.136 57.8211 126.074 57.9279 126.074C57.9842 126.074 58.0292 126.091 58.0629 126.091C58.1135 126.091 58.1248 126.051 58.0629 125.838C58.0292 125.804 57.9954 125.793 57.9673 125.793C57.7986 125.793 57.6636 126.198 57.4949 126.524C57.4724 126.535 57.4387 126.535 57.4049 126.535C57.3037 126.535 57.18 126.507 57.0788 126.507C56.9776 126.507 56.9157 126.535 56.9213 126.636H55.8922C55.6504 126.529 55.3299 126.501 54.9812 126.501C54.5932 126.501 54.1658 126.535 53.7778 126.535C53.6428 126.535 53.5078 126.535 53.3785 126.518C41.361 125.866 31.3005 123.251 23.6919 118.184C23.6694 117.785 23.4276 117.61 23.1183 117.498C22.6684 117.56 23.5682 117.667 23.1183 117.729C22.0611 117.071 21.1669 116.255 20.3797 115.333C21.1782 108.826 26.5318 106.869 27.6846 100.717C27.8758 100.256 27.8758 99.0078 27.6846 98.5467C26.7567 95.33 24.5129 90.3532 28.1401 88.4974C28.1682 87.0634 27.9995 85.8206 27.7971 84.6172C27.8083 84.6172 27.8196 84.6172 27.8308 84.6172C27.8983 84.6172 27.9039 84.561 27.9096 84.4991C27.9264 84.6959 27.9602 84.7747 27.9995 84.7747C28.0895 84.7747 28.2188 84.4316 28.3651 84.1561C27.7184 84.1954 28.3369 84.2517 27.7915 84.4991C26.5037 76.4125 21.2682 72.043 14.3175 69.3156C9.85804 67.561 4.32449 66.5376 2.90174 61.6676C2.55308 60.481 2.66555 59.4632 2.44623 58.2429V56.7582C2.51371 53.5528 2.85675 50.623 3.24477 47.7381C3.35724 47.7381 3.33475 47.5975 3.35724 47.5075C3.40785 47.4176 3.46409 47.3895 3.52033 47.3895C3.65529 47.3895 3.78463 47.5807 3.86336 47.5807C3.89148 47.5807 3.91397 47.5582 3.92522 47.5075C3.93084 47.3276 3.85211 47.2432 3.7284 47.2432C3.59905 47.2432 3.4191 47.3388 3.23915 47.5075C3.58218 45.7193 3.86336 43.8691 4.26826 42.1427C4.57193 42.317 4.83623 42.542 4.52131 42.8063C5.13428 42.3058 4.52694 42.3845 4.38072 41.7997C4.45383 40.9955 4.71814 40.3825 4.83623 39.629C4.90934 39.6515 4.98244 39.6627 5.06117 39.6627C5.40983 39.6627 5.74724 39.449 5.75287 39.1735C5.56167 39.2522 5.5448 39.4209 5.19051 39.4209C5.12303 39.4209 5.04992 39.4209 4.95432 39.404C6.91693 31.8179 9.60498 24.946 14.0869 19.8792C14.6268 19.4349 15.1217 18.94 15.5715 18.3946C15.9258 18.1359 16.2295 17.8322 16.4826 17.4835C23.6301 9.56 32.116 2.97485 45.9386 1.72642C46.0679 1.72642 46.1916 1.72642 46.321 1.72642M45.1457 4.93746C45.0613 4.93746 44.9826 4.93746 44.9095 4.92059C44.8476 4.93183 44.7801 4.93746 44.7127 4.93746C44.5102 4.93746 44.274 4.90372 44.0716 4.90372C43.886 4.90372 43.7342 4.93183 43.6554 5.03868C43.543 5.03868 43.4305 5.03306 43.318 5.03306C41.4116 5.03306 40.0564 5.58979 38.4031 5.83722C38.3468 5.83722 38.3131 5.31423 38.1669 5.31423C38.1387 5.31423 38.105 5.33673 38.0656 5.38171C38.2568 5.51668 38.2231 5.5448 38.1331 5.5448C38.0656 5.5448 37.9588 5.52793 37.9026 5.52793C37.8463 5.52793 37.8407 5.5448 37.9475 5.61228C38.1106 5.67414 38.2287 5.79223 38.2906 5.95532C36.5754 6.37146 35.0964 7.02378 33.6118 7.67049C33.5106 7.46804 33.2294 7.31621 33.6118 7.21498C33.6399 7.30496 33.6118 7.43993 33.7243 7.44555C33.7524 7.35558 33.7243 7.22061 33.8368 7.21498C33.848 7.29934 33.8761 7.33308 33.8986 7.33308C33.9717 7.33308 34.0617 7.10252 34.0336 7.10252C34.0223 7.10252 33.9998 7.13626 33.9492 7.22061H33.938C33.7524 7.22061 33.5949 7.0744 33.4712 7.0744C33.4375 7.0744 33.4094 7.08564 33.3812 7.10814C33.713 7.17 33.2069 7.28809 33.2688 7.45117C33.415 7.49616 33.505 7.59738 33.4993 7.79421C25.7951 11.6913 19.6992 17.551 15.116 24.5748C10.4035 31.801 8.06413 40.7031 6.55141 51.1741C6.10715 51.2584 6.41082 51.191 6.20837 51.5171C6.18025 51.444 6.10715 51.4159 6.02842 51.4159C5.85409 51.4159 5.65164 51.5621 5.86534 51.6352C5.86534 51.5734 5.92157 51.5396 5.97781 51.5396C6.02842 51.5396 6.07903 51.5677 6.0959 51.6352C6.03404 51.6352 5.96656 51.7252 6.0959 51.7477C6.12402 51.5846 6.34896 51.6183 6.43893 51.5171C5.88221 54.9925 5.69101 60.0818 7.92355 61.7913C9.65559 62.0781 11.3989 62.348 12.9454 62.8204C12.8666 63.0453 12.5967 63.0791 12.4898 63.2759C12.5292 63.1747 12.4561 63.141 12.3718 63.141C12.2087 63.141 11.9894 63.2534 12.2649 63.2759C12.7035 63.3209 12.7148 63.3434 13.0634 63.6189C13.0803 63.5346 13.1647 63.4334 13.2265 63.4334C13.2546 63.4334 13.2771 63.4559 13.2884 63.5009C13.294 63.5627 13.3053 63.6189 13.3671 63.6189C13.3784 63.6189 13.3896 63.6189 13.4009 63.6189C13.2715 63.259 13.3446 63.3153 13.5133 63.051C22.1454 65.9865 26.4531 73.2464 30.1815 81.0913C31.4524 80.1128 33.2013 79.7022 35.0177 79.7022C37.9082 79.7022 40.9786 80.7313 42.6263 82.1147C43.8522 81.2037 45.3706 80.8326 46.9283 80.8326C49.965 80.8326 53.1704 82.2553 54.7281 83.9424C56.2634 83.1494 57.3993 81.7211 59.2551 81.7211C59.4519 81.7211 59.6544 81.738 59.8681 81.7717C61.347 82.0079 62.3874 83.9367 63.8664 83.9424C63.8664 83.9424 63.872 83.9424 63.8776 83.9424C65.694 83.9424 67.1393 82.0191 69.0569 82.0191C69.4055 82.0191 69.7655 82.081 70.1479 82.2272C70.3615 82.3116 70.5752 82.6602 70.8339 82.6602C70.907 82.6602 70.9801 82.6321 71.0589 82.5702C74.8379 72.043 83.2507 66.1439 93.8904 62.4774V58.2541C93.8173 57.6074 94.0422 56.657 93.7779 56.2015C92.8444 41.496 87.7551 30.9406 80.079 22.9777C79.4435 22.2467 78.7575 21.5606 78.0264 20.9251H77.9139C74.6017 17.3879 70.5752 14.5649 66.1551 12.1356C66.1664 12.0681 66.1833 12.0512 66.2114 12.0512C66.2451 12.0512 66.2901 12.085 66.3295 12.085C66.352 12.085 66.3745 12.0681 66.3857 12.0231C66.3182 12.0175 66.2508 12.0062 66.2732 11.9106C66.2957 11.9163 66.3126 11.9219 66.3239 11.9219C66.4307 11.9219 65.9864 11.6295 65.9752 11.6295C65.9752 11.6295 65.9921 11.6463 66.0427 11.6801C66.0427 11.8375 66.0989 11.9331 66.1551 12.0231C66.1383 12.0231 66.1214 12.0231 66.1045 12.0231C65.9302 12.0231 65.919 11.86 65.8121 11.7925V12.0231C64.6031 11.5001 63.5627 10.9715 62.3874 10.5385C61.1615 10.083 59.7106 9.94802 58.5072 9.39691C57.4837 8.93016 56.7414 7.90668 55.7685 7.34433C53.446 6.00031 49.712 5.18489 46.4053 5.06117C46.2985 4.95433 46.1129 4.92621 45.8992 4.92621C45.663 4.92621 45.3931 4.95995 45.1569 4.95995M29.9678 9.28444C29.9678 9.28444 29.9621 9.28444 29.9565 9.28444C29.7991 9.28444 29.5348 9.43066 29.5516 9.43066C29.5516 9.43066 29.5797 9.41941 29.6247 9.39691C29.636 9.39691 29.6416 9.39691 29.6528 9.39691C29.7653 9.39691 29.8497 9.62748 29.9115 9.62748C29.934 9.62748 29.9509 9.59936 29.9678 9.51501C29.7934 9.38004 29.8778 9.35755 30.0015 9.35755C30.069 9.35755 30.1533 9.36317 30.2096 9.36317C30.2883 9.36317 30.3164 9.35192 30.1983 9.28444C29.9846 9.25632 30.2658 9.09886 30.0859 9.05388C30.0409 9.12698 30.0128 9.1551 30.0015 9.1551C29.9565 9.1551 30.0634 8.81769 30.0409 8.81769C30.0352 8.81769 30.0128 8.85143 29.9734 8.93578C29.7934 8.9639 29.8947 9.18884 29.9734 9.27882M87.7495 32.5096C87.8057 32.5096 87.8226 32.4646 87.7439 32.3409C87.7326 32.3971 87.7157 32.4196 87.6876 32.4196C87.6314 32.4196 87.547 32.3184 87.5189 32.2284C87.5302 32.2284 87.5414 32.2284 87.5527 32.2284C87.772 32.2284 87.6539 31.8966 87.862 31.8854C87.862 31.9248 87.8901 31.9585 87.9238 31.9585C87.9463 31.9585 87.9688 31.936 87.9744 31.8854C87.9238 31.8348 87.862 31.8179 87.8001 31.8179C87.5977 31.8179 87.3727 32.0429 87.2884 32.2284C87.3896 32.3521 87.6483 32.5096 87.7495 32.5096ZM90.4881 38.9148C90.4881 38.9148 90.4881 38.9429 90.4825 38.9598C90.4825 38.9429 90.4825 38.9317 90.4881 38.9148C90.4938 38.8754 90.5163 38.8417 90.5613 38.8417C90.5725 38.8417 90.5838 38.8417 90.595 38.8417C90.595 38.8811 90.6231 38.9148 90.6568 38.9148C90.6793 38.9148 90.7018 38.8923 90.7075 38.8417C90.64 38.8361 90.5725 38.8248 90.595 38.7292C90.7412 38.4593 90.5781 38.5155 90.7075 38.1556C90.6344 38.1275 90.5444 38.0825 90.5275 38.0825C90.5163 38.0825 90.5275 38.0994 90.595 38.1556C90.3644 38.3581 90.5219 38.5661 90.4881 38.9092M93.1087 47.4007C93.1087 47.3388 93.1649 47.3051 93.2212 47.3051C93.2718 47.3051 93.3224 47.3332 93.3393 47.4007C93.1762 47.4288 93.2099 47.6538 93.1087 47.7437C93.2099 47.7943 93.2662 47.8281 93.2887 47.8281C93.3224 47.8281 93.2943 47.7662 93.2212 47.6313C93.3843 47.6031 93.3505 47.3782 93.4517 47.2882C93.3843 47.2826 93.3168 47.2714 93.3393 47.1758C93.4011 47.1758 93.4686 47.0858 93.3393 47.0633C93.3393 47.1251 93.3224 47.1814 93.2605 47.1814C93.2493 47.1814 93.2381 47.1814 93.2268 47.1814C93.2268 47.1195 93.2099 47.0633 93.1481 47.0633C93.1368 47.0633 93.1256 47.0633 93.1143 47.0633C93.1593 47.2601 92.9456 47.3557 93.1143 47.4063M2.83988 54.6044C2.83988 54.6044 2.81739 54.6044 2.80614 54.6044C2.80614 54.5651 2.77802 54.5313 2.74428 54.5313C2.72178 54.5313 2.69929 54.5538 2.69367 54.6044C2.96922 54.835 2.54183 55.3186 2.80614 55.403C2.80614 55.3411 2.82301 55.2849 2.88487 55.2849C2.89611 55.2849 2.90736 55.2849 2.91861 55.2849C2.91861 55.3243 2.94673 55.358 2.98047 55.358C3.00296 55.358 3.02546 55.3355 3.03108 55.2849C2.9636 55.2793 2.89611 55.268 2.91861 55.1724C3.02546 55.1443 3.00858 55.0993 2.94673 55.0993C2.90736 55.0993 2.85113 55.1162 2.80052 55.1724C2.87362 54.7956 3.1323 54.6775 2.91299 54.4863C2.90736 54.5482 2.89611 54.6044 2.83426 54.6044M25.2946 73.2127C25.3115 73.1283 25.3958 73.0271 25.4577 73.0271C25.4858 73.0271 25.5083 73.0496 25.5196 73.0946C25.4689 73.3195 24.8785 73.5838 25.0641 73.6682C25.3171 73.6344 25.2834 73.3195 25.5645 73.3195C25.587 73.3195 25.6095 73.3195 25.632 73.3195C25.5308 73.5276 25.7614 73.6345 25.8289 73.6345C25.8626 73.6345 25.857 73.6063 25.7445 73.5501C25.5252 73.1733 25.7051 73.0552 25.4015 72.864C25.4633 73.0271 24.9572 73.1452 25.289 73.2071M79.7472 73.775H79.7585C79.8428 73.775 79.7922 74.1912 79.8878 74.1912C79.9103 74.1912 79.9384 74.1687 79.9721 74.1181C79.9721 74.0056 79.8822 73.9831 79.8597 73.8875C80.034 73.8425 80.1577 73.8369 80.2533 73.8369C80.3208 73.8369 80.377 73.8369 80.4277 73.8369C80.5064 73.8369 80.5739 73.8256 80.6582 73.7694C80.5401 73.7132 80.4727 73.6963 80.4052 73.6963C80.2815 73.6963 80.1858 73.7582 79.8541 73.7694C79.8541 73.73 79.8203 73.6963 79.7922 73.6963C79.7697 73.6963 79.7472 73.7188 79.7416 73.7694M34.191 88.5649C35.8443 88.5649 37.6776 88.2219 38.8698 87.9238C39.1622 86.7316 39.6515 85.7363 39.5559 84.1561C39.7471 83.9199 39.7471 82.9076 39.5559 82.6715C39.0498 82.036 37.3233 81.7155 35.9793 81.7155C35.7038 81.7155 35.4451 81.7267 35.2145 81.7548C33.8199 81.9179 32.2059 82.7221 31.5592 83.47C30.9463 84.1786 30.2377 85.7419 30.5301 86.8947C30.8563 88.1656 32.414 88.5593 34.1854 88.5593M44.6114 89.071C48.2049 89.071 51.444 87.637 51.4271 83.9199C50.7354 83.5487 50.145 83.0707 49.144 83.0089C48.9303 82.9133 48.5254 82.8683 48.1149 82.8683C47.7044 82.8683 47.2995 82.9133 47.0858 83.0089C44.7239 83.3125 43.2393 84.4935 41.3779 85.292C41.5747 86.7429 40.838 87.2659 40.9224 88.6043C42.1146 88.9023 43.3855 89.071 44.6114 89.071ZM53.9633 86.3605C53.5922 86.3605 53.2098 86.2818 52.7993 86.0906C52.9511 87.8114 50.6511 88.2725 51.5452 89.9708H51.7758C51.8995 90.0776 52.0963 90.1058 52.3269 90.1058C52.58 90.1058 52.8668 90.072 53.1198 90.072C53.2098 90.072 53.2941 90.072 53.3729 90.0889C53.879 90.1001 54.3851 90.1114 54.8744 90.1114C56.9269 90.1114 58.8389 89.9652 60.2223 89.2903C60.003 89.5603 59.8231 89.774 59.8624 89.774C59.8905 89.774 59.9918 89.7009 60.2223 89.5209C60.228 89.6671 60.3685 89.6784 60.3348 89.8639C60.3348 89.8639 60.3292 89.8639 60.3236 89.8639C60.1661 89.8639 59.9018 90.0102 59.9187 90.0102C59.9187 90.0102 59.9468 89.9989 59.9918 89.9764C60.048 90.0158 60.0986 90.0327 60.1492 90.0327C60.3179 90.0327 60.4529 89.8639 60.5654 89.8639C60.4135 89.7515 60.3348 89.5603 60.2223 89.4084C60.2898 89.4028 60.3573 89.3916 60.3348 89.296C60.4866 89.1048 60.8409 89.116 61.0209 88.9529C60.914 87.8563 61.2346 87.1871 61.2514 86.2143C61.4145 85.8994 61.527 84.6509 61.139 84.4991C60.526 84.0267 59.9693 83.8411 59.4463 83.8411C57.5118 83.8411 56.0328 86.3717 53.969 86.3717M64.738 85.1402C64.9686 85.1402 65.1485 85.0446 65.0192 84.8478C64.9967 85.0165 64.873 85.0839 64.6874 85.0839C64.648 85.0839 64.6087 85.084 64.5637 85.0783C64.8955 84.6284 64.0744 84.6284 64.7943 84.1673C64.7943 84.2292 64.8505 84.2629 64.9067 84.2629C64.9573 84.2629 65.008 84.2348 65.0248 84.1673C65.008 84.1673 64.9911 84.1673 64.9742 84.1673C64.7999 84.1673 64.7886 84.0042 64.6818 83.9368C64.3837 84.3304 64.4456 84.7128 64.2263 84.9659C64.3444 85.0839 64.5581 85.1458 64.7436 85.1458M65.829 84.9659C65.8459 84.8309 66.0314 84.7072 65.829 84.6228C65.7671 84.949 64.8674 85.0221 65.1429 85.3089C65.1598 85.2245 65.2441 85.1233 65.306 85.1233C65.3341 85.1233 65.3566 85.1458 65.3679 85.1908C63.9845 86.1637 62.8991 87.4458 62.3986 89.3016C64.7549 90.2182 67.5554 90.6906 70.7327 90.7862C71.6493 88.8011 71.0982 84.7522 69.4787 84.2798C69.2875 84.2235 69.0906 84.2011 68.8938 84.2011C67.9041 84.2011 66.8244 84.7803 65.829 84.9659ZM45.1625 90.5613C45.1625 90.5219 45.1344 90.4882 45.1007 90.4882C45.0782 90.4882 45.0557 90.5107 45.0501 90.5613C45.1457 90.6906 45.3987 90.7637 45.5449 90.7637C45.6349 90.7637 45.6799 90.7356 45.6237 90.6737C45.4774 90.6287 45.3875 90.5275 45.3931 90.3307C45.5562 90.3588 45.5843 90.5163 45.7361 90.5613C45.7699 90.3363 45.5843 90.3363 45.5056 90.2182C45.5674 90.2182 45.6349 90.1283 45.5056 90.1058C45.3931 90.2576 45.32 90.4488 45.1625 90.5613ZM35.5744 97.3264C36.058 97.3264 36.5417 97.2814 36.8285 97.1858C38.8361 96.9496 40.3263 96.1904 40.5962 94.2166C40.7874 94.0591 40.7874 93.12 40.5962 92.9625C40.3544 91.7591 39.3366 91.3261 38.8811 90.3363H36.9409C36.4067 90.2407 35.6756 90.1957 34.9446 90.1957C34.2135 90.1957 33.4825 90.2407 32.9482 90.3363H30.8956C30.6651 90.7187 30.2996 90.9549 30.2096 91.4779C30.0465 91.506 30.0802 91.731 29.979 91.8209C29.7541 92.2483 29.7035 92.8388 29.636 93.418C29.4448 93.9129 29.4448 95.2063 29.636 95.7012C30.8113 96.5784 32.4252 97.0227 34.3147 97.1858C34.6015 97.2814 35.0852 97.3264 35.5688 97.3264M45.753 97.7931C47.7662 97.7931 49.4139 96.4716 49.6164 94.6721C49.8076 94.4752 49.8076 93.4967 49.6164 93.2999C49.5376 92.1977 49.009 91.551 48.5873 90.7862C48.4692 90.6906 48.1599 90.6456 47.845 90.6456C47.53 90.6456 47.2207 90.6906 47.1026 90.7862C44.9151 90.8031 43.4136 91.5116 42.0808 92.3833C42.7613 93.8117 41.6872 95.0995 42.3114 96.2635C42.6994 96.989 44.229 97.63 45.1682 97.7481C45.3706 97.7706 45.5674 97.7875 45.7586 97.7875M64.5412 91.1292C64.5412 91.1292 64.5581 91.1292 64.5806 91.1292C64.8955 91.2529 65.2273 91.4442 65.0417 91.6972C65.0136 91.7366 64.9742 91.7759 64.9292 91.8097C63.6639 91.6972 62.2356 91.1686 61.2739 91.1236C61.3302 91.4835 61.0659 91.5285 61.1615 91.9222C61.2346 92.3439 61.0152 93.0581 61.2739 93.2943C61.1896 93.9466 61.3976 94.3121 61.3864 94.8914V97.1745C62.3199 97.7256 63.2478 98.2824 64.6987 98.3161C64.7043 98.4173 64.7886 98.4454 64.8955 98.4454C65.0136 98.4454 65.1598 98.4173 65.2723 98.4173C65.3116 98.4173 65.351 98.4173 65.3791 98.4286V98.5411C65.6434 98.5748 65.5141 98.9684 65.5478 98.9684C65.5534 98.9684 65.5759 98.9459 65.6097 98.8841C65.6265 98.8841 65.6378 98.8841 65.6547 98.8841C65.9133 98.8841 65.3397 98.5523 65.7278 98.5411C65.7053 98.6873 65.9977 98.8503 66.0427 98.8503C66.0595 98.8503 66.0427 98.8278 65.9583 98.766C65.9302 98.6029 65.7728 98.5748 65.7278 98.423C65.8627 98.4061 66.0539 98.4398 66.0708 98.3105C69.0681 98.0349 70.654 96.3479 70.7496 93.1706C69.04 92.5182 67.0155 92.1865 65.0417 91.7984V91.6916C65.0417 91.6916 65.0417 91.6916 65.0417 91.686C65.1823 91.6354 65.5928 91.2923 65.5703 91.2923C65.5703 91.2923 65.5422 91.3092 65.4916 91.3429C65.486 91.3429 65.4803 91.3429 65.4747 91.3429C65.3285 91.3429 65.2385 91.3992 65.1485 91.4554C65.2723 91.1517 64.9405 91.1011 64.7155 91.1011C64.6031 91.1011 64.5243 91.1124 64.5356 91.1124M51.2134 93.3899C51.1291 93.3055 51.0672 92.8388 50.9548 92.8388C50.9266 92.8388 50.8985 92.8669 50.8704 92.9288C51.101 93.1312 50.8367 93.2381 50.6398 93.4967C50.7129 93.5249 50.8029 93.5699 50.8198 93.5699C50.831 93.5699 50.8198 93.553 50.7523 93.4967C50.7804 93.3337 51.0054 93.3674 51.0953 93.2662C51.1178 93.3955 51.2247 93.4461 51.3259 93.4967C51.3428 94.8464 51.3428 96.1792 50.9829 97.152C51.6971 97.5232 52.4619 97.8381 53.5472 97.8381C53.6034 97.8381 53.6653 97.8381 53.7272 97.8381C53.9971 97.9337 54.4582 97.9787 54.925 97.9787C55.3917 97.9787 55.8585 97.9337 56.1228 97.8381C56.179 97.8381 56.2409 97.8325 56.3027 97.8325C56.4827 97.8325 56.6739 97.8494 56.8538 97.8494C57.0675 97.8494 57.2644 97.8269 57.3768 97.7256C57.315 98.0237 57.5961 98.2374 57.7199 98.2374C57.7817 98.2374 57.7986 98.1868 57.7199 98.063C57.7142 98.1249 57.703 98.1811 57.6411 98.1811C57.6299 98.1811 57.6186 98.1811 57.6074 98.1811C57.658 97.9956 57.7142 97.9281 57.7761 97.9281C57.9111 97.9281 58.046 98.2486 58.0685 98.2486C58.0741 98.2486 58.0741 98.2261 58.0685 98.1811C58.1079 98.0518 58.0292 97.7987 58.0685 97.7256C58.2035 97.5176 58.6646 97.6357 58.8671 97.4951C59.2495 96.8877 59.5869 96.241 59.5531 95.2119C59.7443 94.942 59.7443 93.8848 59.5531 93.6148C59.66 92.94 59.3563 92.6701 59.3226 92.1302H56.6964C55.9203 92.119 55.2568 91.9953 54.4751 91.9953C54.3064 91.9953 54.1377 91.9953 53.9577 92.0121C53.8565 91.9165 53.5641 91.8715 53.2717 91.8715C52.9792 91.8715 52.6868 91.9165 52.5856 92.0121H51.787C51.6183 92.2652 51.4384 92.5014 51.444 92.9231C51.2753 92.9456 51.3372 93.1987 51.3315 93.3786H51.2191M50.6455 97.2589C50.7467 97.0564 50.921 96.9271 50.9885 96.6853C50.7579 96.6516 50.6848 96.4547 50.533 96.3423C50.533 96.7921 50.7748 96.6965 50.876 96.7978C50.8085 96.899 50.4037 97.2195 50.6455 97.2533M36.5304 99.542C36.4798 99.542 36.4292 99.542 36.373 99.542C35.8668 99.5195 35.3101 99.0922 34.7759 98.9684C33.5837 98.6985 32.2903 98.8054 31.0081 98.5129C30.7776 99.9976 30.4851 101.415 30.0971 102.736C29.8609 102.674 29.8553 102.556 29.9846 102.393C29.979 102.393 29.9734 102.393 29.9678 102.393C29.8159 102.393 29.6978 102.073 29.6022 102.073C29.5741 102.073 29.5516 102.101 29.5291 102.163C29.7428 102.191 29.4616 102.348 29.6416 102.393C29.6528 102.337 29.6697 102.314 29.6978 102.314C29.7541 102.314 29.8384 102.416 29.8665 102.506C29.7766 102.534 29.6416 102.506 29.636 102.618C29.7428 102.742 30.0577 102.652 29.979 102.961C28.6462 107.415 26.2956 110.845 24.2711 114.607C30.4908 119.922 39.4715 122.475 50.3024 123.172C50.4374 123.279 50.6567 123.307 50.8985 123.307C51.1685 123.307 51.4721 123.273 51.7477 123.273C51.8433 123.273 51.9333 123.273 52.0176 123.29H52.8162C53.4066 123.386 54.1939 123.431 54.9868 123.431C55.7797 123.431 56.567 123.386 57.1575 123.29H57.9561C58.0348 123.279 58.1191 123.273 58.2091 123.273C58.4622 123.273 58.749 123.307 59.002 123.307C59.227 123.307 59.4294 123.279 59.5531 123.172C64.9855 122.975 69.6249 121.98 73.9381 120.658C75.2821 111.739 71.1713 106.403 69.2593 99.9919C68.6351 100.2 68.039 100.284 67.4542 100.284C65.2666 100.284 63.2928 99.109 61.0377 98.9628C60.5429 98.8672 59.8456 98.8222 59.1539 98.8222C58.4622 98.8222 57.7649 98.8672 57.27 98.9628C55.1893 98.9741 53.2941 99.1709 51.3315 99.3058H47.2207C44.6058 99.1034 42.4857 98.4117 40.9393 97.1352C39.5671 97.9618 38.3356 99.5364 36.5248 99.5364M58.9739 97.9337C59.0133 97.9225 59.0414 97.9168 59.0695 97.9168C59.272 97.9168 59.2326 98.1587 59.4294 98.1587C59.3676 97.9956 59.8737 97.8775 59.5419 97.8156C59.5138 97.8943 59.4913 97.9281 59.4688 97.9281C59.39 97.9281 59.3226 97.5907 59.2045 97.5907C59.2045 97.5907 59.2045 97.5907 59.1988 97.5907V97.8212C59.1089 97.8494 58.9739 97.8212 58.9683 97.9337M36.4742 123.622C36.4742 123.47 36.6766 123.515 36.7047 123.391C36.4911 123.363 36.7722 123.206 36.5923 123.161C36.536 123.296 36.4686 123.42 36.3617 123.504C36.3617 123.391 36.2717 123.369 36.2492 123.273C36.2661 123.279 36.283 123.285 36.2999 123.285C36.4629 123.285 36.4967 122.942 36.4348 122.942C36.418 122.942 36.3955 122.97 36.3617 123.043C35.9906 123.296 36.0074 123.256 36.4742 123.616M59.3057 125.9C59.3057 125.86 59.2776 125.826 59.2438 125.826C59.2213 125.826 59.1989 125.849 59.1932 125.9C59.4575 125.933 59.4575 126.209 59.1932 126.243C59.1651 126.153 59.1932 126.018 59.0808 126.012C59.0751 126.209 59.1707 126.304 59.3113 126.355C59.4744 125.86 59.9749 126.282 59.5419 125.787C59.6037 125.787 59.6712 125.697 59.5419 125.675C59.5194 125.804 59.4125 125.855 59.3113 125.905M95.5493 45.3819C95.5493 45.3819 95.5943 45.3987 95.6168 45.4156C95.5887 45.4156 95.5662 45.4044 95.5493 45.3819ZM46.3322 0H45.9498H45.8767H45.8036C30.6088 1.37776 21.8305 9.02014 15.2454 16.3139L15.1835 16.3813L15.1329 16.4544C14.9811 16.6681 14.8011 16.8425 14.593 16.9943L14.4187 17.118L14.2838 17.2811C13.907 17.7366 13.4852 18.1584 13.0297 18.5351L12.9285 18.6195L12.8385 18.7207C8.9414 23.1183 6.02842 29.113 3.72277 37.4921L3.49221 37.4246L3.18854 39.3197C3.17729 39.3816 3.16604 39.4434 3.1548 39.5053L3.08169 39.8146C3.0592 39.8989 3.0367 39.9833 3.01421 40.0732C2.92985 40.3882 2.83988 40.7256 2.77802 41.1192L2.63743 41.7209C2.36188 42.9019 2.14256 44.1391 1.92887 45.3312C1.88388 45.5731 1.84451 45.8149 1.79953 46.0567H1.77141L1.69268 46.6247C1.65894 46.799 1.6252 46.9789 1.59146 47.1533L0.584845 52.3888L1.0516 51.9389C0.905387 53.4516 0.804162 55.0262 0.764798 56.6626L0 60.481L0.911011 59.5307C0.916634 59.6094 0.922257 59.6881 0.92788 59.7668C0.978492 60.4529 1.03473 61.229 1.28779 62.095C2.71054 66.9593 7.32183 68.5733 11.3876 69.996C12.1974 70.2828 12.9678 70.5471 13.7102 70.8396C20.7508 73.6063 24.6648 77.7115 25.9469 83.7118L26.1381 84.8478C26.2956 85.7925 26.4081 86.6417 26.4474 87.5358C23.2139 90.027 24.7266 94.7396 25.6545 97.6469C25.8064 98.1193 25.9469 98.5635 26.065 98.9741L26.0932 99.064L26.11 99.1034C26.155 99.3227 26.155 99.8626 26.11 100.082L26.065 100.194L26.0313 100.363C25.5533 102.916 24.1924 104.693 22.7584 106.571C21.0826 108.759 19.1818 111.245 18.7095 115.085L18.6195 115.822L19.0975 116.385C20.0085 117.453 20.9757 118.313 22.0442 119.005V119.078L22.7528 119.551C26.1719 121.828 30.1533 123.673 34.669 125.067V126.99L36.4517 125.585C41.451 126.962 47.0633 127.823 53.2548 128.16C53.4122 128.171 53.581 128.183 53.7722 128.183C53.9915 128.183 54.2164 128.171 54.447 128.166C54.6269 128.16 54.8069 128.149 54.9756 128.149C55.1443 128.149 55.223 128.16 55.2624 128.166L55.5379 128.284H57.6074V128.649L58.3328 128.284H58.7377L58.7265 128.171H59.4575L59.4856 128.166C59.5531 128.166 59.6206 128.166 59.6937 128.171C59.8118 128.171 59.9243 128.183 60.0368 128.183C60.1942 128.183 60.5429 128.183 60.9365 128.053C66.1889 127.772 70.907 126.856 74.9672 125.326L75.6027 125.09C75.9738 124.977 76.2775 124.837 76.5306 124.719C76.7611 124.612 76.9411 124.527 77.1098 124.494L78.1558 124.28L78.4144 123.245C80.3939 115.288 77.7677 108.275 75.6533 102.635L75.389 101.926C75.2428 101.527 75.0628 101.105 74.8941 100.695C74.6129 100.014 74.1406 98.8728 74.1237 98.5073C74.1237 98.2711 74.3374 97.7481 74.5061 97.332C74.6804 96.899 74.866 96.4491 74.9841 95.9711C75.119 95.4312 75.209 94.9364 75.2934 94.4584C75.3384 94.1941 75.389 93.9298 75.4396 93.6767H75.5183L75.6083 92.9681C75.6139 92.94 75.6252 92.9119 75.6364 92.8838L77.0311 91.4048L76.1707 91.1517L76.3394 90.6006L75.9288 90.6119C78.0208 77.0198 83.5375 70.266 93.6767 68.7926L94.1322 68.7251L94.1716 68.6914L94.3178 68.8095H96.584L96.9721 67.6623C97.8718 65.0023 98.7997 62.2468 98.8841 58.6028V58.5803V58.5578V54.3064C98.7041 52.2313 98.4061 50.1394 97.9731 47.9687L100.847 48.9078L99.3115 47.1533L101.786 47.1758L97.1745 44.4034L96.9664 43.543L96.9158 43.5542C94.1716 33.3813 88.8067 24.5354 80.124 15.8077L80.0621 15.7459L79.9946 15.6896C79.5841 15.3579 79.2074 14.9811 78.8756 14.5649L78.7687 14.43L78.6337 14.3231C78.4144 14.1432 78.1951 13.9351 77.9645 13.7102C77.8465 13.5977 77.7284 13.4796 77.599 13.3615L78.0095 12.7092L76.3112 12.2087V12.1862L75.9513 11.8656C75.4227 11.3933 74.8829 10.9378 74.3543 10.4935C73.7582 9.99301 73.1958 9.52063 72.6503 9.02014L72.6278 9.00327V8.98077L72.4816 8.8683L71.9699 8.47465C66.5432 4.29075 60.1661 0.371152 50.3362 0.0168699H50.3081H50.2799H46.7034H46.321L46.3322 0ZM45.1569 6.58515C45.2975 6.58515 45.4493 6.57953 45.6012 6.56828L45.6968 6.65826L46.3435 6.68075C49.6051 6.79885 52.9736 7.60863 54.925 8.73896C55.2174 8.90767 55.5379 9.19447 55.8753 9.49251C56.4096 9.97051 57.0169 10.5047 57.8098 10.8647C58.6365 11.2414 59.48 11.4439 60.2954 11.6351C60.8465 11.7644 61.3639 11.8881 61.8082 12.0512C62.5167 12.3155 63.1916 12.6192 63.9057 12.9454C64.3106 13.1309 64.7211 13.3165 65.1542 13.5021L65.694 13.7383C70.2659 16.2857 73.865 18.9963 76.688 22.0105L77.1885 22.5447H77.3853C77.8858 23.0115 78.3638 23.5063 78.8137 24.0181L78.8418 24.0518L78.8699 24.0856C84.8084 30.2433 88.7224 37.5764 90.7075 46.321L90.6344 46.3322L90.7693 46.5797C91.4441 49.6276 91.8884 52.8387 92.1021 56.2409L92.1246 56.6345L92.2314 56.8145C92.2314 56.9382 92.2258 57.135 92.2146 57.2756C92.1977 57.5793 92.1808 57.9223 92.2146 58.271V61.2233C81.0181 65.3173 73.7525 71.6044 70.0804 80.3827C69.743 80.304 69.4056 80.2702 69.0625 80.2702C67.6341 80.2702 66.4813 80.9394 65.5534 81.4793C64.9236 81.8448 64.3219 82.1935 63.8832 82.1935C63.6977 82.1935 63.1409 81.738 62.8429 81.4961C62.1512 80.9338 61.2908 80.2308 60.1436 80.0453C59.8512 80.0003 59.5531 79.9722 59.2663 79.9722C57.4668 79.9722 56.1846 80.8775 55.1555 81.6086C55.0768 81.6648 55.0037 81.7155 54.925 81.7717C52.8386 80.1465 49.757 79.078 46.9396 79.078C45.3762 79.078 43.9366 79.4042 42.705 80.0284C40.6637 78.7575 37.7395 77.9477 35.0233 77.9477C33.4993 77.9477 32.116 78.1951 30.9294 78.6788C29.9621 76.7161 28.9105 74.7367 27.6959 72.8247L28.1233 71.9249L26.9873 71.7562C24.1305 67.561 20.419 63.8439 15.071 61.7519L15.1104 61.6451L13.4402 61.139C13.2378 61.0771 13.0353 61.0209 12.8273 60.9646L12.7991 60.9534C11.4776 60.6047 10.0774 60.3686 8.71084 60.1436C7.86731 59.1145 7.56926 56.4714 7.90668 53.2492H8.13724L8.00228 52.5462L8.05289 52.535L8.22722 51.3428C9.91427 39.6346 12.4786 31.6436 16.5332 25.424C20.509 19.3281 25.424 14.4693 31.1768 10.949L33.7918 11.0671L32.8526 9.97614C33.3194 9.71746 33.7918 9.47002 34.2641 9.22821L35.1245 8.79519C36.283 8.2947 37.4246 7.84482 38.6955 7.53553L40.5737 7.08564V7.06315C41.4679 6.85508 42.3226 6.66388 43.3293 6.66388C43.4192 6.66388 43.5148 6.66388 43.6104 6.66388L44.4933 6.692L44.5889 6.56266C44.6339 6.56266 44.6789 6.56266 44.7239 6.56266C44.797 6.56266 44.8645 6.56266 44.932 6.55703C45.0051 6.55703 45.0782 6.56266 45.1569 6.56266V6.58515ZM34.191 86.8385C32.5321 86.8385 32.1722 86.4505 32.1666 86.4448C32.0653 86.0343 32.4196 85.0221 32.8358 84.5385C33.1563 84.1673 34.3485 83.5206 35.4113 83.3969C35.5744 83.38 35.7656 83.3688 35.9793 83.3688C36.7272 83.3688 37.3908 83.4812 37.8351 83.5993L37.8744 84.2235C37.9251 85.0839 37.7507 85.7025 37.5258 86.4617C36.6485 86.636 35.3832 86.8385 34.1967 86.8385H34.191ZM47.71 84.5497C47.7775 84.5385 47.9181 84.5216 48.1205 84.5216C48.323 84.5216 48.4635 84.5385 48.531 84.5497L48.7335 84.6397L49.0371 84.6622C49.2565 84.679 49.4364 84.7297 49.6389 84.8253C49.5208 85.3033 49.2958 85.7025 48.9584 86.0399C48.1261 86.8779 46.5403 87.3559 44.6114 87.3559C44.0435 87.3559 43.4586 87.3165 42.8738 87.2378C42.9469 86.9791 43.02 86.681 43.065 86.338C43.3124 86.2143 43.5486 86.0906 43.7848 85.9668C44.9488 85.3595 45.9554 84.8309 47.3051 84.6566L47.5525 84.6228L47.7044 84.5553L47.71 84.5497ZM53.9915 88.0194C55.5773 88.0082 56.8032 87.1197 57.7873 86.4055C58.4059 85.9556 59.0414 85.4945 59.4463 85.4945C59.5194 85.4945 59.5981 85.5113 59.6825 85.5451L59.57 85.7644V86.158C59.5588 86.4392 59.5138 86.7091 59.4632 87.0184C59.4238 87.2434 59.3844 87.4908 59.3563 87.7607L57.0619 87.9744L57.2981 88.2837C56.4883 88.3737 55.6392 88.3906 54.88 88.3906C54.5088 88.3906 54.1377 88.3906 53.7609 88.3793C53.8396 88.2669 53.9184 88.1488 53.9915 88.0194ZM66.3126 86.5404C66.7569 86.4448 67.173 86.3043 67.5779 86.1693C68.0615 86.0062 68.5676 85.8431 68.8826 85.8431C68.8938 85.8431 68.9051 85.8431 68.9163 85.8431C69.2931 86.2761 69.5799 87.772 69.4505 88.9923C67.6847 88.8742 66.082 88.6155 64.6593 88.2275C65.0586 87.5977 65.6041 87.0409 66.3126 86.5404ZM31.8179 91.9728H33.0888L33.235 91.9446C33.6456 91.8715 34.281 91.8266 34.939 91.8266C35.5969 91.8266 36.2324 91.8715 36.6429 91.9446L36.7891 91.9728H37.9644C38.1163 92.1583 38.2681 92.3271 38.4031 92.4733C38.7517 92.8557 38.8923 93.0244 38.9373 93.2381L38.9823 93.4686L38.9204 93.9354C38.8529 94.4415 38.7461 95.2063 36.626 95.4594L36.4573 95.4819L36.2942 95.5381C36.2492 95.5493 35.9962 95.5943 35.5688 95.5943C35.1414 95.5943 34.8883 95.5493 34.8321 95.5325L34.6409 95.4706L34.4497 95.4594C33.0832 95.3413 31.9866 95.0657 31.1712 94.6383C31.1656 94.374 31.1768 94.0872 31.2106 93.941L31.2724 93.7723L31.2949 93.5642L31.3118 93.4124C31.3287 93.2662 31.3512 93.0862 31.3736 92.9231L31.6604 92.8725L31.8067 91.9728H31.8179ZM44.8982 92.7882C45.5281 92.5745 46.2479 92.4395 47.1083 92.4339H47.6088C47.8 92.7713 47.9012 93.03 47.9237 93.373L47.9687 93.986L47.9799 93.9972L47.9293 94.4415C47.8281 95.3638 46.889 96.0611 45.7474 96.0611C45.6237 96.0611 45.4943 96.0554 45.365 96.0386C44.8026 95.9655 44.0378 95.6112 43.7791 95.3975C43.7679 95.2625 43.8241 94.942 43.8579 94.717C43.9141 94.3684 43.9872 93.9354 43.9872 93.4518L44.8926 92.7938L44.8982 92.7882ZM63.051 94.8183L65.0586 93.4967C65.1992 93.5249 65.3397 93.553 65.4803 93.5755C66.6838 93.806 67.8422 94.0254 68.8938 94.3178C68.5564 95.7574 67.6229 96.4378 65.8909 96.6009L65.7053 96.6178L64.7155 96.5953C64.052 96.5784 63.5627 96.4154 63.051 96.1567V94.8576C63.051 94.8576 63.051 94.8295 63.051 94.8183ZM53.3166 93.7386L54.0646 93.6823C54.1995 93.6711 54.3345 93.6711 54.4582 93.6711C54.7956 93.6711 55.1274 93.6992 55.4817 93.7329C55.8472 93.7667 56.2296 93.8004 56.657 93.806H57.8042L57.7705 94.0197L57.9898 94.3346C57.9898 94.3796 57.9898 94.4246 57.9898 94.4696L57.8267 94.7002L57.838 95.077L56.6008 96.1454C56.4939 96.1454 56.3871 96.1398 56.2859 96.1398C56.1734 96.1398 56.0609 96.1398 55.9597 96.1511L55.746 96.1679L55.5436 96.241C55.5436 96.241 55.2849 96.286 54.9081 96.286C54.5313 96.286 54.3008 96.2466 54.2501 96.2354L53.9521 96.1286L53.6597 96.1454C53.6147 96.1454 53.5753 96.1454 53.536 96.1454C53.3166 96.1454 53.1142 96.1286 52.923 96.0892C52.9792 95.5662 53.0017 95.0151 53.0074 94.4246L53.1311 94.4078V93.6936H53.2492H53.2548L53.311 93.7442L53.3166 93.7386ZM36.5192 101.229C38.3693 101.229 39.6965 100.183 40.7649 99.3452C40.8212 99.3002 40.883 99.2552 40.9393 99.2103C42.5757 100.206 44.6339 100.807 47.0858 100.993H47.1476H47.2151H51.4384C51.9501 100.954 52.4619 100.914 52.968 100.875C54.4189 100.762 55.7854 100.655 57.2644 100.65H57.4218L57.5737 100.622C57.9392 100.549 58.524 100.509 59.137 100.509C59.75 100.509 60.3348 100.549 60.7003 100.622L60.8072 100.644H60.914C61.7913 100.706 62.6742 100.97 63.6077 101.246C64.8055 101.6 66.0371 101.971 67.4373 101.971C67.6623 101.971 67.8872 101.96 68.1065 101.943C68.5676 103.265 69.0963 104.547 69.6136 105.79C71.3344 109.957 72.9596 113.905 72.3973 119.354C67.9209 120.647 63.7933 121.328 59.4856 121.485L58.9008 121.508L58.7827 121.609C58.7827 121.609 58.7321 121.609 58.7096 121.609C58.5353 121.598 58.3666 121.586 58.2035 121.586C58.0798 121.586 57.9617 121.586 57.8548 121.603H57.0169L56.882 121.626C56.404 121.704 55.7123 121.749 54.9812 121.749C54.2501 121.749 53.5585 121.704 53.0805 121.626L52.9455 121.603H52.102C51.9895 121.592 51.8658 121.586 51.7364 121.586C51.5677 121.586 51.3878 121.598 51.2134 121.609C51.1516 121.609 51.0953 121.614 51.0335 121.62L50.9098 121.53L50.4037 121.496C39.8258 120.816 31.9641 118.42 26.4249 114.191C26.7005 113.702 26.9817 113.213 27.2516 112.735C28.6575 110.277 30.1027 107.741 31.1543 104.778L31.2387 104.8L31.5367 103.788L31.9754 103.664L31.7729 102.995C32.0035 102.196 32.2059 101.342 32.3859 100.408C32.5433 100.419 32.7008 100.431 32.847 100.442C33.4094 100.481 33.938 100.515 34.3991 100.622C34.4666 100.639 34.6465 100.723 34.7703 100.779C35.1752 100.965 35.6756 101.201 36.2886 101.229C36.3673 101.229 36.4461 101.235 36.5248 101.235L36.5192 101.229Z" fill="#6DDE00"/>
<path fill-rule="evenodd" clip-rule="evenodd" d="M75.6308 13.9516C75.4059 14.0304 75.1416 14.3453 75.0572 13.9516C75.2934 14.1822 75.2878 13.9066 75.4003 13.7211C75.1078 13.6367 74.9166 13.4455 74.8267 13.1475C75.1416 13.3668 75.4059 13.6311 75.6252 13.946L75.6308 13.9516Z" fill="#020202"/>
<path fill-rule="evenodd" clip-rule="evenodd" d="M95.7237 45.5784C95.2176 45.6852 95.6394 45.809 95.4932 45.9214C95.122 45.6065 95.3413 45.3028 95.6056 45.4659C95.4932 45.4659 95.4594 45.2635 95.6056 45.2354C95.5719 45.4209 95.7125 45.4322 95.7181 45.5784H95.7237Z" fill="#020202"/>
<path fill-rule="evenodd" clip-rule="evenodd" d="M80.653 73.7808C80.4336 73.9214 80.3437 73.7752 79.8544 73.8933C79.8769 73.9833 79.9669 74.0058 79.9669 74.1239C79.7532 74.4107 79.86 73.7246 79.7363 73.7808C79.7588 73.6515 79.8488 73.719 79.8488 73.7808C80.3493 73.7696 80.3155 73.6234 80.6473 73.7808H80.653Z" fill="#020202"/>
<path fill-rule="evenodd" clip-rule="evenodd" d="M74.0277 92.3883C73.4935 92.4051 73.7859 92.9956 73.4541 92.7313C73.4878 92.2421 73.5722 92.6357 73.9096 92.2758C73.3416 92.1071 73.7746 91.8709 73.4541 91.8203C73.6397 91.466 73.814 92.0565 74.0277 92.0509V92.3939V92.3883Z" fill="#020202"/>
<path fill-rule="evenodd" clip-rule="evenodd" d="M74.3711 123.785C74.4723 123.059 74.6129 123.762 75.0572 123.217C74.9728 123.43 74.7141 123.296 74.9447 123.56V123.672C74.6242 123.577 74.6466 123.835 74.3711 123.785Z" fill="#020202"/>
<path fill-rule="evenodd" clip-rule="evenodd" d="M60.5599 126.411C60.2675 125.973 61.1223 125.928 60.5599 126.299C61.066 125.967 61.7296 125.556 61.9321 125.956C61.7409 126.063 61.4766 125.9 61.8196 126.299C61.2347 126.136 61.4484 125.916 61.021 125.956C61.2347 126.535 60.9367 125.978 60.7905 126.411H60.5599Z" fill="#020202"/>
<path fill-rule="evenodd" clip-rule="evenodd" d="M57.4717 126.524C57.6741 126.136 57.8316 125.641 58.0453 125.838C58.2196 126.451 57.781 125.63 57.5898 126.524H57.4773H57.4717Z" fill="#020202"/>
<path fill-rule="evenodd" clip-rule="evenodd" d="M23.1064 117.734C23.5563 117.673 22.6566 117.566 23.1064 117.504C23.4157 117.616 23.6575 117.791 23.68 118.19C23.5057 118.021 23.202 117.988 23.1064 117.734Z" fill="#020202"/>
<path fill-rule="evenodd" clip-rule="evenodd" d="M27.7915 84.51C28.3314 84.2626 27.7128 84.2064 28.3651 84.167C28.1514 84.5663 27.9602 85.123 27.9096 84.51C27.904 84.5775 27.8927 84.645 27.7971 84.6225V84.51H27.7915Z" fill="#020202"/>
<path fill-rule="evenodd" clip-rule="evenodd" d="M3.24463 47.5187C3.58766 47.1869 3.94195 47.1475 3.9307 47.5187C3.84635 47.7999 3.58766 47.1419 3.3571 47.5187C3.32898 47.6087 3.3571 47.7436 3.24463 47.7492V47.5187Z" fill="#020202"/>
<path fill-rule="evenodd" clip-rule="evenodd" d="M4.27369 42.1536C4.23995 41.968 4.38054 41.9568 4.38616 41.8105C4.538 42.401 5.15658 42.311 4.49863 42.8397C4.85291 42.5641 4.58298 42.3335 4.26807 42.1536H4.27369Z" fill="#020202"/>
<path fill-rule="evenodd" clip-rule="evenodd" d="M4.84171 39.6408C4.82484 39.5058 4.8642 39.4384 4.95418 39.4103C5.54465 39.4946 5.52778 39.2753 5.75272 39.1797C5.74709 39.5171 5.2466 39.7589 4.84171 39.6352V39.6408Z" fill="#020202"/>
<path fill-rule="evenodd" clip-rule="evenodd" d="M14.0923 19.7774C14.6546 19.3894 15.0145 18.7989 15.5769 18.4053C15.1326 18.9451 14.6378 19.44 14.0923 19.8899V19.7774Z" fill="#313131"/>
<path fill-rule="evenodd" clip-rule="evenodd" d="M38.2963 5.96081C38.2344 5.79773 38.1163 5.67964 37.9533 5.61778C37.5821 5.39847 38.555 5.73025 38.0657 5.38722C38.3075 5.08917 38.3413 5.87084 38.4088 5.84272C38.4031 5.9102 38.3919 5.97769 38.2963 5.95519V5.96081Z" fill="#020202"/>
<path fill-rule="evenodd" clip-rule="evenodd" d="M33.4991 7.78916C33.4991 7.59233 33.4147 7.49111 33.2685 7.44613C33.2066 7.28304 33.7128 7.16495 33.381 7.10309C33.5216 6.97937 33.7127 7.22681 33.9546 7.21556C34.1851 6.81067 33.904 7.62045 33.8421 7.21556C33.7296 7.21556 33.7521 7.35615 33.7296 7.44613C33.6171 7.44613 33.6396 7.30554 33.6172 7.21556C33.2348 7.31678 33.5159 7.46862 33.6172 7.67106C33.6115 7.73855 33.6003 7.80603 33.5047 7.78354L33.4991 7.78916Z" fill="#020202"/>
<path fill-rule="evenodd" clip-rule="evenodd" d="M29.962 9.27314C29.8833 9.18316 29.7821 8.95822 29.962 8.9301C30.1757 8.48584 29.8271 9.45309 30.0745 9.04257C30.2545 9.08194 29.9733 9.24502 30.187 9.27314C30.5413 9.46996 29.5515 9.19441 29.9564 9.5037C29.8945 9.83549 29.7765 9.32937 29.6134 9.39123C29.3716 9.51495 29.7652 9.26751 29.9564 9.27876L29.962 9.27314Z" fill="#020202"/>
<path fill-rule="evenodd" clip-rule="evenodd" d="M6.43828 51.5171C6.34831 51.6127 6.12337 51.5846 6.09525 51.7477C5.96591 51.7252 6.03339 51.6352 6.09525 51.6352C6.06713 51.489 5.87031 51.5227 5.86469 51.6352C5.55539 51.534 6.1065 51.2753 6.20772 51.5227C6.41017 51.1966 6.1065 51.264 6.55075 51.1797C6.55075 51.3371 6.49452 51.4327 6.43828 51.5227V51.5171Z" fill="#020202"/>
<path fill-rule="evenodd" clip-rule="evenodd" d="M13.5188 63.045C13.3501 63.3149 13.277 63.2587 13.4063 63.613C13.3107 63.6355 13.2995 63.568 13.2938 63.5005C13.2545 63.3431 13.0914 63.4893 13.0633 63.613C12.7146 63.3374 12.7034 63.3149 12.2647 63.27C11.8374 63.2362 12.6022 62.9832 12.4953 63.27C12.6022 63.0731 12.8721 63.0394 12.9508 62.8145C13.0183 62.8201 13.0858 62.8313 13.0633 62.9269C12.9114 62.9663 12.8833 63.1294 12.7202 63.1575C12.8665 63.6861 13.3557 63.3881 13.4063 62.9269C13.4738 62.9325 13.5413 62.9438 13.5188 63.0394V63.045Z" fill="#020202"/>
<path fill-rule="evenodd" clip-rule="evenodd" d="M25.5078 73.0948C25.4685 72.9374 25.3054 73.0836 25.2773 73.2073C24.9455 73.1454 25.4516 73.0273 25.3897 72.8643C25.6934 73.0555 25.5135 73.1736 25.7328 73.5503C26.0702 73.7134 25.4685 73.6403 25.6203 73.3198C25.2604 73.2635 25.3166 73.6291 25.0467 73.6628C24.8611 73.5784 25.4516 73.3141 25.5022 73.0892L25.5078 73.0948Z" fill="#020202"/>
<path fill-rule="evenodd" clip-rule="evenodd" d="M79.9665 22.9725C79.3873 22.219 78.6056 21.6679 78.0264 20.9199C78.7574 21.5554 79.4435 22.2414 80.079 22.9725H79.9665Z" fill="#313131"/>
<path fill-rule="evenodd" clip-rule="evenodd" d="M65.8115 12.0121V11.7815C65.9296 11.8546 65.9296 12.0458 66.1546 12.0121C66.0927 11.9221 66.0365 11.8265 66.0421 11.669C65.7328 11.4554 66.5763 11.9896 66.2727 11.8996C66.2502 11.9952 66.3176 12.0065 66.3851 12.0121C66.3458 12.192 66.1827 11.9109 66.1546 12.1246C65.9971 12.1246 65.9015 12.0683 65.8115 12.0121Z" fill="#020202"/>
<path fill-rule="evenodd" clip-rule="evenodd" d="M79.9667 22.9725C79.2356 22.337 78.5495 21.651 77.9141 20.9199H78.0265C78.6058 21.6735 79.3874 22.2246 79.9667 22.9725Z" fill="#E9E8E8"/>
<path fill-rule="evenodd" clip-rule="evenodd" d="M33.499 8.58718C33.5721 8.46908 33.7633 8.46908 33.7296 8.24414C33.9602 8.60967 34.3144 8.44659 33.6171 8.81774C33.6171 8.70527 33.7577 8.72776 33.8477 8.70527C33.8308 8.5703 33.6396 8.60967 33.5046 8.5928L33.499 8.58718Z" fill="white"/>
<path fill-rule="evenodd" clip-rule="evenodd" d="M78.7124 15.8975C78.763 16.0437 79.4378 16.2349 78.7124 16.4711C78.4481 16.4373 78.4481 16.1618 78.7124 16.128C78.6449 16.0268 78.5718 15.9256 78.7124 15.8975Z" fill="white"/>
<path fill-rule="evenodd" clip-rule="evenodd" d="M20.3347 42.4747C22.0724 37.4023 25.1091 31.4301 33.2351 30.3111L33.3138 30.2998H34.6073L34.6804 30.3111C37.3853 30.6653 40.1577 32.2568 41.7491 34.3656C42.9807 36.0021 43.4756 37.8859 43.1831 39.8148L43.0144 40.9114L41.9178 40.7596C40.0508 40.5009 38.6 39.6967 37.3234 38.9882C35.9007 38.1952 34.6691 37.5148 32.9764 37.5148C32.7121 37.5148 32.4366 37.5317 32.161 37.5654C30.2715 37.796 29.1299 39.005 27.814 40.3997C26.2788 42.0192 24.5411 43.8581 21.4482 43.9706L19.8174 44.0268L20.346 42.4804L20.3347 42.4747Z" fill="#151515"/>
<path fill-rule="evenodd" clip-rule="evenodd" d="M87.9568 31.8791C87.9343 32.0085 87.8443 31.941 87.8443 31.8791C87.6306 31.8904 87.7656 32.2559 87.5013 32.2222C87.5407 32.3515 87.7038 32.509 87.7319 32.3346C87.9512 32.6833 87.4338 32.4134 87.2764 32.2222C87.3888 31.9804 87.7375 31.6711 87.9624 31.8791H87.9568Z" fill="#020202"/>
<path fill-rule="evenodd" clip-rule="evenodd" d="M76.9976 41.8105C77.7455 42.6597 78.6396 43.3683 79.3932 44.2062C78.4091 43.5932 77.7174 42.6822 76.9976 41.8105Z" fill="#E9E8E8"/>
<path fill-rule="evenodd" clip-rule="evenodd" d="M76.997 36.446C76.9745 36.5585 76.4965 36.7553 76.7664 36.789C76.9351 37.0702 76.2378 36.5697 76.1928 37.0196C75.8554 36.9184 76.4571 36.8509 76.3053 36.5641C76.474 36.9521 76.6764 36.536 76.8789 36.3335C76.9745 36.311 76.9857 36.3785 76.9913 36.446H76.997Z" fill="#020202"/>
<path fill-rule="evenodd" clip-rule="evenodd" d="M79.6515 45.7473C79.2578 45.6292 79.016 45.393 78.8754 45.2299L78.7742 45.2018L78.5605 44.9656C78.2231 44.5888 77.8463 44.2346 77.4527 43.8634C77.0365 43.4698 76.6035 43.0649 76.1986 42.6094L75.8275 42.272C74.6184 41.1641 73.578 40.2025 71.6773 40.0844L71.1993 40.0563L71.1206 39.9607L71.0475 40.045L70.5807 40.0844C69.2254 40.1969 68.365 40.7986 67.3641 41.4959C66.3125 42.227 65.1203 43.0592 63.3151 43.2786L61.9655 43.4417L62.0442 42.2944C61.9823 42.1426 61.9261 41.9289 61.943 41.659V40.2362L61.9598 40.1406C62.6122 36.4853 65.1484 34.3203 69.7259 33.5218L69.8215 33.5049H72.189C73.713 33.6511 75.057 34.011 76.1986 34.5846L76.2211 34.4609L76.9634 35.0232C77.1771 35.1582 77.3795 35.3044 77.5707 35.4562L77.6495 35.5181L77.7113 35.4787L77.8688 35.6362C78.0712 35.7543 78.2287 35.8949 78.3412 36.0636L78.5661 36.2379L78.5211 36.2829C80.1744 37.9812 81.063 39.8538 81.3048 42.1595V42.2157L81.3104 43.3404C81.3779 43.914 81.2204 44.3077 81.1248 44.5495C81.108 44.5889 81.0911 44.6226 81.0798 44.662L81.1192 46.1972L79.6458 45.7473H79.6515Z" fill="#151515"/>
<path fill-rule="evenodd" clip-rule="evenodd" d="M77.5706 36.9011C77.4582 36.9742 77.6212 37.5141 77.2276 37.5872C77.6943 36.9236 77.0814 37.0867 77.1151 36.6762C77.2782 36.6143 77.3963 37.1205 77.4582 36.7887C77.5538 36.7662 77.565 36.8337 77.5706 36.9011Z" fill="#020202"/>
<path fill-rule="evenodd" clip-rule="evenodd" d="M90.5837 38.1553C90.4262 38.0203 90.5724 38.1103 90.6961 38.1553C90.5668 38.5152 90.7299 38.4589 90.5837 38.7289C90.5612 38.8245 90.6286 38.8357 90.6961 38.8413C90.6736 38.9707 90.5837 38.9032 90.5837 38.8413C90.4881 38.8188 90.4768 38.8863 90.4712 38.9538C90.5274 38.5827 90.3418 38.3633 90.5837 38.1553Z" fill="#020202"/>
<path fill-rule="evenodd" clip-rule="evenodd" d="M93.3219 47.1752C93.2994 47.2708 93.3669 47.2821 93.4344 47.2877C93.3388 47.3777 93.3669 47.6026 93.2038 47.6307C93.3331 47.8669 93.3275 47.8726 93.0913 47.7432C93.1869 47.6532 93.1588 47.4283 93.3219 47.4002C93.2938 47.254 93.0969 47.2877 93.0913 47.4002C92.9226 47.3496 93.1363 47.254 93.0913 47.0571C93.1869 47.0347 93.1982 47.1021 93.2038 47.1696C93.2994 47.1921 93.3106 47.1246 93.3163 47.0571C93.4456 47.0796 93.3781 47.1696 93.3163 47.1696L93.3219 47.1752Z" fill="#020202"/>
<path fill-rule="evenodd" clip-rule="evenodd" d="M2.67139 54.5988C2.69388 54.4695 2.78386 54.5369 2.78386 54.5988C2.87946 54.6213 2.8907 54.5538 2.89633 54.4863C3.11002 54.6775 2.85696 54.79 2.78386 55.1724C2.9132 55.0374 3.07066 55.1274 2.89633 55.1724C2.87383 55.268 2.94132 55.2792 3.0088 55.2849C2.9863 55.4142 2.89633 55.3467 2.89633 55.2849C2.80073 55.2624 2.78948 55.3299 2.78386 55.3973C2.51955 55.313 2.94694 54.8294 2.67139 54.5988Z" fill="#020202"/>
<path fill-rule="evenodd" clip-rule="evenodd" d="M21.0542 58.1367C19.7608 58.1929 19.1647 56.3147 19.9127 55.3981C20.8012 55.2687 20.9249 55.9098 21.6278 55.966C21.4085 56.6633 21.4254 57.5912 21.0542 58.1367Z" fill="#010101"/>
<path fill-rule="evenodd" clip-rule="evenodd" d="M58.7317 60.4187C58.5742 60.4187 58.4786 60.3625 58.3886 60.3063C58.2031 60.5143 58.4955 60.6943 58.1581 60.8799C58.1075 60.6718 57.6688 60.9473 57.5845 60.7674C57.7813 60.3006 58.0062 61.0317 58.2705 60.5368C57.9388 60.475 58.4449 60.3569 58.383 60.1938C58.0456 60.1882 57.9612 59.9351 57.8094 59.7383C58.0906 59.8001 58.0512 60.1825 58.4955 60.0813C58.6023 60.1657 58.6698 60.2894 58.726 60.4244L58.7317 60.4187Z" fill="#020202"/>
<path fill-rule="evenodd" clip-rule="evenodd" d="M60.5594 65.1038C60.3064 65.5424 60.1546 65.4524 59.6484 64.9913C60.0083 64.9351 59.9521 65.3006 60.222 65.3343C60.2558 64.9969 59.7665 64.9126 60.222 64.7607C60.0927 64.9238 60.0983 65.0419 60.3345 65.1038C60.3626 65.0138 60.3345 64.8788 60.447 64.8732C60.5594 64.8732 60.537 65.0138 60.5594 65.1038Z" fill="#020202"/>
<path fill-rule="evenodd" clip-rule="evenodd" d="M50.7405 66.2451C51.016 65.8796 50.5605 66.0314 50.5099 65.9021C50.6112 65.8683 51.0104 65.5928 50.7405 65.559C50.7742 65.6996 50.4087 65.9527 50.3975 65.6715C50.7574 65.7278 50.7011 65.2779 50.9711 65.559C50.5605 65.8571 51.0723 65.9414 50.8586 66.2451H50.7461H50.7405Z" fill="#020202"/>
<path fill-rule="evenodd" clip-rule="evenodd" d="M49.5991 66.357C49.6216 66.267 49.6947 66.222 49.8297 66.2445C49.6947 65.8508 49.661 66.2557 49.5991 65.789C49.8578 65.9633 50.0434 66.087 50.2852 65.9015C50.1727 65.9015 50.139 65.699 50.2852 65.6709C50.4145 66.0308 50.3358 65.9746 50.1727 66.2445H50.6282C50.5045 66.5032 49.9084 66.2895 49.5991 66.357Z" fill="#020202"/>
<path fill-rule="evenodd" clip-rule="evenodd" d="M23.5676 58.3662C23.4664 57.8095 23.7251 57.607 23.7982 57.2246H24.9398C25.1703 59.0747 26.2782 62.1396 24.2537 62.82C23.9388 61.8078 23.6182 60.7899 23.5676 59.5078V58.3662Z" fill="#010101"/>
<path fill-rule="evenodd" clip-rule="evenodd" d="M78.2512 60.1932C77.9532 62.6732 76.4911 63.9891 74.714 64.9901C74.4047 61.9815 77.0028 60.8849 77.1097 57.9101C77.6776 57.7976 77.6664 58.2644 78.1388 58.2531C78.0544 58.6018 78.3356 58.5905 78.2512 58.9392V60.1932Z" fill="#010101"/>
<path fill-rule="evenodd" clip-rule="evenodd" d="M83.846 61.6791C83.638 62.8826 82.9632 63.608 81.7935 63.8498C82.0971 62.3258 81.7428 60.1439 83.846 60.4251V61.6791Z" fill="#010101"/>
<path fill-rule="evenodd" clip-rule="evenodd" d="M34.185 89.7009C30.794 89.7009 29.7312 88.3344 29.4388 87.1872C29.0114 85.5114 29.9899 83.5769 30.7041 82.7502C31.5701 81.7436 33.454 80.8438 35.0792 80.6583C35.3491 80.6245 35.6528 80.6133 35.9733 80.6133C36.5357 80.6133 39.3924 80.6808 40.4328 81.991L40.6746 82.3003V84.1449C40.7533 85.5114 40.4496 86.518 40.1853 87.4065C40.1066 87.6708 40.0279 87.9407 39.9548 88.2163L39.7917 88.8742L39.1337 89.0373C38.3183 89.2398 36.2095 89.7122 34.185 89.7122V89.7009Z" fill="white"/>
<path d="M35.9735 81.7321C37.3175 81.7321 39.0439 82.047 39.55 82.6881V84.1727C39.6456 85.7529 39.162 86.7483 38.864 87.9404C37.6718 88.2385 35.8385 88.5815 34.1852 88.5815C32.4138 88.5815 30.8561 88.1879 30.5299 86.917C30.2375 85.7641 30.9404 84.2008 31.559 83.4922C32.2057 82.7499 33.814 81.9401 35.2143 81.7771C35.4449 81.7489 35.7036 81.7377 35.9791 81.7377M35.9791 79.4883C35.6136 79.4883 35.2705 79.5052 34.9556 79.5445C33.0549 79.7695 30.9123 80.8098 29.8607 82.0189C28.9609 83.0592 27.8194 85.3705 28.3536 87.4737C29.1015 90.3979 32.3294 90.8309 34.1908 90.8309C36.339 90.8309 38.5603 90.3361 39.4095 90.128L40.7254 89.8018L41.0515 88.4859C41.1134 88.2441 41.1865 87.9911 41.2652 87.7268C41.5408 86.8045 41.8838 85.6629 41.7995 84.1108V81.9064L41.3158 81.2934C39.9887 79.6176 36.8957 79.4883 35.9735 79.4883H35.9791Z" fill="#0B0907"/>
<path fill-rule="evenodd" clip-rule="evenodd" d="M44.6111 90.2137C43.3233 90.2137 41.9512 90.0394 40.6465 89.7132L39.848 89.5107L39.7974 88.6897C39.7468 87.8574 39.938 87.2501 40.0898 86.7608C40.2304 86.311 40.3316 85.9792 40.2641 85.4562L40.1516 84.6126L40.9389 84.2752C41.4619 84.0503 41.9568 83.7916 42.4854 83.5161C43.7732 82.8412 45.106 82.1439 46.9505 81.9077L47.0236 81.8965H49.2224C50.2909 81.9696 51.0163 82.3914 51.5955 82.7344C51.7192 82.8075 51.8373 82.875 51.9667 82.9481L52.5515 83.263V83.9322C52.5628 85.6024 52.0229 86.9914 50.9544 88.0655C49.5767 89.4489 47.3273 90.2081 44.6167 90.2081L44.6111 90.2137Z" fill="white"/>
<path d="M49.1381 83.0258C50.1391 83.0933 50.7295 83.5656 51.4212 83.9368C51.4381 87.6483 48.2046 89.0879 44.6055 89.0879C43.3796 89.0879 42.1087 88.9192 40.9165 88.6212C40.8321 87.2828 41.5688 86.7598 41.372 85.3089C43.2334 84.5104 44.718 83.3294 47.0799 83.0258H49.1325M49.2056 80.7764H46.9337L46.7931 80.7932C44.7461 81.0575 43.2615 81.8336 41.9512 82.5197C41.4451 82.784 40.9671 83.0314 40.4835 83.2395L38.9145 83.9143L39.1395 85.607C39.1732 85.8713 39.1395 85.995 39.0045 86.428C38.8358 86.9735 38.5996 87.7214 38.6671 88.7618L38.7683 90.4038L40.3654 90.8031C41.76 91.1518 43.2221 91.3373 44.6055 91.3373C47.6647 91.3373 50.1278 90.4826 51.7418 88.863C53.0127 87.5865 53.6763 85.8825 53.6707 83.9312V82.5984L52.4897 81.9629C52.3772 81.9011 52.2648 81.8392 52.1523 81.7717C51.5056 81.3893 50.6171 80.872 49.2843 80.782H49.2112L49.2056 80.7764Z" fill="#0B0907"/>
<path fill-rule="evenodd" clip-rule="evenodd" d="M60.3289 89.3064C60.3514 89.402 60.2839 89.4133 60.2164 89.4189C60.3289 89.5707 60.402 89.7619 60.5594 89.8744C60.4188 89.8744 60.2277 90.1612 59.9858 89.9869C59.744 90.1106 60.1377 89.8631 60.3289 89.8744C60.3626 89.6888 60.222 89.6776 60.2164 89.5313C59.6091 90.015 59.8677 89.7394 60.2164 89.3008H60.3289V89.3064Z" fill="#020202"/>
<path fill-rule="evenodd" clip-rule="evenodd" d="M61.1274 84.5098C61.5155 84.656 61.403 85.9044 61.2399 86.2249C61.1893 85.6682 61.358 84.8865 61.1274 84.5098Z" fill="#BABABA"/>
<path fill-rule="evenodd" clip-rule="evenodd" d="M54.8687 91.2535C54.3626 91.2535 53.8508 91.2423 53.3391 91.2311L52.9398 91.2198L52.7936 91.0961C52.6924 91.0961 52.5912 91.1017 52.4843 91.113C52.3269 91.1242 52.1638 91.1298 52.0176 91.1298C51.9051 91.1298 51.7982 91.1298 51.697 91.113H50.8591L50.5442 90.5112C49.7063 88.9198 50.6117 87.8344 51.1515 87.1821C51.5396 86.7154 51.697 86.496 51.6745 86.2036L51.5058 84.2691L53.2716 85.0845C53.5134 85.197 53.7384 85.2532 53.9633 85.2532C54.6438 85.2532 55.3692 84.7303 56.134 84.1735C57.0675 83.4931 58.1247 82.7227 59.4406 82.7227C60.256 82.7227 61.0546 83.0263 61.8194 83.6168L61.9768 83.7405L62.0837 83.9092C62.4155 84.4491 62.393 85.0677 62.3649 85.6131C62.3592 85.7987 62.348 85.9899 62.3649 86.1136V86.1755V86.2374C62.3592 86.7322 62.2861 87.154 62.2243 87.5308C62.1512 87.9807 62.0837 88.3687 62.1287 88.8579L62.1849 89.409L61.78 89.7858C61.5326 90.0164 61.257 90.112 61.0714 90.1738L60.869 90.4325H60.4585C58.8052 91.1523 56.7132 91.2535 54.8687 91.2535Z" fill="white"/>
<path d="M59.4349 83.8527C59.9579 83.8527 60.5147 84.0383 61.1276 84.5106C61.3638 84.8874 61.1895 85.6691 61.2401 86.2258C61.2288 87.2043 60.9027 87.8679 61.0095 88.9645C60.8296 89.1276 60.4753 89.1163 60.3234 89.3075H60.211C58.8276 89.9823 56.9212 90.1285 54.863 90.1285C54.3681 90.1285 53.8676 90.1173 53.3615 90.1061C53.2378 89.9992 53.041 89.9711 52.8104 89.9711C52.5574 89.9711 52.2706 90.0048 52.0175 90.0048C51.9275 90.0048 51.8432 90.0048 51.7644 89.988H51.5339C50.6454 88.2897 52.9398 87.8229 52.7879 86.1077C53.1984 86.2989 53.5865 86.3777 53.952 86.3777C56.0158 86.3777 57.4948 83.8471 59.4293 83.8471M59.4293 81.5977C57.7479 81.5977 56.477 82.5199 55.4591 83.2622C54.9305 83.6502 54.2669 84.1282 53.952 84.1282C53.8958 84.1282 53.8227 84.1057 53.7327 84.0664L50.2067 82.4356L50.5329 86.1527C50.4654 86.2427 50.3586 86.372 50.2798 86.4676C49.7062 87.1593 48.351 88.7789 49.5375 91.0396L50.1674 92.243H51.6351C51.7532 92.2542 51.8769 92.2599 52.0119 92.2599C52.1356 92.2599 52.2649 92.2599 52.3999 92.2486L52.5067 92.3386L53.3053 92.3555C53.8283 92.3667 54.3513 92.378 54.863 92.378C56.7469 92.378 58.8838 92.2767 60.6777 91.5569H61.4032L61.7518 91.1239C61.988 91.0227 62.2692 90.8652 62.5391 90.6122L63.3545 89.853L63.2477 88.7452C63.2139 88.4077 63.2589 88.1322 63.332 87.7161C63.3995 87.3224 63.4782 86.8332 63.4895 86.2539V86.1358L63.4782 86.0177C63.4782 85.9615 63.4782 85.7872 63.4895 85.6747C63.5176 85.073 63.557 84.162 63.034 83.3297L62.8203 82.9867L62.4997 82.7392C61.5325 81.9913 60.4978 81.6089 59.4293 81.6089V81.5977Z" fill="#0B0907"/>
<path fill-rule="evenodd" clip-rule="evenodd" d="M64.7831 84.1669C64.0689 84.628 64.8843 84.6336 64.5525 85.0779C64.8112 85.1116 64.9799 85.0497 65.008 84.8473C65.233 85.2016 64.4738 85.2297 64.2095 84.9598C64.4288 84.7067 64.3726 84.3243 64.665 83.9307C64.7831 84.0038 64.7831 84.195 65.008 84.1612C64.9799 84.3074 64.7831 84.2737 64.7774 84.1612L64.7831 84.1669Z" fill="#020202"/>
<path fill-rule="evenodd" clip-rule="evenodd" d="M65.3505 85.1957C65.3111 85.0382 65.148 85.1844 65.1199 85.3081C64.8387 85.0213 65.7441 84.9482 65.806 84.6221C66.0084 84.7064 65.8229 84.8301 65.806 84.9651C65.7329 85.1169 65.5642 85.1788 65.3505 85.1957Z" fill="#020202"/>
<path fill-rule="evenodd" clip-rule="evenodd" d="M70.6871 91.9171C67.3073 91.8158 64.3775 91.2928 61.9762 90.3593L61.0371 89.9938L61.3014 89.0209C61.8244 87.0808 62.9379 85.5287 64.7093 84.2859L64.9623 84.106H64.9848L65.0467 83.9766L65.6034 83.8754C65.924 83.8136 66.2895 83.6955 66.6775 83.5661C67.3411 83.3468 68.0946 83.0938 68.8707 83.0938C69.1856 83.0938 69.4893 83.1387 69.7704 83.2175C70.3103 83.3749 71.0695 83.8192 71.6262 85.0395C72.4585 86.8671 72.5035 89.6058 71.7331 91.276L71.4238 91.9508L70.6815 91.9283L70.6871 91.9171Z" fill="white"/>
<path d="M68.8764 84.2013C69.0788 84.2013 69.2756 84.2238 69.4612 84.28C71.0808 84.7524 71.6319 88.8014 70.7152 90.7865C67.538 90.6909 64.7374 90.2185 62.3812 89.3019C62.8817 87.4461 63.967 86.1696 65.3504 85.1911C65.5641 85.1742 65.7328 85.118 65.8059 84.9605C66.8013 84.7749 67.881 84.1957 68.8707 84.1957M68.8707 81.9463C67.9147 81.9463 67.0656 82.2275 66.3177 82.4749C65.969 82.593 65.6372 82.6998 65.3954 82.7448L64.2819 82.9529L64.1076 83.3072L64.0514 83.3465C62.0606 84.7524 60.801 86.5013 60.2049 88.7114L59.6763 90.6628L61.5601 91.3938C64.0795 92.3779 67.1387 92.929 70.6478 93.0303L72.1324 93.0752L72.7566 91.7256C73.662 89.7574 73.617 86.6757 72.6497 84.55C71.9131 82.936 70.8502 82.3343 70.0854 82.115C69.6974 82.0025 69.2925 81.9463 68.8707 81.9463Z" fill="#0B0907"/>
<path fill-rule="evenodd" clip-rule="evenodd" d="M45.4887 90.1055C45.618 90.128 45.5506 90.2179 45.4887 90.2179C45.5618 90.336 45.753 90.336 45.7193 90.561C45.5674 90.5216 45.5393 90.3585 45.3762 90.3304C45.3762 90.5272 45.4606 90.6285 45.6068 90.6734C45.7643 90.8309 45.1907 90.769 45.0332 90.561C45.0557 90.4316 45.1457 90.4991 45.1457 90.561C45.2975 90.4485 45.3762 90.2573 45.4887 90.1055Z" fill="#020202"/>
<path fill-rule="evenodd" clip-rule="evenodd" d="M34.2526 98.3118H34.2076C31.9526 98.1149 30.2318 97.5582 28.9496 96.6078L28.4941 96.2704V93.3574L28.5166 93.1437C28.5841 92.5476 28.6628 91.8728 28.9609 91.2992L29.1915 90.855C29.3433 90.4501 29.5739 90.1689 29.7426 89.9664C29.7988 89.899 29.8607 89.8315 29.9056 89.7584L30.2318 89.2129H39.5837L39.8874 89.8708C40.0055 90.1295 40.2192 90.3601 40.4666 90.63C40.9165 91.1249 41.4789 91.7379 41.6813 92.7445L41.7038 92.8513V94.2966L41.6926 94.3753C41.3833 96.6472 39.7862 97.9687 36.9407 98.3061H36.8732L34.247 98.3118H34.2526Z" fill="white"/>
<path d="M38.8639 90.3371C39.3194 91.3268 40.3372 91.7598 40.579 92.9633V94.2173C40.3091 96.1912 38.8189 96.9447 36.8113 97.1865H34.2976C32.4024 97.0234 30.7941 96.5792 29.6188 95.7019V93.4188C29.6863 92.8395 29.7369 92.2434 29.9618 91.8217C30.6479 91.6474 30.3498 91.5967 30.8728 91.1356C30.8503 91.085 30.8222 91.0681 30.7941 91.0681C30.6423 91.0681 30.4173 91.5461 30.2711 91.5461C30.243 91.5461 30.2149 91.5236 30.1924 91.4786C30.2767 90.9557 30.6479 90.7195 30.8785 90.3371H38.8695M40.3147 88.0877H29.6075L28.9665 89.1561C28.944 89.1899 28.9158 89.218 28.8877 89.2517C28.6965 89.4823 28.3929 89.8478 28.1792 90.3933L27.9767 90.7813C27.5774 91.5405 27.4875 92.3615 27.4087 93.0195L27.3919 93.1601L27.375 93.2894V96.8322L28.2804 97.5071C29.7313 98.5924 31.6433 99.2166 34.112 99.4303H34.2076L34.3032 99.4359H36.9462L37.0812 99.4191C41.3326 98.9129 42.5416 96.478 42.8116 94.521L42.8341 94.3691V92.7383L42.7891 92.519C42.5248 91.2031 41.7881 90.3989 41.2988 89.8647C41.1358 89.6904 40.9558 89.4879 40.9108 89.3923L40.3091 88.082L40.3147 88.0877Z" fill="#0B0907"/>
<path fill-rule="evenodd" clip-rule="evenodd" d="M30.1869 91.4775C30.3443 91.8093 30.7155 90.8027 30.8729 91.1345C30.3443 91.59 30.6424 91.6406 29.9619 91.8205C30.0575 91.7306 30.0294 91.5056 30.1925 91.4775H30.1869Z" fill="white"/>
<path fill-rule="evenodd" clip-rule="evenodd" d="M65.3511 98.4404H65.6941C65.7335 98.5923 65.8966 98.6204 65.9247 98.7835C66.234 98.9972 65.666 98.7553 65.6941 98.5529C65.2892 98.5641 65.9359 98.9297 65.5816 98.8959C65.3961 99.1996 65.6885 98.5979 65.3511 98.5529V98.4404Z" fill="#020202"/>
<path fill-rule="evenodd" clip-rule="evenodd" d="M64.8951 91.8207C65.3 91.5114 64.9119 91.2753 64.552 91.1347C64.3046 91.1628 65.3281 90.9828 65.1256 91.4777C65.2156 91.4158 65.3112 91.3596 65.4687 91.3652C65.7611 91.1515 65.1762 91.6577 65.0132 91.7083V91.8207H64.9007H64.8951Z" fill="#020202"/>
<path fill-rule="evenodd" clip-rule="evenodd" d="M64.6652 99.452C62.9219 99.4126 61.8085 98.7603 60.83 98.1811L60.2732 97.8549L60.2282 97.1857V96.2972L60.3463 96.106C60.3801 95.9373 60.3801 95.583 60.3463 95.4143L60.2226 95.2175V94.8913C60.2282 94.7451 60.2057 94.6101 60.1776 94.4302C60.127 94.1378 60.0708 93.7779 60.1101 93.3167C60.0933 93.0862 60.1101 92.8669 60.1214 92.6644C60.1214 92.6307 60.1214 92.5913 60.127 92.5519L60.1101 92.5351L60.0314 92.1864C59.9189 91.7084 60.0258 91.3541 60.1045 91.1517L59.9189 89.9482L61.2911 90.0101C61.8759 90.0382 62.5226 90.1901 63.2087 90.3531C63.7992 90.4937 64.4065 90.6399 64.9464 90.6905H65.1151L65.9867 90.8593C67.73 91.191 69.5352 91.5341 71.1154 92.1358L71.8633 92.4226L71.8408 93.2211C71.7227 96.9608 69.7545 99.109 66.1386 99.4464H66.088H64.6652V99.452Z" fill="white"/>
<path d="M61.2402 91.1348C62.1962 91.1798 63.6302 91.7084 64.8955 91.8209H65.008C66.9819 92.2033 69.0063 92.5407 70.7159 93.1931C70.6203 96.3704 69.0288 98.0518 66.0371 98.333H64.665C63.2141 98.2992 62.2918 97.7425 61.3527 97.1914V96.6178C61.5439 96.3085 61.5439 95.2119 61.3527 94.9026C61.3583 94.3234 61.1559 93.9579 61.2402 93.3055C61.1671 92.8838 61.3865 92.1696 61.1278 91.9334C61.0378 91.5397 61.2965 91.4948 61.2402 91.1348ZM58.5972 88.7673L58.9515 91.0617C58.8615 91.3992 58.8053 91.8771 58.9346 92.4395L58.9908 92.6813C58.9796 92.8613 58.9683 93.075 58.9796 93.3055C58.9402 93.8679 59.0189 94.3065 59.0696 94.6102C59.0864 94.7227 59.1033 94.8239 59.1033 94.8689L59.0921 95.5212L59.2383 95.7574L59.1033 95.9767V98.4679L60.2111 99.1203L60.2561 99.1484C61.3021 99.7613 62.5955 100.526 64.6087 100.571H64.6368H64.665H66.1383L66.2396 100.56C70.3785 100.177 72.8303 97.5119 72.9597 93.2493L73.0103 91.6466L71.5144 91.0786C69.8442 90.4432 67.9941 90.0889 66.2002 89.7515C65.9415 89.7008 65.6884 89.6559 65.4298 89.6052L65.2161 89.5659H64.9968C64.5412 89.5153 63.9901 89.3859 63.4615 89.2566C62.7249 89.0823 62.0219 88.9136 61.3302 88.8854L58.5859 88.7617L58.5972 88.7673Z" fill="#0B0907"/>
<path fill-rule="evenodd" clip-rule="evenodd" d="M45.7363 98.917C45.4945 98.917 45.2471 98.9001 45.0052 98.872C43.8805 98.7314 41.9235 97.9722 41.2993 96.8025C40.8157 95.9027 40.9619 95.0142 41.08 94.3057C41.1812 93.6758 41.2375 93.2709 41.0463 92.8773L40.6245 91.9944L41.4455 91.4545C42.7671 90.5829 44.471 89.6944 47.0803 89.6719H49.2398L49.5603 90.2511C49.639 90.3917 49.7178 90.5267 49.7965 90.6616C50.1733 91.2915 50.6456 92.0731 50.7244 93.2316V93.3103V94.7443V94.8062C50.4601 97.1568 48.3175 98.9282 45.7363 98.9282V98.917Z" fill="white"/>
<path d="M48.5705 90.7914C48.9922 91.5506 49.5208 92.1973 49.5996 93.3051V94.6773C49.4028 96.4768 47.7494 97.7983 45.7362 97.7983C45.5394 97.7983 45.3426 97.7871 45.1457 97.7589C44.2122 97.6408 42.677 96.9998 42.289 96.2743C41.6648 95.1103 42.7389 93.8225 42.0584 92.3941C43.3912 91.5168 44.8927 90.8139 47.0802 90.797H48.5649M42.857 92.3941C42.7445 92.3941 42.722 92.4841 42.632 92.5066C42.8401 92.7146 42.5533 93.0183 42.5645 93.0183C42.5645 93.0183 42.587 93.0014 42.632 92.9621C42.7445 92.9621 42.767 92.8721 42.857 92.8496C43.0707 93.0521 42.6995 93.2039 43.0875 93.3051C43.1213 93.1308 42.9694 92.7259 42.9469 92.619C42.9526 92.619 42.9638 92.619 42.9694 92.619L42.9469 92.5965C42.9469 92.5965 42.9469 92.6078 42.9469 92.6247C42.8513 92.6359 42.8289 92.7203 42.7445 92.7371C42.6995 92.5684 42.9526 92.3154 42.9526 92.3154C42.9526 92.3154 42.9245 92.3379 42.8626 92.3941M49.8976 88.5476H47.0859C44.156 88.5701 42.2046 89.6105 40.8269 90.5158L40.6132 90.6564L40.2758 90.7014L40.3095 90.8589L39.1904 91.5899L40.034 93.3613C40.0789 93.4626 40.0227 93.8281 39.9721 94.1261C39.8428 94.9134 39.6459 96.1 40.3095 97.3372C41.288 99.1648 43.9311 99.8734 44.8646 99.9915C45.157 100.031 45.4494 100.048 45.7362 100.048C48.891 100.048 51.5116 97.8433 51.8321 94.9247L51.8434 94.801V93.1533C51.7421 91.7305 51.1685 90.7801 50.7524 90.0828C50.6793 89.9591 50.6062 89.8354 50.5331 89.7061L49.892 88.542L49.8976 88.5476Z" fill="#0B0907"/>
<path fill-rule="evenodd" clip-rule="evenodd" d="M51.3086 93.5311C51.2074 93.4805 51.1062 93.4298 51.0781 93.3005C50.9881 93.3961 50.7631 93.368 50.735 93.5311C50.8925 93.666 50.7463 93.5761 50.6226 93.5311C50.8138 93.2668 51.0837 93.1655 50.8531 92.9631C51.0162 92.6257 51.0949 93.3174 51.1962 93.4186H51.3086V93.5311Z" fill="#020202"/>
<path fill-rule="evenodd" clip-rule="evenodd" d="M57.3599 97.7539H58.046C58.0066 97.827 58.0854 98.0801 58.046 98.2094C58.1079 98.5468 57.7705 97.5065 57.5905 98.2094C57.6861 98.2319 57.6973 98.1644 57.703 98.0969C57.9392 98.4625 57.2643 98.1982 57.3599 97.7539Z" fill="#020202"/>
<path fill-rule="evenodd" clip-rule="evenodd" d="M56.8359 99.0012C56.7291 99.0012 56.6222 99.0012 56.5154 98.9956C56.4366 98.9956 56.3635 98.9899 56.2848 98.9899C56.2567 98.9899 56.1555 98.9956 56.1555 98.9956H53.7092C53.6755 98.9956 53.6024 98.9956 53.5349 98.9956C52.2134 98.9956 51.2742 98.6019 50.4532 98.1802L49.5703 97.7247L49.919 96.7911C50.2226 95.9814 50.2058 94.6317 50.1889 93.5408V92.596L50.3351 92.551C50.4195 92.0393 50.65 91.6906 50.8019 91.4657L51.1337 90.9652L51.7635 90.9202H53.8948C54.086 90.9089 54.2716 90.9033 54.4459 90.9033C54.907 90.9033 55.3176 90.9371 55.7168 90.9764C56.0486 91.0045 56.3635 91.0327 56.6897 91.0383H56.9203L57.134 91.1395C57.1621 91.1451 57.3814 91.1845 57.7019 91.1845C58.0225 91.1845 58.2418 91.1451 58.298 91.1283L58.5173 91.027L58.731 91.0383H60.3619L60.4237 92.0955C60.4237 92.163 60.4518 92.2361 60.4968 92.3767C60.5924 92.6691 60.733 93.1077 60.6543 93.7263V95.2503C60.6993 96.5043 60.2719 97.376 59.7995 98.1295L59.6758 98.332L59.479 98.467C59.2315 98.6357 58.9728 98.6919 58.7648 98.72L58.6579 98.8887H57.6288C57.342 98.9956 57.0552 99.0124 56.8359 99.0124V99.0012Z" fill="white"/>
<path d="M54.4519 92.0277C55.2392 92.0277 55.9028 92.1458 56.6732 92.1627C56.8869 92.2583 57.2918 92.3033 57.7023 92.3033C58.1128 92.3033 58.5177 92.2583 58.7314 92.1627H59.305C59.3387 92.7026 59.6368 92.9725 59.5356 93.6473V95.2444C59.5749 96.2735 59.2319 96.9202 58.8495 97.5275C58.6471 97.6681 58.1859 97.55 58.051 97.7581H57.3649C57.2468 97.8593 57.0556 97.8818 56.8419 97.8818C56.6619 97.8818 56.4708 97.8649 56.2908 97.8649C56.2289 97.8649 56.1671 97.865 56.1108 97.8706H53.7152C53.6534 97.8706 53.5971 97.8706 53.5353 97.8706C52.4499 97.8706 51.6907 97.55 50.9709 97.1845C51.3308 96.2116 51.3308 94.8789 51.314 93.5292V93.4167C51.7301 93.2818 51.9438 92.7307 52.2025 92.7307C52.2081 92.7307 52.2194 92.7307 52.225 92.7307C52.2306 92.5901 52.2081 92.5338 52.1688 92.5338C52.0394 92.5338 51.7076 93.1018 51.5277 93.1018C51.4827 93.1018 51.4433 93.0625 51.4208 92.9612C51.4208 92.5395 51.5952 92.2977 51.7639 92.0502H53.9345C54.1145 92.039 54.2832 92.0334 54.4519 92.0334M53.3609 92.4607C53.2935 92.4607 53.2316 92.4382 53.1697 92.4382C53.1191 92.4382 53.0685 92.4551 53.0235 92.5057C53.091 92.5114 53.1585 92.5226 53.136 92.6182C53.0741 92.6182 53.0067 92.7082 53.136 92.7307C53.1472 92.5845 53.1866 92.5338 53.2372 92.5338C53.3553 92.5338 53.5296 92.8263 53.5296 92.8263C53.5296 92.8263 53.5128 92.7982 53.4734 92.7307C53.4453 92.562 53.6984 92.1964 53.6702 92.1964C53.6646 92.1964 53.6365 92.2189 53.5859 92.2752C53.5128 92.4214 53.434 92.4551 53.3553 92.4551M54.4463 89.7783C54.2438 89.7783 54.0526 89.7839 53.8558 89.7952H50.5548L49.8856 90.8018L49.8575 90.8412C49.7394 91.0155 49.5538 91.291 49.4076 91.6678L49.0533 91.7859V93.5348C49.0646 94.5021 49.0814 95.7899 48.8509 96.4028L48.1592 98.2698L49.9306 99.1865C50.8304 99.6476 51.9607 100.126 53.524 100.126C53.5915 100.126 53.6646 100.126 53.7377 100.126H56.2795C56.347 100.12 56.4033 100.126 56.4651 100.126C56.5888 100.126 56.7126 100.137 56.8363 100.137C57.005 100.137 57.3761 100.137 57.8091 100.013H59.2713L59.4681 99.7151C59.6762 99.6476 59.8955 99.5464 60.1148 99.4002L60.5084 99.1359L60.7615 98.7366C61.2957 97.8818 61.8356 96.7965 61.7906 95.2219V93.7991C61.875 92.9725 61.6838 92.3708 61.5769 92.039C61.5713 92.0165 61.56 91.9884 61.5544 91.9659L61.4307 89.9245H58.2647L57.9722 90.0539C57.916 90.0595 57.826 90.0651 57.7192 90.0651C57.6123 90.0651 57.5223 90.0595 57.4661 90.0539L57.1906 89.9302H56.7238C56.437 89.9189 56.1446 89.8908 55.8353 89.8683C55.436 89.8346 54.9805 89.7952 54.4688 89.7952L54.4463 89.7783Z" fill="#0B0907"/>
<path fill-rule="evenodd" clip-rule="evenodd" d="M51.4213 92.962C51.5394 93.5581 52.2592 92.0116 52.2199 92.7314C51.9499 92.6977 51.7362 93.2769 51.3089 93.4175C51.3201 93.2375 51.2526 92.9845 51.4213 92.962Z" fill="white"/>
<path fill-rule="evenodd" clip-rule="evenodd" d="M53.5924 92.2767C53.8454 92.0011 53.4462 92.5241 53.4799 92.7322C53.6936 93.1202 53.1875 92.1361 53.1369 92.7322C53.0075 92.7097 53.075 92.6197 53.1369 92.6197C53.1594 92.5241 53.0919 92.5128 53.0244 92.5072C53.1819 92.3048 53.4181 92.6422 53.598 92.2767H53.5924Z" fill="white"/>
<path fill-rule="evenodd" clip-rule="evenodd" d="M42.8621 92.3889C43.1433 92.1471 42.6934 92.507 42.7496 92.732C42.8396 92.7095 42.8621 92.6195 42.9802 92.6195C42.8677 92.4677 43.1433 93.075 43.0927 93.3056C42.7103 93.2044 43.0814 93.0525 42.8621 92.8501C42.7721 92.8726 42.7496 92.9625 42.6315 92.9625C42.3897 93.1706 42.8902 92.7657 42.6315 92.507C42.7215 92.4845 42.744 92.3946 42.8621 92.3946V92.3889Z" fill="white"/>
<path fill-rule="evenodd" clip-rule="evenodd" d="M50.8534 96.8422C50.7522 96.741 50.5047 96.831 50.5103 96.3867C50.6622 96.4992 50.7353 96.696 50.9659 96.7297C50.8984 96.9659 50.724 97.1009 50.6228 97.3033C50.381 97.2696 50.7859 96.9491 50.8534 96.8478V96.8422Z" fill="#020202"/>
<path fill-rule="evenodd" clip-rule="evenodd" d="M29.9619 103.005C30.0406 102.696 29.7257 102.786 29.6188 102.662C29.6188 102.55 29.7594 102.572 29.8494 102.55C29.81 102.42 29.6469 102.263 29.6188 102.437C29.4389 102.398 29.72 102.235 29.5063 102.207C29.6076 101.897 29.7594 102.465 29.9619 102.437C29.8325 102.6 29.8381 102.718 30.0743 102.78C30.0462 102.87 30.0743 103.005 29.9619 103.011V103.005Z" fill="#020202"/>
<path fill-rule="evenodd" clip-rule="evenodd" d="M30.074 102.781C30.462 101.46 30.7545 100.037 30.985 98.5579C32.2672 98.8503 33.5606 98.7435 34.7528 99.0134C35.287 99.1371 35.8438 99.5589 36.3499 99.587C38.245 99.6826 39.5047 98.0406 40.9162 97.1914C42.457 98.4623 44.5827 99.1596 47.1977 99.3621C47.3945 99.6208 48.0693 99.4015 48.4517 99.4746H50.1669C50.5155 99.4015 51.151 99.6208 51.3085 99.3621C53.2711 99.2271 55.1606 99.0303 57.2469 99.0191H61.0147C63.8714 99.199 66.267 101.038 69.2363 100.048C71.1483 106.459 75.2647 111.796 73.915 120.715C69.6018 122.036 64.9624 123.026 59.53 123.228C59.0352 123.301 58.2366 123.076 57.933 123.341H51.9945C51.6515 123.076 50.8192 123.301 50.2793 123.228C39.4484 122.531 30.4677 119.978 24.248 114.664C26.2725 110.902 28.6232 107.471 29.9559 103.017C30.0684 103.017 30.0459 102.877 30.0684 102.787L30.074 102.781ZM61.7007 107.347C62.3474 107.235 62.921 107.044 63.4159 106.78C63.2753 104.508 59.0239 104.772 59.1926 107.123C59.5525 107.066 59.5975 107.331 59.9912 107.235C60.1037 107.235 60.1261 107.325 60.2217 107.347H60.4523C60.6098 107.539 61.5489 107.539 61.7064 107.347H61.7007ZM65.2379 111.115C65.1873 110.137 62.9604 109.715 62.0438 110.429C61.5826 112.662 65.3167 112.611 65.2379 111.115Z" fill="#6DDE00"/>
<path fill-rule="evenodd" clip-rule="evenodd" d="M59.1873 97.8715V97.641C59.3392 97.6241 59.4179 98.2202 59.5304 97.8715C59.8622 97.9334 59.356 98.0515 59.4179 98.2146C59.193 98.2146 59.2717 97.9053 58.9624 97.984C58.9624 97.8716 59.103 97.894 59.193 97.8715H59.1873Z" fill="#020202"/>
<path fill-rule="evenodd" clip-rule="evenodd" d="M59.9857 107.229C59.5921 107.319 59.5471 107.06 59.1872 107.117C59.0241 104.766 63.2699 104.502 63.4105 106.773C62.9156 107.038 62.342 107.229 61.6953 107.341H60.2107C60.3344 107.133 59.9295 106.97 60.5537 107.111C60.4862 107.01 60.4131 106.908 60.5537 106.88C60.4188 106.706 60.0701 106.83 59.9801 107.223L59.9857 107.229Z" fill="#010101"/>
<path fill-rule="evenodd" clip-rule="evenodd" d="M59.9858 107.23C60.0702 106.836 60.4188 106.712 60.5594 106.887C60.4188 106.909 60.492 107.016 60.5594 107.117C59.9352 106.977 60.3401 107.14 60.2164 107.348C60.1264 107.325 60.1039 107.235 59.9858 107.235V107.23Z" fill="#020202"/>
<path fill-rule="evenodd" clip-rule="evenodd" d="M62.0442 110.429C62.9609 109.714 65.1878 110.136 65.2384 111.115C65.3171 112.611 61.5775 112.661 62.0442 110.429Z" fill="#010101"/>
<path fill-rule="evenodd" clip-rule="evenodd" d="M36.356 123.099C36.5023 122.745 36.5079 123.425 36.2436 123.33C36.2661 123.42 36.356 123.442 36.356 123.56C36.4629 123.476 36.5304 123.352 36.5866 123.217C36.7666 123.257 36.4854 123.42 36.6991 123.448C36.671 123.572 36.4741 123.527 36.4685 123.678C36.0018 123.324 35.9849 123.363 36.356 123.105V123.099Z" fill="#020202"/>
<path fill-rule="evenodd" clip-rule="evenodd" d="M59.5302 125.724C59.6595 125.747 59.5921 125.837 59.5302 125.837C59.9632 126.332 59.4627 125.91 59.2996 126.405C59.1591 126.354 59.0635 126.259 59.0691 126.062C59.1816 126.062 59.1591 126.202 59.1816 126.292C59.4459 126.259 59.4459 125.983 59.1816 125.949C59.204 125.82 59.294 125.887 59.294 125.949C59.3952 125.899 59.4965 125.848 59.5246 125.719L59.5302 125.724Z" fill="#020202"/>
<path fill-rule="evenodd" clip-rule="evenodd" d="M43.6606 5.05021C43.8575 4.79153 44.5323 5.01084 44.9147 4.93774V5.05021H43.6606Z" fill="#454545"/>
<path fill-rule="evenodd" clip-rule="evenodd" d="M44.9146 4.93774C45.3757 5.01084 46.1292 4.79153 46.3992 5.05021H44.9146V4.93774Z" fill="#606161"/>
<path fill-rule="evenodd" clip-rule="evenodd" d="M33.3867 31.4246C33.5104 31.2335 34.4046 31.2335 34.5283 31.4246H33.3867Z" fill="#454545"/>
<path fill-rule="evenodd" clip-rule="evenodd" d="M97.208 56.0834V54.4863C97.4723 54.7956 97.2474 55.5885 97.3205 56.0834H97.208Z" fill="#9A9A9A"/>
<path fill-rule="evenodd" clip-rule="evenodd" d="M23.793 57.2245C23.9167 57.0333 24.8108 57.0333 24.9345 57.2245H23.793Z" fill="#212121"/>
<path fill-rule="evenodd" clip-rule="evenodd" d="M93.8959 58.2538C93.6316 57.7926 93.8565 56.8479 93.7834 56.2012C94.0477 56.6623 93.8228 57.6071 93.8959 58.2538Z" fill="#7C7B7B"/>
<path fill-rule="evenodd" clip-rule="evenodd" d="M2.44613 56.7695V58.2541C2.25493 58.018 2.25493 57.0057 2.44613 56.7695Z" fill="#BABABA"/>
<path fill-rule="evenodd" clip-rule="evenodd" d="M97.3205 56.083C97.2474 56.8815 97.4723 57.9838 97.208 58.5967V56.083H97.3205Z" fill="#454545"/>
<path fill-rule="evenodd" clip-rule="evenodd" d="M78.251 60.1935V58.9395C78.4422 59.0969 78.4422 60.036 78.251 60.1935Z" fill="#454545"/>
<path fill-rule="evenodd" clip-rule="evenodd" d="M23.5677 59.5078C23.3765 59.3841 23.3765 58.4899 23.5677 58.3662V59.5078Z" fill="#212121"/>
<path fill-rule="evenodd" clip-rule="evenodd" d="M83.8467 61.6788V60.4248C84.0379 60.5823 84.0379 61.5214 83.8467 61.6788Z" fill="#7C7B7B"/>
<path fill-rule="evenodd" clip-rule="evenodd" d="M13.0628 62.9326H13.4058C13.3552 63.3937 12.8659 63.6862 12.7197 63.1632C12.8828 63.1351 12.9109 62.9776 13.0628 62.9326Z" fill="#010101"/>
<path fill-rule="evenodd" clip-rule="evenodd" d="M51.9951 66.1329V64.7607C52.1863 64.9576 52.1863 65.9361 51.9951 66.1329Z" fill="#313131"/>
<path fill-rule="evenodd" clip-rule="evenodd" d="M47.1982 66.2454C47.5806 66.3185 48.2611 66.0991 48.4523 66.3578C48.0699 66.2847 47.3894 66.504 47.1982 66.2454Z" fill="#212121"/>
<path fill-rule="evenodd" clip-rule="evenodd" d="M93.4399 67.1561C93.6761 66.9649 94.6884 66.9649 94.9246 67.1561H93.4399Z" fill="#606161"/>
<path fill-rule="evenodd" clip-rule="evenodd" d="M55.7622 67.156C56.7913 67.2291 58.1185 67.0042 58.9564 67.2685C57.9273 67.1954 56.6001 67.4203 55.7622 67.156Z" fill="#7C7B7B"/>
<path fill-rule="evenodd" clip-rule="evenodd" d="M47.0854 83.0252C47.5072 82.834 48.7163 82.834 49.138 83.0252H47.0854Z" fill="#BABABA"/>
<path fill-rule="evenodd" clip-rule="evenodd" d="M51.7642 89.9924C52.259 90.0655 53.0519 89.8462 53.3612 90.1049C52.8664 90.0318 52.0735 90.2511 51.7642 89.9924Z" fill="#454545"/>
<path fill-rule="evenodd" clip-rule="evenodd" d="M47.0854 90.7918C47.3216 90.6006 48.3339 90.6006 48.5701 90.7918H47.0854Z" fill="#7C7B7B"/>
<path fill-rule="evenodd" clip-rule="evenodd" d="M52.563 92.0457C52.7598 91.8545 53.7383 91.8545 53.9351 92.0457H52.563Z" fill="#454545"/>
<path fill-rule="evenodd" clip-rule="evenodd" d="M40.5791 94.2169V92.9629C40.7703 93.1203 40.7703 94.0595 40.5791 94.2169Z" fill="#7C7B7B"/>
<path fill-rule="evenodd" clip-rule="evenodd" d="M61.2401 93.2999C60.9758 93.0693 61.2008 92.3495 61.1277 91.9277C61.392 92.1583 61.167 92.8781 61.2401 93.2999Z" fill="#454545"/>
<path fill-rule="evenodd" clip-rule="evenodd" d="M49.5991 94.6729V93.3008C49.7903 93.4976 49.7903 94.4761 49.5991 94.6729Z" fill="#7C7B7B"/>
<path fill-rule="evenodd" clip-rule="evenodd" d="M59.5303 93.6426C59.7215 93.9125 59.7215 94.9697 59.5303 95.2397V93.6426Z" fill="#7C7B7B"/>
<path fill-rule="evenodd" clip-rule="evenodd" d="M61.3579 94.9023C61.5491 95.2116 61.5491 96.3082 61.3579 96.6119V94.9023Z" fill="#454545"/>
<path fill-rule="evenodd" clip-rule="evenodd" d="M29.619 95.7011C29.4278 95.2062 29.4278 93.9128 29.619 93.418V95.7011Z" fill="#9A9A9A"/>
<path fill-rule="evenodd" clip-rule="evenodd" d="M53.7046 97.8721H56.1002C55.566 98.0633 54.2388 98.0633 53.7046 97.8721Z" fill="#7C7B7B"/>
<path fill-rule="evenodd" clip-rule="evenodd" d="M64.6646 98.3271H66.0367C66.0198 98.4621 65.8286 98.4228 65.6937 98.4396H65.3506C65.1482 98.3721 64.6814 98.5802 64.6646 98.3271Z" fill="#454545"/>
<path fill-rule="evenodd" clip-rule="evenodd" d="M57.2471 99.0125C58.2368 98.8213 60.0251 98.8213 61.0148 99.0125H57.2471Z" fill="#7C7B7B"/>
<path fill-rule="evenodd" clip-rule="evenodd" d="M47.1982 99.3506H48.4523V99.463C48.0699 99.3899 47.3894 99.6093 47.1982 99.3506Z" fill="#9A9A9A"/>
<path fill-rule="evenodd" clip-rule="evenodd" d="M48.458 99.3506H50.1732V99.463H48.458V99.3506Z" fill="#7C7B7B"/>
<path fill-rule="evenodd" clip-rule="evenodd" d="M50.1675 99.3506H51.3091C51.1516 99.6093 50.5161 99.3956 50.1675 99.463V99.3506Z" fill="#BABABA"/>
<path fill-rule="evenodd" clip-rule="evenodd" d="M27.6792 98.5527C27.8704 99.0139 27.8704 100.262 27.6792 100.723V98.5527Z" fill="#7C7B7B"/>
<path fill-rule="evenodd" clip-rule="evenodd" d="M60.4414 107.348H61.6955C61.538 107.539 60.5989 107.539 60.4414 107.348Z" fill="#7C7B7B"/>
<path fill-rule="evenodd" clip-rule="evenodd" d="M50.2793 123.218C50.8135 123.291 51.6458 123.066 51.9945 123.33C51.4602 123.257 50.628 123.482 50.2793 123.218Z" fill="#7C7B7B"/>
<path fill-rule="evenodd" clip-rule="evenodd" d="M57.9331 123.33C58.2424 123.066 59.0353 123.291 59.5302 123.218C59.2209 123.482 58.428 123.257 57.9331 123.33Z" fill="#7C7B7B"/>
<path fill-rule="evenodd" clip-rule="evenodd" d="M52.7935 123.329H57.1292C55.9483 123.52 53.9688 123.52 52.7935 123.329Z" fill="#454545"/>
<path fill-rule="evenodd" clip-rule="evenodd" d="M53.3672 126.523C54.1657 126.596 55.2679 126.371 55.8809 126.636C55.0824 126.563 53.9802 126.787 53.3672 126.523Z" fill="#454545"/>
<path fill-rule="evenodd" clip-rule="evenodd" d="M54.2782 59.2773V60.8744C54.087 60.6045 54.087 59.5473 54.2782 59.2773Z" fill="#BABABA"/>
<path fill-rule="evenodd" clip-rule="evenodd" d="M54.2778 61.4482C54.469 62.2861 54.469 63.9226 54.2778 64.7605V61.4482Z" fill="#BABABA"/>
<path fill-rule="evenodd" clip-rule="evenodd" d="M34.2974 97.1855H36.8111C36.2375 97.3767 34.871 97.3767 34.2974 97.1855Z" fill="#BABABA"/>
<path fill-rule="evenodd" clip-rule="evenodd" d="M32.9253 90.3358C33.9938 90.1446 35.8552 90.1446 36.9236 90.3358H32.9253Z" fill="#454545"/>
<path fill-rule="evenodd" clip-rule="evenodd" d="M56.9043 126.641C56.8874 126.394 57.3092 126.591 57.4779 126.529H59.3055C58.7319 126.793 57.6691 126.568 56.9099 126.641H56.9043Z" fill="#454545"/>
<path fill-rule="evenodd" clip-rule="evenodd" d="M49.5373 65.7001C49.0424 65.5145 48.3339 65.4246 47.3047 65.4246C47.1304 65.4246 46.9505 65.4246 46.7649 65.4302L45.4434 65.4639L45.6233 64.1537C45.8258 62.669 46.4556 61.6174 47.0123 60.6839C47.2935 60.2172 47.5578 59.7729 47.7603 59.3005L48.3957 57.8047L49.571 58.9238C50.7182 60.0204 50.8476 61.7861 50.9713 63.4957C50.9938 63.8444 51.0219 64.193 51.0556 64.5304L51.2412 66.3412L49.5373 65.6945V65.7001Z" fill="#151515"/>
<path d="M48.7952 59.7391C49.8299 60.7232 49.7512 62.8152 49.9367 64.6484C49.2169 64.3729 48.2947 64.2998 47.3049 64.2998C47.1194 64.2998 46.9338 64.2998 46.7426 64.3054C47.0125 62.3653 48.1372 61.2856 48.7952 59.7391ZM47.9966 55.8701L46.7257 58.8562C46.5514 59.2611 46.3096 59.6716 46.0509 60.1046C45.4717 61.0775 44.7519 62.2866 44.5157 63.9961L44.1558 66.6167L46.7988 66.5548C46.9732 66.5548 47.1419 66.5492 47.3106 66.5492C48.171 66.5492 48.7895 66.6167 49.1438 66.7516L52.5461 68.0451L52.1805 64.4235C52.1468 64.0973 52.1243 63.7543 52.0962 63.4169C51.9668 61.5836 51.815 59.5085 50.3529 58.1083L48.0023 55.8701H47.9966Z" fill="#151515"/>
<path fill-rule="evenodd" clip-rule="evenodd" d="M57.3312 66.4705C56.3583 66.4705 55.4079 66.0994 55.2224 66.0262L54.2607 65.6326L54.57 64.6429C54.8118 63.8781 54.8962 62.9052 54.9918 61.8761C55.048 61.2181 55.1099 60.5377 55.2167 59.891L55.5317 57.9902L57.0331 59.1993C58.0679 60.0259 58.484 61.4656 58.8495 62.7365C59.0126 63.3045 59.187 63.8949 59.3613 64.1986L59.5918 64.5979L59.4738 65.0478C59.3838 65.3795 58.9676 66.4705 57.3256 66.4705H57.3312Z" fill="#151515"/>
<path d="M56.3308 60.0818C57.5342 61.0491 57.731 63.6247 58.3834 64.7606C58.2653 65.2049 57.8266 65.3511 57.3261 65.3511C56.7188 65.3511 56.0102 65.143 55.6447 64.9912C56.0946 63.574 56.0665 61.6845 56.3308 60.0818ZM54.7337 55.9148L54.1095 59.7163C53.997 60.4024 53.9352 61.1053 53.8733 61.7858C53.7889 62.7136 53.7046 63.6696 53.5021 64.3163L52.8779 66.2902L54.7956 67.0719C55.0992 67.1956 56.1733 67.6005 57.3261 67.6005C59.2663 67.6005 60.2672 66.4364 60.5597 65.3398L60.7959 64.4457L60.3347 63.6415C60.2279 63.456 60.0536 62.8599 59.9298 62.4268C59.5362 61.0716 59.0469 59.3789 57.7367 58.3273L54.7337 55.9092V55.9148Z" fill="#0B0907"/>
</svg>
