<?xml version="1.0" encoding="utf-8"?>
<!-- Generator: Adobe Illustrator 27.7.0, SVG Export Plug-In . SVG Version: 6.00 Build 0)  -->
<svg version="1.1" id="Layer_1" xmlns="http://www.w3.org/2000/svg" xmlns:xlink="http://www.w3.org/1999/xlink" x="0px" y="0px"
	 viewBox="0 0 159 159" style="enable-background:new 0 0 159 159;" xml:space="preserve">
<style type="text/css">
	.st0{fill:#6DDE00;}
	.st1{fill-rule:evenodd;clip-rule:evenodd;fill:#FFFFFF;}
	.st2{fill-rule:evenodd;clip-rule:evenodd;fill:#010101;}
</style>
<circle class="st0" cx="79.3" cy="79.3" r="78.9"/>
<g>
	<path class="st1" d="M97.8,121.5c-4.2,0.2-7.9-2.4-12-1.5c-6,0.1-13.7,1.6-18.9-1.6c-1.3,1-2.8,2.3-5,2.3l0,0
		c-1.8-0.2-2.9-1.1-4.7-0.9c-0.2,1.1-0.4,2-0.7,2.9l0.2,0.8l-0.5,0.1l-0.3,1.2l-0.1,0c-1.4,4.1-3.4,7.2-5.4,10.7
		c6.3,4.9,15.9,7.7,27.9,8.4l0.1,0.1c1.6-0.1,2.8,0.1,4.5,0.1c1.7,0,2.8-0.3,4.3-0.2l0.1-0.1c5.2-0.1,10-0.9,15.4-2.5
		C103.6,133.2,100.2,128.1,97.8,121.5z"/>
	<path class="st1" d="M125.3,70.1c-0.6-4.1-0.6-8.3-1.8-11.9l0.1,0c-2.4-10.8-7.6-19.7-15.2-27.1h-0.2c-5.2-5.8-13.7-11.3-22.1-13.3
		c-3.9-3.2-7.9-4.8-13.8-4.8l-0.1-0.1c-0.2,0-0.3,0-0.5,0v0c-0.2,0-0.4,0-0.6,0L70.9,13c-1.5-0.1-3.1,0.1-4.5,0.4v0
		c-3.1,0.6-6.1,1.7-8.8,3.3l1.1,1.2l-3-0.1C39,28.7,32.4,42.7,29.4,65.2l-0.1,0l0.2,0.8h-0.3c-0.4,3.7,0,6.7,0.9,7.9
		c2.4,0.4,4.9,0.9,7.3,1.7l0,0.1c6.1,2.4,10.3,6.6,13.6,11.4l1.3,0.2l-0.5,1c1.4,2.2,2.6,4.4,3.7,6.7c4-1.7,9.9-0.7,13.4,1.5
		c4.2-2.2,10.3-0.8,13.9,2c3.3-3,7-2.4,10.2,0.5c2.1-0.5,4.4-2.9,7.1-2.1c4.2-10,12.5-17.2,25.2-21.8
		C125.3,73.9,125.3,71.2,125.3,70.1z"/>
	<path class="st1" d="M91.3,104.1c0.8-8.4-6.9-2.1-10.3-1.8c-1.6-0.3-0.1-2.3-1.9-2.7c-3.8-2.9-9.6,0.9-12.4,1.6
		c-0.3-9.7-19.7-0.4-10.7,5.8c-2.1-0.3-3,3-3.2,4.7c-1.8,6.8,11.6,7.3,14.3,3.2c1.4,3.9,7.9,4.1,10.1,0.9c-1,3.1,11.2,3.6,11.8,0.5
		c3.2,6.6,18.5-0.9,11.6-6.2C107.4,105,98.1,94.1,91.3,104.1z M67.5,109.5c-1.3-0.1-1.5-2.8-3.1-2.6c0.5-0.1,0.9-0.2,1.3-0.4
		c0.1,1.7,3.4,1.2,4.7,1.6C69.2,108.5,68.3,109,67.5,109.5z M75.2,107.5c2.7-1.7,2.4-0.1,2.9,2C77.3,111.2,77.1,106.6,75.2,107.5z
		 M87.2,109c-0.4,0-1.1,0.3-1.7,0.1C87.1,108.7,90.5,108.8,87.2,109z"/>
</g>
<g>
	<path class="st2" d="M129.3,57.3c-0.6,0.1-0.1,0.3-0.3,0.4c-0.4-0.3-0.2-0.6,0.1-0.6c-0.1-0.1,0-0.2,0.1-0.2
		c-3.9-15.6-12.2-26.1-22.8-35.6c-0.2,0.1-0.6,0.5-0.6,0c0.2,0.3,0.3,0,0.4-0.3c-0.3-0.1-0.6-0.3-0.7-0.7c-1.5-1.2-2.8-2.6-4.4-3.6
		v-0.1c-6.6-5.6-17-10.1-28-9.2l0,0c-25.5,3-41.1,20-47.1,42.9c0.4,0.1,0.7-0.1,0.9-0.3c0,0.4-0.6,0.7-1,0.5
		c-0.1,0.9-0.4,1.6-0.5,2.5c0.2,0.7,0.9,0.6,0.2,1.1c0.4-0.3,0.1-0.6-0.3-0.8c-0.5,2-0.8,4.1-1.2,6.1c0.3-0.4,1-0.4,0.7,0.1
		c-0.5-0.4-0.4-0.2-0.7,0.2c-7.2,34.5,22.5,14.4,28,41.9c0.6-0.3-0.1-0.3,0.7-0.4c-0.2,0.4-0.4,1.1-0.5,0.4c0,0.1,0,0.1-0.1,0.1
		c0.2,1.4,0.4,2.8,0.4,4.4c-5.3,2.8,0.3,9.5-0.5,13.9c-1.3,7-7.4,9.2-8.3,16.6c0.9,1.1,1.9,2,3.1,2.7c0.5-0.1-0.5-0.2,0-0.3
		c0.4,0.1,0.6,0.3,0.7,0.8c9.2,6.4,23.8,9.5,37.8,9.6c0-0.3,0.5,0,0.7-0.1c0.2-0.5,0.8-1.3,0.6-0.5c-0.3,0-0.4,0-0.5,0.5
		c0.9-0.1,2.6,0.2,3.4-0.1c-0.3-0.5,0.6-0.6,0-0.1c0.2-0.1,0.4-0.2,0.5-0.3c0,0,0,0,0-0.1c0.4,0,0.8-0.4,1,0
		c-0.2,0.1-0.5-0.1-0.1,0.4c-0.6-0.2-0.5-0.5-0.9-0.3c0.2,0.5-0.2,0-0.3,0.5c5.8-0.3,11-1.3,15.5-3c0.1-0.6,0.2-0.3,0.6-0.4
		c0,0,0,0.1,0.1,0.2c0.8-0.2,1.3-0.6,2.1-0.8c2.7-10.4-2.4-19.3-4.9-27.7c0.5-2.3,1.4-4.7,1.8-7c-0.6,0-0.3,0.7-0.7,0.4
		c0-0.6,0.1-0.1,0.5-0.5c-0.6-0.2-0.2-0.5-0.5-0.5c0.2-0.4,0.4,0.3,0.6,0.3c1.9-14.9,7.4-26.2,22.1-28.3c0.3-0.2,1.4-0.2,1.7,0h0.5
		C131.9,74.7,131.3,64.7,129.3,57.3z M23.7,68.4C23.6,68.4,23.6,68.4,23.7,68.4c-0.2-0.1-0.2,0-0.2,0.1c-0.3-0.1,0.2-0.6-0.1-0.9
		c0-0.1,0.1-0.1,0.1,0c0.1,0,0.1,0,0.1-0.1c0.2,0.2,0,0.4-0.1,0.8c0.1-0.1,0.4-0.1,0.1,0C23.6,68.3,23.6,68.3,23.7,68.4
		C23.7,68.4,23.7,68.4,23.7,68.4z M105.8,145.7c0,0.1-0.1,0.1-0.1,0.1C105.7,145.8,105.7,145.8,105.8,145.7z M126.3,59
		c0.1,0,0.1,0,0.1,0.1c0.1,0,0.1,0,0.1-0.1c0.1,0,0.1,0.1,0,0.1c0,0.1,0.1,0.1,0.1,0.1c-0.1,0.1-0.1,0.4-0.3,0.4
		c0.2,0.3,0.1,0.2-0.1,0.1c0.1-0.1,0.1-0.4,0.3-0.4c0-0.1-0.3-0.1-0.3,0l0,0C126.1,59.3,126.4,59.2,126.3,59z M123.4,48.7
		c0,0,0.1,0.1,0.2,0.1c0,0.3-0.2,0.8,0,0.8c0,0.1-0.1,0.1-0.1,0c-0.1,0-0.1,0-0.1,0.1C123.4,49.3,123.2,49,123.4,48.7
		C123.4,48.7,123.4,48.7,123.4,48.7z M120.3,41.6c0.1,0,0.1,0,0.2,0.1C120.5,41.8,120.3,41.8,120.3,41.6c-0.2,0.1,0,0.5-0.3,0.5
		c0,0.1,0.2,0.3,0.3,0.1c0.2,0.4-0.4,0-0.5-0.1C119.8,41.8,120,41.6,120.3,41.6z M54.4,15.5c0.2-0.5-0.2,0.6,0.1,0.1
		c0.2,0.1-0.1,0.2,0.1,0.3c0.4,0.2-0.7-0.1-0.3,0.3c-0.1,0.4-0.2-0.2-0.4-0.1c-0.3,0.1,0.2-0.2,0.4-0.1l0,0
		C54.3,15.8,54.2,15.6,54.4,15.5z M49.7,89.2c-0.1,0-0.3-0.1-0.2-0.4c-0.4-0.1-0.4,0.3-0.6,0.4c-0.2-0.1,0.5-0.4,0.5-0.7
		c-0.1-0.2-0.2,0-0.3,0.1l0,0c-0.4-0.1,0.2-0.2,0.1-0.4C49.5,88.6,49.3,88.7,49.7,89.2C49.7,89.2,49.7,89.2,49.7,89.2z M75.2,115.9
		c-0.8,0.6-1.8,0.9-2.8,0.9l0,0c-1.3,0-3.4-0.7-3.9-1.8c0.6-1.2,0.6-2.6,0.6-3.8c0,0,0,0,0,0c0.2,0.2-0.2,0.4,0.3,0.5
		c0-0.2-0.1-0.7-0.2-0.8c0,0,0,0,0,0c-0.1,0-0.1,0-0.1,0.1l0-0.2c0.1-0.1,0.2-0.3,0.2-0.3s0,0-0.1,0.1c-0.1,0-0.1,0-0.1,0
		c0-0.2-0.1-0.3-0.1-0.5c1.9-1.3,4.7-0.7,6.7-1.4l0,0c0.2,0.4,0.4,0.7,0.6,1.1l-0.1,0C75.9,111.7,76.8,114.8,75.2,115.9z
		 M63.2,115.9c-2.9,0.5-7.1,0.1-9.2-1.5c0-1.2-0.1-3.4,0.4-4.4c0.7-0.2,0.4-0.3,1-0.8c-0.2-0.4-0.5,0.7-0.8,0.4c0,0,0,0,0,0
		c0.1-0.6,0.5-0.9,0.8-1.3c3,1,6.4,0.4,9,0l0,0.1l0.2,0c0.2,0.4,0.5,0.7,0.8,1l-0.5,0.3l1,2c0,0.8-0.3,1.8-0.2,2.9
		C65.1,115.2,64.2,115.6,63.2,115.9z M55,103.5c0.2-3.3,3.1-4.9,6.3-5l0,0c1.5,0,3.5,0.4,4.1,1.1v1.1l-0.7,0.3
		c0.4,1.6,0.1,2.9-0.3,4.6c0.3,0.2-8,0.1-8.1,0.1C55.4,105.3,54.9,104.4,55,103.5z M75.4,106c-2.9,0.2-5.6,1.1-8.4,0.3
		c0.3-1.4,0.8-2.3,0.9-4c2.6-1.5,6.4-3.3,9.7-2l0.3,3.2c-0.5,0.6-0.9,1-1.3,2C76.1,105.7,75.8,105.9,75.4,106z M86.4,116.7h-0.8
		c0,0,0,0,0,0c-2.1,0.3-5.4,0.4-7.2-0.6c0.9-1.3,1-3.2,0.9-4.7c0.2-0.2,0.3-0.3,0.5-0.3c0-0.5-0.3-0.1-0.5,0.2
		c0-0.3-0.1-0.5-0.1-0.7c0.3,0,0.5,0,0.8,0l0.1,0.1c0.2,0,1,0,1.2,0c-0.1,0.1-0.1,0.1-0.2,0.1l0,0c-0.1,0-0.3-0.1-0.4,0.1
		c0.1,0,0.2,0,0.1,0.1c-0.1,0-0.1,0.1,0,0.1c0-0.5,0.4,0,0.4,0.1c-0.1-0.1,0-0.4,0.1-0.5c1.9,0,4.1,0.1,6-0.2
		c0.1,1.3,0.2,2.7,0.2,3.8l0.2,0.3l-0.2,0.2C87.6,116.1,87.7,116.3,86.4,116.7z M95.5,117.3C95.5,117.3,95.5,117.3,95.5,117.3
		c0,0-1.5,0-1.6,0c0,0,0,0,0,0c-1.6,0-2.6-0.6-3.7-1.2c0.6-1.9,0.3-4.9,0-6.6l0,0c2.8,1.3,6.7,1.4,10.5,2.1
		C100.7,115.1,98.8,117,95.5,117.3z M92.6,104.5c0.6-0.8,1.3-1.5,2.1-2.1c0,0,0,0,0,0c0.2,0,0.4-0.1,0.5-0.3c0,0,0,0,0,0
		c0,0,0,0,0,0c5.2-2.6,7.1,1.5,5.6,6.6c-2.8-0.8-5.6-1.2-8.5-1.8C92.2,106.2,92.3,105.3,92.6,104.5z M87.2,101
		c0.3-0.1,0.5-0.1,0.8-0.1l0,0c3.5,0,1.6,3.7,0.8,5.7l-1.8-0.1l0,0l0.2,1.1c-1.6,0.5-3.1,0-4.9,0l0,0c-0.5,0-2.9,0-3.4,0
		c-0.1-0.2-0.2-0.4-0.1-0.7c1.1-0.9,1.8-2,2.2-3.3C83.4,104.3,85.1,101.6,87.2,101z M61.8,146.2L61.8,146.2
		c-0.5-0.4-0.6-0.4-0.1-0.7c0.2-0.4,0.2,0.4-0.1,0.3c0,0.1,0.1,0.1,0.1,0.3c0.1-0.1,0.2-0.2,0.3-0.4c0.2,0.1-0.1,0.2,0.1,0.3
		C62,146,61.8,146,61.8,146.2z M87.8,149.3c-0.2-0.1-0.3-0.2-0.3-0.4c0.1,0,0.1,0.2,0.1,0.3c0.3,0,0.3-0.4,0-0.4
		c0-0.1,0.1-0.1,0.1,0l0,0c0.1-0.1,0.2-0.1,0.3-0.3c0.1,0,0.1,0.1,0,0.1C88.6,149.2,88,148.7,87.8,149.3z M104.5,142.8
		c-4.9,1.5-10.2,2.6-16.4,2.9c-3.3,0.4-7.2,0.4-10.5,0c-12.3-0.8-22.6-3.7-29.6-9.8c1.8-4.2,6.4-9.1,6.1-13.7c0-0.1,0.2-0.1,0.3-0.1
		c0-0.1-0.2-0.3-0.3-0.1c-0.2-0.1,0.1-0.2-0.1-0.3c0.1-0.3,0.3,0.3,0.5,0.3c-0.1,0.2-0.1,0.3,0.1,0.4c0.4-1.4,0.7-2.9,1-4.4
		c1.8,0.7,4.4,0.6,6.4,0.8l0,0c1.7-0.2,3.9-0.8,4.9-1.7c3.6,3.6,6.8,1.8,10.7,1.4c2.8,1.5,7.1,0.8,10.4,0.8l0.2-0.3
		c0.3-0.1,0.7-0.3,1-0.6c2.4,1.8,7,1.9,10.1,0.9C101.3,126.5,106,132.6,104.5,142.8z M111.9,89.4c-0.2,0-0.4,0-0.6,0.1
		c0,0.1,0.1,0.1,0.1,0.3c-0.2,0.3-0.1-0.4-0.3-0.4l0,0c0-0.1,0.1-0.1,0.1,0c0.6,0,0.5-0.2,0.9,0C112,89.4,112,89.4,111.9,89.4z
		 M127.2,71.7v4.8c-12.1,4.2-21.7,10.9-26,22.9c0,0,0,0,0,0c-2.5-1.7-5.2,0.1-7.7,0.4c-0.1,0.5-0.7,0.7-1,1c0,0-0.1,0-0.1,0
		c-0.6-1.7-2.8-2.5-4.4-2.5v0c-2.4,0-3.8,1.5-5.5,2.6c-0.3-0.3-0.7-0.6-1.1-0.9v-0.5c-1.8-0.8-2.7-1.9-5.1-2.1l0,0
		c-2.5,0-5.5,0-7.5,1.5c-4.2-3.8-9.9-3.8-14.2-1.2c-4.2-8.9-9.2-17.2-19-20.5c-0.4,0.9-0.4,0.4-1.4,0.3c-0.4-0.2,0.7,0,0.8-0.5
		c-8.1-0.5-8.6-5-7.4-12.9c-0.1,0.1-0.4,0.1-0.4,0.3c-0.1,0-0.1-0.1,0-0.1c0-0.1-0.3-0.1-0.3,0c-0.4-0.1,0.3-0.4,0.4-0.1
		c0.2-0.4-0.1-0.3,0.4-0.4c2.7-22.1,11.4-39.4,30.7-49.4c0-0.2-0.1-0.3-0.3-0.4c-0.1-0.2,0.5-0.3,0.1-0.4c0.2-0.1,0.4,0.1,0.6,0.1
		c0.3-0.5-0.1,0.5-0.1,0c-0.1,0-0.1,0.2-0.1,0.3c-0.1,0-0.1-0.2-0.1-0.3c-0.4,0.1-0.1,0.3,0,0.5c1.7-0.7,3.4-1.5,5.3-2
		c0-0.2-0.5-0.4-0.4-0.5c0.1,0,0.6,0.1,0.2-0.2c0.3-0.3,0.3,0.5,0.4,0.5c2-0.3,3.7-1,6-0.9c0.4-0.3,1.2,0,1.7-0.1l0,0
		c0.4,0,1.1-0.2,1.4,0.1c5.5,0.2,10,1.7,13.8,4.9c2.8,0.9,5.6,1.5,8.3,3v-0.3c0.1,0.1,0.2,0.3,0.4,0.3c-0.1-0.1-0.1-0.2-0.1-0.4
		c-0.1,0-0.1-0.1-0.1-0.1c0,0,0.6,0.4,0.3,0.3c0,0.1,0.1,0.1,0.1,0.1c-0.1,0.2-0.2-0.1-0.3,0.1c5,2.8,9.6,6,13.4,10h0.1
		C120,39.2,126.6,53.3,127.2,71.7z"/>
	<path class="st2" d="M114.4,60.3c-0.3-5,1.4-8.9-2.4-13.5c-7-8.3-20.9-6-22.9,4c-0.1,1.7,0.1,4.3-0.2,6c11.5-0.2,10.1-10,20.1,1.6
		c0.5,0.2,0.8,0.6,1.4,0.7v0L114.4,60.3z"/>
	<path class="st2" d="M61.2,95.9C61.2,95.9,61.2,95.9,61.2,95.9L61.2,95.9z"/>
	<path class="st2" d="M69.2,110.8C69.2,110.8,69.2,110.8,69.2,110.8C69.2,110.8,69.2,110.8,69.2,110.8L69.2,110.8z"/>
	<path class="st2" d="M42.9,68.4c-0.9,1-0.2,3.2,1.3,3.1c0.4-0.6,0.4-1.7,0.7-2.5C44.1,69,44,68.3,42.9,68.4z"/>
	<path class="st2" d="M47.4,70.5c-0.7,1.9-0.1,4.6,0.5,6.4c2.3-0.8,1-4.3,0.8-6.4H47.4z"/>
	<path class="st2" d="M109.3,71.7c-0.5,0-0.5-0.5-1.2-0.4c-0.1,3.4-3.1,4.6-2.7,8.1C108,78.1,110.1,74.9,109.3,71.7z"/>
	<path class="st2" d="M113.4,78.1c1.9-0.3,2.5-2.2,2.3-3.9C113.4,73.9,113.8,76.3,113.4,78.1z"/>
	<path class="st2" d="M71.1,51c1.2-7.2-6.4-13.3-13.3-12.8c-11,1.7-14.3,9.6-16.6,16.4l0,0l-0.9,2.7c14,1.6,12.1-11.8,21.6-6
		c1.9,1.3,5.9,2.4,8.7,2.6L71.1,51z"/>
	<path class="st2" d="M79.6,77.6c0.3-3.5-2-6.5-4.7-8.6h0c-1.5,4-4.3,7.6-4.4,12.2c1.4,0,4.5-0.3,5.7,0.2c0,0,3.9,1.5,3.9,1.5
		C80,82,79.7,78.4,79.6,77.6z"/>
	<path class="st2" d="M88.5,76.5c-0.3-3-3.5-5.7-5.9-7.4c-0.8,3.7-0.8,8.3-2.1,11.8c3,1.7,8.5,2.7,9-2.1
		C89.1,78,88.8,77.4,88.5,76.5z"/>
	<path class="st2" d="M87.7,127.4c0.4-0.1,0.5,0.2,0.9,0.1l0,0c0.1-0.4,0.5-0.6,0.7-0.4c-0.2,0-0.1,0.1,0,0.3
		c-0.7-0.2-0.2,0-0.4,0.3c1.1,0.1,2.7-0.1,3.6-0.6C92.3,124.4,87.5,124.7,87.7,127.4z"/>
	<path class="st2" d="M90.9,131.1c-0.5,2.5,3.7,2.5,3.6,0.8C94.5,130.8,92,130.3,90.9,131.1z"/>
</g>
</svg>
