<svg width="135" height="135" viewBox="0 0 135 135" fill="none" xmlns="http://www.w3.org/2000/svg">
<g clip-path="url(#clip0_250_784)">
<rect width="135" height="135" fill="white"/>
<path d="M132.821 67.3304C132.821 103.5 103.5 132.821 67.3302 132.821C31.1607 132.821 1.8396 103.5 1.8396 67.3304C1.8396 31.161 31.1607 1.83984 67.3302 1.83984C103.5 1.83984 132.821 31.161 132.821 67.3304Z" fill="#6DDE00" stroke="black" stroke-width="3"/>
<path fill-rule="evenodd" clip-rule="evenodd" d="M81.4665 99.9001C78.2177 100.055 75.3557 98.0437 72.1843 98.7398C67.5432 98.8172 61.5871 99.9775 57.5648 97.5022C56.5592 98.2757 55.3989 99.2813 53.6972 99.2813C52.3049 99.1266 51.454 98.4304 50.0617 98.5851C49.907 99.436 49.7523 100.132 49.5202 100.828L49.6749 101.447L49.2881 101.525L49.0561 102.453H48.9787C47.8958 105.624 46.3488 108.022 44.8017 110.729C49.6749 114.52 57.1007 116.685 66.3829 117.227L66.4603 117.304C67.6979 117.227 68.6261 117.382 69.9411 117.382C71.2561 117.382 72.1069 117.15 73.2672 117.227L73.3446 117.15C77.3669 117.072 81.0798 116.453 85.2568 115.216C85.9529 108.95 83.323 105.005 81.4665 99.9001Z" fill="white"/>
<path fill-rule="evenodd" clip-rule="evenodd" d="M102.738 60.1413C102.274 56.9698 102.274 53.7211 101.346 50.9364H101.423C99.5669 42.5824 95.5446 35.6981 89.6658 29.974H89.5111C85.4888 25.4876 78.9139 21.2333 72.4164 19.6862C69.3996 17.211 66.3056 15.9733 61.7418 15.9733L61.6644 15.896C61.5097 15.896 61.4324 15.896 61.2777 15.896C61.123 15.896 60.9683 15.896 60.8136 15.896L60.6589 15.9733C59.4986 15.896 58.261 16.0507 57.178 16.2828C54.7801 16.7469 52.4596 17.5977 50.3711 18.8354L51.2219 19.7636L48.9014 19.6862C35.9836 28.1176 30.8784 38.9468 28.5578 56.351H28.4805L28.6352 56.9698H28.4031C28.0937 59.8319 28.4031 62.1524 29.0993 63.0806C30.9558 63.39 32.8895 63.7768 34.746 64.3956V64.473C39.4645 66.3294 42.7132 69.5782 45.2658 73.2911L46.2714 73.4458L45.8847 74.2193C46.9676 75.921 47.8958 77.6228 48.7467 79.4019C51.8408 78.0869 56.4045 78.8604 59.1118 80.5622C62.3606 78.8604 67.0791 79.9433 69.8637 82.1092C72.4164 79.7886 75.2784 80.2527 77.7536 82.496C79.378 82.1092 81.1571 80.2528 83.2456 80.8716C86.4944 73.1364 92.9146 67.567 102.738 64.0089C102.738 63.0806 102.738 60.9921 102.738 60.1413Z" fill="white"/>
<path fill-rule="evenodd" clip-rule="evenodd" d="M76.4387 86.4409C77.0575 79.9433 71.1014 84.8165 68.4714 85.0486C67.2338 84.8165 68.3941 83.2695 67.0017 82.9601C64.0623 80.7169 59.5759 83.6562 57.4101 84.1977C57.178 76.6946 42.1718 83.8883 49.1334 88.6841C47.509 88.452 46.8129 91.0047 46.6582 92.3196C45.2658 97.5796 55.631 97.9663 57.7195 94.7949C58.8024 97.8116 63.8303 97.9663 65.532 95.4911C64.7585 97.889 74.1954 98.2757 74.6596 95.8778C77.1348 100.983 88.9696 95.1817 83.6324 91.082C88.8923 87.1371 81.6986 78.7057 76.4387 86.4409ZM58.0289 90.6179C57.0233 90.5405 56.8686 88.452 55.631 88.6068C56.0178 88.5294 56.3272 88.452 56.6366 88.2973C56.7139 89.6123 59.2665 89.2256 60.2721 89.535C59.3439 89.8444 58.6477 90.2311 58.0289 90.6179ZM63.985 89.0709C66.0735 87.7559 65.8414 88.9935 66.2282 90.6179C65.6094 91.9329 65.4547 88.3747 63.985 89.0709ZM73.2672 90.2311C72.9578 90.2311 72.4164 90.4632 71.9522 90.3085C73.1899 89.9991 75.8198 90.0764 73.2672 90.2311Z" fill="white"/>
<path fill-rule="evenodd" clip-rule="evenodd" d="M105.832 50.2404C105.368 50.3177 105.755 50.4724 105.6 50.5498C105.291 50.3177 105.446 50.0857 105.678 50.0857C105.6 50.0083 105.678 49.931 105.755 49.931C102.738 37.8641 96.3182 29.7421 88.1189 22.3937C87.9642 22.471 87.6548 22.7805 87.6548 22.3937C87.8095 22.6257 87.8868 22.3937 87.9642 22.1616C87.7321 22.0843 87.5001 21.9296 87.4227 21.6202C86.2624 20.692 85.2569 19.609 84.0192 18.8355V18.7582C78.914 14.4265 70.8694 10.9456 62.3607 11.6418C42.636 13.9623 30.5691 27.1122 25.928 44.8257C26.2374 44.9031 26.4695 44.7484 26.6242 44.5937C26.6242 44.9031 26.1601 45.1351 25.8506 44.9804C25.7733 45.6766 25.5412 46.2181 25.4639 46.9142C25.6186 47.4557 26.1601 47.3783 25.6186 47.7651C25.928 47.533 25.6959 47.301 25.3865 47.1463C24.9998 48.6933 24.7677 50.3177 24.4583 51.8648C24.6904 51.5553 25.2318 51.5553 24.9998 51.9421C24.613 51.6327 24.6904 51.7874 24.4583 52.0968C18.889 78.7832 41.8625 63.2355 46.1168 84.5072C46.5809 84.2752 46.0395 84.2752 46.6583 84.1978C46.5036 84.5072 46.3489 85.0487 46.2715 84.5072C46.2715 84.5846 46.2715 84.5846 46.1942 84.5846C46.3489 85.6675 46.5036 86.7504 46.5036 87.9881C42.4039 90.1539 46.7356 95.3365 46.1168 98.74C45.1113 104.155 40.3928 105.856 39.6966 111.58C40.3928 112.431 41.1663 113.127 42.0945 113.669C42.4813 113.592 41.7078 113.514 42.0945 113.437C42.4039 113.514 42.5586 113.669 42.636 114.056C49.7524 119.006 61.0457 121.404 71.875 121.481C71.875 121.249 72.2618 121.481 72.4165 121.404C72.5712 121.017 73.0353 120.399 72.8806 121.017C72.6485 121.017 72.5712 121.017 72.4938 121.404C73.19 121.327 74.505 121.559 75.1238 121.327C74.8917 120.94 75.5879 120.863 75.1238 121.249C75.2785 121.172 75.4332 121.095 75.5105 121.017C75.5105 121.017 75.5105 121.017 75.5105 120.94C75.8199 120.94 76.1294 120.631 76.2841 120.94C76.1294 121.017 75.8973 120.863 76.2067 121.249C75.7426 121.095 75.8199 120.863 75.5105 121.017C75.6652 121.404 75.3558 121.017 75.2785 121.404C79.7649 121.172 83.7872 120.399 87.268 119.084C87.3454 118.619 87.4227 118.851 87.7321 118.774C87.7321 118.774 87.7321 118.851 87.8095 118.929C88.4283 118.774 88.8151 118.465 89.4339 118.31C91.5224 110.265 87.5774 103.381 85.6436 96.8835C86.0304 95.1044 86.7266 93.248 87.036 91.4689C86.5719 91.4689 86.8039 92.0104 86.4945 91.7783C86.4945 91.3142 86.5719 91.701 86.8813 91.3916C86.4172 91.2369 86.7266 91.0048 86.4945 91.0048C86.6492 90.6954 86.8039 91.2369 86.9586 91.2369C88.4283 79.7114 92.6827 70.9707 104.053 69.3463C104.285 69.1916 105.136 69.1916 105.368 69.3463H105.755C107.844 63.6996 107.38 55.9644 105.832 50.2404ZM24.1489 58.8264C24.0716 58.8264 24.0716 58.8264 24.1489 58.8264C23.9942 58.7491 23.9942 58.8264 23.9942 58.9038C23.7621 58.8264 24.1489 58.4397 23.9168 58.2076C23.9168 58.1303 23.9942 58.1303 23.9942 58.2076C24.0716 58.2076 24.0716 58.2076 24.0716 58.1303C24.2263 58.285 24.0716 58.4397 23.9942 58.7491C24.0716 58.6717 24.3036 58.6717 24.0716 58.7491C24.0716 58.7491 24.0716 58.7491 24.1489 58.8264ZM87.6548 118.619C87.6548 118.697 87.5774 118.697 87.5774 118.697C87.5774 118.697 87.5774 118.697 87.6548 118.619ZM103.512 51.5553C103.589 51.5553 103.589 51.5553 103.589 51.6327C103.667 51.6327 103.667 51.6327 103.667 51.5553C103.744 51.5553 103.744 51.6327 103.667 51.6327C103.667 51.7101 103.744 51.7101 103.744 51.7101C103.667 51.7874 103.667 52.0195 103.512 52.0195C103.667 52.2515 103.589 52.1742 103.435 52.0968C103.512 52.0195 103.512 51.7874 103.667 51.7874C103.667 51.7101 103.435 51.7101 103.435 51.7874C103.357 51.7874 103.589 51.7101 103.512 51.5553ZM101.269 43.5881C101.269 43.5881 101.346 43.6655 101.423 43.6655C101.423 43.8975 101.269 44.2843 101.423 44.2843C101.423 44.3616 101.346 44.3616 101.346 44.2843C101.269 44.2843 101.269 44.2843 101.269 44.3616C101.269 44.0522 101.114 43.8202 101.269 43.5881ZM98.8708 38.0961C98.9482 38.0961 98.9482 38.0961 99.0255 38.1735C99.0255 38.2508 98.8708 38.2508 98.8708 38.0961C98.7161 38.1735 98.8708 38.4829 98.6387 38.4829C98.6387 38.5602 98.7935 38.7149 98.8708 38.5602C99.0255 38.8696 98.5614 38.5602 98.484 38.4829C98.484 38.2508 98.6387 38.0961 98.8708 38.0961ZM47.8959 17.9073C48.0506 17.5205 47.7412 18.3714 47.9733 17.9846C48.128 18.062 47.8959 18.1393 48.0506 18.2167C48.36 18.3714 47.5092 18.1393 47.8186 18.4487C47.7412 18.7582 47.6639 18.294 47.5092 18.3714C47.2771 18.4487 47.6639 18.2167 47.8186 18.294C47.8186 18.1393 47.7412 17.9846 47.8959 17.9073ZM44.2604 74.9156C44.183 74.9156 44.0283 74.8383 44.1057 74.6062C43.7963 74.5289 43.7963 74.8383 43.6416 74.9156C43.4869 74.8383 44.0283 74.6062 44.0283 74.3741C43.951 74.2194 43.8736 74.3741 43.7963 74.4515C43.4869 74.3741 43.951 74.2968 43.8736 74.1421C44.1057 74.4515 43.951 74.5288 44.2604 74.9156ZM63.9851 95.5686C63.3663 96.0327 62.5928 96.2647 61.8193 96.2647C60.8137 96.2647 59.1893 95.7233 58.8025 94.8724C59.2666 93.9442 59.2666 92.8612 59.2666 91.933C59.4214 92.0877 59.1119 92.2424 59.4987 92.3198C59.4987 92.1651 59.4214 91.7783 59.344 91.701C59.2666 91.701 59.2666 91.701 59.2666 91.7783V91.6236C59.344 91.5463 59.4214 91.3916 59.4214 91.3916C59.4214 91.3916 59.4214 91.3916 59.344 91.4689C59.2666 91.4689 59.2666 91.4689 59.2666 91.4689C59.2666 91.3142 59.1893 91.2369 59.1893 91.0821C60.659 90.0766 62.8248 90.5407 64.3719 89.9992C64.5266 90.3086 64.6813 90.5407 64.836 90.8501H64.7586C64.5266 92.3198 65.2227 94.7177 63.9851 95.5686ZM54.7029 95.5686C52.4597 95.9553 49.2109 95.6459 47.5865 94.4083C47.5865 93.4801 47.5092 91.7783 47.8959 91.0048C48.4374 90.8501 48.2053 90.7727 48.6694 90.386C48.5147 90.0766 48.2827 90.9274 48.0506 90.6954C48.128 90.2313 48.4374 89.9992 48.6694 89.6898C50.99 90.4633 53.62 89.9992 55.6311 89.6898V89.7672H55.7858C55.9405 90.0766 56.1726 90.3086 56.4046 90.5407L56.0179 90.7727L56.7914 92.3198C56.7914 92.9386 56.5593 93.7121 56.6367 94.563C56.1726 95.0271 55.4764 95.3365 54.7029 95.5686ZM48.36 85.9769C48.5147 83.4243 50.7579 82.1867 53.2332 82.1093C54.3935 82.1093 55.9405 82.4187 56.4046 82.9602V83.8111L55.8632 84.0431C56.1726 85.2808 55.9405 86.2863 55.6311 87.6013C55.8632 87.756 49.443 87.6787 49.3656 87.6787C48.6694 87.3693 48.2827 86.6731 48.36 85.9769ZM64.1398 87.9107C61.8966 88.0654 59.8081 88.7616 57.6423 88.1428C57.8743 87.0599 58.2611 86.3637 58.3384 85.0487C60.3496 83.8884 63.2889 82.4961 65.8416 83.5017L66.0736 85.9769C65.6869 86.441 65.3774 86.7504 65.068 87.524C64.6813 87.6787 64.4492 87.8334 64.1398 87.9107ZM72.6485 96.1874H72.0297C70.4053 96.4194 67.8527 96.4968 66.4604 95.7233C67.1565 94.7177 67.2339 93.248 67.1565 92.0877C67.3112 91.933 67.3886 91.8557 67.5433 91.8557C67.5433 91.4689 67.3112 91.7783 67.1565 92.0104C67.1565 91.7783 67.0792 91.6236 67.0792 91.4689C67.3112 91.4689 67.4659 91.4689 67.698 91.4689L67.7754 91.5463C67.9301 91.5463 68.5489 91.5463 68.7036 91.5463C68.6262 91.6236 68.6262 91.6236 68.5489 91.6236C68.4715 91.6236 68.3168 91.5463 68.2395 91.701C68.3168 91.701 68.3942 91.701 68.3168 91.7783C68.2395 91.7783 68.2395 91.8557 68.3168 91.8557C68.3168 91.4689 68.6262 91.8557 68.6262 91.933C68.5489 91.8557 68.6262 91.6236 68.7036 91.5463C70.1733 91.5463 71.875 91.6236 73.3447 91.3916C73.422 92.3971 73.4994 93.4801 73.4994 94.3309L73.6541 94.563L73.4994 94.7177C73.5767 95.7233 73.6541 95.878 72.6485 96.1874ZM79.6875 96.6515C79.6875 96.6515 78.5273 96.6515 78.4499 96.6515C77.2123 96.6515 76.4388 96.1874 75.5879 95.7233C76.052 94.2536 75.8199 91.933 75.5879 90.618C77.7537 91.6236 80.7705 91.701 83.7098 92.2424C83.7098 94.9497 82.2402 96.4194 79.6875 96.6515ZM77.4443 86.7504C77.9084 86.1316 78.4499 85.5902 79.0687 85.1261C79.2234 85.1261 79.3781 85.0487 79.4555 84.894C83.4778 82.8829 84.9475 86.0543 83.7872 89.9992C81.6213 89.3804 79.4555 89.071 77.2123 88.6069C77.1349 88.0654 77.2123 87.3693 77.4443 86.7504ZM73.2673 84.0431C73.4994 83.9658 73.6541 83.9658 73.8862 83.9658C76.5935 83.9658 75.1238 86.8278 74.505 88.3748L73.1126 88.2975L73.2673 89.1484C72.0297 89.5351 70.8694 89.1484 69.4771 89.1484C69.0903 89.1484 67.2339 89.1484 66.8471 89.1484C66.7698 88.9936 66.6924 88.8389 66.7698 88.6069C67.6207 87.9107 68.1621 87.0599 68.4715 86.0543C70.328 86.5957 71.6429 84.5072 73.2673 84.0431ZM53.62 119.006C53.2332 118.697 53.1559 118.697 53.5426 118.465C53.6973 118.155 53.6973 118.774 53.4653 118.697C53.4653 118.774 53.5426 118.774 53.5426 118.929C53.62 118.851 53.6973 118.774 53.7747 118.619C53.9294 118.697 53.6973 118.774 53.852 118.851C53.7747 118.851 53.62 118.851 53.62 119.006ZM73.7314 121.404C73.5767 121.327 73.4994 121.249 73.4994 121.095C73.5767 121.095 73.5767 121.249 73.5767 121.327C73.8088 121.327 73.8088 121.017 73.5767 121.017C73.5767 120.94 73.6541 120.94 73.6541 121.017C73.7314 120.94 73.8088 120.94 73.8862 120.785C73.9635 120.785 73.9635 120.863 73.8862 120.863C74.3503 121.327 73.8862 120.94 73.7314 121.404ZM86.6492 116.376C82.859 117.536 78.7593 118.387 73.9635 118.619C71.4109 118.929 68.3942 118.929 65.8416 118.619C56.3273 118.001 48.36 115.757 42.9454 111.039C44.3377 107.79 47.8959 104 47.6639 100.442C47.6639 100.364 47.8186 100.364 47.8959 100.364C47.8959 100.287 47.7412 100.132 47.6639 100.287C47.5092 100.21 47.7412 100.132 47.5865 100.055C47.6639 99.8229 47.8186 100.287 47.9733 100.287C47.8959 100.442 47.8959 100.519 48.0506 100.596C48.36 99.5135 48.5921 98.3532 48.8241 97.1929C50.2165 97.7344 52.2276 97.6571 53.7747 97.8118C55.0896 97.6571 56.7914 97.1929 57.5649 96.4968C60.3496 99.2814 62.8248 97.8891 65.8416 97.5797C68.0074 98.74 71.3335 98.1985 73.8862 98.1985L74.0409 97.9665C74.2729 97.8891 74.5823 97.7344 74.8144 97.5024C76.6708 98.8947 80.229 98.972 82.6269 98.1985C84.174 103.768 87.8095 108.486 86.6492 116.376ZM92.3732 75.0703C92.2185 75.0703 92.0638 75.0703 91.9091 75.1477C91.9091 75.225 91.9865 75.225 91.9865 75.3797C91.8318 75.6118 91.9091 75.0703 91.7544 75.0703C91.7544 74.993 91.8318 74.993 91.8318 75.0703C92.2959 75.0703 92.2185 74.9156 92.5279 75.0703C92.4506 75.0703 92.4506 75.0703 92.3732 75.0703ZM104.208 61.379V65.0919C94.8485 68.3407 87.4227 73.5233 84.0966 82.8055C82.1628 81.4905 80.0743 82.8829 78.1405 83.1149C78.0632 83.5017 77.599 83.6564 77.367 83.8884H77.2896C76.8255 82.5734 75.1238 81.9546 73.8862 81.9546C72.0297 81.9546 70.9468 83.1149 69.6318 83.9658C69.3997 83.7337 69.0903 83.5017 68.7809 83.2696V82.8829C67.3886 82.264 66.6924 81.4132 64.836 81.2585C62.9022 81.2585 60.5816 81.2585 59.0346 82.4187C55.7858 79.4794 51.3768 79.4794 48.0506 81.4905C44.8019 74.6062 40.9343 68.186 33.3538 65.6334C33.0444 66.3295 33.0444 65.9428 32.2708 65.8654C31.9614 65.7107 32.8123 65.8654 32.8897 65.4787C26.6242 65.0919 26.2374 61.6111 27.1656 55.5003C27.0883 55.5776 26.8562 55.5776 26.8562 55.7323C26.7789 55.7323 26.7789 55.655 26.8562 55.655C26.8562 55.5776 26.6242 55.5776 26.6242 55.655C26.3148 55.5776 26.8562 55.3456 26.9336 55.5776C27.0883 55.2682 26.8562 55.3456 27.243 55.2682C29.3315 38.1735 36.0611 24.7916 50.99 17.0564C50.99 16.9017 50.9126 16.8244 50.7579 16.747C50.6806 16.5923 51.1447 16.515 50.8353 16.4376C50.99 16.3602 51.1447 16.515 51.2994 16.515C51.5315 16.1282 51.2221 16.9017 51.2221 16.515C51.1447 16.515 51.1447 16.6697 51.1447 16.747C51.0674 16.747 51.0674 16.5923 51.0674 16.515C50.7579 16.5923 50.99 16.747 51.0674 16.9017C52.3823 16.3602 53.6973 15.7414 55.167 15.3547C55.167 15.2 54.7802 15.0453 54.8576 14.9679C54.9349 14.9679 55.3217 15.0453 55.0123 14.8132C55.2444 14.5812 55.2444 15.2 55.3217 15.2C56.8687 14.9679 58.1837 14.4265 59.9628 14.5038C60.2722 14.2717 60.891 14.5038 61.2778 14.4264C61.5872 14.4264 62.1287 14.2717 62.3607 14.5038C66.6151 14.6585 70.0959 15.8188 73.0353 18.294C75.2011 18.9902 77.367 19.4543 79.4555 20.6146V20.3825C79.5328 20.4599 79.6102 20.6146 79.7649 20.6146C79.6875 20.5372 79.6875 20.4599 79.6875 20.3052C79.6102 20.3052 79.6102 20.2278 79.6102 20.2278C79.6102 20.2278 80.0743 20.5372 79.8422 20.4599C79.8422 20.5372 79.9196 20.5372 79.9196 20.5372C79.8422 20.692 79.7649 20.4599 79.6875 20.6146C83.5551 22.7805 87.1133 25.2557 90.0527 28.3498H90.13C98.6387 36.2397 103.744 47.1463 104.208 61.379Z" fill="#010101"/>
<path fill-rule="evenodd" clip-rule="evenodd" d="M94.307 52.5609C94.075 48.6933 95.39 45.6766 92.4506 42.1184C87.036 35.6982 76.2841 37.4773 74.737 45.2125C74.6597 46.5275 74.8144 48.5386 74.5823 49.8536C83.4778 49.6989 82.3949 42.1184 90.13 51.0912C90.5168 51.2459 90.7489 51.5553 91.213 51.6327L94.307 52.5609Z" fill="#010101"/>
<path fill-rule="evenodd" clip-rule="evenodd" d="M39.0005 58.8264C38.3043 59.5999 38.8458 61.3017 40.006 61.2243C40.3154 60.7602 40.3154 59.9093 40.5475 59.2905C39.9287 59.2905 39.8513 58.7491 39.0005 58.8264Z" fill="#010101"/>
<path fill-rule="evenodd" clip-rule="evenodd" d="M42.4813 60.4508C41.9398 61.9205 42.4039 64.009 42.8681 65.4013C44.6471 64.7825 43.6416 62.0752 43.4869 60.4508H42.4813Z" fill="#010101"/>
<path fill-rule="evenodd" clip-rule="evenodd" d="M90.3621 61.379C89.9753 61.379 89.9753 60.9923 89.4339 61.0696C89.3565 63.6996 87.036 64.6278 87.3454 67.3351C89.3565 66.3296 90.9809 63.8543 90.3621 61.379Z" fill="#010101"/>
<path fill-rule="evenodd" clip-rule="evenodd" d="M93.5335 66.3296C95.0032 66.0975 95.4673 64.6278 95.3126 63.3128C93.5335 63.0808 93.8429 64.9372 93.5335 66.3296Z" fill="#010101"/>
<path fill-rule="evenodd" clip-rule="evenodd" d="M60.8137 45.3672C61.7419 39.7979 55.8632 35.0794 50.5259 35.4662C42.0172 36.7811 39.4646 42.8919 37.6855 48.1519L36.9893 50.2404C47.8186 51.478 46.3489 41.1128 53.6973 45.5993C55.167 46.6048 58.2611 47.4557 60.4269 47.6104L60.8137 45.3672Z" fill="#010101"/>
<path fill-rule="evenodd" clip-rule="evenodd" d="M67.3886 65.9428C67.6206 63.2355 65.8416 60.9149 63.7531 59.2905C62.5928 62.3846 60.4269 65.1693 60.3496 68.7275C61.4325 68.7275 63.8304 68.4954 64.7586 68.8822L67.7754 70.0424C67.698 69.3463 67.4659 66.5616 67.3886 65.9428Z" fill="#010101"/>
<path fill-rule="evenodd" clip-rule="evenodd" d="M74.2729 65.0919C74.0409 62.7714 71.5656 60.6829 69.7091 59.3679C69.0903 62.2299 69.0903 65.7881 68.0848 68.4954C70.4053 69.8104 74.6597 70.5839 75.0464 66.871C74.737 66.2522 74.505 65.7881 74.2729 65.0919Z" fill="#010101"/>
<path fill-rule="evenodd" clip-rule="evenodd" d="M73.6541 104.464C73.9635 104.387 74.0409 104.619 74.3503 104.541C74.4276 104.232 74.737 104.077 74.8917 104.232C74.737 104.232 74.8144 104.309 74.8917 104.464C74.3503 104.309 74.737 104.464 74.5823 104.696C75.4332 104.773 76.6708 104.619 77.367 104.232C77.2123 102.143 73.4994 102.376 73.6541 104.464Z" fill="#010101"/>
<path fill-rule="evenodd" clip-rule="evenodd" d="M76.1294 107.326C75.7426 109.26 78.9914 109.26 78.914 107.945C78.914 107.094 76.9802 106.707 76.1294 107.326Z" fill="#010101"/>
</g>
<defs>
<clipPath id="clip0_250_784">
<rect width="135" height="135" fill="white"/>
</clipPath>
</defs>
</svg>
