<?xml version="1.0" encoding="utf-8"?>
<svg version="1.1" id="Layer_1" xmlns="http://www.w3.org/2000/svg" xmlns:xlink="http://www.w3.org/1999/xlink" x="0px" y="0px" width="135px" height="135px"
	 viewBox="0 0 135 135" style="enable-background:new 0 0 135 135;" xml:space="preserve">
<style type="text/css">
	.st0{clip-path:url(#SVGID_00000174587156307634693020000013796964152156695706_);}
	.st1{fill:#6DDE00;stroke:#000000;stroke-width:3;}
	.st2{fill-rule:evenodd;clip-rule:evenodd;fill:#FFFFFF;}
	.st3{fill-rule:evenodd;clip-rule:evenodd;fill:#010101;}
</style>
<g>
	<defs>
		<rect id="SVGID_1_" width="135" height="135"/>
	</defs>
	<clipPath id="SVGID_00000083770731144380111870000003939537340038118069_">
		<use xlink:href="#SVGID_1_"  style="overflow:visible;"/>
	</clipPath>
	<g style="clip-path:url(#SVGID_00000083770731144380111870000003939537340038118069_);">
		<path class="st1" d="M132.8,67.3c0,36.2-29.3,65.5-65.5,65.5c-36.2,0-65.5-29.3-65.5-65.5c0-36.2,29.3-65.5,65.5-65.5
			C103.5,1.8,132.8,31.2,132.8,67.3z"/>
		<g>
			<path class="st2" d="M72.2,98.7c-4.6,0.1-10.6,1.2-14.6-1.2c-2.2,2.4-4.7,1.5-7.5,1.1c-0.2,0.9-0.3,1.5-0.5,2.2l0.2,0.6l-0.4,0.1
				l-0.2,0.9H49c-1.1,3.2-2.6,5.6-4.2,8.3c4.9,3.8,12.3,6,21.6,6.5l0.1,0.1c2.2,0.1,4.6,0,6.8-0.1l0.1-0.1c4-0.1,7.7-0.7,11.9-1.9
				c0.7-6.3-1.9-10.2-3.8-15.3C78.2,100.1,75.4,98,72.2,98.7z"/>
			<path class="st2" d="M101.3,50.9L101.3,50.9c-1.8-8.4-5.8-15.2-11.7-21h-0.2c-6-6.3-17.1-15.3-27.8-14l-0.1-0.1
				c-0.3,0-0.7-0.1-1,0.1c-3.6-0.1-7.2,1.1-10.3,2.9l0.9,0.9l-2.3-0.1c-12.9,8.4-18,19.3-20.3,36.7h-0.1l0.2,0.6h-0.2
				c-0.3,2.9,0,5.2,0.7,6.1c1.9,0.3,3.8,0.7,5.6,1.3v0.1c4.7,1.9,8,5.1,10.5,8.8l1,0.2l-0.4,0.8c1.1,1.7,2,3.4,2.9,5.2
				c3.1-1.3,7.7-0.5,10.4,1.2c3.2-1.7,8-0.6,10.8,1.5c2.6-2.3,5.4-1.9,7.9,0.4c1.6-0.4,3.4-2.2,5.5-1.6c3.2-7.7,9.7-13.3,19.5-16.9
				C102.8,59.7,102.5,54.9,101.3,50.9z"/>
			<path class="st2" d="M76.4,86.4c0.6-6.5-5.3-1.6-8-1.4c-1.2-0.2-0.1-1.8-1.5-2.1c-2.9-2.2-7.4,0.7-9.6,1.2
				c-0.2-7.5-15.2-0.3-8.3,4.5c-1.6-0.2-2.3,2.3-2.5,3.6c-1.4,5.3,9,5.6,11.1,2.5c1.1,3,6.1,3.2,7.8,0.7c-0.8,2.4,8.7,2.8,9.1,0.4
				c2.5,5.1,14.3-0.7,9-4.8C88.9,87.1,81.7,78.7,76.4,86.4z M58,90.6c-1-0.1-1.2-2.2-2.4-2c0.4-0.1,0.7-0.2,1-0.3
				c0.1,1.3,2.6,0.9,3.6,1.2C59.3,89.8,58.6,90.2,58,90.6z M64,89.1c2.1-1.3,1.9-0.1,2.2,1.5C65.6,91.9,65.5,88.4,64,89.1z
				 M73.3,90.2c-0.3,0-0.9,0.2-1.3,0.1C73.2,90,75.8,90.1,73.3,90.2z"/>
		</g>
		<g>
			<path class="st3" d="M53.6,119C53.6,119,53.6,119,53.6,119C53.6,119,53.6,119,53.6,119C53.6,119,53.6,119,53.6,119z"/>
			<path class="st3" d="M68.3,91.8C68.3,91.8,68.3,91.8,68.3,91.8C68.2,91.8,68.2,91.9,68.3,91.8C68.3,91.8,68.3,91.8,68.3,91.8z"/>
			<path class="st3" d="M105.8,50.2c-0.5,0.1-0.1,0.2-0.2,0.3c-0.3-0.2-0.2-0.5,0.1-0.5c-0.1-0.1,0-0.2,0.1-0.2
				c-3-12.1-9.4-20.2-17.6-27.5c-0.2,0.1-0.5,0.4-0.5,0c0.2,0.2,0.2,0,0.3-0.2c-0.2-0.1-0.5-0.2-0.5-0.5c-1.2-0.9-2.2-2-3.4-2.8
				v-0.1c-5.1-4.3-13.1-7.8-21.7-7.1C42.6,14,30.6,27.1,25.9,44.8c0.3,0.1,0.5-0.1,0.7-0.2c0,0.3-0.5,0.5-0.8,0.4
				c-0.1,0.7-0.3,1.2-0.4,1.9c0.2,0.5,0.7,0.5,0.2,0.9c0.3-0.2,0.1-0.5-0.2-0.6c-0.4,1.5-0.6,3.2-0.9,4.7c0.2-0.3,0.8-0.3,0.5,0.1
				c-0.4-0.3-0.3-0.2-0.5,0.2C19,78.4,41.1,63.7,45.9,83.5c-0.1,0.2-0.2,0.5-0.3,0.7c-0.4,1-0.4,2.2,0.1,3.3
				c0.1,0.3,0.2,0.5,0.4,0.8c0,0,0,0,0,0c-1.1,0.8-1.4,1.9-1.2,3.2c0,0.1-0.1,0.3-0.1,0.4c-0.5,1.9,0.1,3.6,1.4,4.8
				c0.1,0.7,0.2,1.4,0.1,2c-1,5.4-5.7,7.1-6.4,12.8c0.7,0.9,1.5,1.5,2.4,2.1c0.4-0.1-0.4-0.2,0-0.2c0.3,0.1,0.5,0.2,0.5,0.6
				c3,2.1,6.8,3.7,11,4.9c-0.4-0.3-0.4-0.3-0.1-0.5c0.2-0.3,0.2,0.3-0.1,0.2c0,0.1,0.1,0.1,0.1,0.2c0.1-0.1,0.2-0.2,0.2-0.3
				c0.2,0.1-0.1,0.2,0.1,0.2c-0.1,0-0.2,0-0.2,0.1c5.7,1.6,12,2.4,18.3,2.5c0-0.2,0.4,0,0.5-0.1c0.2-0.4,0.6-1,0.5-0.4
				c-0.2,0-0.3,0-0.4,0.4c0.7-0.1,2,0.2,2.6-0.1c-0.2-0.4,0.5-0.5,0-0.1c0.2-0.1,0.3-0.2,0.4-0.2c0,0,0,0,0-0.1c0.3,0,0.6-0.3,0.8,0
				c-0.2,0.1-0.4-0.1-0.1,0.3c-0.5-0.2-0.4-0.4-0.7-0.2c0.2,0.4-0.2,0-0.2,0.4c4.5-0.2,8.5-1,12-2.3c0.1-0.5,0.2-0.2,0.5-0.3
				c0,0,0,0.1,0.1,0.2c0.6-0.2,1-0.5,1.6-0.6c2.1-8-1.9-14.9-3.8-21.4c0-0.1,0-0.2,0.1-0.3c0.4-0.5,0.8-1,1-1.6
				c0.3-0.8,0.4-1.7,0.1-2.7c0.1-0.3,0.1-0.6,0.2-0.9c-0.3,0-0.3,0.2-0.4,0.3c0-0.1-0.1-0.2-0.1-0.3c0.1,0,0.2,0,0.3-0.1
				c-0.5-0.2-0.2-0.4-0.4-0.4c0.2-0.3,0.3,0.2,0.5,0.2c0.1-0.7,0.2-1.4,0.3-2.1c0.1-0.3,0.1-0.6,0.2-0.9c1.8-10,6.3-17.4,16.6-18.9
				c0.2-0.2,1.1-0.2,1.3,0h0.4C107.8,63.7,107.4,56,105.8,50.2z M24.1,58.8c-0.2-0.1-0.2,0-0.2,0.1c-0.2-0.1,0.2-0.5-0.1-0.7
				c0-0.1,0.1-0.1,0.1,0c0.1,0,0.1,0,0.1-0.1c0.2,0.2,0,0.3-0.1,0.6C24.1,58.7,24.3,58.7,24.1,58.8C24.1,58.7,24.1,58.7,24.1,58.8z
				 M87.7,118.6C87.7,118.7,87.6,118.7,87.7,118.6C87.6,118.7,87.6,118.7,87.7,118.6z M101.3,43.6c0,0,0.1,0.1,0.2,0.1
				c0,0.1,0,0.2,0,0.3C101.3,43.9,101.3,43.7,101.3,43.6C101.3,43.6,101.3,43.6,101.3,43.6z M98.9,38.1c0.1,0,0.1,0,0.2,0.1
				C99,38.3,98.9,38.3,98.9,38.1c-0.1,0.1-0.1,0.2-0.1,0.3c0-0.1-0.1-0.2-0.1-0.2C98.7,38.1,98.8,38.1,98.9,38.1z M98.9,38.7
				C98.9,38.6,98.9,38.6,98.9,38.7c0-0.1,0-0.1,0-0.1C98.9,38.6,98.9,38.7,98.9,38.7z M47.9,17.9C48,17.7,47.9,17.8,47.9,17.9
				L47.8,18C47.8,18,47.8,17.9,47.9,17.9z M32.3,65.9C32.2,65.8,32.2,65.8,32.3,65.9c0.3,0,0.6,0,0.9,0.1
				C33,66.1,32.8,65.9,32.3,65.9z M43.6,74.9c-0.1,0,0-0.1,0.2-0.2l0,0C43.8,74.8,43.7,74.9,43.6,74.9z M73.7,121.4
				c-0.1,0-0.1-0.1-0.1-0.1c0,0,0,0,0,0c0,0,0,0,0,0c0-0.1-0.1-0.1-0.1-0.2c0.1,0,0.1,0.1,0.1,0.2c0,0,0,0,0,0c0.2,0,0.2-0.3,0-0.3
				c0-0.1,0.1-0.1,0.1,0c0.1-0.1,0.2-0.1,0.2-0.2c0.1,0,0.1,0.1,0,0.1C74.4,121.3,73.9,120.9,73.7,121.4z M85.3,115.2
				c-4.2,1.2-7.9,1.9-11.9,1.9l-0.1,0.1c-0.6,0-1.2,0-1.8,0.1c-0.5,0-1,0.1-1.6,0.1c-0.5,0-1,0-1.5-0.1c-0.7,0-1.3-0.1-2,0l-0.1-0.1
				c-9.3-0.5-16.7-2.7-21.6-6.5c0.3-0.4,0.5-0.9,0.8-1.3c1.3-2.2,2.5-4.3,3.4-7h0.1l0.2-0.9l0.4-0.1l-0.2-0.6c0,0,0,0,0-0.1
				c0.2-0.7,0.4-1.3,0.5-2.2c0,0,0,0,0,0c0.7-0.1,1.2,0.1,1.8,0.2c0.1,0,0.2,0.1,0.3,0.1c0.5,0.1,0.9,0.3,1.5,0.4
				c1.6,0,2.7-0.8,3.6-1.6c0,0,0,0,0,0l0,0c0.1-0.1,0.1-0.1,0.2-0.2c0,0,0,0,0,0c1.7,1,3.7,1.4,5.8,1.5c1.1,0.1,2.2,0,3.2,0
				c0.8,0,1.6-0.1,2.3-0.1c1.1-0.1,2.2-0.1,3.2-0.2c0.7-0.2,1.5-0.2,2.2-0.1c0.1,0,0.2,0,0.2,0c0.9,0.1,1.8,0.3,2.7,0.6
				c0.8,0.2,1.6,0.4,2.4,0.5c0.6,0.1,1.2,0.1,1.8,0.1c0.4,1.2,0.9,2.3,1.3,3.3C84.3,106.9,85.8,110.4,85.3,115.2z M48.1,90.7
				c0.1-0.5,0.4-0.7,0.6-1c2.3,0.8,5,0.3,7,0v0.1h0.2c0.2,0.3,0.4,0.5,0.6,0.8L56,90.8l0.8,1.5c0,0.6-0.2,1.4-0.2,2.2
				c-0.5,0.5-1.2,0.8-1.9,1c-2.2,0.4-5.5,0.1-7.1-1.2c0-0.9-0.1-2.6,0.3-3.4c0.5-0.2,0.3-0.2,0.8-0.6C48.5,90.1,48.3,90.9,48.1,90.7
				z M55.6,87.6c0.2,0.2-6.2,0.1-6.3,0.1c-0.7-0.3-1.1-1-1-1.7c0.2-2.6,2.4-3.8,4.9-3.9c1.2,0,2.7,0.3,3.2,0.9v0.9L55.9,84
				C56.2,85.3,55.9,86.3,55.6,87.6z M47.6,100L47.6,100C47.6,100.1,47.6,100.1,47.6,100C47.6,100,47.6,100,47.6,100z M64,95.6
				c-0.6,0.5-1.4,0.7-2.2,0.7c-1,0-2.6-0.5-3-1.4c0.5-0.9,0.5-2,0.5-2.9c0.2,0.2-0.2,0.3,0.2,0.4c0-0.2-0.1-0.5-0.2-0.6
				c-0.1,0-0.1,0-0.1,0.1v-0.2c0.1-0.1,0.2-0.2,0.2-0.2s0,0-0.1,0.1c-0.1,0-0.1,0-0.1,0c0-0.2-0.1-0.2-0.1-0.4
				c1.5-1,3.6-0.5,5.2-1.1c0.2,0.3,0.3,0.5,0.5,0.9h-0.1C64.5,92.3,65.2,94.7,64,95.6z M64.1,87.9c-2.2,0.2-4.3,0.9-6.5,0.2
				c0.2-1.1,0.6-1.8,0.7-3.1c2-1.2,5-2.6,7.5-1.5l0.2,2.5c-0.4,0.5-0.7,0.8-1,1.5C64.7,87.7,64.4,87.8,64.1,87.9z M73.3,89.1
				c-1.2,0.4-2.4,0-3.8,0c-0.4,0-2.2,0-2.6,0c-0.1-0.2-0.2-0.3-0.1-0.5c0.9-0.7,1.4-1.5,1.7-2.6c1.9,0.5,3.2-1.5,4.8-2
				c0.2-0.1,0.4-0.1,0.6-0.1c2.7,0,1.2,2.9,0.6,4.4l-1.4-0.1L73.3,89.1z M67.2,92.1c0.2-0.2,0.2-0.2,0.4-0.2
				C67.5,91.5,67.3,91.8,67.2,92.1c0-0.3-0.1-0.5-0.1-0.6c0.2,0,0.4,0,0.6,0l0.1,0.1c0.2,0,0.8,0,0.9,0c1.5,0,3.2,0.1,4.6-0.2
				c0.1,1,0.2,2.1,0.2,2.9l0.2,0.2l-0.2,0.2c0.1,1,0.2,1.2-0.9,1.5H72c-1.6,0.2-4.2,0.3-5.6-0.5C67.2,94.7,67.2,93.2,67.2,92.1z
				 M75.6,90.6c2.2,1,5.2,1.1,8.1,1.6c0,2.7-1.5,4.2-4,4.4c0,0-1.2,0-1.2,0c-1.2,0-2-0.5-2.9-0.9C76.1,94.3,75.8,91.9,75.6,90.6z
				 M77.4,86.8c0.5-0.6,1-1.2,1.6-1.6c0.2,0,0.3-0.1,0.4-0.2c4-2,5.5,1.2,4.3,5.1c-2.2-0.6-4.3-0.9-6.6-1.4
				C77.1,88.1,77.2,87.4,77.4,86.8z M92.4,75.1c-0.2,0-0.3,0-0.5,0.1c0,0.1,0.1,0.1,0.1,0.2c-0.2,0.2-0.1-0.3-0.2-0.3
				c0-0.1,0.1-0.1,0.1,0c0.5,0,0.4-0.2,0.7,0C92.5,75.1,92.5,75.1,92.4,75.1z M102.7,64c-9.8,3.6-16.2,9.1-19.5,16.9
				c-1.1-0.3-2.1,0-3.1,0.5c-0.2,0.1-0.5,0.2-0.7,0.4c-0.6,0.3-1.2,0.6-1.7,0.8c0,0-0.1-0.1-0.1-0.1c-0.1-0.1-0.2-0.2-0.3-0.2
				c-0.4-0.3-0.8-0.6-1.2-0.8c-2.1-1.2-4.3-1.1-6.3,0.7c-2.8-2.2-7.5-3.2-10.8-1.5c-2.7-1.7-7.3-2.5-10.4-1.2
				c-0.8-1.7-1.7-3.3-2.6-4.8c-0.1-0.1-0.1-0.2-0.2-0.3l0.4-0.8l-1-0.2c-0.1-0.2-0.2-0.4-0.4-0.5c-2.5-3.5-5.7-6.5-10.1-8.3v-0.1
				c-1.9-0.6-3.8-1-5.6-1.3c-0.7-0.9-1-3.2-0.7-6.1c0,0,0,0,0-0.1h0.2l-0.2-0.6h0.1c0,0,0,0,0,0c0-0.2,0-0.4,0.1-0.6
				c2.3-16.9,7.4-27.6,20-35.9c0.1-0.1,0.2-0.1,0.3-0.2l2.3,0.1l-0.9-0.9c0.3-0.2,0.6-0.3,0.9-0.5c0.3-0.2,0.6-0.3,0.9-0.5
				c1.6-0.7,3.3-1.3,5-1.6c1.1-0.2,2.3-0.4,3.5-0.3l0.2-0.1h0.9l0.1,0.1c4.6,0,7.7,1.2,10.7,3.7c6.5,1.5,13.1,5.8,17.1,10.3h0.2
				c5.4,5.3,9.2,11.5,11.3,19c0.1,0.5,0.3,1.1,0.4,1.7c0,0.1,0,0.2,0.1,0.3c0,0,0,0,0,0h-0.1c0,0,0,0,0,0c0,0.1,0,0.1,0.1,0.2
				c0.2,0.6,0.3,1.2,0.4,1.8c0.3,1.3,0.4,2.7,0.5,4.1c0.1,1,0.2,2.1,0.4,3.1V64z M103.7,51.8L103.7,51.8
				C103.7,51.8,103.7,51.8,103.7,51.8C103.7,51.8,103.7,51.8,103.7,51.8l0-0.2c0,0,0,0,0-0.1c0.1,0,0.1,0.1,0,0.1
				c0,0.1,0.1,0.1,0.1,0.1C103.7,51.7,103.7,51.8,103.7,51.8z"/>
			<path class="st3" d="M68.2,91.7c0.1,0,0.1,0,0.1,0c0.1-0.1,0.2,0.1,0.3,0.2c0-0.1,0-0.3,0.1-0.3c-0.1,0.1-0.1,0.1-0.2,0.1
				C68.5,91.6,68.3,91.5,68.2,91.7z"/>
			<path class="st3" d="M92.5,42.1c-5.4-6.4-16.2-4.6-17.7,3.1c-0.1,1.3,0.1,3.3-0.2,4.6c8.9-0.2,7.8-7.7,15.5,1.2
				c0.4,0.2,0.6,0.5,1.1,0.5l3.1,0.9C94.1,48.7,95.4,45.7,92.5,42.1z"/>
			<path class="st3" d="M39,58.8c-0.7,0.8-0.2,2.5,1,2.4c0.3-0.5,0.3-1.3,0.5-1.9C39.9,59.3,39.9,58.7,39,58.8z"/>
			<path class="st3" d="M42.5,60.5c-0.5,1.5-0.1,3.6,0.4,5c1.8-0.6,0.8-3.3,0.6-5H42.5z"/>
			<path class="st3" d="M89.4,61.1c-0.1,2.6-2.4,3.6-2.1,6.3c2-1,3.6-3.5,3-6C90,61.4,90,61,89.4,61.1z"/>
			<path class="st3" d="M93.5,66.3c1.5-0.2,1.9-1.7,1.8-3C93.5,63.1,93.8,64.9,93.5,66.3z"/>
			<path class="st3" d="M60.8,45.4c0.9-5.6-5-10.3-10.3-9.9c-8.5,1.3-11.1,7.4-12.8,12.7L37,50.2c10.8,1.2,9.4-9.1,16.7-4.6
				c1.5,1,4.6,1.9,6.7,2L60.8,45.4z"/>
			<path class="st3" d="M63.8,59.3c-1.2,3.1-3.3,5.9-3.4,9.4c1.1,0,3.5-0.2,4.4,0.2l3,1.2c-0.1-0.7-0.3-3.5-0.4-4.1
				C67.6,63.2,65.8,60.9,63.8,59.3z"/>
			<path class="st3" d="M69.7,59.4c-0.6,2.9-0.6,6.4-1.6,9.1c2.3,1.3,6.6,2.1,7-1.6c-0.3-0.6-0.5-1.1-0.8-1.8
				C74,62.8,71.6,60.7,69.7,59.4z"/>
			<path class="st3" d="M73.7,104.5c0.3-0.1,0.4,0.2,0.7,0.1c0.1-0.3,0.4-0.5,0.5-0.3c-0.2,0-0.1,0.1,0,0.2c-0.5-0.2-0.2,0-0.3,0.2
				c0.9,0.1,2.1-0.1,2.8-0.5C77.2,102.1,73.5,102.4,73.7,104.5z"/>
			<path class="st3" d="M76.1,107.3c-0.4,1.9,2.9,1.9,2.8,0.6C78.9,107.1,77,106.7,76.1,107.3z"/>
		</g>
	</g>
</g>
</svg>
